<?xml version="1.0" encoding="utf-8" standalone="no"?>
<!DOCTYPE svg PUBLIC "-//W3C//DTD SVG 1.1//EN"
  "http://www.w3.org/Graphics/SVG/1.1/DTD/svg11.dtd">
<svg xmlns:xlink="http://www.w3.org/1999/xlink" width="614.771875pt" height="361.310903pt" viewBox="0 0 614.771875 361.310903" xmlns="http://www.w3.org/2000/svg" version="1.1">
 <metadata>
  <rdf:RDF xmlns:dc="http://purl.org/dc/elements/1.1/" xmlns:cc="http://creativecommons.org/ns#" xmlns:rdf="http://www.w3.org/1999/02/22-rdf-syntax-ns#">
   <cc:Work>
    <dc:type rdf:resource="http://purl.org/dc/dcmitype/StillImage"/>
    <dc:date>2026-06-21T13:07:14.715819</dc:date>
    <dc:format>image/svg+xml</dc:format>
    <dc:creator>
     <cc:Agent>
      <dc:title>Matplotlib v3.9.4, https://matplotlib.org/</dc:title>
     </cc:Agent>
    </dc:creator>
   </cc:Work>
  </rdf:RDF>
 </metadata>
 <defs>
  <style type="text/css">*{stroke-linejoin: round; stroke-linecap: butt}</style>
 </defs>
 <g id="figure_1">
  <g id="patch_1">
   <path d="M 0 361.310903 
L 614.771875 361.310903 
L 614.771875 0 
L 0 0 
z
" style="fill: #ffffff"/>
  </g>
  <g id="axes_1">
   <g id="patch_2">
    <path d="M 49.571875 301.037813 
L 607.571875 301.037813 
L 607.571875 23.837812 
L 49.571875 23.837812 
z
" style="fill: #ffffff"/>
   </g>
   <g id="patch_3">
    <path d="M 74.935511 301.037813 
L 97.734286 301.037813 
L 97.734286 66.122558 
L 74.935511 66.122558 
z
" clip-path="url(#pa956353c44)" style="fill: #4a90d9; stroke: #ffffff; stroke-width: 0.5; stroke-linejoin: miter"/>
   </g>
   <g id="patch_4">
    <path d="M 103.433979 301.037813 
L 126.232753 301.037813 
L 126.232753 76.048555 
L 103.433979 76.048555 
z
" clip-path="url(#pa956353c44)" style="fill: #4a90d9; stroke: #ffffff; stroke-width: 0.5; stroke-linejoin: miter"/>
   </g>
   <g id="patch_5">
    <path d="M 131.932447 301.037813 
L 154.731221 301.037813 
L 154.731221 94.935521 
L 131.932447 94.935521 
z
" clip-path="url(#pa956353c44)" style="fill: #4a90d9; stroke: #ffffff; stroke-width: 0.5; stroke-linejoin: miter"/>
   </g>
   <g id="patch_6">
    <path d="M 160.430915 301.037813 
L 183.229689 301.037813 
L 183.229689 102.793601 
L 160.430915 102.793601 
z
" clip-path="url(#pa956353c44)" style="fill: #4a90d9; stroke: #ffffff; stroke-width: 0.5; stroke-linejoin: miter"/>
   </g>
   <g id="patch_7">
    <path d="M 188.929383 301.037813 
L 211.728157 301.037813 
L 211.728157 117.682596 
L 188.929383 117.682596 
z
" clip-path="url(#pa956353c44)" style="fill: #4a90d9; stroke: #ffffff; stroke-width: 0.5; stroke-linejoin: miter"/>
   </g>
   <g id="patch_8">
    <path d="M 217.42785 301.037813 
L 240.226625 301.037813 
L 240.226625 126.505705 
L 217.42785 126.505705 
z
" clip-path="url(#pa956353c44)" style="fill: #4a90d9; stroke: #ffffff; stroke-width: 0.5; stroke-linejoin: miter"/>
   </g>
   <g id="patch_9">
    <path d="M 245.926318 301.037813 
L 268.725093 301.037813 
L 268.725093 149.528502 
L 245.926318 149.528502 
z
" clip-path="url(#pa956353c44)" style="fill: #4a90d9; stroke: #ffffff; stroke-width: 0.5; stroke-linejoin: miter"/>
   </g>
   <g id="patch_10">
    <path d="M 274.424786 301.037813 
L 297.22356 301.037813 
L 297.22356 153.526473 
L 274.424786 153.526473 
z
" clip-path="url(#pa956353c44)" style="fill: #4a90d9; stroke: #ffffff; stroke-width: 0.5; stroke-linejoin: miter"/>
   </g>
   <g id="patch_11">
    <path d="M 302.923254 301.037813 
L 325.722028 301.037813 
L 325.722028 185.096657 
L 302.923254 185.096657 
z
" clip-path="url(#pa956353c44)" style="fill: #2a9d8f; stroke: #ffffff; stroke-width: 0.5; stroke-linejoin: miter"/>
   </g>
   <g id="patch_12">
    <path d="M 331.421722 301.037813 
L 354.220496 301.037813 
L 354.220496 185.234518 
L 331.421722 185.234518 
z
" clip-path="url(#pa956353c44)" style="fill: #2a9d8f; stroke: #ffffff; stroke-width: 0.5; stroke-linejoin: miter"/>
   </g>
   <g id="patch_13">
    <path d="M 359.92019 301.037813 
L 382.718964 301.037813 
L 382.718964 188.681045 
L 359.92019 188.681045 
z
" clip-path="url(#pa956353c44)" style="fill: #2a9d8f; stroke: #ffffff; stroke-width: 0.5; stroke-linejoin: miter"/>
   </g>
   <g id="patch_14">
    <path d="M 388.418657 301.037813 
L 411.217432 301.037813 
L 411.217432 189.646072 
L 388.418657 189.646072 
z
" clip-path="url(#pa956353c44)" style="fill: #2a9d8f; stroke: #ffffff; stroke-width: 0.5; stroke-linejoin: miter"/>
   </g>
   <g id="patch_15">
    <path d="M 416.917125 301.037813 
L 439.7159 301.037813 
L 439.7159 231.693697 
L 416.917125 231.693697 
z
" clip-path="url(#pa956353c44)" style="fill: #2a9d8f; stroke: #ffffff; stroke-width: 0.5; stroke-linejoin: miter"/>
   </g>
   <g id="patch_16">
    <path d="M 445.415593 301.037813 
L 468.214367 301.037813 
L 468.214367 270.294795 
L 445.415593 270.294795 
z
" clip-path="url(#pa956353c44)" style="fill: #2a9d8f; stroke: #ffffff; stroke-width: 0.5; stroke-linejoin: miter"/>
   </g>
   <g id="patch_17">
    <path d="M 473.914061 301.037813 
L 496.712835 301.037813 
L 496.712835 270.846239 
L 473.914061 270.846239 
z
" clip-path="url(#pa956353c44)" style="fill: #2a9d8f; stroke: #ffffff; stroke-width: 0.5; stroke-linejoin: miter"/>
   </g>
   <g id="patch_18">
    <path d="M 502.412529 301.037813 
L 525.211303 301.037813 
L 525.211303 271.811267 
L 502.412529 271.811267 
z
" clip-path="url(#pa956353c44)" style="fill: #2a9d8f; stroke: #ffffff; stroke-width: 0.5; stroke-linejoin: miter"/>
   </g>
   <g id="patch_19">
    <path d="M 530.910997 301.037813 
L 553.709771 301.037813 
L 553.709771 286.010956 
L 530.910997 286.010956 
z
" clip-path="url(#pa956353c44)" style="fill: #aaaaaa; stroke: #ffffff; stroke-width: 0.5; stroke-linejoin: miter"/>
   </g>
   <g id="patch_20">
    <path d="M 559.409464 301.037813 
L 582.208239 301.037813 
L 582.208239 298.14273 
L 559.409464 298.14273 
z
" clip-path="url(#pa956353c44)" style="fill: #aaaaaa; stroke: #ffffff; stroke-width: 0.5; stroke-linejoin: miter"/>
   </g>
   <g id="matplotlib.axis_1">
    <g id="xtick_1">
     <g id="line2d_1">
      <defs>
       <path id="m8880e5de1e" d="M 0 0 
L 0 4 
" style="stroke: #333333; stroke-width: 0.8"/>
      </defs>
      <g>
       <use xlink:href="#m8880e5de1e" x="86.334898" y="301.037813" style="fill: #333333; stroke: #333333; stroke-width: 0.8"/>
      </g>
     </g>
     <g id="text_1">
      <!-- K0909 -->
      <g style="fill: #333333" transform="translate(64.061035 334.323787) rotate(-45) scale(0.09 -0.09)">
       <defs>
        <path id="DejaVuSerif-4b" d="M 353 0 
L 353 331 
L 947 331 
L 947 4331 
L 353 4331 
L 353 4666 
L 2175 4666 
L 2175 4331 
L 1581 4331 
L 1581 2566 
L 3591 4331 
L 3084 4331 
L 3084 4666 
L 4634 4666 
L 4634 4331 
L 4109 4331 
L 2106 2572 
L 4347 331 
L 4878 331 
L 4878 0 
L 3794 0 
L 1581 2216 
L 1581 331 
L 2175 331 
L 2175 0 
L 353 0 
z
" transform="scale(0.015625)"/>
        <path id="DejaVuSerif-30" d="M 2034 219 
Q 2513 219 2750 744 
Q 2988 1269 2988 2328 
Q 2988 3391 2750 3916 
Q 2513 4441 2034 4441 
Q 1556 4441 1318 3916 
Q 1081 3391 1081 2328 
Q 1081 1269 1318 744 
Q 1556 219 2034 219 
z
M 2034 -91 
Q 1275 -91 848 546 
Q 422 1184 422 2328 
Q 422 3475 848 4112 
Q 1275 4750 2034 4750 
Q 2797 4750 3222 4112 
Q 3647 3475 3647 2328 
Q 3647 1184 3222 546 
Q 2797 -91 2034 -91 
z
" transform="scale(0.015625)"/>
        <path id="DejaVuSerif-39" d="M 2994 2091 
Q 2784 1856 2512 1740 
Q 2241 1625 1900 1625 
Q 1206 1625 804 2044 
Q 403 2463 403 3188 
Q 403 3897 839 4323 
Q 1275 4750 2003 4750 
Q 2794 4750 3217 4161 
Q 3641 3572 3641 2478 
Q 3641 1253 3137 581 
Q 2634 -91 1722 -91 
Q 1475 -91 1203 -44 
Q 931 3 647 97 
L 647 872 
L 997 872 
Q 1038 556 1241 387 
Q 1444 219 1784 219 
Q 2391 219 2687 676 
Q 2984 1134 2994 2091 
z
M 1978 4441 
Q 1534 4441 1298 4117 
Q 1063 3794 1063 3188 
Q 1063 2581 1298 2256 
Q 1534 1931 1978 1931 
Q 2422 1931 2658 2245 
Q 2894 2559 2894 3150 
Q 2894 3772 2656 4106 
Q 2419 4441 1978 4441 
z
" transform="scale(0.015625)"/>
       </defs>
       <use xlink:href="#DejaVuSerif-4b"/>
       <use xlink:href="#DejaVuSerif-30" x="74.707031"/>
       <use xlink:href="#DejaVuSerif-39" x="138.330078"/>
       <use xlink:href="#DejaVuSerif-30" x="201.953125"/>
       <use xlink:href="#DejaVuSerif-39" x="265.576172"/>
      </g>
     </g>
    </g>
    <g id="xtick_2">
     <g id="line2d_2">
      <g>
       <use xlink:href="#m8880e5de1e" x="114.833366" y="301.037813" style="fill: #333333; stroke: #333333; stroke-width: 0.8"/>
      </g>
     </g>
     <g id="text_2">
      <!-- Z9850 -->
      <g style="fill: #333333" transform="translate(92.891622 333.991668) rotate(-45) scale(0.09 -0.09)">
       <defs>
        <path id="DejaVuSerif-5a" d="M 288 0 
L 288 225 
L 3194 4281 
L 781 4281 
L 781 3584 
L 397 3584 
L 397 4666 
L 4084 4666 
L 4084 4441 
L 1178 384 
L 3816 384 
L 3816 1038 
L 4197 1038 
L 4197 0 
L 288 0 
z
" transform="scale(0.015625)"/>
        <path id="DejaVuSerif-38" d="M 2981 1275 
Q 2981 1775 2732 2051 
Q 2484 2328 2034 2328 
Q 1584 2328 1336 2051 
Q 1088 1775 1088 1275 
Q 1088 772 1336 495 
Q 1584 219 2034 219 
Q 2484 219 2732 495 
Q 2981 772 2981 1275 
z
M 2853 3541 
Q 2853 3966 2637 4203 
Q 2422 4441 2034 4441 
Q 1650 4441 1433 4203 
Q 1216 3966 1216 3541 
Q 1216 3113 1433 2875 
Q 1650 2638 2034 2638 
Q 2422 2638 2637 2875 
Q 2853 3113 2853 3541 
z
M 2516 2484 
Q 3047 2413 3344 2092 
Q 3641 1772 3641 1275 
Q 3641 619 3225 264 
Q 2809 -91 2034 -91 
Q 1263 -91 845 264 
Q 428 619 428 1275 
Q 428 1772 725 2092 
Q 1022 2413 1556 2484 
Q 1084 2569 832 2842 
Q 581 3116 581 3541 
Q 581 4103 968 4426 
Q 1356 4750 2034 4750 
Q 2713 4750 3100 4426 
Q 3488 4103 3488 3541 
Q 3488 3116 3236 2842 
Q 2984 2569 2516 2484 
z
" transform="scale(0.015625)"/>
        <path id="DejaVuSerif-35" d="M 3219 4666 
L 3219 4153 
L 1081 4153 
L 1081 2816 
Q 1244 2928 1461 2984 
Q 1678 3041 1947 3041 
Q 2703 3041 3140 2622 
Q 3578 2203 3578 1478 
Q 3578 738 3136 323 
Q 2694 -91 1894 -91 
Q 1572 -91 1234 -12 
Q 897 66 544 225 
L 544 1131 
L 897 1131 
Q 925 688 1179 453 
Q 1434 219 1894 219 
Q 2388 219 2653 544 
Q 2919 869 2919 1478 
Q 2919 2084 2655 2407 
Q 2391 2731 1894 2731 
Q 1613 2731 1398 2631 
Q 1184 2531 1019 2322 
L 750 2322 
L 750 4666 
L 3219 4666 
z
" transform="scale(0.015625)"/>
       </defs>
       <use xlink:href="#DejaVuSerif-5a"/>
       <use xlink:href="#DejaVuSerif-39" x="69.482422"/>
       <use xlink:href="#DejaVuSerif-38" x="133.105469"/>
       <use xlink:href="#DejaVuSerif-35" x="196.728516"/>
       <use xlink:href="#DejaVuSerif-30" x="260.351562"/>
      </g>
     </g>
    </g>
    <g id="xtick_3">
     <g id="line2d_3">
      <g>
       <use xlink:href="#m8880e5de1e" x="143.331834" y="301.037813" style="fill: #333333; stroke: #333333; stroke-width: 0.8"/>
      </g>
     </g>
     <g id="text_3">
      <!-- K0914 -->
      <g style="fill: #333333" transform="translate(121.057971 334.323787) rotate(-45) scale(0.09 -0.09)">
       <defs>
        <path id="DejaVuSerif-31" d="M 909 0 
L 909 331 
L 1722 331 
L 1722 4213 
L 781 3603 
L 781 4013 
L 1919 4750 
L 2350 4750 
L 2350 331 
L 3163 331 
L 3163 0 
L 909 0 
z
" transform="scale(0.015625)"/>
        <path id="DejaVuSerif-34" d="M 2234 1581 
L 2234 4063 
L 641 1581 
L 2234 1581 
z
M 3609 0 
L 1484 0 
L 1484 331 
L 2234 331 
L 2234 1247 
L 197 1247 
L 197 1588 
L 2241 4750 
L 2859 4750 
L 2859 1581 
L 3750 1581 
L 3750 1247 
L 2859 1247 
L 2859 331 
L 3609 331 
L 3609 0 
z
" transform="scale(0.015625)"/>
       </defs>
       <use xlink:href="#DejaVuSerif-4b"/>
       <use xlink:href="#DejaVuSerif-30" x="74.707031"/>
       <use xlink:href="#DejaVuSerif-39" x="138.330078"/>
       <use xlink:href="#DejaVuSerif-31" x="201.953125"/>
       <use xlink:href="#DejaVuSerif-34" x="265.576172"/>
      </g>
     </g>
    </g>
    <g id="xtick_4">
     <g id="line2d_4">
      <g>
       <use xlink:href="#m8880e5de1e" x="171.830302" y="301.037813" style="fill: #333333; stroke: #333333; stroke-width: 0.8"/>
      </g>
     </g>
     <g id="text_4">
      <!-- Z9854 -->
      <g style="fill: #333333" transform="translate(149.888558 333.991668) rotate(-45) scale(0.09 -0.09)">
       <use xlink:href="#DejaVuSerif-5a"/>
       <use xlink:href="#DejaVuSerif-39" x="69.482422"/>
       <use xlink:href="#DejaVuSerif-38" x="133.105469"/>
       <use xlink:href="#DejaVuSerif-35" x="196.728516"/>
       <use xlink:href="#DejaVuSerif-34" x="260.351562"/>
      </g>
     </g>
    </g>
    <g id="xtick_5">
     <g id="line2d_5">
      <g>
       <use xlink:href="#m8880e5de1e" x="200.32877" y="301.037813" style="fill: #333333; stroke: #333333; stroke-width: 0.8"/>
      </g>
     </g>
     <g id="text_5">
      <!-- Z9852 -->
      <g style="fill: #333333" transform="translate(178.387025 333.991668) rotate(-45) scale(0.09 -0.09)">
       <defs>
        <path id="DejaVuSerif-32" d="M 819 3553 
L 469 3553 
L 469 4384 
Q 803 4563 1142 4656 
Q 1481 4750 1806 4750 
Q 2534 4750 2956 4397 
Q 3378 4044 3378 3438 
Q 3378 2753 2422 1800 
Q 2347 1728 2309 1691 
L 1131 513 
L 3078 513 
L 3078 1088 
L 3444 1088 
L 3444 0 
L 434 0 
L 434 341 
L 1850 1753 
Q 2319 2222 2519 2614 
Q 2719 3006 2719 3438 
Q 2719 3909 2473 4175 
Q 2228 4441 1797 4441 
Q 1350 4441 1106 4219 
Q 863 3997 819 3553 
z
" transform="scale(0.015625)"/>
       </defs>
       <use xlink:href="#DejaVuSerif-5a"/>
       <use xlink:href="#DejaVuSerif-39" x="69.482422"/>
       <use xlink:href="#DejaVuSerif-38" x="133.105469"/>
       <use xlink:href="#DejaVuSerif-35" x="196.728516"/>
       <use xlink:href="#DejaVuSerif-32" x="260.351562"/>
      </g>
     </g>
    </g>
    <g id="xtick_6">
     <g id="line2d_6">
      <g>
       <use xlink:href="#m8880e5de1e" x="228.827238" y="301.037813" style="fill: #333333; stroke: #333333; stroke-width: 0.8"/>
      </g>
     </g>
     <g id="text_6">
      <!-- Z9851 -->
      <g style="fill: #333333" transform="translate(206.885493 333.991668) rotate(-45) scale(0.09 -0.09)">
       <use xlink:href="#DejaVuSerif-5a"/>
       <use xlink:href="#DejaVuSerif-39" x="69.482422"/>
       <use xlink:href="#DejaVuSerif-38" x="133.105469"/>
       <use xlink:href="#DejaVuSerif-35" x="196.728516"/>
       <use xlink:href="#DejaVuSerif-31" x="260.351562"/>
      </g>
     </g>
    </g>
    <g id="xtick_7">
     <g id="line2d_7">
      <g>
       <use xlink:href="#m8880e5de1e" x="257.325705" y="301.037813" style="fill: #333333; stroke: #333333; stroke-width: 0.8"/>
      </g>
     </g>
     <g id="text_7">
      <!-- Z9867* -->
      <g style="fill: #333333" transform="translate(232.201981 337.173648) rotate(-45) scale(0.09 -0.09)">
       <defs>
        <path id="DejaVuSerif-36" d="M 2094 219 
Q 2534 219 2771 542 
Q 3009 866 3009 1472 
Q 3009 2078 2771 2401 
Q 2534 2725 2094 2725 
Q 1647 2725 1412 2412 
Q 1178 2100 1178 1509 
Q 1178 888 1415 553 
Q 1653 219 2094 219 
z
M 1075 2569 
Q 1288 2803 1556 2918 
Q 1825 3034 2163 3034 
Q 2859 3034 3264 2615 
Q 3669 2197 3669 1472 
Q 3669 763 3233 336 
Q 2797 -91 2069 -91 
Q 1278 -91 853 498 
Q 428 1088 428 2181 
Q 428 3406 931 4078 
Q 1434 4750 2350 4750 
Q 2597 4750 2869 4703 
Q 3141 4656 3425 4563 
L 3425 3794 
L 3072 3794 
Q 3034 4109 2831 4275 
Q 2628 4441 2284 4441 
Q 1678 4441 1381 3981 
Q 1084 3522 1075 2569 
z
" transform="scale(0.015625)"/>
        <path id="DejaVuSerif-37" d="M 3609 4347 
L 1784 0 
L 1319 0 
L 3059 4153 
L 903 4153 
L 903 3578 
L 538 3578 
L 538 4666 
L 3609 4666 
L 3609 4347 
z
" transform="scale(0.015625)"/>
        <path id="DejaVuSerif-2a" d="M 3097 3866 
L 1875 3297 
L 3097 2719 
L 2859 2350 
L 1772 3028 
L 1813 1838 
L 1388 1838 
L 1428 3028 
L 341 2350 
L 103 2719 
L 1325 3291 
L 103 3866 
L 341 4238 
L 1428 3559 
L 1388 4750 
L 1813 4750 
L 1772 3559 
L 2859 4238 
L 3097 3866 
z
" transform="scale(0.015625)"/>
       </defs>
       <use xlink:href="#DejaVuSerif-5a"/>
       <use xlink:href="#DejaVuSerif-39" x="69.482422"/>
       <use xlink:href="#DejaVuSerif-38" x="133.105469"/>
       <use xlink:href="#DejaVuSerif-36" x="196.728516"/>
       <use xlink:href="#DejaVuSerif-37" x="260.351562"/>
       <use xlink:href="#DejaVuSerif-2a" x="323.974609"/>
      </g>
     </g>
    </g>
    <g id="xtick_8">
     <g id="line2d_8">
      <g>
       <use xlink:href="#m8880e5de1e" x="285.824173" y="301.037813" style="fill: #333333; stroke: #333333; stroke-width: 0.8"/>
      </g>
     </g>
     <g id="text_8">
      <!-- Z9860 -->
      <g style="fill: #333333" transform="translate(263.882429 333.991668) rotate(-45) scale(0.09 -0.09)">
       <use xlink:href="#DejaVuSerif-5a"/>
       <use xlink:href="#DejaVuSerif-39" x="69.482422"/>
       <use xlink:href="#DejaVuSerif-38" x="133.105469"/>
       <use xlink:href="#DejaVuSerif-36" x="196.728516"/>
       <use xlink:href="#DejaVuSerif-30" x="260.351562"/>
      </g>
     </g>
    </g>
    <g id="xtick_9">
     <g id="line2d_9">
      <g>
       <use xlink:href="#m8880e5de1e" x="314.322641" y="301.037813" style="fill: #333333; stroke: #333333; stroke-width: 0.8"/>
      </g>
     </g>
     <g id="text_9">
      <!-- Z9857 -->
      <g style="fill: #333333" transform="translate(292.380897 333.991668) rotate(-45) scale(0.09 -0.09)">
       <use xlink:href="#DejaVuSerif-5a"/>
       <use xlink:href="#DejaVuSerif-39" x="69.482422"/>
       <use xlink:href="#DejaVuSerif-38" x="133.105469"/>
       <use xlink:href="#DejaVuSerif-35" x="196.728516"/>
       <use xlink:href="#DejaVuSerif-37" x="260.351562"/>
      </g>
     </g>
    </g>
    <g id="xtick_10">
     <g id="line2d_10">
      <g>
       <use xlink:href="#m8880e5de1e" x="342.821109" y="301.037813" style="fill: #333333; stroke: #333333; stroke-width: 0.8"/>
      </g>
     </g>
     <g id="text_10">
      <!-- Z9858 -->
      <g style="fill: #333333" transform="translate(320.879365 333.991668) rotate(-45) scale(0.09 -0.09)">
       <use xlink:href="#DejaVuSerif-5a"/>
       <use xlink:href="#DejaVuSerif-39" x="69.482422"/>
       <use xlink:href="#DejaVuSerif-38" x="133.105469"/>
       <use xlink:href="#DejaVuSerif-35" x="196.728516"/>
       <use xlink:href="#DejaVuSerif-38" x="260.351562"/>
      </g>
     </g>
    </g>
    <g id="xtick_11">
     <g id="line2d_11">
      <g>
       <use xlink:href="#m8880e5de1e" x="371.319577" y="301.037813" style="fill: #333333; stroke: #333333; stroke-width: 0.8"/>
      </g>
     </g>
     <g id="text_11">
      <!-- Z9863* -->
      <g style="fill: #333333" transform="translate(346.195852 337.173648) rotate(-45) scale(0.09 -0.09)">
       <defs>
        <path id="DejaVuSerif-33" d="M 622 4469 
Q 988 4606 1323 4678 
Q 1659 4750 1953 4750 
Q 2638 4750 3022 4454 
Q 3406 4159 3406 3634 
Q 3406 3213 3140 2930 
Q 2875 2647 2388 2547 
Q 2963 2466 3280 2130 
Q 3597 1794 3597 1259 
Q 3597 606 3158 257 
Q 2719 -91 1894 -91 
Q 1528 -91 1179 -12 
Q 831 66 488 225 
L 488 1131 
L 838 1131 
Q 869 681 1141 450 
Q 1413 219 1906 219 
Q 2384 219 2661 495 
Q 2938 772 2938 1253 
Q 2938 1803 2653 2086 
Q 2369 2369 1819 2369 
L 1522 2369 
L 1522 2688 
L 1678 2688 
Q 2225 2688 2498 2914 
Q 2772 3141 2772 3597 
Q 2772 4006 2547 4223 
Q 2322 4441 1900 4441 
Q 1478 4441 1245 4241 
Q 1013 4041 972 3647 
L 622 3647 
L 622 4469 
z
" transform="scale(0.015625)"/>
       </defs>
       <use xlink:href="#DejaVuSerif-5a"/>
       <use xlink:href="#DejaVuSerif-39" x="69.482422"/>
       <use xlink:href="#DejaVuSerif-38" x="133.105469"/>
       <use xlink:href="#DejaVuSerif-36" x="196.728516"/>
       <use xlink:href="#DejaVuSerif-33" x="260.351562"/>
       <use xlink:href="#DejaVuSerif-2a" x="323.974609"/>
      </g>
     </g>
    </g>
    <g id="xtick_12">
     <g id="line2d_12">
      <g>
       <use xlink:href="#m8880e5de1e" x="399.818045" y="301.037813" style="fill: #333333; stroke: #333333; stroke-width: 0.8"/>
      </g>
     </g>
     <g id="text_12">
      <!-- Z9856 -->
      <g style="fill: #333333" transform="translate(377.8763 333.991668) rotate(-45) scale(0.09 -0.09)">
       <use xlink:href="#DejaVuSerif-5a"/>
       <use xlink:href="#DejaVuSerif-39" x="69.482422"/>
       <use xlink:href="#DejaVuSerif-38" x="133.105469"/>
       <use xlink:href="#DejaVuSerif-35" x="196.728516"/>
       <use xlink:href="#DejaVuSerif-36" x="260.351562"/>
      </g>
     </g>
    </g>
    <g id="xtick_13">
     <g id="line2d_13">
      <g>
       <use xlink:href="#m8880e5de1e" x="428.316512" y="301.037813" style="fill: #333333; stroke: #333333; stroke-width: 0.8"/>
      </g>
     </g>
     <g id="text_13">
      <!-- Z9855 -->
      <g style="fill: #333333" transform="translate(406.374768 333.991668) rotate(-45) scale(0.09 -0.09)">
       <use xlink:href="#DejaVuSerif-5a"/>
       <use xlink:href="#DejaVuSerif-39" x="69.482422"/>
       <use xlink:href="#DejaVuSerif-38" x="133.105469"/>
       <use xlink:href="#DejaVuSerif-35" x="196.728516"/>
       <use xlink:href="#DejaVuSerif-35" x="260.351562"/>
      </g>
     </g>
    </g>
    <g id="xtick_14">
     <g id="line2d_14">
      <g>
       <use xlink:href="#m8880e5de1e" x="456.81498" y="301.037813" style="fill: #333333; stroke: #333333; stroke-width: 0.8"/>
      </g>
     </g>
     <g id="text_14">
      <!-- Z9861 -->
      <g style="fill: #333333" transform="translate(434.873236 333.991668) rotate(-45) scale(0.09 -0.09)">
       <use xlink:href="#DejaVuSerif-5a"/>
       <use xlink:href="#DejaVuSerif-39" x="69.482422"/>
       <use xlink:href="#DejaVuSerif-38" x="133.105469"/>
       <use xlink:href="#DejaVuSerif-36" x="196.728516"/>
       <use xlink:href="#DejaVuSerif-31" x="260.351562"/>
      </g>
     </g>
    </g>
    <g id="xtick_15">
     <g id="line2d_15">
      <g>
       <use xlink:href="#m8880e5de1e" x="485.313448" y="301.037813" style="fill: #333333; stroke: #333333; stroke-width: 0.8"/>
      </g>
     </g>
     <g id="text_15">
      <!-- Z9865 -->
      <g style="fill: #333333" transform="translate(463.371704 333.991668) rotate(-45) scale(0.09 -0.09)">
       <use xlink:href="#DejaVuSerif-5a"/>
       <use xlink:href="#DejaVuSerif-39" x="69.482422"/>
       <use xlink:href="#DejaVuSerif-38" x="133.105469"/>
       <use xlink:href="#DejaVuSerif-36" x="196.728516"/>
       <use xlink:href="#DejaVuSerif-35" x="260.351562"/>
      </g>
     </g>
    </g>
    <g id="xtick_16">
     <g id="line2d_16">
      <g>
       <use xlink:href="#m8880e5de1e" x="513.811916" y="301.037813" style="fill: #333333; stroke: #333333; stroke-width: 0.8"/>
      </g>
     </g>
     <g id="text_16">
      <!-- Z9859 -->
      <g style="fill: #333333" transform="translate(491.870171 333.991668) rotate(-45) scale(0.09 -0.09)">
       <use xlink:href="#DejaVuSerif-5a"/>
       <use xlink:href="#DejaVuSerif-39" x="69.482422"/>
       <use xlink:href="#DejaVuSerif-38" x="133.105469"/>
       <use xlink:href="#DejaVuSerif-35" x="196.728516"/>
       <use xlink:href="#DejaVuSerif-39" x="260.351562"/>
      </g>
     </g>
    </g>
    <g id="xtick_17">
     <g id="line2d_17">
      <g>
       <use xlink:href="#m8880e5de1e" x="542.310384" y="301.037813" style="fill: #333333; stroke: #333333; stroke-width: 0.8"/>
      </g>
     </g>
     <g id="text_17">
      <!-- Z9864 -->
      <g style="fill: #333333" transform="translate(520.368639 333.991668) rotate(-45) scale(0.09 -0.09)">
       <use xlink:href="#DejaVuSerif-5a"/>
       <use xlink:href="#DejaVuSerif-39" x="69.482422"/>
       <use xlink:href="#DejaVuSerif-38" x="133.105469"/>
       <use xlink:href="#DejaVuSerif-36" x="196.728516"/>
       <use xlink:href="#DejaVuSerif-34" x="260.351562"/>
      </g>
     </g>
    </g>
    <g id="xtick_18">
     <g id="line2d_18">
      <g>
       <use xlink:href="#m8880e5de1e" x="570.808852" y="301.037813" style="fill: #333333; stroke: #333333; stroke-width: 0.8"/>
      </g>
     </g>
     <g id="text_18">
      <!-- Z9853 -->
      <g style="fill: #333333" transform="translate(548.867107 333.991668) rotate(-45) scale(0.09 -0.09)">
       <use xlink:href="#DejaVuSerif-5a"/>
       <use xlink:href="#DejaVuSerif-39" x="69.482422"/>
       <use xlink:href="#DejaVuSerif-38" x="133.105469"/>
       <use xlink:href="#DejaVuSerif-35" x="196.728516"/>
       <use xlink:href="#DejaVuSerif-33" x="260.351562"/>
      </g>
     </g>
    </g>
    <g id="text_19">
     <!-- Sample -->
     <g style="fill: #333333" transform="translate(305.883437 351.615278) scale(0.12 -0.12)">
      <defs>
       <path id="DejaVuSerif-53" d="M 594 225 
L 594 1288 
L 953 1284 
Q 969 753 1261 498 
Q 1553 244 2150 244 
Q 2706 244 2998 464 
Q 3291 684 3291 1106 
Q 3291 1444 3114 1625 
Q 2938 1806 2369 1978 
L 1753 2163 
Q 1084 2366 811 2669 
Q 538 2972 538 3500 
Q 538 4094 959 4422 
Q 1381 4750 2144 4750 
Q 2469 4750 2856 4679 
Q 3244 4609 3681 4475 
L 3681 3481 
L 3328 3481 
Q 3275 3975 2998 4195 
Q 2722 4416 2156 4416 
Q 1663 4416 1405 4214 
Q 1147 4013 1147 3628 
Q 1147 3294 1340 3103 
Q 1534 2913 2163 2725 
L 2741 2553 
Q 3375 2363 3645 2067 
Q 3916 1772 3916 1275 
Q 3916 597 3481 253 
Q 3047 -91 2188 -91 
Q 1803 -91 1404 -12 
Q 1006 66 594 225 
z
" transform="scale(0.015625)"/>
       <path id="DejaVuSerif-61" d="M 2547 1044 
L 2547 1747 
L 1806 1747 
Q 1378 1747 1168 1562 
Q 959 1378 959 997 
Q 959 650 1171 447 
Q 1384 244 1747 244 
Q 2106 244 2326 466 
Q 2547 688 2547 1044 
z
M 3122 2075 
L 3122 331 
L 3634 331 
L 3634 0 
L 2547 0 
L 2547 359 
Q 2356 128 2106 18 
Q 1856 -91 1522 -91 
Q 969 -91 644 203 
Q 319 497 319 997 
Q 319 1513 691 1797 
Q 1063 2081 1741 2081 
L 2547 2081 
L 2547 2309 
Q 2547 2688 2317 2895 
Q 2088 3103 1672 3103 
Q 1328 3103 1125 2947 
Q 922 2791 872 2484 
L 575 2484 
L 575 3156 
Q 875 3284 1158 3348 
Q 1441 3413 1709 3413 
Q 2400 3413 2761 3070 
Q 3122 2728 3122 2075 
z
" transform="scale(0.015625)"/>
       <path id="DejaVuSerif-6d" d="M 3316 2675 
Q 3481 3041 3739 3227 
Q 3997 3413 4341 3413 
Q 4863 3413 5119 3089 
Q 5375 2766 5375 2113 
L 5375 331 
L 5894 331 
L 5894 0 
L 4300 0 
L 4300 331 
L 4800 331 
L 4800 2047 
Q 4800 2556 4650 2772 
Q 4500 2988 4153 2988 
Q 3769 2988 3567 2697 
Q 3366 2406 3366 1850 
L 3366 331 
L 3866 331 
L 3866 0 
L 2291 0 
L 2291 331 
L 2791 331 
L 2791 2069 
Q 2791 2566 2641 2777 
Q 2491 2988 2144 2988 
Q 1759 2988 1557 2697 
Q 1356 2406 1356 1850 
L 1356 331 
L 1856 331 
L 1856 0 
L 263 0 
L 263 331 
L 781 331 
L 781 2994 
L 231 2994 
L 231 3322 
L 1356 3322 
L 1356 2731 
Q 1516 3063 1762 3238 
Q 2009 3413 2322 3413 
Q 2709 3413 2968 3220 
Q 3228 3028 3316 2675 
z
" transform="scale(0.015625)"/>
       <path id="DejaVuSerif-70" d="M 1313 1825 
L 1313 1497 
Q 1313 897 1542 583 
Q 1772 269 2209 269 
Q 2650 269 2876 622 
Q 3103 975 3103 1663 
Q 3103 2353 2876 2703 
Q 2650 3053 2209 3053 
Q 1772 3053 1542 2737 
Q 1313 2422 1313 1825 
z
M 738 2988 
L 184 2988 
L 184 3322 
L 1313 3322 
L 1313 2803 
Q 1481 3116 1742 3264 
Q 2003 3413 2388 3413 
Q 3000 3413 3387 2928 
Q 3775 2444 3775 1663 
Q 3775 881 3387 395 
Q 3000 -91 2388 -91 
Q 2003 -91 1742 57 
Q 1481 206 1313 519 
L 1313 -997 
L 1856 -997 
L 1856 -1331 
L 184 -1331 
L 184 -997 
L 738 -997 
L 738 2988 
z
" transform="scale(0.015625)"/>
       <path id="DejaVuSerif-6c" d="M 1313 331 
L 1856 331 
L 1856 0 
L 184 0 
L 184 331 
L 738 331 
L 738 4531 
L 184 4531 
L 184 4863 
L 1313 4863 
L 1313 331 
z
" transform="scale(0.015625)"/>
       <path id="DejaVuSerif-65" d="M 3469 1600 
L 991 1600 
L 991 1575 
Q 991 903 1244 561 
Q 1497 219 1991 219 
Q 2369 219 2611 417 
Q 2853 616 2950 1006 
L 3413 1006 
Q 3275 459 2904 184 
Q 2534 -91 1931 -91 
Q 1203 -91 761 389 
Q 319 869 319 1663 
Q 319 2450 753 2931 
Q 1188 3413 1894 3413 
Q 2647 3413 3050 2948 
Q 3453 2484 3469 1600 
z
M 2791 1931 
Q 2772 2513 2545 2808 
Q 2319 3103 1894 3103 
Q 1497 3103 1269 2806 
Q 1041 2509 991 1931 
L 2791 1931 
z
" transform="scale(0.015625)"/>
      </defs>
      <use xlink:href="#DejaVuSerif-53"/>
      <use xlink:href="#DejaVuSerif-61" x="68.505859"/>
      <use xlink:href="#DejaVuSerif-6d" x="128.125"/>
      <use xlink:href="#DejaVuSerif-70" x="222.949219"/>
      <use xlink:href="#DejaVuSerif-6c" x="286.962891"/>
      <use xlink:href="#DejaVuSerif-65" x="318.945312"/>
     </g>
    </g>
   </g>
   <g id="matplotlib.axis_2">
    <g id="ytick_1">
     <g id="line2d_19">
      <defs>
       <path id="m6d3e18038f" d="M 0 0 
L -4 0 
" style="stroke: #333333; stroke-width: 0.8"/>
      </defs>
      <g>
       <use xlink:href="#m6d3e18038f" x="49.571875" y="301.037813" style="fill: #333333; stroke: #333333; stroke-width: 0.8"/>
      </g>
     </g>
     <g id="text_20">
      <!-- 0 -->
      <g style="fill: #333333" transform="translate(35.709375 304.837031) scale(0.1 -0.1)">
       <use xlink:href="#DejaVuSerif-30"/>
      </g>
     </g>
    </g>
    <g id="ytick_2">
     <g id="line2d_20">
      <g>
       <use xlink:href="#m6d3e18038f" x="49.571875" y="266.572546" style="fill: #333333; stroke: #333333; stroke-width: 0.8"/>
      </g>
     </g>
     <g id="text_21">
      <!-- 25 -->
      <g style="fill: #333333" transform="translate(29.346875 270.371765) scale(0.1 -0.1)">
       <use xlink:href="#DejaVuSerif-32"/>
       <use xlink:href="#DejaVuSerif-35" x="63.623047"/>
      </g>
     </g>
    </g>
    <g id="ytick_3">
     <g id="line2d_21">
      <g>
       <use xlink:href="#m6d3e18038f" x="49.571875" y="232.10728" style="fill: #333333; stroke: #333333; stroke-width: 0.8"/>
      </g>
     </g>
     <g id="text_22">
      <!-- 50 -->
      <g style="fill: #333333" transform="translate(29.346875 235.906499) scale(0.1 -0.1)">
       <use xlink:href="#DejaVuSerif-35"/>
       <use xlink:href="#DejaVuSerif-30" x="63.623047"/>
      </g>
     </g>
    </g>
    <g id="ytick_4">
     <g id="line2d_22">
      <g>
       <use xlink:href="#m6d3e18038f" x="49.571875" y="197.642014" style="fill: #333333; stroke: #333333; stroke-width: 0.8"/>
      </g>
     </g>
     <g id="text_23">
      <!-- 75 -->
      <g style="fill: #333333" transform="translate(29.346875 201.441233) scale(0.1 -0.1)">
       <use xlink:href="#DejaVuSerif-37"/>
       <use xlink:href="#DejaVuSerif-35" x="63.623047"/>
      </g>
     </g>
    </g>
    <g id="ytick_5">
     <g id="line2d_23">
      <g>
       <use xlink:href="#m6d3e18038f" x="49.571875" y="163.176748" style="fill: #333333; stroke: #333333; stroke-width: 0.8"/>
      </g>
     </g>
     <g id="text_24">
      <!-- 100 -->
      <g style="fill: #333333" transform="translate(22.984375 166.975967) scale(0.1 -0.1)">
       <use xlink:href="#DejaVuSerif-31"/>
       <use xlink:href="#DejaVuSerif-30" x="63.623047"/>
       <use xlink:href="#DejaVuSerif-30" x="127.246094"/>
      </g>
     </g>
    </g>
    <g id="ytick_6">
     <g id="line2d_24">
      <g>
       <use xlink:href="#m6d3e18038f" x="49.571875" y="128.711482" style="fill: #333333; stroke: #333333; stroke-width: 0.8"/>
      </g>
     </g>
     <g id="text_25">
      <!-- 125 -->
      <g style="fill: #333333" transform="translate(22.984375 132.5107) scale(0.1 -0.1)">
       <use xlink:href="#DejaVuSerif-31"/>
       <use xlink:href="#DejaVuSerif-32" x="63.623047"/>
       <use xlink:href="#DejaVuSerif-35" x="127.246094"/>
      </g>
     </g>
    </g>
    <g id="ytick_7">
     <g id="line2d_25">
      <g>
       <use xlink:href="#m6d3e18038f" x="49.571875" y="94.246215" style="fill: #333333; stroke: #333333; stroke-width: 0.8"/>
      </g>
     </g>
     <g id="text_26">
      <!-- 150 -->
      <g style="fill: #333333" transform="translate(22.984375 98.045434) scale(0.1 -0.1)">
       <use xlink:href="#DejaVuSerif-31"/>
       <use xlink:href="#DejaVuSerif-35" x="63.623047"/>
       <use xlink:href="#DejaVuSerif-30" x="127.246094"/>
      </g>
     </g>
    </g>
    <g id="ytick_8">
     <g id="line2d_26">
      <g>
       <use xlink:href="#m6d3e18038f" x="49.571875" y="59.780949" style="fill: #333333; stroke: #333333; stroke-width: 0.8"/>
      </g>
     </g>
     <g id="text_27">
      <!-- 175 -->
      <g style="fill: #333333" transform="translate(22.984375 63.580168) scale(0.1 -0.1)">
       <use xlink:href="#DejaVuSerif-31"/>
       <use xlink:href="#DejaVuSerif-37" x="63.623047"/>
       <use xlink:href="#DejaVuSerif-35" x="127.246094"/>
      </g>
     </g>
    </g>
    <g id="ytick_9">
     <g id="line2d_27">
      <g>
       <use xlink:href="#m6d3e18038f" x="49.571875" y="25.315683" style="fill: #333333; stroke: #333333; stroke-width: 0.8"/>
      </g>
     </g>
     <g id="text_28">
      <!-- 200 -->
      <g style="fill: #333333" transform="translate(22.984375 29.114902) scale(0.1 -0.1)">
       <use xlink:href="#DejaVuSerif-32"/>
       <use xlink:href="#DejaVuSerif-30" x="63.623047"/>
       <use xlink:href="#DejaVuSerif-30" x="127.246094"/>
      </g>
     </g>
    </g>
    <g id="text_29">
     <!-- Coverage depth (×) -->
     <g style="fill: #333333" transform="translate(16.318125 222.451875) rotate(-90) scale(0.12 -0.12)">
      <defs>
       <path id="DejaVuSerif-43" d="M 4513 1234 
Q 4306 581 3820 245 
Q 3334 -91 2591 -91 
Q 2134 -91 1743 65 
Q 1353 222 1050 525 
Q 700 875 529 1320 
Q 359 1766 359 2328 
Q 359 3416 987 4083 
Q 1616 4750 2644 4750 
Q 3025 4750 3456 4650 
Q 3888 4550 4384 4347 
L 4384 3272 
L 4031 3272 
Q 3916 3859 3567 4137 
Q 3219 4416 2591 4416 
Q 1844 4416 1459 3886 
Q 1075 3356 1075 2328 
Q 1075 1303 1459 773 
Q 1844 244 2591 244 
Q 3113 244 3450 492 
Q 3788 741 3938 1234 
L 4513 1234 
z
" transform="scale(0.015625)"/>
       <path id="DejaVuSerif-6f" d="M 1925 219 
Q 2388 219 2623 584 
Q 2859 950 2859 1663 
Q 2859 2375 2623 2739 
Q 2388 3103 1925 3103 
Q 1463 3103 1227 2739 
Q 991 2375 991 1663 
Q 991 950 1228 584 
Q 1466 219 1925 219 
z
M 1925 -91 
Q 1200 -91 759 389 
Q 319 869 319 1663 
Q 319 2456 758 2934 
Q 1197 3413 1925 3413 
Q 2653 3413 3092 2934 
Q 3531 2456 3531 1663 
Q 3531 869 3092 389 
Q 2653 -91 1925 -91 
z
" transform="scale(0.015625)"/>
       <path id="DejaVuSerif-76" d="M 1581 0 
L 359 2988 
L -19 2988 
L -19 3322 
L 1509 3322 
L 1509 2988 
L 978 2988 
L 1913 703 
L 2847 2988 
L 2350 2988 
L 2350 3322 
L 3597 3322 
L 3597 2988 
L 3225 2988 
L 2003 0 
L 1581 0 
z
" transform="scale(0.015625)"/>
       <path id="DejaVuSerif-72" d="M 3059 3328 
L 3059 2497 
L 2728 2497 
Q 2713 2744 2591 2866 
Q 2469 2988 2234 2988 
Q 1809 2988 1582 2694 
Q 1356 2400 1356 1850 
L 1356 331 
L 2022 331 
L 2022 0 
L 263 0 
L 263 331 
L 781 331 
L 781 2994 
L 231 2994 
L 231 3322 
L 1356 3322 
L 1356 2731 
Q 1525 3078 1790 3245 
Q 2056 3413 2438 3413 
Q 2578 3413 2733 3391 
Q 2888 3369 3059 3328 
z
" transform="scale(0.015625)"/>
       <path id="DejaVuSerif-67" d="M 3359 2988 
L 3359 72 
Q 3359 -644 2965 -1033 
Q 2572 -1422 1844 -1422 
Q 1516 -1422 1216 -1362 
Q 916 -1303 641 -1184 
L 641 -488 
L 941 -488 
Q 997 -813 1206 -963 
Q 1416 -1113 1806 -1113 
Q 2313 -1113 2548 -827 
Q 2784 -541 2784 72 
L 2784 519 
Q 2616 206 2355 57 
Q 2094 -91 1709 -91 
Q 1097 -91 708 395 
Q 319 881 319 1663 
Q 319 2444 706 2928 
Q 1094 3413 1709 3413 
Q 2094 3413 2355 3264 
Q 2616 3116 2784 2803 
L 2784 3322 
L 3909 3322 
L 3909 2988 
L 3359 2988 
z
M 2784 1825 
Q 2784 2422 2554 2737 
Q 2325 3053 1888 3053 
Q 1444 3053 1217 2703 
Q 991 2353 991 1663 
Q 991 975 1217 622 
Q 1444 269 1888 269 
Q 2325 269 2554 583 
Q 2784 897 2784 1497 
L 2784 1825 
z
" transform="scale(0.015625)"/>
       <path id="DejaVuSerif-20" transform="scale(0.015625)"/>
       <path id="DejaVuSerif-64" d="M 3359 331 
L 3909 331 
L 3909 0 
L 2784 0 
L 2784 519 
Q 2616 206 2355 57 
Q 2094 -91 1709 -91 
Q 1097 -91 708 395 
Q 319 881 319 1663 
Q 319 2444 706 2928 
Q 1094 3413 1709 3413 
Q 2094 3413 2355 3264 
Q 2616 3116 2784 2803 
L 2784 4531 
L 2241 4531 
L 2241 4863 
L 3359 4863 
L 3359 331 
z
M 2784 1497 
L 2784 1825 
Q 2784 2422 2554 2737 
Q 2325 3053 1888 3053 
Q 1444 3053 1217 2703 
Q 991 2353 991 1663 
Q 991 975 1217 622 
Q 1444 269 1888 269 
Q 2325 269 2554 583 
Q 2784 897 2784 1497 
z
" transform="scale(0.015625)"/>
       <path id="DejaVuSerif-74" d="M 691 2988 
L 184 2988 
L 184 3322 
L 691 3322 
L 691 4353 
L 1269 4353 
L 1269 3322 
L 2350 3322 
L 2350 2988 
L 1269 2988 
L 1269 878 
Q 1269 456 1350 337 
Q 1431 219 1650 219 
Q 1875 219 1978 351 
Q 2081 484 2088 781 
L 2522 781 
Q 2497 328 2275 118 
Q 2053 -91 1600 -91 
Q 1103 -91 897 129 
Q 691 350 691 878 
L 691 2988 
z
" transform="scale(0.015625)"/>
       <path id="DejaVuSerif-68" d="M 263 0 
L 263 331 
L 781 331 
L 781 4531 
L 231 4531 
L 231 4863 
L 1356 4863 
L 1356 2731 
Q 1516 3069 1770 3241 
Q 2025 3413 2363 3413 
Q 2913 3413 3172 3097 
Q 3431 2781 3431 2113 
L 3431 331 
L 3944 331 
L 3944 0 
L 2356 0 
L 2356 331 
L 2853 331 
L 2853 1931 
Q 2853 2541 2704 2764 
Q 2556 2988 2175 2988 
Q 1775 2988 1565 2697 
Q 1356 2406 1356 1850 
L 1356 331 
L 1856 331 
L 1856 0 
L 263 0 
z
" transform="scale(0.015625)"/>
       <path id="DejaVuSerif-28" d="M 2041 -997 
Q 1281 -656 893 83 
Q 506 822 506 1931 
Q 506 3044 893 3783 
Q 1281 4522 2041 4863 
L 2041 4556 
Q 1559 4225 1350 3623 
Q 1141 3022 1141 1931 
Q 1141 844 1350 242 
Q 1559 -359 2041 -691 
L 2041 -997 
z
" transform="scale(0.015625)"/>
       <path id="DejaVuSerif-d7" d="M 4481 3450 
L 3034 2003 
L 4481 563 
L 4122 213 
L 2681 1650 
L 1241 213 
L 884 563 
L 2322 2003 
L 884 3450 
L 1241 3803 
L 2681 2363 
L 4122 3803 
L 4481 3450 
z
" transform="scale(0.015625)"/>
       <path id="DejaVuSerif-29" d="M 453 -997 
L 453 -691 
Q 934 -359 1145 242 
Q 1356 844 1356 1931 
Q 1356 3022 1145 3623 
Q 934 4225 453 4556 
L 453 4863 
Q 1216 4522 1603 3783 
Q 1991 3044 1991 1931 
Q 1991 822 1603 83 
Q 1216 -656 453 -997 
z
" transform="scale(0.015625)"/>
      </defs>
      <use xlink:href="#DejaVuSerif-43"/>
      <use xlink:href="#DejaVuSerif-6f" x="76.513672"/>
      <use xlink:href="#DejaVuSerif-76" x="136.71875"/>
      <use xlink:href="#DejaVuSerif-65" x="193.212891"/>
      <use xlink:href="#DejaVuSerif-72" x="252.392578"/>
      <use xlink:href="#DejaVuSerif-61" x="300.195312"/>
      <use xlink:href="#DejaVuSerif-67" x="359.814453"/>
      <use xlink:href="#DejaVuSerif-65" x="423.828125"/>
      <use xlink:href="#DejaVuSerif-20" x="483.007812"/>
      <use xlink:href="#DejaVuSerif-64" x="514.794922"/>
      <use xlink:href="#DejaVuSerif-65" x="578.808594"/>
      <use xlink:href="#DejaVuSerif-70" x="637.988281"/>
      <use xlink:href="#DejaVuSerif-74" x="702.001953"/>
      <use xlink:href="#DejaVuSerif-68" x="742.1875"/>
      <use xlink:href="#DejaVuSerif-20" x="806.591797"/>
      <use xlink:href="#DejaVuSerif-28" x="838.378906"/>
      <use xlink:href="#DejaVuSerif-d7" x="877.392578"/>
      <use xlink:href="#DejaVuSerif-29" x="961.181641"/>
     </g>
    </g>
   </g>
   <g id="line2d_28">
    <path d="M 49.571875 163.176748 
L 607.571875 163.176748 
" clip-path="url(#pa956353c44)" style="fill: none; stroke-dasharray: 4.44,1.92; stroke-dashoffset: 0; stroke: #e9c46a; stroke-opacity: 0.7; stroke-width: 1.2"/>
   </g>
   <g id="line2d_29">
    <path d="M 49.571875 273.4656 
L 607.571875 273.4656 
" clip-path="url(#pa956353c44)" style="fill: none; stroke-dasharray: 1.2,1.98; stroke-dashoffset: 0; stroke: #aaaaaa; stroke-opacity: 0.7; stroke-width: 1.2"/>
   </g>
   <g id="patch_21">
    <path d="M 49.571875 301.037813 
L 49.571875 23.837812 
" style="fill: none; stroke: #444444; stroke-linejoin: miter; stroke-linecap: square"/>
   </g>
   <g id="patch_22">
    <path d="M 49.571875 301.037813 
L 607.571875 301.037813 
" style="fill: none; stroke: #444444; stroke-linejoin: miter; stroke-linecap: square"/>
   </g>
   <g id="text_30">
    <!-- *Z9867 -->
    <g style="fill: #e64b35" transform="translate(241.18133 145.39267) scale(0.08 -0.08)">
     <defs>
      <path id="DejaVuSerif-Bold-2a" d="M 3206 3788 
L 2081 3263 
L 3206 2731 
L 2900 2247 
L 1875 2994 
L 1959 1778 
L 1388 1778 
L 1472 2994 
L 447 2247 
L 141 2731 
L 1269 3263 
L 141 3788 
L 447 4281 
L 1472 3525 
L 1388 4750 
L 1959 4750 
L 1875 3525 
L 2900 4281 
L 3206 3788 
z
" transform="scale(0.015625)"/>
      <path id="DejaVuSerif-Bold-5a" d="M 238 0 
L 238 441 
L 3022 4238 
L 788 4238 
L 788 3541 
L 359 3541 
L 359 4666 
L 4409 4666 
L 4409 4225 
L 1656 428 
L 4013 428 
L 4013 1081 
L 4441 1081 
L 4441 0 
L 238 0 
z
" transform="scale(0.015625)"/>
      <path id="DejaVuSerif-Bold-39" d="M 2181 4384 
Q 1859 4384 1723 4111 
Q 1588 3838 1588 3163 
Q 1588 2488 1723 2214 
Q 1859 1941 2181 1941 
Q 2503 1941 2640 2214 
Q 2778 2488 2778 3163 
Q 2778 3838 2640 4111 
Q 2503 4384 2181 4384 
z
M 2878 1900 
Q 2672 1734 2420 1651 
Q 2169 1569 1875 1569 
Q 1163 1569 755 1986 
Q 347 2403 347 3138 
Q 347 3913 803 4331 
Q 1259 4750 2106 4750 
Q 3063 4750 3556 4172 
Q 4050 3594 4050 2478 
Q 4050 1206 3503 557 
Q 2956 -91 1881 -91 
Q 1600 -91 1278 -44 
Q 956 3 588 97 
L 588 922 
L 966 922 
Q 1044 603 1261 439 
Q 1478 275 1825 275 
Q 2375 275 2625 658 
Q 2875 1041 2878 1900 
z
" transform="scale(0.015625)"/>
      <path id="DejaVuSerif-Bold-38" d="M 2975 2484 
Q 3531 2394 3820 2075 
Q 4109 1756 4109 1241 
Q 4109 597 3623 253 
Q 3138 -91 2222 -91 
Q 1306 -91 818 253 
Q 331 597 331 1241 
Q 331 1756 622 2075 
Q 913 2394 1466 2484 
Q 975 2597 731 2861 
Q 488 3125 488 3531 
Q 488 4125 931 4437 
Q 1375 4750 2222 4750 
Q 3066 4750 3511 4437 
Q 3956 4125 3956 3531 
Q 3956 3125 3711 2861 
Q 3466 2597 2975 2484 
z
M 2747 3519 
Q 2747 4013 2628 4198 
Q 2509 4384 2222 4384 
Q 1931 4384 1814 4198 
Q 1697 4013 1697 3519 
Q 1697 3028 1814 2845 
Q 1931 2663 2222 2663 
Q 2513 2663 2630 2845 
Q 2747 3028 2747 3519 
z
M 2869 1294 
Q 2869 1866 2723 2081 
Q 2578 2297 2222 2297 
Q 1863 2297 1719 2081 
Q 1575 1866 1575 1294 
Q 1575 716 1720 495 
Q 1866 275 2222 275 
Q 2575 275 2722 495 
Q 2869 716 2869 1294 
z
" transform="scale(0.015625)"/>
      <path id="DejaVuSerif-Bold-36" d="M 1575 2766 
Q 1778 2928 2029 3009 
Q 2281 3091 2578 3091 
Q 3294 3091 3701 2672 
Q 4109 2253 4109 1522 
Q 4109 750 3650 329 
Q 3191 -91 2344 -91 
Q 1388 -91 895 486 
Q 403 1063 403 2181 
Q 403 3453 950 4101 
Q 1497 4750 2572 4750 
Q 2853 4750 3175 4703 
Q 3497 4656 3866 4563 
L 3866 3738 
L 3488 3738 
Q 3409 4056 3192 4220 
Q 2975 4384 2631 4384 
Q 2075 4384 1826 4003 
Q 1578 3622 1575 2766 
z
M 2272 275 
Q 2594 275 2731 548 
Q 2869 822 2869 1497 
Q 2869 2172 2731 2445 
Q 2594 2719 2272 2719 
Q 1950 2719 1814 2445 
Q 1678 2172 1678 1497 
Q 1678 822 1814 548 
Q 1950 275 2272 275 
z
" transform="scale(0.015625)"/>
      <path id="DejaVuSerif-Bold-37" d="M 3922 3872 
L 1997 0 
L 1363 0 
L 3238 3781 
L 934 3781 
L 934 3150 
L 506 3150 
L 506 4666 
L 3922 4666 
L 3922 3872 
z
" transform="scale(0.015625)"/>
     </defs>
     <use xlink:href="#DejaVuSerif-Bold-2a"/>
     <use xlink:href="#DejaVuSerif-Bold-5a" x="52.294922"/>
     <use xlink:href="#DejaVuSerif-Bold-39" x="125.292969"/>
     <use xlink:href="#DejaVuSerif-Bold-38" x="194.873047"/>
     <use xlink:href="#DejaVuSerif-Bold-36" x="264.453125"/>
     <use xlink:href="#DejaVuSerif-Bold-37" x="334.033203"/>
    </g>
   </g>
   <g id="text_31">
    <!-- *Z9863 -->
    <g style="fill: #e64b35" transform="translate(355.175202 184.545213) scale(0.08 -0.08)">
     <defs>
      <path id="DejaVuSerif-Bold-33" d="M 550 4531 
Q 963 4641 1350 4695 
Q 1738 4750 2106 4750 
Q 2950 4750 3401 4448 
Q 3853 4147 3853 3584 
Q 3853 3163 3593 2900 
Q 3334 2638 2834 2547 
Q 3444 2450 3744 2131 
Q 4044 1813 4044 1259 
Q 4044 606 3526 257 
Q 3009 -91 2028 -91 
Q 1659 -91 1267 -28 
Q 875 34 447 159 
L 447 1184 
L 825 1184 
Q 859 741 1103 508 
Q 1347 275 1778 275 
Q 2253 275 2512 539 
Q 2772 803 2772 1288 
Q 2772 1794 2501 2069 
Q 2231 2344 1734 2344 
L 1528 2344 
L 1528 2719 
L 1691 2719 
Q 2150 2719 2381 2931 
Q 2613 3144 2613 3566 
Q 2613 3963 2395 4173 
Q 2178 4384 1772 4384 
Q 1403 4384 1187 4182 
Q 972 3981 928 3597 
L 550 3597 
L 550 4531 
z
" transform="scale(0.015625)"/>
     </defs>
     <use xlink:href="#DejaVuSerif-Bold-2a"/>
     <use xlink:href="#DejaVuSerif-Bold-5a" x="52.294922"/>
     <use xlink:href="#DejaVuSerif-Bold-39" x="125.292969"/>
     <use xlink:href="#DejaVuSerif-Bold-38" x="194.873047"/>
     <use xlink:href="#DejaVuSerif-Bold-36" x="264.453125"/>
     <use xlink:href="#DejaVuSerif-Bold-33" x="334.033203"/>
    </g>
   </g>
   <g id="text_32">
    <!-- 10.9× -->
    <g style="fill: #e64b35" transform="translate(529.216634 283.253735) scale(0.08 -0.08)">
     <defs>
      <path id="DejaVuSerif-Bold-31" d="M 878 0 
L 878 378 
L 1753 378 
L 1753 4153 
L 781 3578 
L 781 4044 
L 1953 4750 
L 2938 4750 
L 2938 378 
L 3816 378 
L 3816 0 
L 878 0 
z
" transform="scale(0.015625)"/>
      <path id="DejaVuSerif-Bold-30" d="M 2228 275 
Q 2603 275 2742 615 
Q 2881 956 2881 2328 
Q 2881 3691 2742 4037 
Q 2603 4384 2228 4384 
Q 1853 4384 1714 4043 
Q 1575 3703 1575 2328 
Q 1575 956 1714 615 
Q 1853 275 2228 275 
z
M 2228 -91 
Q 1294 -91 797 532 
Q 300 1156 300 2328 
Q 300 3500 797 4125 
Q 1294 4750 2228 4750 
Q 3159 4750 3656 4125 
Q 4153 3500 4153 2328 
Q 4153 1156 3656 532 
Q 3159 -91 2228 -91 
z
" transform="scale(0.015625)"/>
      <path id="DejaVuSerif-Bold-2e" d="M 519 506 
Q 519 750 694 925 
Q 869 1100 1113 1100 
Q 1359 1100 1534 925 
Q 1709 750 1709 506 
Q 1709 259 1534 84 
Q 1359 -91 1113 -91 
Q 869 -91 694 84 
Q 519 259 519 506 
z
" transform="scale(0.015625)"/>
      <path id="DejaVuSerif-Bold-d7" d="M 4538 3378 
L 3163 2003 
L 4538 628 
L 4056 147 
L 2681 1522 
L 1306 147 
L 825 628 
L 2203 2003 
L 825 3378 
L 1306 3866 
L 2681 2491 
L 4056 3866 
L 4538 3378 
z
" transform="scale(0.015625)"/>
     </defs>
     <use xlink:href="#DejaVuSerif-Bold-31"/>
     <use xlink:href="#DejaVuSerif-Bold-30" x="69.580078"/>
     <use xlink:href="#DejaVuSerif-Bold-2e" x="139.160156"/>
     <use xlink:href="#DejaVuSerif-Bold-39" x="173.974609"/>
     <use xlink:href="#DejaVuSerif-Bold-d7" x="243.554688"/>
    </g>
   </g>
   <g id="text_33">
    <!-- 2.1× -->
    <g style="fill: #e64b35" transform="translate(560.498227 295.385509) scale(0.08 -0.08)">
     <defs>
      <path id="DejaVuSerif-Bold-32" d="M 844 3513 
L 469 3513 
L 469 4519 
Q 850 4634 1223 4692 
Q 1597 4750 1978 4750 
Q 2869 4750 3367 4386 
Q 3866 4022 3866 3372 
Q 3866 2909 3591 2542 
Q 3316 2175 2541 1672 
L 1241 819 
L 3450 819 
L 3450 1369 
L 3878 1369 
L 3878 0 
L 428 0 
L 428 763 
L 1119 1241 
Q 2003 1850 2297 2278 
Q 2591 2706 2591 3278 
Q 2591 3819 2367 4101 
Q 2144 4384 1716 4384 
Q 1347 4384 1125 4161 
Q 903 3938 844 3513 
z
" transform="scale(0.015625)"/>
     </defs>
     <use xlink:href="#DejaVuSerif-Bold-32"/>
     <use xlink:href="#DejaVuSerif-Bold-2e" x="69.580078"/>
     <use xlink:href="#DejaVuSerif-Bold-31" x="104.394531"/>
     <use xlink:href="#DejaVuSerif-Bold-d7" x="173.974609"/>
    </g>
   </g>
   <g id="text_34">
    <!-- Wenjiangduo — mtDNA Coverage Depth -->
    <g transform="translate(185.00625 17.837812) scale(0.14 -0.14)">
     <defs>
      <path id="DejaVuSerif-57" d="M 4878 0 
L 4366 0 
L 3297 3794 
L 2228 0 
L 1716 0 
L 494 4331 
L 31 4331 
L 31 4666 
L 1734 4666 
L 1734 4331 
L 1153 4331 
L 2125 884 
L 3188 4666 
L 3694 4666 
L 4775 844 
L 5753 4331 
L 5216 4331 
L 5216 4666 
L 6559 4666 
L 6559 4331 
L 6100 4331 
L 4878 0 
z
" transform="scale(0.015625)"/>
      <path id="DejaVuSerif-6e" d="M 263 0 
L 263 331 
L 781 331 
L 781 2988 
L 231 2988 
L 231 3322 
L 1356 3322 
L 1356 2731 
Q 1516 3069 1770 3241 
Q 2025 3413 2363 3413 
Q 2913 3413 3172 3097 
Q 3431 2781 3431 2113 
L 3431 331 
L 3944 331 
L 3944 0 
L 2356 0 
L 2356 331 
L 2853 331 
L 2853 1931 
Q 2853 2541 2703 2767 
Q 2553 2994 2175 2994 
Q 1775 2994 1565 2701 
Q 1356 2409 1356 1850 
L 1356 331 
L 1856 331 
L 1856 0 
L 263 0 
z
" transform="scale(0.015625)"/>
      <path id="DejaVuSerif-6a" d="M 641 4353 
Q 641 4497 745 4603 
Q 850 4709 997 4709 
Q 1141 4709 1245 4603 
Q 1350 4497 1350 4353 
Q 1350 4206 1248 4103 
Q 1147 4000 997 4000 
Q 850 4000 745 4103 
Q 641 4206 641 4353 
z
M 781 2988 
L 238 2988 
L 238 3322 
L 1356 3322 
L 1356 -325 
Q 1356 -838 1051 -1130 
Q 747 -1422 213 -1422 
Q -13 -1422 -217 -1370 
Q -422 -1319 -616 -1216 
L -616 -531 
L -319 -531 
Q -297 -831 -164 -972 
Q -31 -1113 225 -1113 
Q 509 -1113 645 -920 
Q 781 -728 781 -325 
L 781 2988 
z
" transform="scale(0.015625)"/>
      <path id="DejaVuSerif-69" d="M 622 4353 
Q 622 4497 726 4603 
Q 831 4709 978 4709 
Q 1122 4709 1226 4603 
Q 1331 4497 1331 4353 
Q 1331 4206 1228 4103 
Q 1125 4000 978 4000 
Q 831 4000 726 4103 
Q 622 4206 622 4353 
z
M 1356 331 
L 1900 331 
L 1900 0 
L 231 0 
L 231 331 
L 781 331 
L 781 2988 
L 231 2988 
L 231 3322 
L 1356 3322 
L 1356 331 
z
" transform="scale(0.015625)"/>
      <path id="DejaVuSerif-75" d="M 2266 3322 
L 3341 3322 
L 3341 331 
L 3884 331 
L 3884 0 
L 2766 0 
L 2766 588 
Q 2606 256 2353 82 
Q 2100 -91 1766 -91 
Q 1213 -91 952 223 
Q 691 538 691 1209 
L 691 2988 
L 172 2988 
L 172 3322 
L 1269 3322 
L 1269 1388 
Q 1269 781 1417 556 
Q 1566 331 1947 331 
Q 2347 331 2556 625 
Q 2766 919 2766 1478 
L 2766 2988 
L 2266 2988 
L 2266 3322 
z
" transform="scale(0.015625)"/>
      <path id="DejaVuSerif-2014" d="M 281 1906 
L 6119 1906 
L 6119 1491 
L 281 1491 
L 281 1906 
z
" transform="scale(0.015625)"/>
      <path id="DejaVuSerif-44" d="M 1581 331 
L 2163 331 
Q 3072 331 3558 850 
Q 4044 1369 4044 2338 
Q 4044 3306 3559 3818 
Q 3075 4331 2163 4331 
L 1581 4331 
L 1581 331 
z
M 353 0 
L 353 331 
L 947 331 
L 947 4331 
L 353 4331 
L 353 4666 
L 2209 4666 
Q 3416 4666 4089 4050 
Q 4763 3434 4763 2338 
Q 4763 1238 4088 619 
Q 3413 0 2209 0 
L 353 0 
z
" transform="scale(0.015625)"/>
      <path id="DejaVuSerif-4e" d="M 313 0 
L 313 331 
L 941 331 
L 941 4331 
L 313 4331 
L 313 4666 
L 1509 4666 
L 4306 984 
L 4306 4331 
L 3681 4331 
L 3681 4666 
L 5319 4666 
L 5319 4331 
L 4691 4331 
L 4691 -91 
L 4313 -91 
L 1325 3841 
L 1325 331 
L 1953 331 
L 1953 0 
L 313 0 
z
" transform="scale(0.015625)"/>
      <path id="DejaVuSerif-41" d="M 1281 1691 
L 2994 1691 
L 2138 3909 
L 1281 1691 
z
M -38 0 
L -38 331 
L 372 331 
L 2034 4666 
L 2559 4666 
L 4225 331 
L 4684 331 
L 4684 0 
L 2988 0 
L 2988 331 
L 3506 331 
L 3116 1356 
L 1153 1356 
L 763 331 
L 1275 331 
L 1275 0 
L -38 0 
z
" transform="scale(0.015625)"/>
     </defs>
     <use xlink:href="#DejaVuSerif-57"/>
     <use xlink:href="#DejaVuSerif-65" x="94.658203"/>
     <use xlink:href="#DejaVuSerif-6e" x="153.837891"/>
     <use xlink:href="#DejaVuSerif-6a" x="218.242188"/>
     <use xlink:href="#DejaVuSerif-69" x="249.248047"/>
     <use xlink:href="#DejaVuSerif-61" x="281.230469"/>
     <use xlink:href="#DejaVuSerif-6e" x="340.849609"/>
     <use xlink:href="#DejaVuSerif-67" x="405.253906"/>
     <use xlink:href="#DejaVuSerif-64" x="469.267578"/>
     <use xlink:href="#DejaVuSerif-75" x="533.28125"/>
     <use xlink:href="#DejaVuSerif-6f" x="597.685547"/>
     <use xlink:href="#DejaVuSerif-20" x="657.890625"/>
     <use xlink:href="#DejaVuSerif-2014" x="689.677734"/>
     <use xlink:href="#DejaVuSerif-20" x="789.677734"/>
     <use xlink:href="#DejaVuSerif-6d" x="821.464844"/>
     <use xlink:href="#DejaVuSerif-74" x="916.289062"/>
     <use xlink:href="#DejaVuSerif-44" x="956.474609"/>
     <use xlink:href="#DejaVuSerif-4e" x="1036.650391"/>
     <use xlink:href="#DejaVuSerif-41" x="1124.150391"/>
     <use xlink:href="#DejaVuSerif-20" x="1196.367188"/>
     <use xlink:href="#DejaVuSerif-43" x="1228.154297"/>
     <use xlink:href="#DejaVuSerif-6f" x="1304.667969"/>
     <use xlink:href="#DejaVuSerif-76" x="1364.873047"/>
     <use xlink:href="#DejaVuSerif-65" x="1421.367188"/>
     <use xlink:href="#DejaVuSerif-72" x="1480.546875"/>
     <use xlink:href="#DejaVuSerif-61" x="1528.349609"/>
     <use xlink:href="#DejaVuSerif-67" x="1587.96875"/>
     <use xlink:href="#DejaVuSerif-65" x="1651.982422"/>
     <use xlink:href="#DejaVuSerif-20" x="1711.162109"/>
     <use xlink:href="#DejaVuSerif-44" x="1742.949219"/>
     <use xlink:href="#DejaVuSerif-65" x="1823.125"/>
     <use xlink:href="#DejaVuSerif-70" x="1882.304688"/>
     <use xlink:href="#DejaVuSerif-74" x="1946.318359"/>
     <use xlink:href="#DejaVuSerif-68" x="1986.503906"/>
    </g>
   </g>
   <g id="legend_1">
    <g id="patch_23">
     <path d="M 487.576563 105.228437 
L 602.571875 105.228437 
L 602.571875 28.837812 
L 487.576563 28.837812 
z
" style="fill: #ffffff; opacity: 0.9; stroke: #cccccc; stroke-linejoin: miter"/>
    </g>
    <g id="patch_24">
     <path d="M 491.576563 40.43625 
L 511.576563 40.43625 
L 511.576563 33.43625 
L 491.576563 33.43625 
z
" style="fill: #4a90d9; stroke: #4a90d9; stroke-linejoin: miter"/>
    </g>
    <g id="text_35">
     <!-- HIGH (≥100×) -->
     <g transform="translate(519.576563 40.43625) scale(0.1 -0.1)">
      <defs>
       <path id="DejaVuSerif-48" d="M 353 0 
L 353 331 
L 947 331 
L 947 4331 
L 353 4331 
L 353 4666 
L 2175 4666 
L 2175 4331 
L 1581 4331 
L 1581 2719 
L 4000 2719 
L 4000 4331 
L 3406 4331 
L 3406 4666 
L 5228 4666 
L 5228 4331 
L 4634 4331 
L 4634 331 
L 5228 331 
L 5228 0 
L 3406 0 
L 3406 331 
L 4000 331 
L 4000 2338 
L 1581 2338 
L 1581 331 
L 2175 331 
L 2175 0 
L 353 0 
z
" transform="scale(0.015625)"/>
       <path id="DejaVuSerif-49" d="M 1581 331 
L 2175 331 
L 2175 0 
L 353 0 
L 353 331 
L 947 331 
L 947 4331 
L 353 4331 
L 353 4666 
L 2175 4666 
L 2175 4331 
L 1581 4331 
L 1581 331 
z
" transform="scale(0.015625)"/>
       <path id="DejaVuSerif-47" d="M 4097 3272 
Q 3988 3856 3641 4136 
Q 3294 4416 2675 4416 
Q 1869 4416 1472 3897 
Q 1075 3378 1075 2328 
Q 1075 1300 1484 772 
Q 1894 244 2688 244 
Q 3041 244 3362 331 
Q 3684 419 3975 594 
L 3975 1797 
L 3097 1797 
L 3097 2131 
L 4609 2131 
L 4609 391 
Q 4194 150 3714 29 
Q 3234 -91 2688 -91 
Q 1631 -91 995 570 
Q 359 1231 359 2328 
Q 359 3434 996 4092 
Q 1634 4750 2713 4750 
Q 3113 4750 3539 4658 
Q 3966 4566 4447 4378 
L 4447 3272 
L 4097 3272 
z
" transform="scale(0.015625)"/>
       <path id="DejaVuSerif-2265" d="M 4684 488 
L 4684 0 
L 678 0 
L 678 488 
L 4684 488 
z
M 678 3206 
L 678 3725 
L 4684 2578 
L 4684 2047 
L 678 897 
L 678 1416 
L 3975 2309 
L 678 3206 
z
" transform="scale(0.015625)"/>
      </defs>
      <use xlink:href="#DejaVuSerif-48"/>
      <use xlink:href="#DejaVuSerif-49" x="87.207031"/>
      <use xlink:href="#DejaVuSerif-47" x="126.708984"/>
      <use xlink:href="#DejaVuSerif-48" x="206.591797"/>
      <use xlink:href="#DejaVuSerif-20" x="293.798828"/>
      <use xlink:href="#DejaVuSerif-28" x="325.585938"/>
      <use xlink:href="#DejaVuSerif-2265" x="364.599609"/>
      <use xlink:href="#DejaVuSerif-31" x="448.388672"/>
      <use xlink:href="#DejaVuSerif-30" x="512.011719"/>
      <use xlink:href="#DejaVuSerif-30" x="575.634766"/>
      <use xlink:href="#DejaVuSerif-d7" x="639.257812"/>
      <use xlink:href="#DejaVuSerif-29" x="723.046875"/>
     </g>
    </g>
    <g id="patch_25">
     <path d="M 491.576563 55.114375 
L 511.576563 55.114375 
L 511.576563 48.114375 
L 491.576563 48.114375 
z
" style="fill: #2a9d8f; stroke: #2a9d8f; stroke-linejoin: miter"/>
    </g>
    <g id="text_36">
     <!-- MID (20–99×) -->
     <g transform="translate(519.576563 55.114375) scale(0.1 -0.1)">
      <defs>
       <path id="DejaVuSerif-4d" d="M 353 0 
L 353 331 
L 947 331 
L 947 4331 
L 319 4331 
L 319 4666 
L 1678 4666 
L 3316 1344 
L 4953 4666 
L 6228 4666 
L 6228 4331 
L 5606 4331 
L 5606 331 
L 6203 331 
L 6203 0 
L 4378 0 
L 4378 331 
L 4972 331 
L 4972 3938 
L 3372 684 
L 2931 684 
L 1331 3938 
L 1331 331 
L 1925 331 
L 1925 0 
L 353 0 
z
" transform="scale(0.015625)"/>
       <path id="DejaVuSerif-2013" d="M 281 1906 
L 2919 1906 
L 2919 1491 
L 281 1491 
L 281 1906 
z
" transform="scale(0.015625)"/>
      </defs>
      <use xlink:href="#DejaVuSerif-4d"/>
      <use xlink:href="#DejaVuSerif-49" x="102.392578"/>
      <use xlink:href="#DejaVuSerif-44" x="141.894531"/>
      <use xlink:href="#DejaVuSerif-20" x="222.070312"/>
      <use xlink:href="#DejaVuSerif-28" x="253.857422"/>
      <use xlink:href="#DejaVuSerif-32" x="292.871094"/>
      <use xlink:href="#DejaVuSerif-30" x="356.494141"/>
      <use xlink:href="#DejaVuSerif-2013" x="420.117188"/>
      <use xlink:href="#DejaVuSerif-39" x="470.117188"/>
      <use xlink:href="#DejaVuSerif-39" x="533.740234"/>
      <use xlink:href="#DejaVuSerif-d7" x="597.363281"/>
      <use xlink:href="#DejaVuSerif-29" x="681.152344"/>
     </g>
    </g>
    <g id="patch_26">
     <path d="M 491.576563 69.7925 
L 511.576563 69.7925 
L 511.576563 62.7925 
L 491.576563 62.7925 
z
" style="fill: #aaaaaa; stroke: #aaaaaa; stroke-linejoin: miter"/>
    </g>
    <g id="text_37">
     <!-- LOW (&lt;20×) -->
     <g transform="translate(519.576563 69.7925) scale(0.1 -0.1)">
      <defs>
       <path id="DejaVuSerif-4c" d="M 353 0 
L 353 331 
L 947 331 
L 947 4331 
L 353 4331 
L 353 4666 
L 2175 4666 
L 2175 4331 
L 1581 4331 
L 1581 384 
L 3713 384 
L 3713 1166 
L 4097 1166 
L 4097 0 
L 353 0 
z
" transform="scale(0.015625)"/>
       <path id="DejaVuSerif-4f" d="M 2625 244 
Q 3391 244 3781 770 
Q 4172 1297 4172 2328 
Q 4172 3363 3781 3889 
Q 3391 4416 2625 4416 
Q 1856 4416 1465 3889 
Q 1075 3363 1075 2328 
Q 1075 1297 1465 770 
Q 1856 244 2625 244 
z
M 2625 -91 
Q 2150 -91 1751 65 
Q 1353 222 1050 525 
Q 700 875 529 1319 
Q 359 1763 359 2328 
Q 359 2894 529 3339 
Q 700 3784 1050 4134 
Q 1356 4441 1750 4595 
Q 2144 4750 2625 4750 
Q 3641 4750 4266 4084 
Q 4891 3419 4891 2328 
Q 4891 1769 4719 1320 
Q 4547 872 4197 525 
Q 3891 219 3497 64 
Q 3103 -91 2625 -91 
z
" transform="scale(0.015625)"/>
       <path id="DejaVuSerif-3c" d="M 4684 3188 
L 1441 2003 
L 4684 825 
L 4684 294 
L 678 1747 
L 678 2266 
L 4684 3719 
L 4684 3188 
z
" transform="scale(0.015625)"/>
      </defs>
      <use xlink:href="#DejaVuSerif-4c"/>
      <use xlink:href="#DejaVuSerif-4f" x="66.40625"/>
      <use xlink:href="#DejaVuSerif-57" x="148.388672"/>
      <use xlink:href="#DejaVuSerif-20" x="251.171875"/>
      <use xlink:href="#DejaVuSerif-28" x="282.958984"/>
      <use xlink:href="#DejaVuSerif-3c" x="321.972656"/>
      <use xlink:href="#DejaVuSerif-32" x="405.761719"/>
      <use xlink:href="#DejaVuSerif-30" x="469.384766"/>
      <use xlink:href="#DejaVuSerif-d7" x="533.007812"/>
      <use xlink:href="#DejaVuSerif-29" x="616.796875"/>
     </g>
    </g>
    <g id="line2d_30">
     <path d="M 491.576563 80.970625 
L 501.576563 80.970625 
L 511.576563 80.970625 
" style="fill: none; stroke-dasharray: 4.44,1.92; stroke-dashoffset: 0; stroke: #e9c46a; stroke-width: 1.2"/>
    </g>
    <g id="text_38">
     <!-- 100× threshold -->
     <g transform="translate(519.576563 84.470625) scale(0.1 -0.1)">
      <defs>
       <path id="DejaVuSerif-73" d="M 359 184 
L 359 959 
L 691 959 
Q 703 588 923 403 
Q 1144 219 1575 219 
Q 1963 219 2166 364 
Q 2369 509 2369 788 
Q 2369 1006 2220 1140 
Q 2072 1275 1594 1428 
L 1178 1569 
Q 750 1706 558 1912 
Q 366 2119 366 2438 
Q 366 2894 700 3153 
Q 1034 3413 1625 3413 
Q 1888 3413 2178 3344 
Q 2469 3275 2778 3144 
L 2778 2419 
L 2447 2419 
Q 2434 2741 2221 2922 
Q 2009 3103 1644 3103 
Q 1281 3103 1095 2975 
Q 909 2847 909 2591 
Q 909 2381 1050 2254 
Q 1191 2128 1613 1997 
L 2069 1856 
Q 2541 1709 2748 1489 
Q 2956 1269 2956 922 
Q 2956 450 2595 179 
Q 2234 -91 1600 -91 
Q 1278 -91 972 -22 
Q 666 47 359 184 
z
" transform="scale(0.015625)"/>
      </defs>
      <use xlink:href="#DejaVuSerif-31"/>
      <use xlink:href="#DejaVuSerif-30" x="63.623047"/>
      <use xlink:href="#DejaVuSerif-30" x="127.246094"/>
      <use xlink:href="#DejaVuSerif-d7" x="190.869141"/>
      <use xlink:href="#DejaVuSerif-20" x="274.658203"/>
      <use xlink:href="#DejaVuSerif-74" x="306.445312"/>
      <use xlink:href="#DejaVuSerif-68" x="346.630859"/>
      <use xlink:href="#DejaVuSerif-72" x="411.035156"/>
      <use xlink:href="#DejaVuSerif-65" x="458.837891"/>
      <use xlink:href="#DejaVuSerif-73" x="518.017578"/>
      <use xlink:href="#DejaVuSerif-68" x="569.335938"/>
      <use xlink:href="#DejaVuSerif-6f" x="633.740234"/>
      <use xlink:href="#DejaVuSerif-6c" x="693.945312"/>
      <use xlink:href="#DejaVuSerif-64" x="725.927734"/>
     </g>
    </g>
    <g id="line2d_31">
     <path d="M 491.576563 95.64875 
L 501.576563 95.64875 
L 511.576563 95.64875 
" style="fill: none; stroke-dasharray: 1.2,1.98; stroke-dashoffset: 0; stroke: #aaaaaa; stroke-width: 1.2"/>
    </g>
    <g id="text_39">
     <!-- 20× threshold -->
     <g transform="translate(519.576563 99.14875) scale(0.1 -0.1)">
      <use xlink:href="#DejaVuSerif-32"/>
      <use xlink:href="#DejaVuSerif-30" x="63.623047"/>
      <use xlink:href="#DejaVuSerif-d7" x="127.246094"/>
      <use xlink:href="#DejaVuSerif-20" x="211.035156"/>
      <use xlink:href="#DejaVuSerif-74" x="242.822266"/>
      <use xlink:href="#DejaVuSerif-68" x="283.007812"/>
      <use xlink:href="#DejaVuSerif-72" x="347.412109"/>
      <use xlink:href="#DejaVuSerif-65" x="395.214844"/>
      <use xlink:href="#DejaVuSerif-73" x="454.394531"/>
      <use xlink:href="#DejaVuSerif-68" x="505.712891"/>
      <use xlink:href="#DejaVuSerif-6f" x="570.117188"/>
      <use xlink:href="#DejaVuSerif-6c" x="630.322266"/>
      <use xlink:href="#DejaVuSerif-64" x="662.304688"/>
     </g>
    </g>
   </g>
  </g>
 </g>
 <defs>
  <clipPath id="pa956353c44">
   <rect x="49.571875" y="23.837812" width="558" height="277.2"/>
  </clipPath>
 </defs>
</svg>
