<?xml version="1.0" encoding="utf-8" standalone="no"?>
<!DOCTYPE svg PUBLIC "-//W3C//DTD SVG 1.1//EN"
  "http://www.w3.org/Graphics/SVG/1.1/DTD/svg11.dtd">
<svg xmlns:xlink="http://www.w3.org/1999/xlink" width="798.267045pt" height="352.500312pt" viewBox="0 0 798.267045 352.500312" xmlns="http://www.w3.org/2000/svg" version="1.1">
 <metadata>
  <rdf:RDF xmlns:dc="http://purl.org/dc/elements/1.1/" xmlns:cc="http://creativecommons.org/ns#" xmlns:rdf="http://www.w3.org/1999/02/22-rdf-syntax-ns#">
   <cc:Work>
    <dc:type rdf:resource="http://purl.org/dc/dcmitype/StillImage"/>
    <dc:date>2026-06-21T13:07:15.339260</dc:date>
    <dc:format>image/svg+xml</dc:format>
    <dc:creator>
     <cc:Agent>
      <dc:title>Matplotlib v3.9.4, https://matplotlib.org/</dc:title>
     </cc:Agent>
    </dc:creator>
   </cc:Work>
  </rdf:RDF>
 </metadata>
 <defs>
  <style type="text/css">*{stroke-linejoin: round; stroke-linecap: butt}</style>
 </defs>
 <g id="figure_1">
  <g id="patch_1">
   <path d="M 0 352.500312 
L 798.267045 352.500312 
L 798.267045 0 
L 0 0 
z
" style="fill: #ffffff"/>
  </g>
  <g id="axes_1">
   <g id="patch_2">
    <path d="M 151.45 52.687812 
C 127.770938 52.687812 104.656031 59.975915 85.259279 73.557667 
C 65.862527 87.139419 51.108188 106.367648 43.009472 128.618688 
C 34.910755 150.869728 33.853567 175.083313 39.98216 197.95553 
C 46.110752 220.827748 59.133096 241.268734 77.27231 256.489341 
L 151.45 168.087812 
z
" style="fill: #6a4c93"/>
   </g>
   <g id="patch_3">
    <path d="M 77.272321 256.489354 
C 91.483073 268.41359 108.36181 276.73725 126.472902 280.752379 
C 144.583995 284.767507 163.398994 284.35695 181.317711 279.555651 
C 199.236427 274.754345 215.736018 265.702361 229.413118 253.169609 
C 243.090218 240.636858 253.545763 224.98903 259.890521 207.556962 
C 266.23528 190.124895 268.2841 171.417215 265.86274 153.025099 
C 263.441373 134.632984 256.620452 117.093025 245.980141 101.897083 
C 235.339829 86.701141 221.190597 74.292599 204.735819 65.726778 
C 188.281042 57.160958 170.000836 52.687812 151.450016 52.687812 
L 151.45 168.087812 
z
" style="fill: #e9c46a"/>
   </g>
   <g id="matplotlib.axis_1"/>
   <g id="matplotlib.axis_2"/>
   <g id="text_1">
    <!-- mtDNA Clade Assignment -->
    <g transform="translate(65.412344 17.837812) scale(0.13 -0.13)">
     <defs>
      <path id="DejaVuSerif-6d" d="M 3316 2675 
Q 3481 3041 3739 3227 
Q 3997 3413 4341 3413 
Q 4863 3413 5119 3089 
Q 5375 2766 5375 2113 
L 5375 331 
L 5894 331 
L 5894 0 
L 4300 0 
L 4300 331 
L 4800 331 
L 4800 2047 
Q 4800 2556 4650 2772 
Q 4500 2988 4153 2988 
Q 3769 2988 3567 2697 
Q 3366 2406 3366 1850 
L 3366 331 
L 3866 331 
L 3866 0 
L 2291 0 
L 2291 331 
L 2791 331 
L 2791 2069 
Q 2791 2566 2641 2777 
Q 2491 2988 2144 2988 
Q 1759 2988 1557 2697 
Q 1356 2406 1356 1850 
L 1356 331 
L 1856 331 
L 1856 0 
L 263 0 
L 263 331 
L 781 331 
L 781 2994 
L 231 2994 
L 231 3322 
L 1356 3322 
L 1356 2731 
Q 1516 3063 1762 3238 
Q 2009 3413 2322 3413 
Q 2709 3413 2968 3220 
Q 3228 3028 3316 2675 
z
" transform="scale(0.015625)"/>
      <path id="DejaVuSerif-74" d="M 691 2988 
L 184 2988 
L 184 3322 
L 691 3322 
L 691 4353 
L 1269 4353 
L 1269 3322 
L 2350 3322 
L 2350 2988 
L 1269 2988 
L 1269 878 
Q 1269 456 1350 337 
Q 1431 219 1650 219 
Q 1875 219 1978 351 
Q 2081 484 2088 781 
L 2522 781 
Q 2497 328 2275 118 
Q 2053 -91 1600 -91 
Q 1103 -91 897 129 
Q 691 350 691 878 
L 691 2988 
z
" transform="scale(0.015625)"/>
      <path id="DejaVuSerif-44" d="M 1581 331 
L 2163 331 
Q 3072 331 3558 850 
Q 4044 1369 4044 2338 
Q 4044 3306 3559 3818 
Q 3075 4331 2163 4331 
L 1581 4331 
L 1581 331 
z
M 353 0 
L 353 331 
L 947 331 
L 947 4331 
L 353 4331 
L 353 4666 
L 2209 4666 
Q 3416 4666 4089 4050 
Q 4763 3434 4763 2338 
Q 4763 1238 4088 619 
Q 3413 0 2209 0 
L 353 0 
z
" transform="scale(0.015625)"/>
      <path id="DejaVuSerif-4e" d="M 313 0 
L 313 331 
L 941 331 
L 941 4331 
L 313 4331 
L 313 4666 
L 1509 4666 
L 4306 984 
L 4306 4331 
L 3681 4331 
L 3681 4666 
L 5319 4666 
L 5319 4331 
L 4691 4331 
L 4691 -91 
L 4313 -91 
L 1325 3841 
L 1325 331 
L 1953 331 
L 1953 0 
L 313 0 
z
" transform="scale(0.015625)"/>
      <path id="DejaVuSerif-41" d="M 1281 1691 
L 2994 1691 
L 2138 3909 
L 1281 1691 
z
M -38 0 
L -38 331 
L 372 331 
L 2034 4666 
L 2559 4666 
L 4225 331 
L 4684 331 
L 4684 0 
L 2988 0 
L 2988 331 
L 3506 331 
L 3116 1356 
L 1153 1356 
L 763 331 
L 1275 331 
L 1275 0 
L -38 0 
z
" transform="scale(0.015625)"/>
      <path id="DejaVuSerif-20" transform="scale(0.015625)"/>
      <path id="DejaVuSerif-43" d="M 4513 1234 
Q 4306 581 3820 245 
Q 3334 -91 2591 -91 
Q 2134 -91 1743 65 
Q 1353 222 1050 525 
Q 700 875 529 1320 
Q 359 1766 359 2328 
Q 359 3416 987 4083 
Q 1616 4750 2644 4750 
Q 3025 4750 3456 4650 
Q 3888 4550 4384 4347 
L 4384 3272 
L 4031 3272 
Q 3916 3859 3567 4137 
Q 3219 4416 2591 4416 
Q 1844 4416 1459 3886 
Q 1075 3356 1075 2328 
Q 1075 1303 1459 773 
Q 1844 244 2591 244 
Q 3113 244 3450 492 
Q 3788 741 3938 1234 
L 4513 1234 
z
" transform="scale(0.015625)"/>
      <path id="DejaVuSerif-6c" d="M 1313 331 
L 1856 331 
L 1856 0 
L 184 0 
L 184 331 
L 738 331 
L 738 4531 
L 184 4531 
L 184 4863 
L 1313 4863 
L 1313 331 
z
" transform="scale(0.015625)"/>
      <path id="DejaVuSerif-61" d="M 2547 1044 
L 2547 1747 
L 1806 1747 
Q 1378 1747 1168 1562 
Q 959 1378 959 997 
Q 959 650 1171 447 
Q 1384 244 1747 244 
Q 2106 244 2326 466 
Q 2547 688 2547 1044 
z
M 3122 2075 
L 3122 331 
L 3634 331 
L 3634 0 
L 2547 0 
L 2547 359 
Q 2356 128 2106 18 
Q 1856 -91 1522 -91 
Q 969 -91 644 203 
Q 319 497 319 997 
Q 319 1513 691 1797 
Q 1063 2081 1741 2081 
L 2547 2081 
L 2547 2309 
Q 2547 2688 2317 2895 
Q 2088 3103 1672 3103 
Q 1328 3103 1125 2947 
Q 922 2791 872 2484 
L 575 2484 
L 575 3156 
Q 875 3284 1158 3348 
Q 1441 3413 1709 3413 
Q 2400 3413 2761 3070 
Q 3122 2728 3122 2075 
z
" transform="scale(0.015625)"/>
      <path id="DejaVuSerif-64" d="M 3359 331 
L 3909 331 
L 3909 0 
L 2784 0 
L 2784 519 
Q 2616 206 2355 57 
Q 2094 -91 1709 -91 
Q 1097 -91 708 395 
Q 319 881 319 1663 
Q 319 2444 706 2928 
Q 1094 3413 1709 3413 
Q 2094 3413 2355 3264 
Q 2616 3116 2784 2803 
L 2784 4531 
L 2241 4531 
L 2241 4863 
L 3359 4863 
L 3359 331 
z
M 2784 1497 
L 2784 1825 
Q 2784 2422 2554 2737 
Q 2325 3053 1888 3053 
Q 1444 3053 1217 2703 
Q 991 2353 991 1663 
Q 991 975 1217 622 
Q 1444 269 1888 269 
Q 2325 269 2554 583 
Q 2784 897 2784 1497 
z
" transform="scale(0.015625)"/>
      <path id="DejaVuSerif-65" d="M 3469 1600 
L 991 1600 
L 991 1575 
Q 991 903 1244 561 
Q 1497 219 1991 219 
Q 2369 219 2611 417 
Q 2853 616 2950 1006 
L 3413 1006 
Q 3275 459 2904 184 
Q 2534 -91 1931 -91 
Q 1203 -91 761 389 
Q 319 869 319 1663 
Q 319 2450 753 2931 
Q 1188 3413 1894 3413 
Q 2647 3413 3050 2948 
Q 3453 2484 3469 1600 
z
M 2791 1931 
Q 2772 2513 2545 2808 
Q 2319 3103 1894 3103 
Q 1497 3103 1269 2806 
Q 1041 2509 991 1931 
L 2791 1931 
z
" transform="scale(0.015625)"/>
      <path id="DejaVuSerif-73" d="M 359 184 
L 359 959 
L 691 959 
Q 703 588 923 403 
Q 1144 219 1575 219 
Q 1963 219 2166 364 
Q 2369 509 2369 788 
Q 2369 1006 2220 1140 
Q 2072 1275 1594 1428 
L 1178 1569 
Q 750 1706 558 1912 
Q 366 2119 366 2438 
Q 366 2894 700 3153 
Q 1034 3413 1625 3413 
Q 1888 3413 2178 3344 
Q 2469 3275 2778 3144 
L 2778 2419 
L 2447 2419 
Q 2434 2741 2221 2922 
Q 2009 3103 1644 3103 
Q 1281 3103 1095 2975 
Q 909 2847 909 2591 
Q 909 2381 1050 2254 
Q 1191 2128 1613 1997 
L 2069 1856 
Q 2541 1709 2748 1489 
Q 2956 1269 2956 922 
Q 2956 450 2595 179 
Q 2234 -91 1600 -91 
Q 1278 -91 972 -22 
Q 666 47 359 184 
z
" transform="scale(0.015625)"/>
      <path id="DejaVuSerif-69" d="M 622 4353 
Q 622 4497 726 4603 
Q 831 4709 978 4709 
Q 1122 4709 1226 4603 
Q 1331 4497 1331 4353 
Q 1331 4206 1228 4103 
Q 1125 4000 978 4000 
Q 831 4000 726 4103 
Q 622 4206 622 4353 
z
M 1356 331 
L 1900 331 
L 1900 0 
L 231 0 
L 231 331 
L 781 331 
L 781 2988 
L 231 2988 
L 231 3322 
L 1356 3322 
L 1356 331 
z
" transform="scale(0.015625)"/>
      <path id="DejaVuSerif-67" d="M 3359 2988 
L 3359 72 
Q 3359 -644 2965 -1033 
Q 2572 -1422 1844 -1422 
Q 1516 -1422 1216 -1362 
Q 916 -1303 641 -1184 
L 641 -488 
L 941 -488 
Q 997 -813 1206 -963 
Q 1416 -1113 1806 -1113 
Q 2313 -1113 2548 -827 
Q 2784 -541 2784 72 
L 2784 519 
Q 2616 206 2355 57 
Q 2094 -91 1709 -91 
Q 1097 -91 708 395 
Q 319 881 319 1663 
Q 319 2444 706 2928 
Q 1094 3413 1709 3413 
Q 2094 3413 2355 3264 
Q 2616 3116 2784 2803 
L 2784 3322 
L 3909 3322 
L 3909 2988 
L 3359 2988 
z
M 2784 1825 
Q 2784 2422 2554 2737 
Q 2325 3053 1888 3053 
Q 1444 3053 1217 2703 
Q 991 2353 991 1663 
Q 991 975 1217 622 
Q 1444 269 1888 269 
Q 2325 269 2554 583 
Q 2784 897 2784 1497 
L 2784 1825 
z
" transform="scale(0.015625)"/>
      <path id="DejaVuSerif-6e" d="M 263 0 
L 263 331 
L 781 331 
L 781 2988 
L 231 2988 
L 231 3322 
L 1356 3322 
L 1356 2731 
Q 1516 3069 1770 3241 
Q 2025 3413 2363 3413 
Q 2913 3413 3172 3097 
Q 3431 2781 3431 2113 
L 3431 331 
L 3944 331 
L 3944 0 
L 2356 0 
L 2356 331 
L 2853 331 
L 2853 1931 
Q 2853 2541 2703 2767 
Q 2553 2994 2175 2994 
Q 1775 2994 1565 2701 
Q 1356 2409 1356 1850 
L 1356 331 
L 1856 331 
L 1856 0 
L 263 0 
z
" transform="scale(0.015625)"/>
     </defs>
     <use xlink:href="#DejaVuSerif-6d"/>
     <use xlink:href="#DejaVuSerif-74" x="94.824219"/>
     <use xlink:href="#DejaVuSerif-44" x="135.009766"/>
     <use xlink:href="#DejaVuSerif-4e" x="215.185547"/>
     <use xlink:href="#DejaVuSerif-41" x="302.685547"/>
     <use xlink:href="#DejaVuSerif-20" x="374.902344"/>
     <use xlink:href="#DejaVuSerif-43" x="406.689453"/>
     <use xlink:href="#DejaVuSerif-6c" x="483.203125"/>
     <use xlink:href="#DejaVuSerif-61" x="515.185547"/>
     <use xlink:href="#DejaVuSerif-64" x="574.804688"/>
     <use xlink:href="#DejaVuSerif-65" x="638.818359"/>
     <use xlink:href="#DejaVuSerif-20" x="697.998047"/>
     <use xlink:href="#DejaVuSerif-41" x="729.785156"/>
     <use xlink:href="#DejaVuSerif-73" x="802.001953"/>
     <use xlink:href="#DejaVuSerif-73" x="853.320312"/>
     <use xlink:href="#DejaVuSerif-69" x="904.638672"/>
     <use xlink:href="#DejaVuSerif-67" x="936.621094"/>
     <use xlink:href="#DejaVuSerif-6e" x="1000.634766"/>
     <use xlink:href="#DejaVuSerif-6d" x="1065.039062"/>
     <use xlink:href="#DejaVuSerif-65" x="1159.863281"/>
     <use xlink:href="#DejaVuSerif-6e" x="1219.042969"/>
     <use xlink:href="#DejaVuSerif-74" x="1283.447266"/>
    </g>
   </g>
   <g id="legend_1">
    <g id="patch_4">
     <path d="M 67.382969 325.147812 
L 235.517031 325.147812 
L 235.517031 296.027187 
L 67.382969 296.027187 
z
" style="fill: #ffffff; opacity: 0.9; stroke: #cccccc; stroke-linejoin: miter"/>
    </g>
    <g id="patch_5">
     <path d="M 70.982969 306.465781 
L 88.982969 306.465781 
L 88.982969 300.165781 
L 70.982969 300.165781 
z
" style="fill: #6a4c93; stroke: #6a4c93; stroke-linejoin: miter"/>
    </g>
    <g id="text_2">
     <!-- Yak-related mtDNA (7/18) -->
     <g transform="translate(96.182969 306.465781) scale(0.09 -0.09)">
      <defs>
       <path id="DejaVuSerif-59" d="M 1209 0 
L 1209 331 
L 1806 331 
L 1806 2009 
L 366 4331 
L -72 4331 
L -72 4666 
L 1663 4666 
L 1663 4331 
L 1119 4331 
L 2284 2444 
L 3450 4331 
L 2925 4331 
L 2925 4666 
L 4281 4666 
L 4281 4331 
L 3841 4331 
L 2438 2069 
L 2438 331 
L 3034 331 
L 3034 0 
L 1209 0 
z
" transform="scale(0.015625)"/>
       <path id="DejaVuSerif-6b" d="M 1831 0 
L 219 0 
L 219 331 
L 738 331 
L 738 4531 
L 184 4531 
L 184 4863 
L 1313 4863 
L 1313 1697 
L 2713 2988 
L 2234 2988 
L 2234 3322 
L 3738 3322 
L 3738 2988 
L 3169 2988 
L 2181 2075 
L 3444 331 
L 3922 331 
L 3922 0 
L 2284 0 
L 2284 331 
L 2759 331 
L 1766 1697 
L 1313 1275 
L 1313 331 
L 1831 331 
L 1831 0 
z
" transform="scale(0.015625)"/>
       <path id="DejaVuSerif-2d" d="M 281 1959 
L 1881 1959 
L 1881 1472 
L 281 1472 
L 281 1959 
z
" transform="scale(0.015625)"/>
       <path id="DejaVuSerif-72" d="M 3059 3328 
L 3059 2497 
L 2728 2497 
Q 2713 2744 2591 2866 
Q 2469 2988 2234 2988 
Q 1809 2988 1582 2694 
Q 1356 2400 1356 1850 
L 1356 331 
L 2022 331 
L 2022 0 
L 263 0 
L 263 331 
L 781 331 
L 781 2994 
L 231 2994 
L 231 3322 
L 1356 3322 
L 1356 2731 
Q 1525 3078 1790 3245 
Q 2056 3413 2438 3413 
Q 2578 3413 2733 3391 
Q 2888 3369 3059 3328 
z
" transform="scale(0.015625)"/>
       <path id="DejaVuSerif-28" d="M 2041 -997 
Q 1281 -656 893 83 
Q 506 822 506 1931 
Q 506 3044 893 3783 
Q 1281 4522 2041 4863 
L 2041 4556 
Q 1559 4225 1350 3623 
Q 1141 3022 1141 1931 
Q 1141 844 1350 242 
Q 1559 -359 2041 -691 
L 2041 -997 
z
" transform="scale(0.015625)"/>
       <path id="DejaVuSerif-37" d="M 3609 4347 
L 1784 0 
L 1319 0 
L 3059 4153 
L 903 4153 
L 903 3578 
L 538 3578 
L 538 4666 
L 3609 4666 
L 3609 4347 
z
" transform="scale(0.015625)"/>
       <path id="DejaVuSerif-2f" d="M 1656 4666 
L 2156 4666 
L 500 -594 
L 0 -594 
L 1656 4666 
z
" transform="scale(0.015625)"/>
       <path id="DejaVuSerif-31" d="M 909 0 
L 909 331 
L 1722 331 
L 1722 4213 
L 781 3603 
L 781 4013 
L 1919 4750 
L 2350 4750 
L 2350 331 
L 3163 331 
L 3163 0 
L 909 0 
z
" transform="scale(0.015625)"/>
       <path id="DejaVuSerif-38" d="M 2981 1275 
Q 2981 1775 2732 2051 
Q 2484 2328 2034 2328 
Q 1584 2328 1336 2051 
Q 1088 1775 1088 1275 
Q 1088 772 1336 495 
Q 1584 219 2034 219 
Q 2484 219 2732 495 
Q 2981 772 2981 1275 
z
M 2853 3541 
Q 2853 3966 2637 4203 
Q 2422 4441 2034 4441 
Q 1650 4441 1433 4203 
Q 1216 3966 1216 3541 
Q 1216 3113 1433 2875 
Q 1650 2638 2034 2638 
Q 2422 2638 2637 2875 
Q 2853 3113 2853 3541 
z
M 2516 2484 
Q 3047 2413 3344 2092 
Q 3641 1772 3641 1275 
Q 3641 619 3225 264 
Q 2809 -91 2034 -91 
Q 1263 -91 845 264 
Q 428 619 428 1275 
Q 428 1772 725 2092 
Q 1022 2413 1556 2484 
Q 1084 2569 832 2842 
Q 581 3116 581 3541 
Q 581 4103 968 4426 
Q 1356 4750 2034 4750 
Q 2713 4750 3100 4426 
Q 3488 4103 3488 3541 
Q 3488 3116 3236 2842 
Q 2984 2569 2516 2484 
z
" transform="scale(0.015625)"/>
       <path id="DejaVuSerif-29" d="M 453 -997 
L 453 -691 
Q 934 -359 1145 242 
Q 1356 844 1356 1931 
Q 1356 3022 1145 3623 
Q 934 4225 453 4556 
L 453 4863 
Q 1216 4522 1603 3783 
Q 1991 3044 1991 1931 
Q 1991 822 1603 83 
Q 1216 -656 453 -997 
z
" transform="scale(0.015625)"/>
      </defs>
      <use xlink:href="#DejaVuSerif-59"/>
      <use xlink:href="#DejaVuSerif-61" x="58.265625"/>
      <use xlink:href="#DejaVuSerif-6b" x="117.884766"/>
      <use xlink:href="#DejaVuSerif-2d" x="176.730469"/>
      <use xlink:href="#DejaVuSerif-72" x="210.519531"/>
      <use xlink:href="#DejaVuSerif-65" x="258.322266"/>
      <use xlink:href="#DejaVuSerif-6c" x="317.501953"/>
      <use xlink:href="#DejaVuSerif-61" x="349.484375"/>
      <use xlink:href="#DejaVuSerif-74" x="409.103516"/>
      <use xlink:href="#DejaVuSerif-65" x="449.289062"/>
      <use xlink:href="#DejaVuSerif-64" x="508.46875"/>
      <use xlink:href="#DejaVuSerif-20" x="572.482422"/>
      <use xlink:href="#DejaVuSerif-6d" x="604.269531"/>
      <use xlink:href="#DejaVuSerif-74" x="699.09375"/>
      <use xlink:href="#DejaVuSerif-44" x="739.279297"/>
      <use xlink:href="#DejaVuSerif-4e" x="819.455078"/>
      <use xlink:href="#DejaVuSerif-41" x="906.955078"/>
      <use xlink:href="#DejaVuSerif-20" x="979.171875"/>
      <use xlink:href="#DejaVuSerif-28" x="1010.958984"/>
      <use xlink:href="#DejaVuSerif-37" x="1049.972656"/>
      <use xlink:href="#DejaVuSerif-2f" x="1113.595703"/>
      <use xlink:href="#DejaVuSerif-31" x="1147.287109"/>
      <use xlink:href="#DejaVuSerif-38" x="1210.910156"/>
      <use xlink:href="#DejaVuSerif-29" x="1274.533203"/>
     </g>
    </g>
    <g id="patch_6">
     <path d="M 70.982969 319.676094 
L 88.982969 319.676094 
L 88.982969 313.376094 
L 70.982969 313.376094 
z
" style="fill: #e9c46a; stroke: #e9c46a; stroke-linejoin: miter"/>
    </g>
    <g id="text_3">
     <!-- Cattle-related mtDNA (11/18) -->
     <g transform="translate(96.182969 319.676094) scale(0.09 -0.09)">
      <use xlink:href="#DejaVuSerif-43"/>
      <use xlink:href="#DejaVuSerif-61" x="76.513672"/>
      <use xlink:href="#DejaVuSerif-74" x="136.132812"/>
      <use xlink:href="#DejaVuSerif-74" x="176.318359"/>
      <use xlink:href="#DejaVuSerif-6c" x="216.503906"/>
      <use xlink:href="#DejaVuSerif-65" x="248.486328"/>
      <use xlink:href="#DejaVuSerif-2d" x="307.666016"/>
      <use xlink:href="#DejaVuSerif-72" x="341.455078"/>
      <use xlink:href="#DejaVuSerif-65" x="389.257812"/>
      <use xlink:href="#DejaVuSerif-6c" x="448.4375"/>
      <use xlink:href="#DejaVuSerif-61" x="480.419922"/>
      <use xlink:href="#DejaVuSerif-74" x="540.039062"/>
      <use xlink:href="#DejaVuSerif-65" x="580.224609"/>
      <use xlink:href="#DejaVuSerif-64" x="639.404297"/>
      <use xlink:href="#DejaVuSerif-20" x="703.417969"/>
      <use xlink:href="#DejaVuSerif-6d" x="735.205078"/>
      <use xlink:href="#DejaVuSerif-74" x="830.029297"/>
      <use xlink:href="#DejaVuSerif-44" x="870.214844"/>
      <use xlink:href="#DejaVuSerif-4e" x="950.390625"/>
      <use xlink:href="#DejaVuSerif-41" x="1037.890625"/>
      <use xlink:href="#DejaVuSerif-20" x="1110.107422"/>
      <use xlink:href="#DejaVuSerif-28" x="1141.894531"/>
      <use xlink:href="#DejaVuSerif-31" x="1180.908203"/>
      <use xlink:href="#DejaVuSerif-31" x="1244.53125"/>
      <use xlink:href="#DejaVuSerif-2f" x="1308.154297"/>
      <use xlink:href="#DejaVuSerif-31" x="1341.845703"/>
      <use xlink:href="#DejaVuSerif-38" x="1405.46875"/>
      <use xlink:href="#DejaVuSerif-29" x="1469.091797"/>
     </g>
    </g>
   </g>
  </g>
  <g id="axes_2">
   <g id="patch_7">
    <path d="M 385.501136 312.337812 
L 791.067045 312.337812 
L 791.067045 23.837812 
L 385.501136 23.837812 
z
" style="fill: #ffffff"/>
   </g>
   <g id="patch_8">
    <path d="M -6179.813666 299.224176 
L 413.232139 299.224176 
L 413.232139 287.436638 
L -6179.813666 287.436638 
z
" clip-path="url(#pf79914a580)" style="fill: #aaaaaa; stroke: #aaaaaa; stroke-linejoin: miter"/>
   </g>
   <g id="patch_9">
    <path d="M -6179.813666 284.489753 
L 494.345321 284.489753 
L 494.345321 272.702215 
L -6179.813666 272.702215 
z
" clip-path="url(#pf79914a580)" style="fill: #aaaaaa; stroke: #aaaaaa; stroke-linejoin: miter"/>
   </g>
   <g id="patch_10">
    <path d="M -6179.813666 269.75533 
L 551.193875 269.75533 
L 551.193875 257.967792 
L -6179.813666 257.967792 
z
" clip-path="url(#pf79914a580)" style="fill: #aaaaaa; stroke: #aaaaaa; stroke-linejoin: miter"/>
   </g>
   <g id="patch_11">
    <path d="M -6179.813666 255.020907 
L 678.063211 255.020907 
L 678.063211 243.233369 
L -6179.813666 243.233369 
z
" clip-path="url(#pf79914a580)" style="fill: #8b5e3c; stroke: #e64b35; stroke-width: 2.5; stroke-linejoin: miter"/>
   </g>
   <g id="patch_12">
    <path d="M -6179.813666 240.286485 
L 716.886614 240.286485 
L 716.886614 228.498946 
L -6179.813666 228.498946 
z
" clip-path="url(#pf79914a580)" style="fill: #6a4c93"/>
   </g>
   <g id="patch_13">
    <path d="M -6179.813666 225.552062 
L 723.12609 225.552062 
L 723.12609 213.764523 
L -6179.813666 213.764523 
z
" clip-path="url(#pf79914a580)" style="fill: #e9c46a"/>
   </g>
   <g id="patch_14">
    <path d="M -6179.813666 210.817639 
L 724.51264 210.817639 
L 724.51264 199.030101 
L -6179.813666 199.030101 
z
" clip-path="url(#pf79914a580)" style="fill: #aaaaaa; stroke: #aaaaaa; stroke-linejoin: miter"/>
   </g>
   <g id="patch_15">
    <path d="M -6179.813666 196.083216 
L 732.138666 196.083216 
L 732.138666 184.295678 
L -6179.813666 184.295678 
z
" clip-path="url(#pf79914a580)" style="fill: #6a4c93"/>
   </g>
   <g id="patch_16">
    <path d="M -6179.813666 181.348793 
L 734.218491 181.348793 
L 734.218491 169.561255 
L -6179.813666 169.561255 
z
" clip-path="url(#pf79914a580)" style="fill: #6a4c93"/>
   </g>
   <g id="patch_17">
    <path d="M -6179.813666 166.61437 
L 740.457966 166.61437 
L 740.457966 154.826832 
L -6179.813666 154.826832 
z
" clip-path="url(#pf79914a580)" style="fill: #e9c46a"/>
   </g>
   <g id="patch_18">
    <path d="M -6179.813666 151.879947 
L 741.151241 151.879947 
L 741.151241 140.092409 
L -6179.813666 140.092409 
z
" clip-path="url(#pf79914a580)" style="fill: #8b5e3c; stroke: #e64b35; stroke-width: 2.5; stroke-linejoin: miter"/>
   </g>
   <g id="patch_19">
    <path d="M -6179.813666 137.145524 
L 743.924341 137.145524 
L 743.924341 125.357986 
L -6179.813666 125.357986 
z
" clip-path="url(#pf79914a580)" style="fill: #e9c46a"/>
   </g>
   <g id="patch_20">
    <path d="M -6179.813666 122.411102 
L 748.777267 122.411102 
L 748.777267 110.623563 
L -6179.813666 110.623563 
z
" clip-path="url(#pf79914a580)" style="fill: #e9c46a"/>
   </g>
   <g id="patch_21">
    <path d="M -6179.813666 107.676679 
L 749.470542 107.676679 
L 749.470542 95.88914 
L -6179.813666 95.88914 
z
" clip-path="url(#pf79914a580)" style="fill: #6a4c93"/>
   </g>
   <g id="patch_22">
    <path d="M -6179.813666 92.942256 
L 750.857092 92.942256 
L 750.857092 81.154718 
L -6179.813666 81.154718 
z
" clip-path="url(#pf79914a580)" style="fill: #e9c46a"/>
   </g>
   <g id="patch_23">
    <path d="M -6179.813666 78.207833 
L 751.550367 78.207833 
L 751.550367 66.420295 
L -6179.813666 66.420295 
z
" clip-path="url(#pf79914a580)" style="fill: #e9c46a"/>
   </g>
   <g id="patch_24">
    <path d="M -6179.813666 63.47341 
L 751.550367 63.47341 
L 751.550367 51.685872 
L -6179.813666 51.685872 
z
" clip-path="url(#pf79914a580)" style="fill: #e9c46a"/>
   </g>
   <g id="patch_25">
    <path d="M -6179.813666 48.738987 
L 752.243642 48.738987 
L 752.243642 36.951449 
L -6179.813666 36.951449 
z
" clip-path="url(#pf79914a580)" style="fill: #6a4c93"/>
   </g>
   <g id="matplotlib.axis_3">
    <g id="xtick_1">
     <g id="line2d_1">
      <defs>
       <path id="me2c0f8872f" d="M 0 0 
L 0 4 
" style="stroke: #333333; stroke-width: 0.8"/>
      </defs>
      <g>
       <use xlink:href="#me2c0f8872f" x="406.299388" y="312.337812" style="fill: #333333; stroke: #333333; stroke-width: 0.8"/>
      </g>
     </g>
     <g id="text_4">
      <!-- 95 -->
      <g style="fill: #333333" transform="translate(399.936888 327.43625) scale(0.1 -0.1)">
       <defs>
        <path id="DejaVuSerif-39" d="M 2994 2091 
Q 2784 1856 2512 1740 
Q 2241 1625 1900 1625 
Q 1206 1625 804 2044 
Q 403 2463 403 3188 
Q 403 3897 839 4323 
Q 1275 4750 2003 4750 
Q 2794 4750 3217 4161 
Q 3641 3572 3641 2478 
Q 3641 1253 3137 581 
Q 2634 -91 1722 -91 
Q 1475 -91 1203 -44 
Q 931 3 647 97 
L 647 872 
L 997 872 
Q 1038 556 1241 387 
Q 1444 219 1784 219 
Q 2391 219 2687 676 
Q 2984 1134 2994 2091 
z
M 1978 4441 
Q 1534 4441 1298 4117 
Q 1063 3794 1063 3188 
Q 1063 2581 1298 2256 
Q 1534 1931 1978 1931 
Q 2422 1931 2658 2245 
Q 2894 2559 2894 3150 
Q 2894 3772 2656 4106 
Q 2419 4441 1978 4441 
z
" transform="scale(0.015625)"/>
        <path id="DejaVuSerif-35" d="M 3219 4666 
L 3219 4153 
L 1081 4153 
L 1081 2816 
Q 1244 2928 1461 2984 
Q 1678 3041 1947 3041 
Q 2703 3041 3140 2622 
Q 3578 2203 3578 1478 
Q 3578 738 3136 323 
Q 2694 -91 1894 -91 
Q 1572 -91 1234 -12 
Q 897 66 544 225 
L 544 1131 
L 897 1131 
Q 925 688 1179 453 
Q 1434 219 1894 219 
Q 2388 219 2653 544 
Q 2919 869 2919 1478 
Q 2919 2084 2655 2407 
Q 2391 2731 1894 2731 
Q 1613 2731 1398 2631 
Q 1184 2531 1019 2322 
L 750 2322 
L 750 4666 
L 3219 4666 
z
" transform="scale(0.015625)"/>
       </defs>
       <use xlink:href="#DejaVuSerif-39"/>
       <use xlink:href="#DejaVuSerif-35" x="63.623047"/>
      </g>
     </g>
    </g>
    <g id="xtick_2">
     <g id="line2d_2">
      <g>
       <use xlink:href="#me2c0f8872f" x="475.626894" y="312.337812" style="fill: #333333; stroke: #333333; stroke-width: 0.8"/>
      </g>
     </g>
     <g id="text_5">
      <!-- 96 -->
      <g style="fill: #333333" transform="translate(469.264394 327.43625) scale(0.1 -0.1)">
       <defs>
        <path id="DejaVuSerif-36" d="M 2094 219 
Q 2534 219 2771 542 
Q 3009 866 3009 1472 
Q 3009 2078 2771 2401 
Q 2534 2725 2094 2725 
Q 1647 2725 1412 2412 
Q 1178 2100 1178 1509 
Q 1178 888 1415 553 
Q 1653 219 2094 219 
z
M 1075 2569 
Q 1288 2803 1556 2918 
Q 1825 3034 2163 3034 
Q 2859 3034 3264 2615 
Q 3669 2197 3669 1472 
Q 3669 763 3233 336 
Q 2797 -91 2069 -91 
Q 1278 -91 853 498 
Q 428 1088 428 2181 
Q 428 3406 931 4078 
Q 1434 4750 2350 4750 
Q 2597 4750 2869 4703 
Q 3141 4656 3425 4563 
L 3425 3794 
L 3072 3794 
Q 3034 4109 2831 4275 
Q 2628 4441 2284 4441 
Q 1678 4441 1381 3981 
Q 1084 3522 1075 2569 
z
" transform="scale(0.015625)"/>
       </defs>
       <use xlink:href="#DejaVuSerif-39"/>
       <use xlink:href="#DejaVuSerif-36" x="63.623047"/>
      </g>
     </g>
    </g>
    <g id="xtick_3">
     <g id="line2d_3">
      <g>
       <use xlink:href="#me2c0f8872f" x="544.9544" y="312.337812" style="fill: #333333; stroke: #333333; stroke-width: 0.8"/>
      </g>
     </g>
     <g id="text_6">
      <!-- 97 -->
      <g style="fill: #333333" transform="translate(538.5919 327.43625) scale(0.1 -0.1)">
       <use xlink:href="#DejaVuSerif-39"/>
       <use xlink:href="#DejaVuSerif-37" x="63.623047"/>
      </g>
     </g>
    </g>
    <g id="xtick_4">
     <g id="line2d_4">
      <g>
       <use xlink:href="#me2c0f8872f" x="614.281906" y="312.337812" style="fill: #333333; stroke: #333333; stroke-width: 0.8"/>
      </g>
     </g>
     <g id="text_7">
      <!-- 98 -->
      <g style="fill: #333333" transform="translate(607.919406 327.43625) scale(0.1 -0.1)">
       <use xlink:href="#DejaVuSerif-39"/>
       <use xlink:href="#DejaVuSerif-38" x="63.623047"/>
      </g>
     </g>
    </g>
    <g id="xtick_5">
     <g id="line2d_5">
      <g>
       <use xlink:href="#me2c0f8872f" x="683.609411" y="312.337812" style="fill: #333333; stroke: #333333; stroke-width: 0.8"/>
      </g>
     </g>
     <g id="text_8">
      <!-- 99 -->
      <g style="fill: #333333" transform="translate(677.246911 327.43625) scale(0.1 -0.1)">
       <use xlink:href="#DejaVuSerif-39"/>
       <use xlink:href="#DejaVuSerif-39" x="63.623047"/>
      </g>
     </g>
    </g>
    <g id="xtick_6">
     <g id="line2d_6">
      <g>
       <use xlink:href="#me2c0f8872f" x="752.936917" y="312.337812" style="fill: #333333; stroke: #333333; stroke-width: 0.8"/>
      </g>
     </g>
     <g id="text_9">
      <!-- 100 -->
      <g style="fill: #333333" transform="translate(743.393167 327.43625) scale(0.1 -0.1)">
       <defs>
        <path id="DejaVuSerif-30" d="M 2034 219 
Q 2513 219 2750 744 
Q 2988 1269 2988 2328 
Q 2988 3391 2750 3916 
Q 2513 4441 2034 4441 
Q 1556 4441 1318 3916 
Q 1081 3391 1081 2328 
Q 1081 1269 1318 744 
Q 1556 219 2034 219 
z
M 2034 -91 
Q 1275 -91 848 546 
Q 422 1184 422 2328 
Q 422 3475 848 4112 
Q 1275 4750 2034 4750 
Q 2797 4750 3222 4112 
Q 3647 3475 3647 2328 
Q 3647 1184 3222 546 
Q 2797 -91 2034 -91 
z
" transform="scale(0.015625)"/>
       </defs>
       <use xlink:href="#DejaVuSerif-31"/>
       <use xlink:href="#DejaVuSerif-30" x="63.623047"/>
       <use xlink:href="#DejaVuSerif-30" x="127.246094"/>
      </g>
     </g>
    </g>
    <g id="text_10">
     <!-- BLAST Percent Identity (%) -->
     <g style="fill: #333333" transform="translate(504.210966 342.634062) scale(0.12 -0.12)">
      <defs>
       <path id="DejaVuSerif-42" d="M 1581 331 
L 2516 331 
Q 3078 331 3337 575 
Q 3597 819 3597 1350 
Q 3597 1878 3339 2120 
Q 3081 2363 2516 2363 
L 1581 2363 
L 1581 331 
z
M 1581 2694 
L 2375 2694 
Q 2888 2694 3123 2891 
Q 3359 3088 3359 3513 
Q 3359 3941 3123 4136 
Q 2888 4331 2375 4331 
L 1581 4331 
L 1581 2694 
z
M 353 0 
L 353 331 
L 947 331 
L 947 4331 
L 353 4331 
L 353 4666 
L 2656 4666 
Q 3363 4666 3720 4377 
Q 4078 4088 4078 3513 
Q 4078 3097 3829 2850 
Q 3581 2603 3103 2547 
Q 3697 2472 4005 2167 
Q 4313 1863 4313 1350 
Q 4313 656 3875 328 
Q 3438 0 2509 0 
L 353 0 
z
" transform="scale(0.015625)"/>
       <path id="DejaVuSerif-4c" d="M 353 0 
L 353 331 
L 947 331 
L 947 4331 
L 353 4331 
L 353 4666 
L 2175 4666 
L 2175 4331 
L 1581 4331 
L 1581 384 
L 3713 384 
L 3713 1166 
L 4097 1166 
L 4097 0 
L 353 0 
z
" transform="scale(0.015625)"/>
       <path id="DejaVuSerif-53" d="M 594 225 
L 594 1288 
L 953 1284 
Q 969 753 1261 498 
Q 1553 244 2150 244 
Q 2706 244 2998 464 
Q 3291 684 3291 1106 
Q 3291 1444 3114 1625 
Q 2938 1806 2369 1978 
L 1753 2163 
Q 1084 2366 811 2669 
Q 538 2972 538 3500 
Q 538 4094 959 4422 
Q 1381 4750 2144 4750 
Q 2469 4750 2856 4679 
Q 3244 4609 3681 4475 
L 3681 3481 
L 3328 3481 
Q 3275 3975 2998 4195 
Q 2722 4416 2156 4416 
Q 1663 4416 1405 4214 
Q 1147 4013 1147 3628 
Q 1147 3294 1340 3103 
Q 1534 2913 2163 2725 
L 2741 2553 
Q 3375 2363 3645 2067 
Q 3916 1772 3916 1275 
Q 3916 597 3481 253 
Q 3047 -91 2188 -91 
Q 1803 -91 1404 -12 
Q 1006 66 594 225 
z
" transform="scale(0.015625)"/>
       <path id="DejaVuSerif-54" d="M 1222 0 
L 1222 331 
L 1819 331 
L 1819 4294 
L 447 4294 
L 447 3566 
L 63 3566 
L 63 4666 
L 4206 4666 
L 4206 3566 
L 3822 3566 
L 3822 4294 
L 2450 4294 
L 2450 331 
L 3047 331 
L 3047 0 
L 1222 0 
z
" transform="scale(0.015625)"/>
       <path id="DejaVuSerif-50" d="M 1581 2375 
L 2406 2375 
Q 2872 2375 3115 2626 
Q 3359 2878 3359 3353 
Q 3359 3831 3115 4081 
Q 2872 4331 2406 4331 
L 1581 4331 
L 1581 2375 
z
M 353 0 
L 353 331 
L 947 331 
L 947 4331 
L 353 4331 
L 353 4666 
L 2559 4666 
Q 3259 4666 3668 4311 
Q 4078 3956 4078 3353 
Q 4078 2753 3668 2397 
Q 3259 2041 2559 2041 
L 1581 2041 
L 1581 331 
L 2303 331 
L 2303 0 
L 353 0 
z
" transform="scale(0.015625)"/>
       <path id="DejaVuSerif-63" d="M 3291 997 
Q 3169 466 2822 187 
Q 2475 -91 1925 -91 
Q 1200 -91 759 389 
Q 319 869 319 1663 
Q 319 2459 759 2936 
Q 1200 3413 1925 3413 
Q 2241 3413 2553 3339 
Q 2866 3266 3181 3116 
L 3181 2266 
L 2847 2266 
Q 2781 2703 2561 2903 
Q 2341 3103 1931 3103 
Q 1466 3103 1228 2742 
Q 991 2381 991 1663 
Q 991 944 1227 581 
Q 1463 219 1931 219 
Q 2303 219 2525 412 
Q 2747 606 2828 997 
L 3291 997 
z
" transform="scale(0.015625)"/>
       <path id="DejaVuSerif-49" d="M 1581 331 
L 2175 331 
L 2175 0 
L 353 0 
L 353 331 
L 947 331 
L 947 4331 
L 353 4331 
L 353 4666 
L 2175 4666 
L 2175 4331 
L 1581 4331 
L 1581 331 
z
" transform="scale(0.015625)"/>
       <path id="DejaVuSerif-79" d="M 1381 -609 
L 1600 -56 
L 359 2988 
L -19 2988 
L -19 3322 
L 1509 3322 
L 1509 2988 
L 978 2988 
L 1913 703 
L 2847 2988 
L 2350 2988 
L 2350 3322 
L 3597 3322 
L 3597 2988 
L 3225 2988 
L 1703 -750 
Q 1547 -1138 1356 -1280 
Q 1166 -1422 819 -1422 
Q 672 -1422 517 -1397 
Q 363 -1372 206 -1325 
L 206 -691 
L 500 -691 
Q 519 -903 608 -995 
Q 697 -1088 884 -1088 
Q 1056 -1088 1161 -992 
Q 1266 -897 1381 -609 
z
" transform="scale(0.015625)"/>
       <path id="DejaVuSerif-25" d="M 1434 4459 
Q 1159 4459 1004 4200 
Q 850 3941 850 3475 
Q 850 3016 1008 2753 
Q 1166 2491 1434 2491 
Q 1700 2491 1854 2752 
Q 2009 3013 2009 3475 
Q 2009 3938 1854 4198 
Q 1700 4459 1434 4459 
z
M 4653 2169 
Q 4381 2169 4226 1906 
Q 4072 1644 4072 1178 
Q 4072 719 4228 458 
Q 4384 197 4653 197 
Q 4922 197 5075 458 
Q 5228 719 5228 1178 
Q 5228 1641 5073 1905 
Q 4919 2169 4653 2169 
z
M 4653 2450 
Q 5147 2450 5437 2106 
Q 5728 1763 5728 1178 
Q 5728 594 5436 251 
Q 5144 -91 4653 -91 
Q 4153 -91 3862 251 
Q 3572 594 3572 1178 
Q 3572 1766 3864 2108 
Q 4156 2450 4653 2450 
z
M 4263 4750 
L 4738 4750 
L 1819 -91 
L 1344 -91 
L 4263 4750 
z
M 1428 4750 
Q 1922 4750 2215 4408 
Q 2509 4066 2509 3481 
Q 2509 2891 2217 2550 
Q 1925 2209 1428 2209 
Q 931 2209 642 2551 
Q 353 2894 353 3481 
Q 353 4063 643 4406 
Q 934 4750 1428 4750 
z
" transform="scale(0.015625)"/>
      </defs>
      <use xlink:href="#DejaVuSerif-42"/>
      <use xlink:href="#DejaVuSerif-4c" x="73.486328"/>
      <use xlink:href="#DejaVuSerif-41" x="139.892578"/>
      <use xlink:href="#DejaVuSerif-53" x="212.109375"/>
      <use xlink:href="#DejaVuSerif-54" x="280.615234"/>
      <use xlink:href="#DejaVuSerif-20" x="347.314453"/>
      <use xlink:href="#DejaVuSerif-50" x="379.101562"/>
      <use xlink:href="#DejaVuSerif-65" x="441.886719"/>
      <use xlink:href="#DejaVuSerif-72" x="501.066406"/>
      <use xlink:href="#DejaVuSerif-63" x="548.869141"/>
      <use xlink:href="#DejaVuSerif-65" x="604.875"/>
      <use xlink:href="#DejaVuSerif-6e" x="664.054688"/>
      <use xlink:href="#DejaVuSerif-74" x="728.458984"/>
      <use xlink:href="#DejaVuSerif-20" x="768.644531"/>
      <use xlink:href="#DejaVuSerif-49" x="800.431641"/>
      <use xlink:href="#DejaVuSerif-64" x="839.933594"/>
      <use xlink:href="#DejaVuSerif-65" x="903.947266"/>
      <use xlink:href="#DejaVuSerif-6e" x="963.126953"/>
      <use xlink:href="#DejaVuSerif-74" x="1027.53125"/>
      <use xlink:href="#DejaVuSerif-69" x="1067.716797"/>
      <use xlink:href="#DejaVuSerif-74" x="1099.699219"/>
      <use xlink:href="#DejaVuSerif-79" x="1139.884766"/>
      <use xlink:href="#DejaVuSerif-20" x="1196.378906"/>
      <use xlink:href="#DejaVuSerif-28" x="1228.166016"/>
      <use xlink:href="#DejaVuSerif-25" x="1267.179688"/>
      <use xlink:href="#DejaVuSerif-29" x="1362.199219"/>
     </g>
    </g>
   </g>
   <g id="matplotlib.axis_4">
    <g id="ytick_1">
     <g id="line2d_7">
      <defs>
       <path id="m17074caf90" d="M 0 0 
L -4 0 
" style="stroke: #333333; stroke-width: 0.8"/>
      </defs>
      <g>
       <use xlink:href="#m17074caf90" x="385.501136" y="293.330407" style="fill: #333333; stroke: #333333; stroke-width: 0.8"/>
      </g>
     </g>
     <g id="text_11">
      <!-- Z9853 -->
      <g style="fill: #333333" transform="translate(352.082386 296.369782) scale(0.08 -0.08)">
       <defs>
        <path id="DejaVuSerif-5a" d="M 288 0 
L 288 225 
L 3194 4281 
L 781 4281 
L 781 3584 
L 397 3584 
L 397 4666 
L 4084 4666 
L 4084 4441 
L 1178 384 
L 3816 384 
L 3816 1038 
L 4197 1038 
L 4197 0 
L 288 0 
z
" transform="scale(0.015625)"/>
        <path id="DejaVuSerif-33" d="M 622 4469 
Q 988 4606 1323 4678 
Q 1659 4750 1953 4750 
Q 2638 4750 3022 4454 
Q 3406 4159 3406 3634 
Q 3406 3213 3140 2930 
Q 2875 2647 2388 2547 
Q 2963 2466 3280 2130 
Q 3597 1794 3597 1259 
Q 3597 606 3158 257 
Q 2719 -91 1894 -91 
Q 1528 -91 1179 -12 
Q 831 66 488 225 
L 488 1131 
L 838 1131 
Q 869 681 1141 450 
Q 1413 219 1906 219 
Q 2384 219 2661 495 
Q 2938 772 2938 1253 
Q 2938 1803 2653 2086 
Q 2369 2369 1819 2369 
L 1522 2369 
L 1522 2688 
L 1678 2688 
Q 2225 2688 2498 2914 
Q 2772 3141 2772 3597 
Q 2772 4006 2547 4223 
Q 2322 4441 1900 4441 
Q 1478 4441 1245 4241 
Q 1013 4041 972 3647 
L 622 3647 
L 622 4469 
z
" transform="scale(0.015625)"/>
       </defs>
       <use xlink:href="#DejaVuSerif-5a"/>
       <use xlink:href="#DejaVuSerif-39" x="69.482422"/>
       <use xlink:href="#DejaVuSerif-38" x="133.105469"/>
       <use xlink:href="#DejaVuSerif-35" x="196.728516"/>
       <use xlink:href="#DejaVuSerif-33" x="260.351562"/>
      </g>
     </g>
    </g>
    <g id="ytick_2">
     <g id="line2d_8">
      <g>
       <use xlink:href="#m17074caf90" x="385.501136" y="278.595984" style="fill: #333333; stroke: #333333; stroke-width: 0.8"/>
      </g>
     </g>
     <g id="text_12">
      <!-- Z9865 -->
      <g style="fill: #333333" transform="translate(352.082386 281.635359) scale(0.08 -0.08)">
       <use xlink:href="#DejaVuSerif-5a"/>
       <use xlink:href="#DejaVuSerif-39" x="69.482422"/>
       <use xlink:href="#DejaVuSerif-38" x="133.105469"/>
       <use xlink:href="#DejaVuSerif-36" x="196.728516"/>
       <use xlink:href="#DejaVuSerif-35" x="260.351562"/>
      </g>
     </g>
    </g>
    <g id="ytick_3">
     <g id="line2d_9">
      <g>
       <use xlink:href="#m17074caf90" x="385.501136" y="263.861561" style="fill: #333333; stroke: #333333; stroke-width: 0.8"/>
      </g>
     </g>
     <g id="text_13">
      <!-- Z9859 -->
      <g style="fill: #333333" transform="translate(352.082386 266.900936) scale(0.08 -0.08)">
       <use xlink:href="#DejaVuSerif-5a"/>
       <use xlink:href="#DejaVuSerif-39" x="69.482422"/>
       <use xlink:href="#DejaVuSerif-38" x="133.105469"/>
       <use xlink:href="#DejaVuSerif-35" x="196.728516"/>
       <use xlink:href="#DejaVuSerif-39" x="260.351562"/>
      </g>
     </g>
    </g>
    <g id="ytick_4">
     <g id="line2d_10">
      <g>
       <use xlink:href="#m17074caf90" x="385.501136" y="249.127138" style="fill: #333333; stroke: #333333; stroke-width: 0.8"/>
      </g>
     </g>
     <g id="text_14">
      <!-- Z9867 -->
      <g style="fill: #333333" transform="translate(352.082386 252.166513) scale(0.08 -0.08)">
       <use xlink:href="#DejaVuSerif-5a"/>
       <use xlink:href="#DejaVuSerif-39" x="69.482422"/>
       <use xlink:href="#DejaVuSerif-38" x="133.105469"/>
       <use xlink:href="#DejaVuSerif-36" x="196.728516"/>
       <use xlink:href="#DejaVuSerif-37" x="260.351562"/>
      </g>
     </g>
    </g>
    <g id="ytick_5">
     <g id="line2d_11">
      <g>
       <use xlink:href="#m17074caf90" x="385.501136" y="234.392715" style="fill: #333333; stroke: #333333; stroke-width: 0.8"/>
      </g>
     </g>
     <g id="text_15">
      <!-- Z9858 -->
      <g style="fill: #333333" transform="translate(352.082386 237.43209) scale(0.08 -0.08)">
       <use xlink:href="#DejaVuSerif-5a"/>
       <use xlink:href="#DejaVuSerif-39" x="69.482422"/>
       <use xlink:href="#DejaVuSerif-38" x="133.105469"/>
       <use xlink:href="#DejaVuSerif-35" x="196.728516"/>
       <use xlink:href="#DejaVuSerif-38" x="260.351562"/>
      </g>
     </g>
    </g>
    <g id="ytick_6">
     <g id="line2d_12">
      <g>
       <use xlink:href="#m17074caf90" x="385.501136" y="219.658293" style="fill: #333333; stroke: #333333; stroke-width: 0.8"/>
      </g>
     </g>
     <g id="text_16">
      <!-- Z9861 -->
      <g style="fill: #333333" transform="translate(352.082386 222.697668) scale(0.08 -0.08)">
       <use xlink:href="#DejaVuSerif-5a"/>
       <use xlink:href="#DejaVuSerif-39" x="69.482422"/>
       <use xlink:href="#DejaVuSerif-38" x="133.105469"/>
       <use xlink:href="#DejaVuSerif-36" x="196.728516"/>
       <use xlink:href="#DejaVuSerif-31" x="260.351562"/>
      </g>
     </g>
    </g>
    <g id="ytick_7">
     <g id="line2d_13">
      <g>
       <use xlink:href="#m17074caf90" x="385.501136" y="204.92387" style="fill: #333333; stroke: #333333; stroke-width: 0.8"/>
      </g>
     </g>
     <g id="text_17">
      <!-- Z9864 -->
      <g style="fill: #333333" transform="translate(352.082386 207.963245) scale(0.08 -0.08)">
       <defs>
        <path id="DejaVuSerif-34" d="M 2234 1581 
L 2234 4063 
L 641 1581 
L 2234 1581 
z
M 3609 0 
L 1484 0 
L 1484 331 
L 2234 331 
L 2234 1247 
L 197 1247 
L 197 1588 
L 2241 4750 
L 2859 4750 
L 2859 1581 
L 3750 1581 
L 3750 1247 
L 2859 1247 
L 2859 331 
L 3609 331 
L 3609 0 
z
" transform="scale(0.015625)"/>
       </defs>
       <use xlink:href="#DejaVuSerif-5a"/>
       <use xlink:href="#DejaVuSerif-39" x="69.482422"/>
       <use xlink:href="#DejaVuSerif-38" x="133.105469"/>
       <use xlink:href="#DejaVuSerif-36" x="196.728516"/>
       <use xlink:href="#DejaVuSerif-34" x="260.351562"/>
      </g>
     </g>
    </g>
    <g id="ytick_8">
     <g id="line2d_14">
      <g>
       <use xlink:href="#m17074caf90" x="385.501136" y="190.189447" style="fill: #333333; stroke: #333333; stroke-width: 0.8"/>
      </g>
     </g>
     <g id="text_18">
      <!-- Z9855 -->
      <g style="fill: #333333" transform="translate(352.082386 193.228822) scale(0.08 -0.08)">
       <use xlink:href="#DejaVuSerif-5a"/>
       <use xlink:href="#DejaVuSerif-39" x="69.482422"/>
       <use xlink:href="#DejaVuSerif-38" x="133.105469"/>
       <use xlink:href="#DejaVuSerif-35" x="196.728516"/>
       <use xlink:href="#DejaVuSerif-35" x="260.351562"/>
      </g>
     </g>
    </g>
    <g id="ytick_9">
     <g id="line2d_15">
      <g>
       <use xlink:href="#m17074caf90" x="385.501136" y="175.455024" style="fill: #333333; stroke: #333333; stroke-width: 0.8"/>
      </g>
     </g>
     <g id="text_19">
      <!-- Z9856 -->
      <g style="fill: #333333" transform="translate(352.082386 178.494399) scale(0.08 -0.08)">
       <use xlink:href="#DejaVuSerif-5a"/>
       <use xlink:href="#DejaVuSerif-39" x="69.482422"/>
       <use xlink:href="#DejaVuSerif-38" x="133.105469"/>
       <use xlink:href="#DejaVuSerif-35" x="196.728516"/>
       <use xlink:href="#DejaVuSerif-36" x="260.351562"/>
      </g>
     </g>
    </g>
    <g id="ytick_10">
     <g id="line2d_16">
      <g>
       <use xlink:href="#m17074caf90" x="385.501136" y="160.720601" style="fill: #333333; stroke: #333333; stroke-width: 0.8"/>
      </g>
     </g>
     <g id="text_20">
      <!-- Z9860 -->
      <g style="fill: #333333" transform="translate(352.082386 163.759976) scale(0.08 -0.08)">
       <use xlink:href="#DejaVuSerif-5a"/>
       <use xlink:href="#DejaVuSerif-39" x="69.482422"/>
       <use xlink:href="#DejaVuSerif-38" x="133.105469"/>
       <use xlink:href="#DejaVuSerif-36" x="196.728516"/>
       <use xlink:href="#DejaVuSerif-30" x="260.351562"/>
      </g>
     </g>
    </g>
    <g id="ytick_11">
     <g id="line2d_17">
      <g>
       <use xlink:href="#m17074caf90" x="385.501136" y="145.986178" style="fill: #333333; stroke: #333333; stroke-width: 0.8"/>
      </g>
     </g>
     <g id="text_21">
      <!-- Z9863 -->
      <g style="fill: #333333" transform="translate(352.082386 149.025553) scale(0.08 -0.08)">
       <use xlink:href="#DejaVuSerif-5a"/>
       <use xlink:href="#DejaVuSerif-39" x="69.482422"/>
       <use xlink:href="#DejaVuSerif-38" x="133.105469"/>
       <use xlink:href="#DejaVuSerif-36" x="196.728516"/>
       <use xlink:href="#DejaVuSerif-33" x="260.351562"/>
      </g>
     </g>
    </g>
    <g id="ytick_12">
     <g id="line2d_18">
      <g>
       <use xlink:href="#m17074caf90" x="385.501136" y="131.251755" style="fill: #333333; stroke: #333333; stroke-width: 0.8"/>
      </g>
     </g>
     <g id="text_22">
      <!-- Z9857 -->
      <g style="fill: #333333" transform="translate(352.082386 134.29113) scale(0.08 -0.08)">
       <use xlink:href="#DejaVuSerif-5a"/>
       <use xlink:href="#DejaVuSerif-39" x="69.482422"/>
       <use xlink:href="#DejaVuSerif-38" x="133.105469"/>
       <use xlink:href="#DejaVuSerif-35" x="196.728516"/>
       <use xlink:href="#DejaVuSerif-37" x="260.351562"/>
      </g>
     </g>
    </g>
    <g id="ytick_13">
     <g id="line2d_19">
      <g>
       <use xlink:href="#m17074caf90" x="385.501136" y="116.517332" style="fill: #333333; stroke: #333333; stroke-width: 0.8"/>
      </g>
     </g>
     <g id="text_23">
      <!-- K0909 -->
      <g style="fill: #333333" transform="translate(351.664886 119.556707) scale(0.08 -0.08)">
       <defs>
        <path id="DejaVuSerif-4b" d="M 353 0 
L 353 331 
L 947 331 
L 947 4331 
L 353 4331 
L 353 4666 
L 2175 4666 
L 2175 4331 
L 1581 4331 
L 1581 2566 
L 3591 4331 
L 3084 4331 
L 3084 4666 
L 4634 4666 
L 4634 4331 
L 4109 4331 
L 2106 2572 
L 4347 331 
L 4878 331 
L 4878 0 
L 3794 0 
L 1581 2216 
L 1581 331 
L 2175 331 
L 2175 0 
L 353 0 
z
" transform="scale(0.015625)"/>
       </defs>
       <use xlink:href="#DejaVuSerif-4b"/>
       <use xlink:href="#DejaVuSerif-30" x="74.707031"/>
       <use xlink:href="#DejaVuSerif-39" x="138.330078"/>
       <use xlink:href="#DejaVuSerif-30" x="201.953125"/>
       <use xlink:href="#DejaVuSerif-39" x="265.576172"/>
      </g>
     </g>
    </g>
    <g id="ytick_14">
     <g id="line2d_20">
      <g>
       <use xlink:href="#m17074caf90" x="385.501136" y="101.78291" style="fill: #333333; stroke: #333333; stroke-width: 0.8"/>
      </g>
     </g>
     <g id="text_24">
      <!-- K0914 -->
      <g style="fill: #333333" transform="translate(351.664886 104.822285) scale(0.08 -0.08)">
       <use xlink:href="#DejaVuSerif-4b"/>
       <use xlink:href="#DejaVuSerif-30" x="74.707031"/>
       <use xlink:href="#DejaVuSerif-39" x="138.330078"/>
       <use xlink:href="#DejaVuSerif-31" x="201.953125"/>
       <use xlink:href="#DejaVuSerif-34" x="265.576172"/>
      </g>
     </g>
    </g>
    <g id="ytick_15">
     <g id="line2d_21">
      <g>
       <use xlink:href="#m17074caf90" x="385.501136" y="87.048487" style="fill: #333333; stroke: #333333; stroke-width: 0.8"/>
      </g>
     </g>
     <g id="text_25">
      <!-- Z9851 -->
      <g style="fill: #333333" transform="translate(352.082386 90.087862) scale(0.08 -0.08)">
       <use xlink:href="#DejaVuSerif-5a"/>
       <use xlink:href="#DejaVuSerif-39" x="69.482422"/>
       <use xlink:href="#DejaVuSerif-38" x="133.105469"/>
       <use xlink:href="#DejaVuSerif-35" x="196.728516"/>
       <use xlink:href="#DejaVuSerif-31" x="260.351562"/>
      </g>
     </g>
    </g>
    <g id="ytick_16">
     <g id="line2d_22">
      <g>
       <use xlink:href="#m17074caf90" x="385.501136" y="72.314064" style="fill: #333333; stroke: #333333; stroke-width: 0.8"/>
      </g>
     </g>
     <g id="text_26">
      <!-- Z9850 -->
      <g style="fill: #333333" transform="translate(352.082386 75.353439) scale(0.08 -0.08)">
       <use xlink:href="#DejaVuSerif-5a"/>
       <use xlink:href="#DejaVuSerif-39" x="69.482422"/>
       <use xlink:href="#DejaVuSerif-38" x="133.105469"/>
       <use xlink:href="#DejaVuSerif-35" x="196.728516"/>
       <use xlink:href="#DejaVuSerif-30" x="260.351562"/>
      </g>
     </g>
    </g>
    <g id="ytick_17">
     <g id="line2d_23">
      <g>
       <use xlink:href="#m17074caf90" x="385.501136" y="57.579641" style="fill: #333333; stroke: #333333; stroke-width: 0.8"/>
      </g>
     </g>
     <g id="text_27">
      <!-- Z9852 -->
      <g style="fill: #333333" transform="translate(352.082386 60.619016) scale(0.08 -0.08)">
       <defs>
        <path id="DejaVuSerif-32" d="M 819 3553 
L 469 3553 
L 469 4384 
Q 803 4563 1142 4656 
Q 1481 4750 1806 4750 
Q 2534 4750 2956 4397 
Q 3378 4044 3378 3438 
Q 3378 2753 2422 1800 
Q 2347 1728 2309 1691 
L 1131 513 
L 3078 513 
L 3078 1088 
L 3444 1088 
L 3444 0 
L 434 0 
L 434 341 
L 1850 1753 
Q 2319 2222 2519 2614 
Q 2719 3006 2719 3438 
Q 2719 3909 2473 4175 
Q 2228 4441 1797 4441 
Q 1350 4441 1106 4219 
Q 863 3997 819 3553 
z
" transform="scale(0.015625)"/>
       </defs>
       <use xlink:href="#DejaVuSerif-5a"/>
       <use xlink:href="#DejaVuSerif-39" x="69.482422"/>
       <use xlink:href="#DejaVuSerif-38" x="133.105469"/>
       <use xlink:href="#DejaVuSerif-35" x="196.728516"/>
       <use xlink:href="#DejaVuSerif-32" x="260.351562"/>
      </g>
     </g>
    </g>
    <g id="ytick_18">
     <g id="line2d_24">
      <g>
       <use xlink:href="#m17074caf90" x="385.501136" y="42.845218" style="fill: #333333; stroke: #333333; stroke-width: 0.8"/>
      </g>
     </g>
     <g id="text_28">
      <!-- Z9854 -->
      <g style="fill: #333333" transform="translate(352.082386 45.884593) scale(0.08 -0.08)">
       <use xlink:href="#DejaVuSerif-5a"/>
       <use xlink:href="#DejaVuSerif-39" x="69.482422"/>
       <use xlink:href="#DejaVuSerif-38" x="133.105469"/>
       <use xlink:href="#DejaVuSerif-35" x="196.728516"/>
       <use xlink:href="#DejaVuSerif-34" x="260.351562"/>
      </g>
     </g>
    </g>
   </g>
   <g id="line2d_25">
    <path d="M 683.609411 312.337812 
L 683.609411 23.837812 
" clip-path="url(#pf79914a580)" style="fill: none; stroke-dasharray: 3.7,1.6; stroke-dashoffset: 0; stroke: #e9c46a; stroke-opacity: 0.6"/>
   </g>
   <g id="patch_26">
    <path d="M 385.501136 312.337812 
L 385.501136 23.837812 
" style="fill: none; stroke: #444444; stroke-linejoin: miter; stroke-linecap: square"/>
   </g>
   <g id="patch_27">
    <path d="M 385.501136 312.337812 
L 791.067045 312.337812 
" style="fill: none; stroke: #444444; stroke-linejoin: miter; stroke-linecap: square"/>
   </g>
   <g id="text_29">
    <!-- BLAST Top Hit Identity per Sample -->
    <g transform="translate(462.712841 17.837812) scale(0.14 -0.14)">
     <defs>
      <path id="DejaVuSerif-6f" d="M 1925 219 
Q 2388 219 2623 584 
Q 2859 950 2859 1663 
Q 2859 2375 2623 2739 
Q 2388 3103 1925 3103 
Q 1463 3103 1227 2739 
Q 991 2375 991 1663 
Q 991 950 1228 584 
Q 1466 219 1925 219 
z
M 1925 -91 
Q 1200 -91 759 389 
Q 319 869 319 1663 
Q 319 2456 758 2934 
Q 1197 3413 1925 3413 
Q 2653 3413 3092 2934 
Q 3531 2456 3531 1663 
Q 3531 869 3092 389 
Q 2653 -91 1925 -91 
z
" transform="scale(0.015625)"/>
      <path id="DejaVuSerif-70" d="M 1313 1825 
L 1313 1497 
Q 1313 897 1542 583 
Q 1772 269 2209 269 
Q 2650 269 2876 622 
Q 3103 975 3103 1663 
Q 3103 2353 2876 2703 
Q 2650 3053 2209 3053 
Q 1772 3053 1542 2737 
Q 1313 2422 1313 1825 
z
M 738 2988 
L 184 2988 
L 184 3322 
L 1313 3322 
L 1313 2803 
Q 1481 3116 1742 3264 
Q 2003 3413 2388 3413 
Q 3000 3413 3387 2928 
Q 3775 2444 3775 1663 
Q 3775 881 3387 395 
Q 3000 -91 2388 -91 
Q 2003 -91 1742 57 
Q 1481 206 1313 519 
L 1313 -997 
L 1856 -997 
L 1856 -1331 
L 184 -1331 
L 184 -997 
L 738 -997 
L 738 2988 
z
" transform="scale(0.015625)"/>
      <path id="DejaVuSerif-48" d="M 353 0 
L 353 331 
L 947 331 
L 947 4331 
L 353 4331 
L 353 4666 
L 2175 4666 
L 2175 4331 
L 1581 4331 
L 1581 2719 
L 4000 2719 
L 4000 4331 
L 3406 4331 
L 3406 4666 
L 5228 4666 
L 5228 4331 
L 4634 4331 
L 4634 331 
L 5228 331 
L 5228 0 
L 3406 0 
L 3406 331 
L 4000 331 
L 4000 2338 
L 1581 2338 
L 1581 331 
L 2175 331 
L 2175 0 
L 353 0 
z
" transform="scale(0.015625)"/>
     </defs>
     <use xlink:href="#DejaVuSerif-42"/>
     <use xlink:href="#DejaVuSerif-4c" x="73.486328"/>
     <use xlink:href="#DejaVuSerif-41" x="139.892578"/>
     <use xlink:href="#DejaVuSerif-53" x="212.109375"/>
     <use xlink:href="#DejaVuSerif-54" x="280.615234"/>
     <use xlink:href="#DejaVuSerif-20" x="347.314453"/>
     <use xlink:href="#DejaVuSerif-54" x="379.101562"/>
     <use xlink:href="#DejaVuSerif-6f" x="438.050781"/>
     <use xlink:href="#DejaVuSerif-70" x="498.255859"/>
     <use xlink:href="#DejaVuSerif-20" x="562.269531"/>
     <use xlink:href="#DejaVuSerif-48" x="594.056641"/>
     <use xlink:href="#DejaVuSerif-69" x="681.263672"/>
     <use xlink:href="#DejaVuSerif-74" x="713.246094"/>
     <use xlink:href="#DejaVuSerif-20" x="753.431641"/>
     <use xlink:href="#DejaVuSerif-49" x="785.21875"/>
     <use xlink:href="#DejaVuSerif-64" x="824.720703"/>
     <use xlink:href="#DejaVuSerif-65" x="888.734375"/>
     <use xlink:href="#DejaVuSerif-6e" x="947.914062"/>
     <use xlink:href="#DejaVuSerif-74" x="1012.318359"/>
     <use xlink:href="#DejaVuSerif-69" x="1052.503906"/>
     <use xlink:href="#DejaVuSerif-74" x="1084.486328"/>
     <use xlink:href="#DejaVuSerif-79" x="1124.671875"/>
     <use xlink:href="#DejaVuSerif-20" x="1181.166016"/>
     <use xlink:href="#DejaVuSerif-70" x="1212.953125"/>
     <use xlink:href="#DejaVuSerif-65" x="1276.966797"/>
     <use xlink:href="#DejaVuSerif-72" x="1336.146484"/>
     <use xlink:href="#DejaVuSerif-20" x="1383.949219"/>
     <use xlink:href="#DejaVuSerif-53" x="1415.736328"/>
     <use xlink:href="#DejaVuSerif-61" x="1484.242188"/>
     <use xlink:href="#DejaVuSerif-6d" x="1543.861328"/>
     <use xlink:href="#DejaVuSerif-70" x="1638.685547"/>
     <use xlink:href="#DejaVuSerif-6c" x="1702.699219"/>
     <use xlink:href="#DejaVuSerif-65" x="1734.681641"/>
    </g>
   </g>
   <g id="legend_2">
    <g id="patch_28">
     <path d="M 669.454545 308.337812 
L 787.067045 308.337812 
L 787.067045 258.967812 
L 669.454545 258.967812 
z
" style="fill: #ffffff; opacity: 0.9; stroke: #cccccc; stroke-linejoin: miter"/>
    </g>
    <g id="patch_29">
     <path d="M 672.654545 268.246562 
L 688.654545 268.246562 
L 688.654545 262.646562 
L 672.654545 262.646562 
z
" style="fill: #6a4c93; stroke: #6a4c93; stroke-linejoin: miter"/>
    </g>
    <g id="text_30">
     <!-- Yak-related mtDNA -->
     <g transform="translate(695.054545 268.246562) scale(0.08 -0.08)">
      <use xlink:href="#DejaVuSerif-59"/>
      <use xlink:href="#DejaVuSerif-61" x="58.265625"/>
      <use xlink:href="#DejaVuSerif-6b" x="117.884766"/>
      <use xlink:href="#DejaVuSerif-2d" x="176.730469"/>
      <use xlink:href="#DejaVuSerif-72" x="210.519531"/>
      <use xlink:href="#DejaVuSerif-65" x="258.322266"/>
      <use xlink:href="#DejaVuSerif-6c" x="317.501953"/>
      <use xlink:href="#DejaVuSerif-61" x="349.484375"/>
      <use xlink:href="#DejaVuSerif-74" x="409.103516"/>
      <use xlink:href="#DejaVuSerif-65" x="449.289062"/>
      <use xlink:href="#DejaVuSerif-64" x="508.46875"/>
      <use xlink:href="#DejaVuSerif-20" x="572.482422"/>
      <use xlink:href="#DejaVuSerif-6d" x="604.269531"/>
      <use xlink:href="#DejaVuSerif-74" x="699.09375"/>
      <use xlink:href="#DejaVuSerif-44" x="739.279297"/>
      <use xlink:href="#DejaVuSerif-4e" x="819.455078"/>
      <use xlink:href="#DejaVuSerif-41" x="906.955078"/>
     </g>
    </g>
    <g id="patch_30">
     <path d="M 672.654545 279.989062 
L 688.654545 279.989062 
L 688.654545 274.389062 
L 672.654545 274.389062 
z
" style="fill: #e9c46a; stroke: #e9c46a; stroke-linejoin: miter"/>
    </g>
    <g id="text_31">
     <!-- Cattle-related mtDNA -->
     <g transform="translate(695.054545 279.989062) scale(0.08 -0.08)">
      <use xlink:href="#DejaVuSerif-43"/>
      <use xlink:href="#DejaVuSerif-61" x="76.513672"/>
      <use xlink:href="#DejaVuSerif-74" x="136.132812"/>
      <use xlink:href="#DejaVuSerif-74" x="176.318359"/>
      <use xlink:href="#DejaVuSerif-6c" x="216.503906"/>
      <use xlink:href="#DejaVuSerif-65" x="248.486328"/>
      <use xlink:href="#DejaVuSerif-2d" x="307.666016"/>
      <use xlink:href="#DejaVuSerif-72" x="341.455078"/>
      <use xlink:href="#DejaVuSerif-65" x="389.257812"/>
      <use xlink:href="#DejaVuSerif-6c" x="448.4375"/>
      <use xlink:href="#DejaVuSerif-61" x="480.419922"/>
      <use xlink:href="#DejaVuSerif-74" x="540.039062"/>
      <use xlink:href="#DejaVuSerif-65" x="580.224609"/>
      <use xlink:href="#DejaVuSerif-64" x="639.404297"/>
      <use xlink:href="#DejaVuSerif-20" x="703.417969"/>
      <use xlink:href="#DejaVuSerif-6d" x="735.205078"/>
      <use xlink:href="#DejaVuSerif-74" x="830.029297"/>
      <use xlink:href="#DejaVuSerif-44" x="870.214844"/>
      <use xlink:href="#DejaVuSerif-4e" x="950.390625"/>
      <use xlink:href="#DejaVuSerif-41" x="1037.890625"/>
     </g>
    </g>
    <g id="patch_31">
     <path d="M 672.654545 291.731562 
L 688.654545 291.731562 
L 688.654545 286.131562 
L 672.654545 286.131562 
z
" style="fill: #8b5e3c; stroke: #e64b35; stroke-width: 1.5; stroke-linejoin: miter"/>
    </g>
    <g id="text_32">
     <!-- Discordant candidate -->
     <g transform="translate(695.054545 291.731562) scale(0.08 -0.08)">
      <use xlink:href="#DejaVuSerif-44"/>
      <use xlink:href="#DejaVuSerif-69" x="80.175781"/>
      <use xlink:href="#DejaVuSerif-73" x="112.158203"/>
      <use xlink:href="#DejaVuSerif-63" x="163.476562"/>
      <use xlink:href="#DejaVuSerif-6f" x="219.482422"/>
      <use xlink:href="#DejaVuSerif-72" x="279.6875"/>
      <use xlink:href="#DejaVuSerif-64" x="327.490234"/>
      <use xlink:href="#DejaVuSerif-61" x="391.503906"/>
      <use xlink:href="#DejaVuSerif-6e" x="451.123047"/>
      <use xlink:href="#DejaVuSerif-74" x="515.527344"/>
      <use xlink:href="#DejaVuSerif-20" x="555.712891"/>
      <use xlink:href="#DejaVuSerif-63" x="587.5"/>
      <use xlink:href="#DejaVuSerif-61" x="643.505859"/>
      <use xlink:href="#DejaVuSerif-6e" x="703.125"/>
      <use xlink:href="#DejaVuSerif-64" x="767.529297"/>
      <use xlink:href="#DejaVuSerif-69" x="831.542969"/>
      <use xlink:href="#DejaVuSerif-64" x="863.525391"/>
      <use xlink:href="#DejaVuSerif-61" x="927.539062"/>
      <use xlink:href="#DejaVuSerif-74" x="987.158203"/>
      <use xlink:href="#DejaVuSerif-65" x="1027.34375"/>
     </g>
    </g>
    <g id="patch_32">
     <path d="M 672.654545 303.474062 
L 688.654545 303.474062 
L 688.654545 297.874062 
L 672.654545 297.874062 
z
" style="fill: #aaaaaa; stroke: #aaaaaa; stroke-linejoin: miter"/>
    </g>
    <g id="text_33">
     <!-- QC caution -->
     <g transform="translate(695.054545 303.474062) scale(0.08 -0.08)">
      <defs>
       <path id="DejaVuSerif-51" d="M 2700 -91 
Q 1628 -91 993 567 
Q 359 1225 359 2328 
Q 359 2894 529 3339 
Q 700 3784 1050 4134 
Q 1356 4441 1750 4595 
Q 2144 4750 2625 4750 
Q 3641 4750 4266 4084 
Q 4891 3419 4891 2328 
Q 4891 1403 4422 773 
Q 3953 144 3128 -38 
Q 3297 -247 3539 -347 
Q 3781 -447 4122 -447 
L 4219 -447 
L 4219 -1025 
Q 3691 -1000 3314 -767 
Q 2938 -534 2700 -91 
z
M 2625 244 
Q 3391 244 3781 770 
Q 4172 1297 4172 2328 
Q 4172 3363 3781 3889 
Q 3391 4416 2625 4416 
Q 1856 4416 1465 3889 
Q 1075 3363 1075 2328 
Q 1075 1297 1465 770 
Q 1856 244 2625 244 
z
" transform="scale(0.015625)"/>
       <path id="DejaVuSerif-75" d="M 2266 3322 
L 3341 3322 
L 3341 331 
L 3884 331 
L 3884 0 
L 2766 0 
L 2766 588 
Q 2606 256 2353 82 
Q 2100 -91 1766 -91 
Q 1213 -91 952 223 
Q 691 538 691 1209 
L 691 2988 
L 172 2988 
L 172 3322 
L 1269 3322 
L 1269 1388 
Q 1269 781 1417 556 
Q 1566 331 1947 331 
Q 2347 331 2556 625 
Q 2766 919 2766 1478 
L 2766 2988 
L 2266 2988 
L 2266 3322 
z
" transform="scale(0.015625)"/>
      </defs>
      <use xlink:href="#DejaVuSerif-51"/>
      <use xlink:href="#DejaVuSerif-43" x="81.982422"/>
      <use xlink:href="#DejaVuSerif-20" x="158.496094"/>
      <use xlink:href="#DejaVuSerif-63" x="190.283203"/>
      <use xlink:href="#DejaVuSerif-61" x="246.289062"/>
      <use xlink:href="#DejaVuSerif-75" x="305.908203"/>
      <use xlink:href="#DejaVuSerif-74" x="370.3125"/>
      <use xlink:href="#DejaVuSerif-69" x="410.498047"/>
      <use xlink:href="#DejaVuSerif-6f" x="442.480469"/>
      <use xlink:href="#DejaVuSerif-6e" x="502.685547"/>
     </g>
    </g>
   </g>
  </g>
 </g>
 <defs>
  <clipPath id="pf79914a580">
   <rect x="385.501136" y="23.837812" width="405.565909" height="288.5"/>
  </clipPath>
 </defs>
</svg>
