<?xml version="1.0" encoding="utf-8" standalone="no"?>
<!DOCTYPE svg PUBLIC "-//W3C//DTD SVG 1.1//EN"
  "http://www.w3.org/Graphics/SVG/1.1/DTD/svg11.dtd">
<svg xmlns:xlink="http://www.w3.org/1999/xlink" width="496.63875pt" height="396.640312pt" viewBox="0 0 496.63875 396.640312" xmlns="http://www.w3.org/2000/svg" version="1.1">
 <metadata>
  <rdf:RDF xmlns:dc="http://purl.org/dc/elements/1.1/" xmlns:cc="http://creativecommons.org/ns#" xmlns:rdf="http://www.w3.org/1999/02/22-rdf-syntax-ns#">
   <cc:Work>
    <dc:type rdf:resource="http://purl.org/dc/dcmitype/StillImage"/>
    <dc:date>2026-06-21T13:07:16.754697</dc:date>
    <dc:format>image/svg+xml</dc:format>
    <dc:creator>
     <cc:Agent>
      <dc:title>Matplotlib v3.9.4, https://matplotlib.org/</dc:title>
     </cc:Agent>
    </dc:creator>
   </cc:Work>
  </rdf:RDF>
 </metadata>
 <defs>
  <style type="text/css">*{stroke-linejoin: round; stroke-linecap: butt}</style>
 </defs>
 <g id="figure_1">
  <g id="patch_1">
   <path d="M 0 396.640312 
L 496.63875 396.640312 
L 496.63875 0 
L 0 0 
z
" style="fill: #ffffff"/>
  </g>
  <g id="axes_1">
   <g id="patch_2">
    <path d="M 43.03875 356.477812 
L 489.43875 356.477812 
L 489.43875 23.837812 
L 43.03875 23.837812 
z
" style="fill: #ffffff"/>
   </g>
   <g id="PathCollection_1">
    <defs>
     <path id="C0_0_34c09f5ef3" d="M 0 4.472136 
C 1.186024 4.472136 2.323632 4.000923 3.162278 3.162278 
C 4.000923 2.323632 4.472136 1.186024 4.472136 -0 
C 4.472136 -1.186024 4.000923 -2.323632 3.162278 -3.162278 
C 2.323632 -4.000923 1.186024 -4.472136 0 -4.472136 
C -1.186024 -4.472136 -2.323632 -4.000923 -3.162278 -3.162278 
C -4.000923 -2.323632 -4.472136 -1.186024 -4.472136 0 
C -4.472136 1.186024 -4.000923 2.323632 -3.162278 3.162278 
C -2.323632 4.000923 -1.186024 4.472136 0 4.472136 
z
"/>
    </defs>
    <g clip-path="url(#pa1c7ccb4e6)">
     <use xlink:href="#C0_0_34c09f5ef3" x="469.147841" y="348.762095" style="fill: #e9c46a; fill-opacity: 0.85; stroke: #ffffff; stroke-opacity: 0.85; stroke-width: 0.5"/>
    </g>
    <g clip-path="url(#pa1c7ccb4e6)">
     <use xlink:href="#C0_0_34c09f5ef3" x="457.068756" y="336.706287" style="fill: #6a4c93; fill-opacity: 0.85; stroke: #ffffff; stroke-opacity: 0.85; stroke-width: 0.5"/>
    </g>
    <g clip-path="url(#pa1c7ccb4e6)">
     <use xlink:href="#C0_0_34c09f5ef3" x="465.162579" y="348.762095" style="fill: #e9c46a; fill-opacity: 0.85; stroke: #ffffff; stroke-opacity: 0.85; stroke-width: 0.5"/>
    </g>
    <g clip-path="url(#pa1c7ccb4e6)">
     <use xlink:href="#C0_0_34c09f5ef3" x="441.720788" y="348.665649" style="fill: #e9c46a; fill-opacity: 0.85; stroke: #ffffff; stroke-opacity: 0.85; stroke-width: 0.5"/>
    </g>
    <g clip-path="url(#pa1c7ccb4e6)">
     <use xlink:href="#C0_0_34c09f5ef3" x="446.273249" y="348.762095" style="fill: #e9c46a; fill-opacity: 0.85; stroke: #ffffff; stroke-opacity: 0.85; stroke-width: 0.5"/>
    </g>
    <g clip-path="url(#pa1c7ccb4e6)">
     <use xlink:href="#C0_0_34c09f5ef3" x="63.329659" y="58.651129" style="fill: #6a4c93; fill-opacity: 0.85; stroke: #ffffff; stroke-opacity: 0.85; stroke-width: 0.5"/>
    </g>
    <g clip-path="url(#pa1c7ccb4e6)">
     <use xlink:href="#C0_0_34c09f5ef3" x="453.480359" y="346.350934" style="fill: #6a4c93; fill-opacity: 0.85; stroke: #ffffff; stroke-opacity: 0.85; stroke-width: 0.5"/>
    </g>
    <g clip-path="url(#pa1c7ccb4e6)">
     <use xlink:href="#C0_0_34c09f5ef3" x="356.515303" y="336.224055" style="fill: #6a4c93; fill-opacity: 0.85; stroke: #ffffff; stroke-opacity: 0.85; stroke-width: 0.5"/>
    </g>
    <g clip-path="url(#pa1c7ccb4e6)">
     <use xlink:href="#C0_0_34c09f5ef3" x="400.268071" y="336.320501" style="fill: #6a4c93; fill-opacity: 0.85; stroke: #ffffff; stroke-opacity: 0.85; stroke-width: 0.5"/>
    </g>
    <g clip-path="url(#pa1c7ccb4e6)">
     <use xlink:href="#C0_0_34c09f5ef3" x="403.963239" y="347.701184" style="fill: #e9c46a; fill-opacity: 0.85; stroke: #ffffff; stroke-opacity: 0.85; stroke-width: 0.5"/>
    </g>
    <g clip-path="url(#pa1c7ccb4e6)">
     <use xlink:href="#C0_0_34c09f5ef3" x="403.85341" y="340.17836" style="fill: #6a4c93; fill-opacity: 0.85; stroke: #ffffff; stroke-opacity: 0.85; stroke-width: 0.5"/>
    </g>
    <g clip-path="url(#pa1c7ccb4e6)">
     <use xlink:href="#C0_0_34c09f5ef3" x="276.758333" y="271.990709" style="fill: #e9c46a; fill-opacity: 0.85; stroke: #ffffff; stroke-opacity: 0.85; stroke-width: 0.5"/>
    </g>
    <g clip-path="url(#pa1c7ccb4e6)">
     <use xlink:href="#C0_0_34c09f5ef3" x="426.193757" y="343.264647" style="fill: #e9c46a; fill-opacity: 0.85; stroke: #ffffff; stroke-opacity: 0.85; stroke-width: 0.5"/>
    </g>
    <g clip-path="url(#pa1c7ccb4e6)">
     <use xlink:href="#C0_0_34c09f5ef3" x="281.427926" y="336.995627" style="fill: #e9c46a; fill-opacity: 0.85; stroke: #ffffff; stroke-opacity: 0.85; stroke-width: 0.5"/>
    </g>
    <g clip-path="url(#pa1c7ccb4e6)">
     <use xlink:href="#C0_0_34c09f5ef3" x="401.06435" y="343.1682" style="fill: #6a4c93; fill-opacity: 0.85; stroke: #ffffff; stroke-opacity: 0.85; stroke-width: 0.5"/>
    </g>
    <g clip-path="url(#pa1c7ccb4e6)">
     <use xlink:href="#C0_0_34c09f5ef3" x="215.349584" y="315.680958" style="fill: #e9c46a; fill-opacity: 0.85; stroke: #ffffff; stroke-opacity: 0.85; stroke-width: 0.5"/>
    </g>
    <g clip-path="url(#pa1c7ccb4e6)">
     <use xlink:href="#C0_0_34c09f5ef3" x="279.757095" y="278.549069" style="fill: #e9c46a; fill-opacity: 0.85; stroke: #ffffff; stroke-opacity: 0.85; stroke-width: 0.5"/>
    </g>
    <g clip-path="url(#pa1c7ccb4e6)">
     <use xlink:href="#C0_0_34c09f5ef3" x="428.662338" y="338.345877" style="fill: #e9c46a; fill-opacity: 0.85; stroke: #ffffff; stroke-opacity: 0.85; stroke-width: 0.5"/>
    </g>
   </g>
   <g id="matplotlib.axis_1">
    <g id="xtick_1">
     <g id="line2d_1">
      <defs>
       <path id="m220765b6cc" d="M 0 0 
L 0 4 
" style="stroke: #333333; stroke-width: 0.8"/>
      </defs>
      <g>
       <use xlink:href="#m220765b6cc" x="207.394444" y="356.477812" style="fill: #333333; stroke: #333333; stroke-width: 0.8"/>
      </g>
     </g>
     <g id="text_1">
      <!-- $\mathdefault{10^{1}}$ -->
      <g style="fill: #333333" transform="translate(198.594444 371.57625) scale(0.1 -0.1)">
       <defs>
        <path id="DejaVuSerif-31" d="M 909 0 
L 909 331 
L 1722 331 
L 1722 4213 
L 781 3603 
L 781 4013 
L 1919 4750 
L 2350 4750 
L 2350 331 
L 3163 331 
L 3163 0 
L 909 0 
z
" transform="scale(0.015625)"/>
        <path id="DejaVuSerif-30" d="M 2034 219 
Q 2513 219 2750 744 
Q 2988 1269 2988 2328 
Q 2988 3391 2750 3916 
Q 2513 4441 2034 4441 
Q 1556 4441 1318 3916 
Q 1081 3391 1081 2328 
Q 1081 1269 1318 744 
Q 1556 219 2034 219 
z
M 2034 -91 
Q 1275 -91 848 546 
Q 422 1184 422 2328 
Q 422 3475 848 4112 
Q 1275 4750 2034 4750 
Q 2797 4750 3222 4112 
Q 3647 3475 3647 2328 
Q 3647 1184 3222 546 
Q 2797 -91 2034 -91 
z
" transform="scale(0.015625)"/>
       </defs>
       <use xlink:href="#DejaVuSerif-31" transform="translate(0 0.7125)"/>
       <use xlink:href="#DejaVuSerif-30" transform="translate(63.623047 0.7125)"/>
       <use xlink:href="#DejaVuSerif-31" transform="translate(128.154453 37.046875) scale(0.7)"/>
      </g>
     </g>
    </g>
    <g id="xtick_2">
     <g id="line2d_2">
      <g>
       <use xlink:href="#m220765b6cc" x="419.948127" y="356.477812" style="fill: #333333; stroke: #333333; stroke-width: 0.8"/>
      </g>
     </g>
     <g id="text_2">
      <!-- $\mathdefault{10^{2}}$ -->
      <g style="fill: #333333" transform="translate(411.148127 371.57625) scale(0.1 -0.1)">
       <defs>
        <path id="DejaVuSerif-32" d="M 819 3553 
L 469 3553 
L 469 4384 
Q 803 4563 1142 4656 
Q 1481 4750 1806 4750 
Q 2534 4750 2956 4397 
Q 3378 4044 3378 3438 
Q 3378 2753 2422 1800 
Q 2347 1728 2309 1691 
L 1131 513 
L 3078 513 
L 3078 1088 
L 3444 1088 
L 3444 0 
L 434 0 
L 434 341 
L 1850 1753 
Q 2319 2222 2519 2614 
Q 2719 3006 2719 3438 
Q 2719 3909 2473 4175 
Q 2228 4441 1797 4441 
Q 1350 4441 1106 4219 
Q 863 3997 819 3553 
z
" transform="scale(0.015625)"/>
       </defs>
       <use xlink:href="#DejaVuSerif-31" transform="translate(0 0.7125)"/>
       <use xlink:href="#DejaVuSerif-30" transform="translate(63.623047 0.7125)"/>
       <use xlink:href="#DejaVuSerif-32" transform="translate(128.154453 37.046875) scale(0.7)"/>
      </g>
     </g>
    </g>
    <g id="xtick_3">
     <g id="line2d_3">
      <defs>
       <path id="m1501263837" d="M 0 0 
L 0 2 
" style="stroke: #333333; stroke-width: 0.6"/>
      </defs>
      <g>
       <use xlink:href="#m1501263837" x="58.825796" y="356.477812" style="fill: #333333; stroke: #333333; stroke-width: 0.6"/>
      </g>
     </g>
    </g>
    <g id="xtick_4">
     <g id="line2d_4">
      <g>
       <use xlink:href="#m1501263837" x="96.254641" y="356.477812" style="fill: #333333; stroke: #333333; stroke-width: 0.6"/>
      </g>
     </g>
    </g>
    <g id="xtick_5">
     <g id="line2d_5">
      <g>
       <use xlink:href="#m1501263837" x="122.81083" y="356.477812" style="fill: #333333; stroke: #333333; stroke-width: 0.6"/>
      </g>
     </g>
    </g>
    <g id="xtick_6">
     <g id="line2d_6">
      <g>
       <use xlink:href="#m1501263837" x="143.40941" y="356.477812" style="fill: #333333; stroke: #333333; stroke-width: 0.6"/>
      </g>
     </g>
    </g>
    <g id="xtick_7">
     <g id="line2d_7">
      <g>
       <use xlink:href="#m1501263837" x="160.239675" y="356.477812" style="fill: #333333; stroke: #333333; stroke-width: 0.6"/>
      </g>
     </g>
    </g>
    <g id="xtick_8">
     <g id="line2d_8">
      <g>
       <use xlink:href="#m1501263837" x="174.469462" y="356.477812" style="fill: #333333; stroke: #333333; stroke-width: 0.6"/>
      </g>
     </g>
    </g>
    <g id="xtick_9">
     <g id="line2d_9">
      <g>
       <use xlink:href="#m1501263837" x="186.795864" y="356.477812" style="fill: #333333; stroke: #333333; stroke-width: 0.6"/>
      </g>
     </g>
    </g>
    <g id="xtick_10">
     <g id="line2d_10">
      <g>
       <use xlink:href="#m1501263837" x="197.668521" y="356.477812" style="fill: #333333; stroke: #333333; stroke-width: 0.6"/>
      </g>
     </g>
    </g>
    <g id="xtick_11">
     <g id="line2d_11">
      <g>
       <use xlink:href="#m1501263837" x="271.379478" y="356.477812" style="fill: #333333; stroke: #333333; stroke-width: 0.6"/>
      </g>
     </g>
    </g>
    <g id="xtick_12">
     <g id="line2d_12">
      <g>
       <use xlink:href="#m1501263837" x="308.808324" y="356.477812" style="fill: #333333; stroke: #333333; stroke-width: 0.6"/>
      </g>
     </g>
    </g>
    <g id="xtick_13">
     <g id="line2d_13">
      <g>
       <use xlink:href="#m1501263837" x="335.364513" y="356.477812" style="fill: #333333; stroke: #333333; stroke-width: 0.6"/>
      </g>
     </g>
    </g>
    <g id="xtick_14">
     <g id="line2d_14">
      <g>
       <use xlink:href="#m1501263837" x="355.963093" y="356.477812" style="fill: #333333; stroke: #333333; stroke-width: 0.6"/>
      </g>
     </g>
    </g>
    <g id="xtick_15">
     <g id="line2d_15">
      <g>
       <use xlink:href="#m1501263837" x="372.793358" y="356.477812" style="fill: #333333; stroke: #333333; stroke-width: 0.6"/>
      </g>
     </g>
    </g>
    <g id="xtick_16">
     <g id="line2d_16">
      <g>
       <use xlink:href="#m1501263837" x="387.023145" y="356.477812" style="fill: #333333; stroke: #333333; stroke-width: 0.6"/>
      </g>
     </g>
    </g>
    <g id="xtick_17">
     <g id="line2d_17">
      <g>
       <use xlink:href="#m1501263837" x="399.349547" y="356.477812" style="fill: #333333; stroke: #333333; stroke-width: 0.6"/>
      </g>
     </g>
    </g>
    <g id="xtick_18">
     <g id="line2d_18">
      <g>
       <use xlink:href="#m1501263837" x="410.222204" y="356.477812" style="fill: #333333; stroke: #333333; stroke-width: 0.6"/>
      </g>
     </g>
    </g>
    <g id="xtick_19">
     <g id="line2d_19">
      <g>
       <use xlink:href="#m1501263837" x="483.933161" y="356.477812" style="fill: #333333; stroke: #333333; stroke-width: 0.6"/>
      </g>
     </g>
    </g>
    <g id="text_3">
     <!-- Coverage depth (×) -->
     <g style="fill: #333333" transform="translate(206.224687 386.774062) scale(0.12 -0.12)">
      <defs>
       <path id="DejaVuSerif-43" d="M 4513 1234 
Q 4306 581 3820 245 
Q 3334 -91 2591 -91 
Q 2134 -91 1743 65 
Q 1353 222 1050 525 
Q 700 875 529 1320 
Q 359 1766 359 2328 
Q 359 3416 987 4083 
Q 1616 4750 2644 4750 
Q 3025 4750 3456 4650 
Q 3888 4550 4384 4347 
L 4384 3272 
L 4031 3272 
Q 3916 3859 3567 4137 
Q 3219 4416 2591 4416 
Q 1844 4416 1459 3886 
Q 1075 3356 1075 2328 
Q 1075 1303 1459 773 
Q 1844 244 2591 244 
Q 3113 244 3450 492 
Q 3788 741 3938 1234 
L 4513 1234 
z
" transform="scale(0.015625)"/>
       <path id="DejaVuSerif-6f" d="M 1925 219 
Q 2388 219 2623 584 
Q 2859 950 2859 1663 
Q 2859 2375 2623 2739 
Q 2388 3103 1925 3103 
Q 1463 3103 1227 2739 
Q 991 2375 991 1663 
Q 991 950 1228 584 
Q 1466 219 1925 219 
z
M 1925 -91 
Q 1200 -91 759 389 
Q 319 869 319 1663 
Q 319 2456 758 2934 
Q 1197 3413 1925 3413 
Q 2653 3413 3092 2934 
Q 3531 2456 3531 1663 
Q 3531 869 3092 389 
Q 2653 -91 1925 -91 
z
" transform="scale(0.015625)"/>
       <path id="DejaVuSerif-76" d="M 1581 0 
L 359 2988 
L -19 2988 
L -19 3322 
L 1509 3322 
L 1509 2988 
L 978 2988 
L 1913 703 
L 2847 2988 
L 2350 2988 
L 2350 3322 
L 3597 3322 
L 3597 2988 
L 3225 2988 
L 2003 0 
L 1581 0 
z
" transform="scale(0.015625)"/>
       <path id="DejaVuSerif-65" d="M 3469 1600 
L 991 1600 
L 991 1575 
Q 991 903 1244 561 
Q 1497 219 1991 219 
Q 2369 219 2611 417 
Q 2853 616 2950 1006 
L 3413 1006 
Q 3275 459 2904 184 
Q 2534 -91 1931 -91 
Q 1203 -91 761 389 
Q 319 869 319 1663 
Q 319 2450 753 2931 
Q 1188 3413 1894 3413 
Q 2647 3413 3050 2948 
Q 3453 2484 3469 1600 
z
M 2791 1931 
Q 2772 2513 2545 2808 
Q 2319 3103 1894 3103 
Q 1497 3103 1269 2806 
Q 1041 2509 991 1931 
L 2791 1931 
z
" transform="scale(0.015625)"/>
       <path id="DejaVuSerif-72" d="M 3059 3328 
L 3059 2497 
L 2728 2497 
Q 2713 2744 2591 2866 
Q 2469 2988 2234 2988 
Q 1809 2988 1582 2694 
Q 1356 2400 1356 1850 
L 1356 331 
L 2022 331 
L 2022 0 
L 263 0 
L 263 331 
L 781 331 
L 781 2994 
L 231 2994 
L 231 3322 
L 1356 3322 
L 1356 2731 
Q 1525 3078 1790 3245 
Q 2056 3413 2438 3413 
Q 2578 3413 2733 3391 
Q 2888 3369 3059 3328 
z
" transform="scale(0.015625)"/>
       <path id="DejaVuSerif-61" d="M 2547 1044 
L 2547 1747 
L 1806 1747 
Q 1378 1747 1168 1562 
Q 959 1378 959 997 
Q 959 650 1171 447 
Q 1384 244 1747 244 
Q 2106 244 2326 466 
Q 2547 688 2547 1044 
z
M 3122 2075 
L 3122 331 
L 3634 331 
L 3634 0 
L 2547 0 
L 2547 359 
Q 2356 128 2106 18 
Q 1856 -91 1522 -91 
Q 969 -91 644 203 
Q 319 497 319 997 
Q 319 1513 691 1797 
Q 1063 2081 1741 2081 
L 2547 2081 
L 2547 2309 
Q 2547 2688 2317 2895 
Q 2088 3103 1672 3103 
Q 1328 3103 1125 2947 
Q 922 2791 872 2484 
L 575 2484 
L 575 3156 
Q 875 3284 1158 3348 
Q 1441 3413 1709 3413 
Q 2400 3413 2761 3070 
Q 3122 2728 3122 2075 
z
" transform="scale(0.015625)"/>
       <path id="DejaVuSerif-67" d="M 3359 2988 
L 3359 72 
Q 3359 -644 2965 -1033 
Q 2572 -1422 1844 -1422 
Q 1516 -1422 1216 -1362 
Q 916 -1303 641 -1184 
L 641 -488 
L 941 -488 
Q 997 -813 1206 -963 
Q 1416 -1113 1806 -1113 
Q 2313 -1113 2548 -827 
Q 2784 -541 2784 72 
L 2784 519 
Q 2616 206 2355 57 
Q 2094 -91 1709 -91 
Q 1097 -91 708 395 
Q 319 881 319 1663 
Q 319 2444 706 2928 
Q 1094 3413 1709 3413 
Q 2094 3413 2355 3264 
Q 2616 3116 2784 2803 
L 2784 3322 
L 3909 3322 
L 3909 2988 
L 3359 2988 
z
M 2784 1825 
Q 2784 2422 2554 2737 
Q 2325 3053 1888 3053 
Q 1444 3053 1217 2703 
Q 991 2353 991 1663 
Q 991 975 1217 622 
Q 1444 269 1888 269 
Q 2325 269 2554 583 
Q 2784 897 2784 1497 
L 2784 1825 
z
" transform="scale(0.015625)"/>
       <path id="DejaVuSerif-20" transform="scale(0.015625)"/>
       <path id="DejaVuSerif-64" d="M 3359 331 
L 3909 331 
L 3909 0 
L 2784 0 
L 2784 519 
Q 2616 206 2355 57 
Q 2094 -91 1709 -91 
Q 1097 -91 708 395 
Q 319 881 319 1663 
Q 319 2444 706 2928 
Q 1094 3413 1709 3413 
Q 2094 3413 2355 3264 
Q 2616 3116 2784 2803 
L 2784 4531 
L 2241 4531 
L 2241 4863 
L 3359 4863 
L 3359 331 
z
M 2784 1497 
L 2784 1825 
Q 2784 2422 2554 2737 
Q 2325 3053 1888 3053 
Q 1444 3053 1217 2703 
Q 991 2353 991 1663 
Q 991 975 1217 622 
Q 1444 269 1888 269 
Q 2325 269 2554 583 
Q 2784 897 2784 1497 
z
" transform="scale(0.015625)"/>
       <path id="DejaVuSerif-70" d="M 1313 1825 
L 1313 1497 
Q 1313 897 1542 583 
Q 1772 269 2209 269 
Q 2650 269 2876 622 
Q 3103 975 3103 1663 
Q 3103 2353 2876 2703 
Q 2650 3053 2209 3053 
Q 1772 3053 1542 2737 
Q 1313 2422 1313 1825 
z
M 738 2988 
L 184 2988 
L 184 3322 
L 1313 3322 
L 1313 2803 
Q 1481 3116 1742 3264 
Q 2003 3413 2388 3413 
Q 3000 3413 3387 2928 
Q 3775 2444 3775 1663 
Q 3775 881 3387 395 
Q 3000 -91 2388 -91 
Q 2003 -91 1742 57 
Q 1481 206 1313 519 
L 1313 -997 
L 1856 -997 
L 1856 -1331 
L 184 -1331 
L 184 -997 
L 738 -997 
L 738 2988 
z
" transform="scale(0.015625)"/>
       <path id="DejaVuSerif-74" d="M 691 2988 
L 184 2988 
L 184 3322 
L 691 3322 
L 691 4353 
L 1269 4353 
L 1269 3322 
L 2350 3322 
L 2350 2988 
L 1269 2988 
L 1269 878 
Q 1269 456 1350 337 
Q 1431 219 1650 219 
Q 1875 219 1978 351 
Q 2081 484 2088 781 
L 2522 781 
Q 2497 328 2275 118 
Q 2053 -91 1600 -91 
Q 1103 -91 897 129 
Q 691 350 691 878 
L 691 2988 
z
" transform="scale(0.015625)"/>
       <path id="DejaVuSerif-68" d="M 263 0 
L 263 331 
L 781 331 
L 781 4531 
L 231 4531 
L 231 4863 
L 1356 4863 
L 1356 2731 
Q 1516 3069 1770 3241 
Q 2025 3413 2363 3413 
Q 2913 3413 3172 3097 
Q 3431 2781 3431 2113 
L 3431 331 
L 3944 331 
L 3944 0 
L 2356 0 
L 2356 331 
L 2853 331 
L 2853 1931 
Q 2853 2541 2704 2764 
Q 2556 2988 2175 2988 
Q 1775 2988 1565 2697 
Q 1356 2406 1356 1850 
L 1356 331 
L 1856 331 
L 1856 0 
L 263 0 
z
" transform="scale(0.015625)"/>
       <path id="DejaVuSerif-28" d="M 2041 -997 
Q 1281 -656 893 83 
Q 506 822 506 1931 
Q 506 3044 893 3783 
Q 1281 4522 2041 4863 
L 2041 4556 
Q 1559 4225 1350 3623 
Q 1141 3022 1141 1931 
Q 1141 844 1350 242 
Q 1559 -359 2041 -691 
L 2041 -997 
z
" transform="scale(0.015625)"/>
       <path id="DejaVuSerif-d7" d="M 4481 3450 
L 3034 2003 
L 4481 563 
L 4122 213 
L 2681 1650 
L 1241 213 
L 884 563 
L 2322 2003 
L 884 3450 
L 1241 3803 
L 2681 2363 
L 4122 3803 
L 4481 3450 
z
" transform="scale(0.015625)"/>
       <path id="DejaVuSerif-29" d="M 453 -997 
L 453 -691 
Q 934 -359 1145 242 
Q 1356 844 1356 1931 
Q 1356 3022 1145 3623 
Q 934 4225 453 4556 
L 453 4863 
Q 1216 4522 1603 3783 
Q 1991 3044 1991 1931 
Q 1991 822 1603 83 
Q 1216 -656 453 -997 
z
" transform="scale(0.015625)"/>
      </defs>
      <use xlink:href="#DejaVuSerif-43"/>
      <use xlink:href="#DejaVuSerif-6f" x="76.513672"/>
      <use xlink:href="#DejaVuSerif-76" x="136.71875"/>
      <use xlink:href="#DejaVuSerif-65" x="193.212891"/>
      <use xlink:href="#DejaVuSerif-72" x="252.392578"/>
      <use xlink:href="#DejaVuSerif-61" x="300.195312"/>
      <use xlink:href="#DejaVuSerif-67" x="359.814453"/>
      <use xlink:href="#DejaVuSerif-65" x="423.828125"/>
      <use xlink:href="#DejaVuSerif-20" x="483.007812"/>
      <use xlink:href="#DejaVuSerif-64" x="514.794922"/>
      <use xlink:href="#DejaVuSerif-65" x="578.808594"/>
      <use xlink:href="#DejaVuSerif-70" x="637.988281"/>
      <use xlink:href="#DejaVuSerif-74" x="702.001953"/>
      <use xlink:href="#DejaVuSerif-68" x="742.1875"/>
      <use xlink:href="#DejaVuSerif-20" x="806.591797"/>
      <use xlink:href="#DejaVuSerif-28" x="838.378906"/>
      <use xlink:href="#DejaVuSerif-d7" x="877.392578"/>
      <use xlink:href="#DejaVuSerif-29" x="961.181641"/>
     </g>
    </g>
   </g>
   <g id="matplotlib.axis_2">
    <g id="ytick_1">
     <g id="line2d_20">
      <defs>
       <path id="m970a3e97bd" d="M 0 0 
L -4 0 
" style="stroke: #333333; stroke-width: 0.8"/>
      </defs>
      <g>
       <use xlink:href="#m970a3e97bd" x="43.03875" y="348.762095" style="fill: #333333; stroke: #333333; stroke-width: 0.8"/>
      </g>
     </g>
     <g id="text_4">
      <!-- 0 -->
      <g style="fill: #333333" transform="translate(29.17625 352.561314) scale(0.1 -0.1)">
       <use xlink:href="#DejaVuSerif-30"/>
      </g>
     </g>
    </g>
    <g id="ytick_2">
     <g id="line2d_21">
      <g>
       <use xlink:href="#m970a3e97bd" x="43.03875" y="300.538863" style="fill: #333333; stroke: #333333; stroke-width: 0.8"/>
      </g>
     </g>
     <g id="text_5">
      <!-- 5 -->
      <g style="fill: #333333" transform="translate(29.17625 304.338082) scale(0.1 -0.1)">
       <defs>
        <path id="DejaVuSerif-35" d="M 3219 4666 
L 3219 4153 
L 1081 4153 
L 1081 2816 
Q 1244 2928 1461 2984 
Q 1678 3041 1947 3041 
Q 2703 3041 3140 2622 
Q 3578 2203 3578 1478 
Q 3578 738 3136 323 
Q 2694 -91 1894 -91 
Q 1572 -91 1234 -12 
Q 897 66 544 225 
L 544 1131 
L 897 1131 
Q 925 688 1179 453 
Q 1434 219 1894 219 
Q 2388 219 2653 544 
Q 2919 869 2919 1478 
Q 2919 2084 2655 2407 
Q 2391 2731 1894 2731 
Q 1613 2731 1398 2631 
Q 1184 2531 1019 2322 
L 750 2322 
L 750 4666 
L 3219 4666 
z
" transform="scale(0.015625)"/>
       </defs>
       <use xlink:href="#DejaVuSerif-35"/>
      </g>
     </g>
    </g>
    <g id="ytick_3">
     <g id="line2d_22">
      <g>
       <use xlink:href="#m970a3e97bd" x="43.03875" y="252.31563" style="fill: #333333; stroke: #333333; stroke-width: 0.8"/>
      </g>
     </g>
     <g id="text_6">
      <!-- 10 -->
      <g style="fill: #333333" transform="translate(22.81375 256.114849) scale(0.1 -0.1)">
       <use xlink:href="#DejaVuSerif-31"/>
       <use xlink:href="#DejaVuSerif-30" x="63.623047"/>
      </g>
     </g>
    </g>
    <g id="ytick_4">
     <g id="line2d_23">
      <g>
       <use xlink:href="#m970a3e97bd" x="43.03875" y="204.092398" style="fill: #333333; stroke: #333333; stroke-width: 0.8"/>
      </g>
     </g>
     <g id="text_7">
      <!-- 15 -->
      <g style="fill: #333333" transform="translate(22.81375 207.891617) scale(0.1 -0.1)">
       <use xlink:href="#DejaVuSerif-31"/>
       <use xlink:href="#DejaVuSerif-35" x="63.623047"/>
      </g>
     </g>
    </g>
    <g id="ytick_5">
     <g id="line2d_24">
      <g>
       <use xlink:href="#m970a3e97bd" x="43.03875" y="155.869165" style="fill: #333333; stroke: #333333; stroke-width: 0.8"/>
      </g>
     </g>
     <g id="text_8">
      <!-- 20 -->
      <g style="fill: #333333" transform="translate(22.81375 159.668384) scale(0.1 -0.1)">
       <use xlink:href="#DejaVuSerif-32"/>
       <use xlink:href="#DejaVuSerif-30" x="63.623047"/>
      </g>
     </g>
    </g>
    <g id="ytick_6">
     <g id="line2d_25">
      <g>
       <use xlink:href="#m970a3e97bd" x="43.03875" y="107.645933" style="fill: #333333; stroke: #333333; stroke-width: 0.8"/>
      </g>
     </g>
     <g id="text_9">
      <!-- 25 -->
      <g style="fill: #333333" transform="translate(22.81375 111.445151) scale(0.1 -0.1)">
       <use xlink:href="#DejaVuSerif-32"/>
       <use xlink:href="#DejaVuSerif-35" x="63.623047"/>
      </g>
     </g>
    </g>
    <g id="ytick_7">
     <g id="line2d_26">
      <g>
       <use xlink:href="#m970a3e97bd" x="43.03875" y="59.4227" style="fill: #333333; stroke: #333333; stroke-width: 0.8"/>
      </g>
     </g>
     <g id="text_10">
      <!-- 30 -->
      <g style="fill: #333333" transform="translate(22.81375 63.221919) scale(0.1 -0.1)">
       <defs>
        <path id="DejaVuSerif-33" d="M 622 4469 
Q 988 4606 1323 4678 
Q 1659 4750 1953 4750 
Q 2638 4750 3022 4454 
Q 3406 4159 3406 3634 
Q 3406 3213 3140 2930 
Q 2875 2647 2388 2547 
Q 2963 2466 3280 2130 
Q 3597 1794 3597 1259 
Q 3597 606 3158 257 
Q 2719 -91 1894 -91 
Q 1528 -91 1179 -12 
Q 831 66 488 225 
L 488 1131 
L 838 1131 
Q 869 681 1141 450 
Q 1413 219 1906 219 
Q 2384 219 2661 495 
Q 2938 772 2938 1253 
Q 2938 1803 2653 2086 
Q 2369 2369 1819 2369 
L 1522 2369 
L 1522 2688 
L 1678 2688 
Q 2225 2688 2498 2914 
Q 2772 3141 2772 3597 
Q 2772 4006 2547 4223 
Q 2322 4441 1900 4441 
Q 1478 4441 1245 4241 
Q 1013 4041 972 3647 
L 622 3647 
L 622 4469 
z
" transform="scale(0.015625)"/>
       </defs>
       <use xlink:href="#DejaVuSerif-33"/>
       <use xlink:href="#DejaVuSerif-30" x="63.623047"/>
      </g>
     </g>
    </g>
    <g id="text_11">
     <!-- N content (%) -->
     <g style="fill: #333333" transform="translate(16.318125 232.679062) rotate(-90) scale(0.12 -0.12)">
      <defs>
       <path id="DejaVuSerif-4e" d="M 313 0 
L 313 331 
L 941 331 
L 941 4331 
L 313 4331 
L 313 4666 
L 1509 4666 
L 4306 984 
L 4306 4331 
L 3681 4331 
L 3681 4666 
L 5319 4666 
L 5319 4331 
L 4691 4331 
L 4691 -91 
L 4313 -91 
L 1325 3841 
L 1325 331 
L 1953 331 
L 1953 0 
L 313 0 
z
" transform="scale(0.015625)"/>
       <path id="DejaVuSerif-63" d="M 3291 997 
Q 3169 466 2822 187 
Q 2475 -91 1925 -91 
Q 1200 -91 759 389 
Q 319 869 319 1663 
Q 319 2459 759 2936 
Q 1200 3413 1925 3413 
Q 2241 3413 2553 3339 
Q 2866 3266 3181 3116 
L 3181 2266 
L 2847 2266 
Q 2781 2703 2561 2903 
Q 2341 3103 1931 3103 
Q 1466 3103 1228 2742 
Q 991 2381 991 1663 
Q 991 944 1227 581 
Q 1463 219 1931 219 
Q 2303 219 2525 412 
Q 2747 606 2828 997 
L 3291 997 
z
" transform="scale(0.015625)"/>
       <path id="DejaVuSerif-6e" d="M 263 0 
L 263 331 
L 781 331 
L 781 2988 
L 231 2988 
L 231 3322 
L 1356 3322 
L 1356 2731 
Q 1516 3069 1770 3241 
Q 2025 3413 2363 3413 
Q 2913 3413 3172 3097 
Q 3431 2781 3431 2113 
L 3431 331 
L 3944 331 
L 3944 0 
L 2356 0 
L 2356 331 
L 2853 331 
L 2853 1931 
Q 2853 2541 2703 2767 
Q 2553 2994 2175 2994 
Q 1775 2994 1565 2701 
Q 1356 2409 1356 1850 
L 1356 331 
L 1856 331 
L 1856 0 
L 263 0 
z
" transform="scale(0.015625)"/>
       <path id="DejaVuSerif-25" d="M 1434 4459 
Q 1159 4459 1004 4200 
Q 850 3941 850 3475 
Q 850 3016 1008 2753 
Q 1166 2491 1434 2491 
Q 1700 2491 1854 2752 
Q 2009 3013 2009 3475 
Q 2009 3938 1854 4198 
Q 1700 4459 1434 4459 
z
M 4653 2169 
Q 4381 2169 4226 1906 
Q 4072 1644 4072 1178 
Q 4072 719 4228 458 
Q 4384 197 4653 197 
Q 4922 197 5075 458 
Q 5228 719 5228 1178 
Q 5228 1641 5073 1905 
Q 4919 2169 4653 2169 
z
M 4653 2450 
Q 5147 2450 5437 2106 
Q 5728 1763 5728 1178 
Q 5728 594 5436 251 
Q 5144 -91 4653 -91 
Q 4153 -91 3862 251 
Q 3572 594 3572 1178 
Q 3572 1766 3864 2108 
Q 4156 2450 4653 2450 
z
M 4263 4750 
L 4738 4750 
L 1819 -91 
L 1344 -91 
L 4263 4750 
z
M 1428 4750 
Q 1922 4750 2215 4408 
Q 2509 4066 2509 3481 
Q 2509 2891 2217 2550 
Q 1925 2209 1428 2209 
Q 931 2209 642 2551 
Q 353 2894 353 3481 
Q 353 4063 643 4406 
Q 934 4750 1428 4750 
z
" transform="scale(0.015625)"/>
      </defs>
      <use xlink:href="#DejaVuSerif-4e"/>
      <use xlink:href="#DejaVuSerif-20" x="87.5"/>
      <use xlink:href="#DejaVuSerif-63" x="119.287109"/>
      <use xlink:href="#DejaVuSerif-6f" x="175.292969"/>
      <use xlink:href="#DejaVuSerif-6e" x="235.498047"/>
      <use xlink:href="#DejaVuSerif-74" x="299.902344"/>
      <use xlink:href="#DejaVuSerif-65" x="340.087891"/>
      <use xlink:href="#DejaVuSerif-6e" x="399.267578"/>
      <use xlink:href="#DejaVuSerif-74" x="463.671875"/>
      <use xlink:href="#DejaVuSerif-20" x="503.857422"/>
      <use xlink:href="#DejaVuSerif-28" x="535.644531"/>
      <use xlink:href="#DejaVuSerif-25" x="574.658203"/>
      <use xlink:href="#DejaVuSerif-29" x="669.677734"/>
     </g>
    </g>
   </g>
   <g id="line2d_27">
    <path d="M 271.379478 356.477812 
L 271.379478 23.837812 
" clip-path="url(#pa1c7ccb4e6)" style="fill: none; stroke-dasharray: 1,1.65; stroke-dashoffset: 0; stroke: #aaaaaa; stroke-opacity: 0.55"/>
   </g>
   <g id="line2d_28">
    <path d="M 419.948127 356.477812 
L 419.948127 23.837812 
" clip-path="url(#pa1c7ccb4e6)" style="fill: none; stroke-dasharray: 3.7,1.6; stroke-dashoffset: 0; stroke: #e9c46a; stroke-opacity: 0.55"/>
   </g>
   <g id="line2d_29">
    <path d="M 43.03875 300.538863 
L 489.43875 300.538863 
" clip-path="url(#pa1c7ccb4e6)" style="fill: none; stroke-dasharray: 1,1.65; stroke-dashoffset: 0; stroke: #e64b35; stroke-opacity: 0.45"/>
   </g>
   <g id="patch_3">
    <path d="M 43.03875 356.477812 
L 43.03875 23.837812 
" style="fill: none; stroke: #444444; stroke-linejoin: miter; stroke-linecap: square"/>
   </g>
   <g id="patch_4">
    <path d="M 43.03875 356.477812 
L 489.43875 356.477812 
" style="fill: none; stroke: #444444; stroke-linejoin: miter; stroke-linecap: square"/>
   </g>
   <g id="patch_5">
    <path d="M 76.971227 75.868577 
Q 71.391872 68.826699 66.541547 62.704953 
" style="fill: none; opacity: 0.95; stroke: #333333; stroke-width: 1.05; stroke-linecap: round"/>
    <path d="M 67.274709 66.206734 
L 66.541547 62.704953 
L 69.78287 64.219492 
" style="fill: none; opacity: 0.95; stroke: #333333; stroke-width: 1.05; stroke-linecap: round"/>
   </g>
   <g id="text_12">
    <g id="patch_6">
     <path d="M 68.992375 88.845566 
L 97.097375 88.845566 
Q 98.537375 88.845566 98.537375 87.405566 
L 98.537375 79.663066 
Q 98.537375 78.223066 97.097375 78.223066 
L 68.992375 78.223066 
Q 67.552375 78.223066 67.552375 79.663066 
L 67.552375 87.405566 
Q 67.552375 88.845566 68.992375 88.845566 
z
" style="fill: #ffffff; opacity: 0.78"/>
    </g>
    <!-- Z9853 -->
    <g style="fill: #333333" transform="translate(68.992375 85.741816) scale(0.08 -0.08)">
     <defs>
      <path id="DejaVuSerif-Bold-5a" d="M 238 0 
L 238 441 
L 3022 4238 
L 788 4238 
L 788 3541 
L 359 3541 
L 359 4666 
L 4409 4666 
L 4409 4225 
L 1656 428 
L 4013 428 
L 4013 1081 
L 4441 1081 
L 4441 0 
L 238 0 
z
" transform="scale(0.015625)"/>
      <path id="DejaVuSerif-Bold-39" d="M 2181 4384 
Q 1859 4384 1723 4111 
Q 1588 3838 1588 3163 
Q 1588 2488 1723 2214 
Q 1859 1941 2181 1941 
Q 2503 1941 2640 2214 
Q 2778 2488 2778 3163 
Q 2778 3838 2640 4111 
Q 2503 4384 2181 4384 
z
M 2878 1900 
Q 2672 1734 2420 1651 
Q 2169 1569 1875 1569 
Q 1163 1569 755 1986 
Q 347 2403 347 3138 
Q 347 3913 803 4331 
Q 1259 4750 2106 4750 
Q 3063 4750 3556 4172 
Q 4050 3594 4050 2478 
Q 4050 1206 3503 557 
Q 2956 -91 1881 -91 
Q 1600 -91 1278 -44 
Q 956 3 588 97 
L 588 922 
L 966 922 
Q 1044 603 1261 439 
Q 1478 275 1825 275 
Q 2375 275 2625 658 
Q 2875 1041 2878 1900 
z
" transform="scale(0.015625)"/>
      <path id="DejaVuSerif-Bold-38" d="M 2975 2484 
Q 3531 2394 3820 2075 
Q 4109 1756 4109 1241 
Q 4109 597 3623 253 
Q 3138 -91 2222 -91 
Q 1306 -91 818 253 
Q 331 597 331 1241 
Q 331 1756 622 2075 
Q 913 2394 1466 2484 
Q 975 2597 731 2861 
Q 488 3125 488 3531 
Q 488 4125 931 4437 
Q 1375 4750 2222 4750 
Q 3066 4750 3511 4437 
Q 3956 4125 3956 3531 
Q 3956 3125 3711 2861 
Q 3466 2597 2975 2484 
z
M 2747 3519 
Q 2747 4013 2628 4198 
Q 2509 4384 2222 4384 
Q 1931 4384 1814 4198 
Q 1697 4013 1697 3519 
Q 1697 3028 1814 2845 
Q 1931 2663 2222 2663 
Q 2513 2663 2630 2845 
Q 2747 3028 2747 3519 
z
M 2869 1294 
Q 2869 1866 2723 2081 
Q 2578 2297 2222 2297 
Q 1863 2297 1719 2081 
Q 1575 1866 1575 1294 
Q 1575 716 1720 495 
Q 1866 275 2222 275 
Q 2575 275 2722 495 
Q 2869 716 2869 1294 
z
" transform="scale(0.015625)"/>
      <path id="DejaVuSerif-Bold-35" d="M 3609 4666 
L 3609 3847 
L 1113 3847 
L 1113 2822 
Q 1319 2981 1572 3062 
Q 1825 3144 2106 3144 
Q 2969 3144 3469 2708 
Q 3969 2272 3969 1522 
Q 3969 759 3469 334 
Q 2969 -91 2069 -91 
Q 1688 -91 1311 -28 
Q 934 34 525 166 
L 525 1184 
L 900 1184 
Q 919 725 1139 500 
Q 1359 275 1791 275 
Q 2250 275 2472 583 
Q 2694 891 2694 1522 
Q 2694 2144 2476 2451 
Q 2259 2759 1819 2759 
Q 1581 2759 1395 2661 
Q 1209 2563 1050 2356 
L 738 2356 
L 738 4666 
L 3609 4666 
z
" transform="scale(0.015625)"/>
      <path id="DejaVuSerif-Bold-33" d="M 550 4531 
Q 963 4641 1350 4695 
Q 1738 4750 2106 4750 
Q 2950 4750 3401 4448 
Q 3853 4147 3853 3584 
Q 3853 3163 3593 2900 
Q 3334 2638 2834 2547 
Q 3444 2450 3744 2131 
Q 4044 1813 4044 1259 
Q 4044 606 3526 257 
Q 3009 -91 2028 -91 
Q 1659 -91 1267 -28 
Q 875 34 447 159 
L 447 1184 
L 825 1184 
Q 859 741 1103 508 
Q 1347 275 1778 275 
Q 2253 275 2512 539 
Q 2772 803 2772 1288 
Q 2772 1794 2501 2069 
Q 2231 2344 1734 2344 
L 1528 2344 
L 1528 2719 
L 1691 2719 
Q 2150 2719 2381 2931 
Q 2613 3144 2613 3566 
Q 2613 3963 2395 4173 
Q 2178 4384 1772 4384 
Q 1403 4384 1187 4182 
Q 972 3981 928 3597 
L 550 3597 
L 550 4531 
z
" transform="scale(0.015625)"/>
     </defs>
     <use xlink:href="#DejaVuSerif-Bold-5a"/>
     <use xlink:href="#DejaVuSerif-Bold-39" x="72.998047"/>
     <use xlink:href="#DejaVuSerif-Bold-38" x="142.578125"/>
     <use xlink:href="#DejaVuSerif-Bold-35" x="212.158203"/>
     <use xlink:href="#DejaVuSerif-Bold-33" x="281.738281"/>
    </g>
   </g>
   <g id="patch_7">
    <path d="M 297.601618 259.195283 
Q 288.883416 264.547276 281.165673 269.2851 
" style="fill: none; opacity: 0.95; stroke: #333333; stroke-width: 1.05; stroke-linecap: round"/>
    <path d="M 284.729875 268.974515 
L 281.165673 269.2851 
L 283.055727 266.247387 
" style="fill: none; opacity: 0.95; stroke: #333333; stroke-width: 1.05; stroke-linecap: round"/>
   </g>
   <g id="text_13">
    <g id="patch_8">
     <path d="M 294.755824 257.62688 
L 322.860824 257.62688 
Q 324.300824 257.62688 324.300824 256.18688 
L 324.300824 248.44438 
Q 324.300824 247.00438 322.860824 247.00438 
L 294.755824 247.00438 
Q 293.315824 247.00438 293.315824 248.44438 
L 293.315824 256.18688 
Q 293.315824 257.62688 294.755824 257.62688 
z
" style="fill: #ffffff; opacity: 0.78"/>
    </g>
    <!-- Z9859 -->
    <g style="fill: #333333" transform="translate(294.755824 254.52313) scale(0.08 -0.08)">
     <use xlink:href="#DejaVuSerif-Bold-5a"/>
     <use xlink:href="#DejaVuSerif-Bold-39" x="72.998047"/>
     <use xlink:href="#DejaVuSerif-Bold-38" x="142.578125"/>
     <use xlink:href="#DejaVuSerif-Bold-35" x="212.158203"/>
     <use xlink:href="#DejaVuSerif-Bold-39" x="281.738281"/>
    </g>
   </g>
   <g id="patch_9">
    <path d="M 391.13917 323.943065 
Q 395.183996 331.777918 398.690296 338.569643 
" style="fill: none; opacity: 0.95; stroke: #e64b35; stroke-width: 1.05; stroke-linecap: round"/>
    <path d="M 398.64406 334.992233 
L 398.690296 338.569643 
L 395.800626 336.460186 
" style="fill: none; opacity: 0.95; stroke: #e64b35; stroke-width: 1.05; stroke-linecap: round"/>
   </g>
   <g id="text_14">
    <g id="patch_10">
     <path d="M 372.970645 321.281547 
L 401.075645 321.281547 
Q 402.515645 321.281547 402.515645 319.841547 
L 402.515645 312.099047 
Q 402.515645 310.659047 401.075645 310.659047 
L 372.970645 310.659047 
Q 371.530645 310.659047 371.530645 312.099047 
L 371.530645 319.841547 
Q 371.530645 321.281547 372.970645 321.281547 
z
" style="fill: #ffffff; opacity: 0.78"/>
    </g>
    <!-- Z9863 -->
    <g style="fill: #e64b35" transform="translate(372.970645 318.177797) scale(0.08 -0.08)">
     <defs>
      <path id="DejaVuSerif-Bold-36" d="M 1575 2766 
Q 1778 2928 2029 3009 
Q 2281 3091 2578 3091 
Q 3294 3091 3701 2672 
Q 4109 2253 4109 1522 
Q 4109 750 3650 329 
Q 3191 -91 2344 -91 
Q 1388 -91 895 486 
Q 403 1063 403 2181 
Q 403 3453 950 4101 
Q 1497 4750 2572 4750 
Q 2853 4750 3175 4703 
Q 3497 4656 3866 4563 
L 3866 3738 
L 3488 3738 
Q 3409 4056 3192 4220 
Q 2975 4384 2631 4384 
Q 2075 4384 1826 4003 
Q 1578 3622 1575 2766 
z
M 2272 275 
Q 2594 275 2731 548 
Q 2869 822 2869 1497 
Q 2869 2172 2731 2445 
Q 2594 2719 2272 2719 
Q 1950 2719 1814 2445 
Q 1678 2172 1678 1497 
Q 1678 822 1814 548 
Q 1950 275 2272 275 
z
" transform="scale(0.015625)"/>
     </defs>
     <use xlink:href="#DejaVuSerif-Bold-5a"/>
     <use xlink:href="#DejaVuSerif-Bold-39" x="72.998047"/>
     <use xlink:href="#DejaVuSerif-Bold-38" x="142.578125"/>
     <use xlink:href="#DejaVuSerif-Bold-36" x="212.158203"/>
     <use xlink:href="#DejaVuSerif-Bold-33" x="281.738281"/>
    </g>
   </g>
   <g id="patch_11">
    <path d="M 201.746124 294.857119 
Q 207.454363 303.59515 212.520568 311.350369 
" style="fill: none; opacity: 0.95; stroke: #333333; stroke-width: 1.05; stroke-linecap: round"/>
    <path d="M 212.109971 307.7963 
L 212.520568 311.350369 
L 209.430954 309.546405 
" style="fill: none; opacity: 0.95; stroke: #333333; stroke-width: 1.05; stroke-linecap: round"/>
   </g>
   <g id="text_15">
    <g id="patch_12">
     <path d="M 182.584604 292.347608 
L 210.689604 292.347608 
Q 212.129604 292.347608 212.129604 290.907608 
L 212.129604 283.165108 
Q 212.129604 281.725108 210.689604 281.725108 
L 182.584604 281.725108 
Q 181.144604 281.725108 181.144604 283.165108 
L 181.144604 290.907608 
Q 181.144604 292.347608 182.584604 292.347608 
z
" style="fill: #ffffff; opacity: 0.78"/>
    </g>
    <!-- Z9864 -->
    <g style="fill: #333333" transform="translate(182.584604 289.243858) scale(0.08 -0.08)">
     <defs>
      <path id="DejaVuSerif-Bold-34" d="M 4084 0 
L 1516 0 
L 1516 378 
L 2209 378 
L 2209 1228 
L 263 1228 
L 263 1588 
L 2216 4750 
L 3391 4750 
L 3391 1631 
L 4191 1631 
L 4191 1228 
L 3391 1228 
L 3391 378 
L 4084 378 
L 4084 0 
z
M 2209 1631 
L 2209 3897 
L 819 1631 
L 2209 1631 
z
" transform="scale(0.015625)"/>
     </defs>
     <use xlink:href="#DejaVuSerif-Bold-5a"/>
     <use xlink:href="#DejaVuSerif-Bold-39" x="72.998047"/>
     <use xlink:href="#DejaVuSerif-Bold-38" x="142.578125"/>
     <use xlink:href="#DejaVuSerif-Bold-36" x="212.158203"/>
     <use xlink:href="#DejaVuSerif-Bold-34" x="281.738281"/>
    </g>
   </g>
   <g id="patch_13">
    <path d="M 300.57089 288.182238 
Q 291.979355 284.205851 284.453185 280.722542 
" style="fill: none; opacity: 0.95; stroke: #333333; stroke-width: 1.05; stroke-linecap: round"/>
    <path d="M 286.685196 283.518633 
L 284.453185 280.722542 
L 288.029264 280.614588 
" style="fill: none; opacity: 0.95; stroke: #333333; stroke-width: 1.05; stroke-linecap: round"/>
   </g>
   <g id="text_16">
    <g id="patch_14">
     <path d="M 300.713432 300.063325 
L 328.818432 300.063325 
Q 330.258432 300.063325 330.258432 298.623325 
L 330.258432 290.880825 
Q 330.258432 289.440825 328.818432 289.440825 
L 300.713432 289.440825 
Q 299.273432 289.440825 299.273432 290.880825 
L 299.273432 298.623325 
Q 299.273432 300.063325 300.713432 300.063325 
z
" style="fill: #ffffff; opacity: 0.78"/>
    </g>
    <!-- Z9865 -->
    <g style="fill: #333333" transform="translate(300.713432 296.959575) scale(0.08 -0.08)">
     <use xlink:href="#DejaVuSerif-Bold-5a"/>
     <use xlink:href="#DejaVuSerif-Bold-39" x="72.998047"/>
     <use xlink:href="#DejaVuSerif-Bold-38" x="142.578125"/>
     <use xlink:href="#DejaVuSerif-Bold-36" x="212.158203"/>
     <use xlink:href="#DejaVuSerif-Bold-35" x="281.738281"/>
    </g>
   </g>
   <g id="patch_15">
    <path d="M 439.501252 320.006993 
Q 435.099928 327.453806 431.295913 333.890003 
" style="fill: none; opacity: 0.95; stroke: #e64b35; stroke-width: 1.05; stroke-linecap: round"/>
    <path d="M 434.301509 331.949285 
L 431.295913 333.890003 
L 431.546696 330.321095 
" style="fill: none; opacity: 0.95; stroke: #e64b35; stroke-width: 1.05; stroke-linecap: round"/>
   </g>
   <g id="text_17">
    <g id="patch_16">
     <path d="M 430.114706 317.423689 
L 458.219706 317.423689 
Q 459.659706 317.423689 459.659706 315.983689 
L 459.659706 308.241189 
Q 459.659706 306.801189 458.219706 306.801189 
L 430.114706 306.801189 
Q 428.674706 306.801189 428.674706 308.241189 
L 428.674706 315.983689 
Q 428.674706 317.423689 430.114706 317.423689 
z
" style="fill: #ffffff; opacity: 0.78"/>
    </g>
    <!-- Z9867 -->
    <g style="fill: #e64b35" transform="translate(430.114706 314.319939) scale(0.08 -0.08)">
     <defs>
      <path id="DejaVuSerif-Bold-37" d="M 3922 3872 
L 1997 0 
L 1363 0 
L 3238 3781 
L 934 3781 
L 934 3150 
L 506 3150 
L 506 4666 
L 3922 4666 
L 3922 3872 
z
" transform="scale(0.015625)"/>
     </defs>
     <use xlink:href="#DejaVuSerif-Bold-5a"/>
     <use xlink:href="#DejaVuSerif-Bold-39" x="72.998047"/>
     <use xlink:href="#DejaVuSerif-Bold-38" x="142.578125"/>
     <use xlink:href="#DejaVuSerif-Bold-36" x="212.158203"/>
     <use xlink:href="#DejaVuSerif-Bold-37" x="281.738281"/>
    </g>
   </g>
   <g id="text_18">
    <!-- Coverage vs N Content — Sample Quality Assessment -->
    <g transform="translate(74.019844 17.837812) scale(0.14 -0.14)">
     <defs>
      <path id="DejaVuSerif-73" d="M 359 184 
L 359 959 
L 691 959 
Q 703 588 923 403 
Q 1144 219 1575 219 
Q 1963 219 2166 364 
Q 2369 509 2369 788 
Q 2369 1006 2220 1140 
Q 2072 1275 1594 1428 
L 1178 1569 
Q 750 1706 558 1912 
Q 366 2119 366 2438 
Q 366 2894 700 3153 
Q 1034 3413 1625 3413 
Q 1888 3413 2178 3344 
Q 2469 3275 2778 3144 
L 2778 2419 
L 2447 2419 
Q 2434 2741 2221 2922 
Q 2009 3103 1644 3103 
Q 1281 3103 1095 2975 
Q 909 2847 909 2591 
Q 909 2381 1050 2254 
Q 1191 2128 1613 1997 
L 2069 1856 
Q 2541 1709 2748 1489 
Q 2956 1269 2956 922 
Q 2956 450 2595 179 
Q 2234 -91 1600 -91 
Q 1278 -91 972 -22 
Q 666 47 359 184 
z
" transform="scale(0.015625)"/>
      <path id="DejaVuSerif-2014" d="M 281 1906 
L 6119 1906 
L 6119 1491 
L 281 1491 
L 281 1906 
z
" transform="scale(0.015625)"/>
      <path id="DejaVuSerif-53" d="M 594 225 
L 594 1288 
L 953 1284 
Q 969 753 1261 498 
Q 1553 244 2150 244 
Q 2706 244 2998 464 
Q 3291 684 3291 1106 
Q 3291 1444 3114 1625 
Q 2938 1806 2369 1978 
L 1753 2163 
Q 1084 2366 811 2669 
Q 538 2972 538 3500 
Q 538 4094 959 4422 
Q 1381 4750 2144 4750 
Q 2469 4750 2856 4679 
Q 3244 4609 3681 4475 
L 3681 3481 
L 3328 3481 
Q 3275 3975 2998 4195 
Q 2722 4416 2156 4416 
Q 1663 4416 1405 4214 
Q 1147 4013 1147 3628 
Q 1147 3294 1340 3103 
Q 1534 2913 2163 2725 
L 2741 2553 
Q 3375 2363 3645 2067 
Q 3916 1772 3916 1275 
Q 3916 597 3481 253 
Q 3047 -91 2188 -91 
Q 1803 -91 1404 -12 
Q 1006 66 594 225 
z
" transform="scale(0.015625)"/>
      <path id="DejaVuSerif-6d" d="M 3316 2675 
Q 3481 3041 3739 3227 
Q 3997 3413 4341 3413 
Q 4863 3413 5119 3089 
Q 5375 2766 5375 2113 
L 5375 331 
L 5894 331 
L 5894 0 
L 4300 0 
L 4300 331 
L 4800 331 
L 4800 2047 
Q 4800 2556 4650 2772 
Q 4500 2988 4153 2988 
Q 3769 2988 3567 2697 
Q 3366 2406 3366 1850 
L 3366 331 
L 3866 331 
L 3866 0 
L 2291 0 
L 2291 331 
L 2791 331 
L 2791 2069 
Q 2791 2566 2641 2777 
Q 2491 2988 2144 2988 
Q 1759 2988 1557 2697 
Q 1356 2406 1356 1850 
L 1356 331 
L 1856 331 
L 1856 0 
L 263 0 
L 263 331 
L 781 331 
L 781 2994 
L 231 2994 
L 231 3322 
L 1356 3322 
L 1356 2731 
Q 1516 3063 1762 3238 
Q 2009 3413 2322 3413 
Q 2709 3413 2968 3220 
Q 3228 3028 3316 2675 
z
" transform="scale(0.015625)"/>
      <path id="DejaVuSerif-6c" d="M 1313 331 
L 1856 331 
L 1856 0 
L 184 0 
L 184 331 
L 738 331 
L 738 4531 
L 184 4531 
L 184 4863 
L 1313 4863 
L 1313 331 
z
" transform="scale(0.015625)"/>
      <path id="DejaVuSerif-51" d="M 2700 -91 
Q 1628 -91 993 567 
Q 359 1225 359 2328 
Q 359 2894 529 3339 
Q 700 3784 1050 4134 
Q 1356 4441 1750 4595 
Q 2144 4750 2625 4750 
Q 3641 4750 4266 4084 
Q 4891 3419 4891 2328 
Q 4891 1403 4422 773 
Q 3953 144 3128 -38 
Q 3297 -247 3539 -347 
Q 3781 -447 4122 -447 
L 4219 -447 
L 4219 -1025 
Q 3691 -1000 3314 -767 
Q 2938 -534 2700 -91 
z
M 2625 244 
Q 3391 244 3781 770 
Q 4172 1297 4172 2328 
Q 4172 3363 3781 3889 
Q 3391 4416 2625 4416 
Q 1856 4416 1465 3889 
Q 1075 3363 1075 2328 
Q 1075 1297 1465 770 
Q 1856 244 2625 244 
z
" transform="scale(0.015625)"/>
      <path id="DejaVuSerif-75" d="M 2266 3322 
L 3341 3322 
L 3341 331 
L 3884 331 
L 3884 0 
L 2766 0 
L 2766 588 
Q 2606 256 2353 82 
Q 2100 -91 1766 -91 
Q 1213 -91 952 223 
Q 691 538 691 1209 
L 691 2988 
L 172 2988 
L 172 3322 
L 1269 3322 
L 1269 1388 
Q 1269 781 1417 556 
Q 1566 331 1947 331 
Q 2347 331 2556 625 
Q 2766 919 2766 1478 
L 2766 2988 
L 2266 2988 
L 2266 3322 
z
" transform="scale(0.015625)"/>
      <path id="DejaVuSerif-69" d="M 622 4353 
Q 622 4497 726 4603 
Q 831 4709 978 4709 
Q 1122 4709 1226 4603 
Q 1331 4497 1331 4353 
Q 1331 4206 1228 4103 
Q 1125 4000 978 4000 
Q 831 4000 726 4103 
Q 622 4206 622 4353 
z
M 1356 331 
L 1900 331 
L 1900 0 
L 231 0 
L 231 331 
L 781 331 
L 781 2988 
L 231 2988 
L 231 3322 
L 1356 3322 
L 1356 331 
z
" transform="scale(0.015625)"/>
      <path id="DejaVuSerif-79" d="M 1381 -609 
L 1600 -56 
L 359 2988 
L -19 2988 
L -19 3322 
L 1509 3322 
L 1509 2988 
L 978 2988 
L 1913 703 
L 2847 2988 
L 2350 2988 
L 2350 3322 
L 3597 3322 
L 3597 2988 
L 3225 2988 
L 1703 -750 
Q 1547 -1138 1356 -1280 
Q 1166 -1422 819 -1422 
Q 672 -1422 517 -1397 
Q 363 -1372 206 -1325 
L 206 -691 
L 500 -691 
Q 519 -903 608 -995 
Q 697 -1088 884 -1088 
Q 1056 -1088 1161 -992 
Q 1266 -897 1381 -609 
z
" transform="scale(0.015625)"/>
      <path id="DejaVuSerif-41" d="M 1281 1691 
L 2994 1691 
L 2138 3909 
L 1281 1691 
z
M -38 0 
L -38 331 
L 372 331 
L 2034 4666 
L 2559 4666 
L 4225 331 
L 4684 331 
L 4684 0 
L 2988 0 
L 2988 331 
L 3506 331 
L 3116 1356 
L 1153 1356 
L 763 331 
L 1275 331 
L 1275 0 
L -38 0 
z
" transform="scale(0.015625)"/>
     </defs>
     <use xlink:href="#DejaVuSerif-43"/>
     <use xlink:href="#DejaVuSerif-6f" x="76.513672"/>
     <use xlink:href="#DejaVuSerif-76" x="136.71875"/>
     <use xlink:href="#DejaVuSerif-65" x="193.212891"/>
     <use xlink:href="#DejaVuSerif-72" x="252.392578"/>
     <use xlink:href="#DejaVuSerif-61" x="300.195312"/>
     <use xlink:href="#DejaVuSerif-67" x="359.814453"/>
     <use xlink:href="#DejaVuSerif-65" x="423.828125"/>
     <use xlink:href="#DejaVuSerif-20" x="483.007812"/>
     <use xlink:href="#DejaVuSerif-76" x="514.794922"/>
     <use xlink:href="#DejaVuSerif-73" x="571.289062"/>
     <use xlink:href="#DejaVuSerif-20" x="622.607422"/>
     <use xlink:href="#DejaVuSerif-4e" x="654.394531"/>
     <use xlink:href="#DejaVuSerif-20" x="741.894531"/>
     <use xlink:href="#DejaVuSerif-43" x="773.681641"/>
     <use xlink:href="#DejaVuSerif-6f" x="850.195312"/>
     <use xlink:href="#DejaVuSerif-6e" x="910.400391"/>
     <use xlink:href="#DejaVuSerif-74" x="974.804688"/>
     <use xlink:href="#DejaVuSerif-65" x="1014.990234"/>
     <use xlink:href="#DejaVuSerif-6e" x="1074.169922"/>
     <use xlink:href="#DejaVuSerif-74" x="1138.574219"/>
     <use xlink:href="#DejaVuSerif-20" x="1178.759766"/>
     <use xlink:href="#DejaVuSerif-2014" x="1210.546875"/>
     <use xlink:href="#DejaVuSerif-20" x="1310.546875"/>
     <use xlink:href="#DejaVuSerif-53" x="1342.333984"/>
     <use xlink:href="#DejaVuSerif-61" x="1410.839844"/>
     <use xlink:href="#DejaVuSerif-6d" x="1470.458984"/>
     <use xlink:href="#DejaVuSerif-70" x="1565.283203"/>
     <use xlink:href="#DejaVuSerif-6c" x="1629.296875"/>
     <use xlink:href="#DejaVuSerif-65" x="1661.279297"/>
     <use xlink:href="#DejaVuSerif-20" x="1720.458984"/>
     <use xlink:href="#DejaVuSerif-51" x="1752.246094"/>
     <use xlink:href="#DejaVuSerif-75" x="1834.228516"/>
     <use xlink:href="#DejaVuSerif-61" x="1898.632812"/>
     <use xlink:href="#DejaVuSerif-6c" x="1958.251953"/>
     <use xlink:href="#DejaVuSerif-69" x="1990.234375"/>
     <use xlink:href="#DejaVuSerif-74" x="2022.216797"/>
     <use xlink:href="#DejaVuSerif-79" x="2062.402344"/>
     <use xlink:href="#DejaVuSerif-20" x="2118.896484"/>
     <use xlink:href="#DejaVuSerif-41" x="2150.683594"/>
     <use xlink:href="#DejaVuSerif-73" x="2222.900391"/>
     <use xlink:href="#DejaVuSerif-73" x="2274.21875"/>
     <use xlink:href="#DejaVuSerif-65" x="2325.537109"/>
     <use xlink:href="#DejaVuSerif-73" x="2384.716797"/>
     <use xlink:href="#DejaVuSerif-73" x="2436.035156"/>
     <use xlink:href="#DejaVuSerif-6d" x="2487.353516"/>
     <use xlink:href="#DejaVuSerif-65" x="2582.177734"/>
     <use xlink:href="#DejaVuSerif-6e" x="2641.357422"/>
     <use xlink:href="#DejaVuSerif-74" x="2705.761719"/>
    </g>
   </g>
   <g id="legend_1">
    <g id="patch_17">
     <path d="M 393.1825 89.177812 
L 485.43875 89.177812 
L 485.43875 27.837812 
L 393.1825 27.837812 
z
" style="fill: #ffffff; opacity: 0.9; stroke: #cccccc; stroke-linejoin: miter"/>
    </g>
    <g id="patch_18">
     <path d="M 396.3825 37.116562 
L 412.3825 37.116562 
L 412.3825 31.516562 
L 396.3825 31.516562 
z
" style="fill: #6a4c93; stroke: #6a4c93; stroke-linejoin: miter"/>
    </g>
    <g id="text_19">
     <!-- Yak clade -->
     <g transform="translate(418.7825 37.116562) scale(0.08 -0.08)">
      <defs>
       <path id="DejaVuSerif-59" d="M 1209 0 
L 1209 331 
L 1806 331 
L 1806 2009 
L 366 4331 
L -72 4331 
L -72 4666 
L 1663 4666 
L 1663 4331 
L 1119 4331 
L 2284 2444 
L 3450 4331 
L 2925 4331 
L 2925 4666 
L 4281 4666 
L 4281 4331 
L 3841 4331 
L 2438 2069 
L 2438 331 
L 3034 331 
L 3034 0 
L 1209 0 
z
" transform="scale(0.015625)"/>
       <path id="DejaVuSerif-6b" d="M 1831 0 
L 219 0 
L 219 331 
L 738 331 
L 738 4531 
L 184 4531 
L 184 4863 
L 1313 4863 
L 1313 1697 
L 2713 2988 
L 2234 2988 
L 2234 3322 
L 3738 3322 
L 3738 2988 
L 3169 2988 
L 2181 2075 
L 3444 331 
L 3922 331 
L 3922 0 
L 2284 0 
L 2284 331 
L 2759 331 
L 1766 1697 
L 1313 1275 
L 1313 331 
L 1831 331 
L 1831 0 
z
" transform="scale(0.015625)"/>
      </defs>
      <use xlink:href="#DejaVuSerif-59"/>
      <use xlink:href="#DejaVuSerif-61" x="58.265625"/>
      <use xlink:href="#DejaVuSerif-6b" x="117.884766"/>
      <use xlink:href="#DejaVuSerif-20" x="178.480469"/>
      <use xlink:href="#DejaVuSerif-63" x="210.267578"/>
      <use xlink:href="#DejaVuSerif-6c" x="266.273438"/>
      <use xlink:href="#DejaVuSerif-61" x="298.255859"/>
      <use xlink:href="#DejaVuSerif-64" x="357.875"/>
      <use xlink:href="#DejaVuSerif-65" x="421.888672"/>
     </g>
    </g>
    <g id="patch_19">
     <path d="M 396.3825 48.859062 
L 412.3825 48.859062 
L 412.3825 43.259062 
L 396.3825 43.259062 
z
" style="fill: #e9c46a; stroke: #e9c46a; stroke-linejoin: miter"/>
    </g>
    <g id="text_20">
     <!-- Cattle clade -->
     <g transform="translate(418.7825 48.859062) scale(0.08 -0.08)">
      <use xlink:href="#DejaVuSerif-43"/>
      <use xlink:href="#DejaVuSerif-61" x="76.513672"/>
      <use xlink:href="#DejaVuSerif-74" x="136.132812"/>
      <use xlink:href="#DejaVuSerif-74" x="176.318359"/>
      <use xlink:href="#DejaVuSerif-6c" x="216.503906"/>
      <use xlink:href="#DejaVuSerif-65" x="248.486328"/>
      <use xlink:href="#DejaVuSerif-20" x="307.666016"/>
      <use xlink:href="#DejaVuSerif-63" x="339.453125"/>
      <use xlink:href="#DejaVuSerif-6c" x="395.458984"/>
      <use xlink:href="#DejaVuSerif-61" x="427.441406"/>
      <use xlink:href="#DejaVuSerif-64" x="487.060547"/>
      <use xlink:href="#DejaVuSerif-65" x="551.074219"/>
     </g>
    </g>
    <g id="line2d_30">
     <path d="M 396.3825 57.801562 
L 404.3825 57.801562 
L 412.3825 57.801562 
" style="fill: none; stroke-dasharray: 3.7,1.6; stroke-dashoffset: 0; stroke: #e9c46a"/>
    </g>
    <g id="text_21">
     <!-- 100× coverage -->
     <g transform="translate(418.7825 60.601562) scale(0.08 -0.08)">
      <use xlink:href="#DejaVuSerif-31"/>
      <use xlink:href="#DejaVuSerif-30" x="63.623047"/>
      <use xlink:href="#DejaVuSerif-30" x="127.246094"/>
      <use xlink:href="#DejaVuSerif-d7" x="190.869141"/>
      <use xlink:href="#DejaVuSerif-20" x="274.658203"/>
      <use xlink:href="#DejaVuSerif-63" x="306.445312"/>
      <use xlink:href="#DejaVuSerif-6f" x="362.451172"/>
      <use xlink:href="#DejaVuSerif-76" x="422.65625"/>
      <use xlink:href="#DejaVuSerif-65" x="479.150391"/>
      <use xlink:href="#DejaVuSerif-72" x="538.330078"/>
      <use xlink:href="#DejaVuSerif-61" x="586.132812"/>
      <use xlink:href="#DejaVuSerif-67" x="645.751953"/>
      <use xlink:href="#DejaVuSerif-65" x="709.765625"/>
     </g>
    </g>
    <g id="line2d_31">
     <path d="M 396.3825 69.657812 
L 404.3825 69.657812 
L 412.3825 69.657812 
" style="fill: none; stroke-dasharray: 1,1.65; stroke-dashoffset: 0; stroke: #aaaaaa"/>
    </g>
    <g id="text_22">
     <!-- 20× coverage -->
     <g transform="translate(418.7825 72.457812) scale(0.08 -0.08)">
      <use xlink:href="#DejaVuSerif-32"/>
      <use xlink:href="#DejaVuSerif-30" x="63.623047"/>
      <use xlink:href="#DejaVuSerif-d7" x="127.246094"/>
      <use xlink:href="#DejaVuSerif-20" x="211.035156"/>
      <use xlink:href="#DejaVuSerif-63" x="242.822266"/>
      <use xlink:href="#DejaVuSerif-6f" x="298.828125"/>
      <use xlink:href="#DejaVuSerif-76" x="359.033203"/>
      <use xlink:href="#DejaVuSerif-65" x="415.527344"/>
      <use xlink:href="#DejaVuSerif-72" x="474.707031"/>
      <use xlink:href="#DejaVuSerif-61" x="522.509766"/>
      <use xlink:href="#DejaVuSerif-67" x="582.128906"/>
      <use xlink:href="#DejaVuSerif-65" x="646.142578"/>
     </g>
    </g>
    <g id="line2d_32">
     <path d="M 396.3825 81.514062 
L 404.3825 81.514062 
L 412.3825 81.514062 
" style="fill: none; stroke-dasharray: 1,1.65; stroke-dashoffset: 0; stroke: #e64b35"/>
    </g>
    <g id="text_23">
     <!-- 5% N threshold -->
     <g transform="translate(418.7825 84.314062) scale(0.08 -0.08)">
      <use xlink:href="#DejaVuSerif-35"/>
      <use xlink:href="#DejaVuSerif-25" x="63.623047"/>
      <use xlink:href="#DejaVuSerif-20" x="158.642578"/>
      <use xlink:href="#DejaVuSerif-4e" x="190.429688"/>
      <use xlink:href="#DejaVuSerif-20" x="277.929688"/>
      <use xlink:href="#DejaVuSerif-74" x="309.716797"/>
      <use xlink:href="#DejaVuSerif-68" x="349.902344"/>
      <use xlink:href="#DejaVuSerif-72" x="414.306641"/>
      <use xlink:href="#DejaVuSerif-65" x="462.109375"/>
      <use xlink:href="#DejaVuSerif-73" x="521.289062"/>
      <use xlink:href="#DejaVuSerif-68" x="572.607422"/>
      <use xlink:href="#DejaVuSerif-6f" x="637.011719"/>
      <use xlink:href="#DejaVuSerif-6c" x="697.216797"/>
      <use xlink:href="#DejaVuSerif-64" x="729.199219"/>
     </g>
    </g>
   </g>
  </g>
 </g>
 <defs>
  <clipPath id="pa1c7ccb4e6">
   <rect x="43.03875" y="23.837812" width="446.4" height="332.64"/>
  </clipPath>
 </defs>
</svg>
