<?xml version="1.0" encoding="utf-8" standalone="no"?>
<!DOCTYPE svg PUBLIC "-//W3C//DTD SVG 1.1//EN"
  "http://www.w3.org/Graphics/SVG/1.1/DTD/svg11.dtd">
<svg xmlns:xlink="http://www.w3.org/1999/xlink" width="427.774871pt" height="324.76346pt" viewBox="0 0 427.774871 324.76346" xmlns="http://www.w3.org/2000/svg" version="1.1">
 <metadata>
  <rdf:RDF xmlns:dc="http://purl.org/dc/elements/1.1/" xmlns:cc="http://creativecommons.org/ns#" xmlns:rdf="http://www.w3.org/1999/02/22-rdf-syntax-ns#">
   <cc:Work>
    <dc:type rdf:resource="http://purl.org/dc/dcmitype/StillImage"/>
    <dc:date>2026-06-21T13:07:18.391475</dc:date>
    <dc:format>image/svg+xml</dc:format>
    <dc:creator>
     <cc:Agent>
      <dc:title>Matplotlib v3.9.4, https://matplotlib.org/</dc:title>
     </cc:Agent>
    </dc:creator>
   </cc:Work>
  </rdf:RDF>
 </metadata>
 <defs>
  <style type="text/css">*{stroke-linejoin: round; stroke-linecap: butt}</style>
 </defs>
 <g id="figure_1">
  <g id="patch_1">
   <path d="M 0 324.76346 
L 427.774871 324.76346 
L 427.774871 0 
L 0 0 
z
" style="fill: #ffffff"/>
  </g>
  <g id="axes_1">
   <g id="patch_2">
    <path d="M 110.895 223.839332 
L 420.574871 223.839332 
L 420.574871 31.837812 
L 110.895 31.837812 
z
" style="fill: #ffffff"/>
   </g>
   <g id="patch_3">
    <path d="M 110.895 127.838572 
L 188.314968 127.838572 
L 188.314968 31.837812 
L 110.895 31.837812 
z
" clip-path="url(#pd9d0a62f9c)" style="fill: #e8eef8; stroke: #cccccc; stroke-linejoin: miter"/>
   </g>
   <g id="patch_4">
    <path d="M 188.314968 127.838572 
L 265.734935 127.838572 
L 265.734935 31.837812 
L 188.314968 31.837812 
z
" clip-path="url(#pd9d0a62f9c)" style="fill: #ffe8e8; stroke: #cccccc; stroke-linejoin: miter"/>
   </g>
   <g id="patch_5">
    <path d="M 265.734935 127.838572 
L 343.154903 127.838572 
L 343.154903 31.837812 
L 265.734935 31.837812 
z
" clip-path="url(#pd9d0a62f9c)" style="fill: #fafafa; stroke: #cccccc; stroke-linejoin: miter"/>
   </g>
   <g id="patch_6">
    <path d="M 343.154903 127.838572 
L 420.574871 127.838572 
L 420.574871 31.837812 
L 343.154903 31.837812 
z
" clip-path="url(#pd9d0a62f9c)" style="fill: #fafafa; stroke: #cccccc; stroke-linejoin: miter"/>
   </g>
   <g id="patch_7">
    <path d="M 110.895 223.839332 
L 188.314968 223.839332 
L 188.314968 127.838572 
L 110.895 127.838572 
z
" clip-path="url(#pd9d0a62f9c)" style="fill: #e8eef8; stroke: #cccccc; stroke-linejoin: miter"/>
   </g>
   <g id="patch_8">
    <path d="M 188.314968 223.839332 
L 265.734935 223.839332 
L 265.734935 127.838572 
L 188.314968 127.838572 
z
" clip-path="url(#pd9d0a62f9c)" style="fill: #fafafa; stroke: #cccccc; stroke-linejoin: miter"/>
   </g>
   <g id="patch_9">
    <path d="M 265.734935 223.839332 
L 343.154903 223.839332 
L 343.154903 127.838572 
L 265.734935 127.838572 
z
" clip-path="url(#pd9d0a62f9c)" style="fill: #ffe8e8; stroke: #cccccc; stroke-linejoin: miter"/>
   </g>
   <g id="patch_10">
    <path d="M 343.154903 223.839332 
L 420.574871 223.839332 
L 420.574871 127.838572 
L 343.154903 127.838572 
z
" clip-path="url(#pd9d0a62f9c)" style="fill: #fff8dc; stroke: #cccccc; stroke-linejoin: miter"/>
   </g>
   <g id="matplotlib.axis_1">
    <g id="xtick_1">
     <g id="line2d_1"/>
     <g id="text_1">
      <!-- Bovine -->
      <g style="fill: #333333" transform="translate(130.587874 235.697614) scale(0.11 -0.11)">
       <defs>
        <path id="DejaVuSerif-42" d="M 1581 331 
L 2516 331 
Q 3078 331 3337 575 
Q 3597 819 3597 1350 
Q 3597 1878 3339 2120 
Q 3081 2363 2516 2363 
L 1581 2363 
L 1581 331 
z
M 1581 2694 
L 2375 2694 
Q 2888 2694 3123 2891 
Q 3359 3088 3359 3513 
Q 3359 3941 3123 4136 
Q 2888 4331 2375 4331 
L 1581 4331 
L 1581 2694 
z
M 353 0 
L 353 331 
L 947 331 
L 947 4331 
L 353 4331 
L 353 4666 
L 2656 4666 
Q 3363 4666 3720 4377 
Q 4078 4088 4078 3513 
Q 4078 3097 3829 2850 
Q 3581 2603 3103 2547 
Q 3697 2472 4005 2167 
Q 4313 1863 4313 1350 
Q 4313 656 3875 328 
Q 3438 0 2509 0 
L 353 0 
z
" transform="scale(0.015625)"/>
        <path id="DejaVuSerif-6f" d="M 1925 219 
Q 2388 219 2623 584 
Q 2859 950 2859 1663 
Q 2859 2375 2623 2739 
Q 2388 3103 1925 3103 
Q 1463 3103 1227 2739 
Q 991 2375 991 1663 
Q 991 950 1228 584 
Q 1466 219 1925 219 
z
M 1925 -91 
Q 1200 -91 759 389 
Q 319 869 319 1663 
Q 319 2456 758 2934 
Q 1197 3413 1925 3413 
Q 2653 3413 3092 2934 
Q 3531 2456 3531 1663 
Q 3531 869 3092 389 
Q 2653 -91 1925 -91 
z
" transform="scale(0.015625)"/>
        <path id="DejaVuSerif-76" d="M 1581 0 
L 359 2988 
L -19 2988 
L -19 3322 
L 1509 3322 
L 1509 2988 
L 978 2988 
L 1913 703 
L 2847 2988 
L 2350 2988 
L 2350 3322 
L 3597 3322 
L 3597 2988 
L 3225 2988 
L 2003 0 
L 1581 0 
z
" transform="scale(0.015625)"/>
        <path id="DejaVuSerif-69" d="M 622 4353 
Q 622 4497 726 4603 
Q 831 4709 978 4709 
Q 1122 4709 1226 4603 
Q 1331 4497 1331 4353 
Q 1331 4206 1228 4103 
Q 1125 4000 978 4000 
Q 831 4000 726 4103 
Q 622 4206 622 4353 
z
M 1356 331 
L 1900 331 
L 1900 0 
L 231 0 
L 231 331 
L 781 331 
L 781 2988 
L 231 2988 
L 231 3322 
L 1356 3322 
L 1356 331 
z
" transform="scale(0.015625)"/>
        <path id="DejaVuSerif-6e" d="M 263 0 
L 263 331 
L 781 331 
L 781 2988 
L 231 2988 
L 231 3322 
L 1356 3322 
L 1356 2731 
Q 1516 3069 1770 3241 
Q 2025 3413 2363 3413 
Q 2913 3413 3172 3097 
Q 3431 2781 3431 2113 
L 3431 331 
L 3944 331 
L 3944 0 
L 2356 0 
L 2356 331 
L 2853 331 
L 2853 1931 
Q 2853 2541 2703 2767 
Q 2553 2994 2175 2994 
Q 1775 2994 1565 2701 
Q 1356 2409 1356 1850 
L 1356 331 
L 1856 331 
L 1856 0 
L 263 0 
z
" transform="scale(0.015625)"/>
        <path id="DejaVuSerif-65" d="M 3469 1600 
L 991 1600 
L 991 1575 
Q 991 903 1244 561 
Q 1497 219 1991 219 
Q 2369 219 2611 417 
Q 2853 616 2950 1006 
L 3413 1006 
Q 3275 459 2904 184 
Q 2534 -91 1931 -91 
Q 1203 -91 761 389 
Q 319 869 319 1663 
Q 319 2450 753 2931 
Q 1188 3413 1894 3413 
Q 2647 3413 3050 2948 
Q 3453 2484 3469 1600 
z
M 2791 1931 
Q 2772 2513 2545 2808 
Q 2319 3103 1894 3103 
Q 1497 3103 1269 2806 
Q 1041 2509 991 1931 
L 2791 1931 
z
" transform="scale(0.015625)"/>
       </defs>
       <use xlink:href="#DejaVuSerif-42"/>
       <use xlink:href="#DejaVuSerif-6f" x="73.486328"/>
       <use xlink:href="#DejaVuSerif-76" x="133.691406"/>
       <use xlink:href="#DejaVuSerif-69" x="190.185547"/>
       <use xlink:href="#DejaVuSerif-6e" x="222.167969"/>
       <use xlink:href="#DejaVuSerif-65" x="286.572266"/>
      </g>
     </g>
    </g>
    <g id="xtick_2">
     <g id="line2d_2"/>
     <g id="text_2">
      <!-- Cattle -->
      <g style="fill: #333333" transform="translate(210.102139 235.697614) scale(0.11 -0.11)">
       <defs>
        <path id="DejaVuSerif-43" d="M 4513 1234 
Q 4306 581 3820 245 
Q 3334 -91 2591 -91 
Q 2134 -91 1743 65 
Q 1353 222 1050 525 
Q 700 875 529 1320 
Q 359 1766 359 2328 
Q 359 3416 987 4083 
Q 1616 4750 2644 4750 
Q 3025 4750 3456 4650 
Q 3888 4550 4384 4347 
L 4384 3272 
L 4031 3272 
Q 3916 3859 3567 4137 
Q 3219 4416 2591 4416 
Q 1844 4416 1459 3886 
Q 1075 3356 1075 2328 
Q 1075 1303 1459 773 
Q 1844 244 2591 244 
Q 3113 244 3450 492 
Q 3788 741 3938 1234 
L 4513 1234 
z
" transform="scale(0.015625)"/>
        <path id="DejaVuSerif-61" d="M 2547 1044 
L 2547 1747 
L 1806 1747 
Q 1378 1747 1168 1562 
Q 959 1378 959 997 
Q 959 650 1171 447 
Q 1384 244 1747 244 
Q 2106 244 2326 466 
Q 2547 688 2547 1044 
z
M 3122 2075 
L 3122 331 
L 3634 331 
L 3634 0 
L 2547 0 
L 2547 359 
Q 2356 128 2106 18 
Q 1856 -91 1522 -91 
Q 969 -91 644 203 
Q 319 497 319 997 
Q 319 1513 691 1797 
Q 1063 2081 1741 2081 
L 2547 2081 
L 2547 2309 
Q 2547 2688 2317 2895 
Q 2088 3103 1672 3103 
Q 1328 3103 1125 2947 
Q 922 2791 872 2484 
L 575 2484 
L 575 3156 
Q 875 3284 1158 3348 
Q 1441 3413 1709 3413 
Q 2400 3413 2761 3070 
Q 3122 2728 3122 2075 
z
" transform="scale(0.015625)"/>
        <path id="DejaVuSerif-74" d="M 691 2988 
L 184 2988 
L 184 3322 
L 691 3322 
L 691 4353 
L 1269 4353 
L 1269 3322 
L 2350 3322 
L 2350 2988 
L 1269 2988 
L 1269 878 
Q 1269 456 1350 337 
Q 1431 219 1650 219 
Q 1875 219 1978 351 
Q 2081 484 2088 781 
L 2522 781 
Q 2497 328 2275 118 
Q 2053 -91 1600 -91 
Q 1103 -91 897 129 
Q 691 350 691 878 
L 691 2988 
z
" transform="scale(0.015625)"/>
        <path id="DejaVuSerif-6c" d="M 1313 331 
L 1856 331 
L 1856 0 
L 184 0 
L 184 331 
L 738 331 
L 738 4531 
L 184 4531 
L 184 4863 
L 1313 4863 
L 1313 331 
z
" transform="scale(0.015625)"/>
       </defs>
       <use xlink:href="#DejaVuSerif-43"/>
       <use xlink:href="#DejaVuSerif-61" x="76.513672"/>
       <use xlink:href="#DejaVuSerif-74" x="136.132812"/>
       <use xlink:href="#DejaVuSerif-74" x="176.318359"/>
       <use xlink:href="#DejaVuSerif-6c" x="216.503906"/>
       <use xlink:href="#DejaVuSerif-65" x="248.486328"/>
      </g>
     </g>
    </g>
    <g id="xtick_3">
     <g id="line2d_3"/>
     <g id="text_3">
      <!-- Yak -->
      <g style="fill: #333333" transform="translate(294.628279 235.697614) scale(0.11 -0.11)">
       <defs>
        <path id="DejaVuSerif-59" d="M 1209 0 
L 1209 331 
L 1806 331 
L 1806 2009 
L 366 4331 
L -72 4331 
L -72 4666 
L 1663 4666 
L 1663 4331 
L 1119 4331 
L 2284 2444 
L 3450 4331 
L 2925 4331 
L 2925 4666 
L 4281 4666 
L 4281 4331 
L 3841 4331 
L 2438 2069 
L 2438 331 
L 3034 331 
L 3034 0 
L 1209 0 
z
" transform="scale(0.015625)"/>
        <path id="DejaVuSerif-6b" d="M 1831 0 
L 219 0 
L 219 331 
L 738 331 
L 738 4531 
L 184 4531 
L 184 4863 
L 1313 4863 
L 1313 1697 
L 2713 2988 
L 2234 2988 
L 2234 3322 
L 3738 3322 
L 3738 2988 
L 3169 2988 
L 2181 2075 
L 3444 331 
L 3922 331 
L 3922 0 
L 2284 0 
L 2284 331 
L 2759 331 
L 1766 1697 
L 1313 1275 
L 1313 331 
L 1831 331 
L 1831 0 
z
" transform="scale(0.015625)"/>
       </defs>
       <use xlink:href="#DejaVuSerif-59"/>
       <use xlink:href="#DejaVuSerif-61" x="58.265625"/>
       <use xlink:href="#DejaVuSerif-6b" x="117.884766"/>
      </g>
     </g>
    </g>
    <g id="xtick_4">
     <g id="line2d_4"/>
     <g id="text_4">
      <!-- Uncertain -->
      <g style="fill: #333333" transform="translate(353.931762 235.697614) scale(0.11 -0.11)">
       <defs>
        <path id="DejaVuSerif-55" d="M 897 4331 
L 300 4331 
L 300 4666 
L 2125 4666 
L 2125 4331 
L 1528 4331 
L 1528 1919 
Q 1528 1025 1820 672 
Q 2113 319 2828 319 
Q 3544 319 3836 672 
Q 4128 1025 4128 1919 
L 4128 4331 
L 3531 4331 
L 3531 4666 
L 5106 4666 
L 5106 4331 
L 4513 4331 
L 4513 1856 
Q 4513 791 4103 350 
Q 3694 -91 2713 -91 
Q 1731 -91 1314 353 
Q 897 797 897 1856 
L 897 4331 
z
" transform="scale(0.015625)"/>
        <path id="DejaVuSerif-63" d="M 3291 997 
Q 3169 466 2822 187 
Q 2475 -91 1925 -91 
Q 1200 -91 759 389 
Q 319 869 319 1663 
Q 319 2459 759 2936 
Q 1200 3413 1925 3413 
Q 2241 3413 2553 3339 
Q 2866 3266 3181 3116 
L 3181 2266 
L 2847 2266 
Q 2781 2703 2561 2903 
Q 2341 3103 1931 3103 
Q 1466 3103 1228 2742 
Q 991 2381 991 1663 
Q 991 944 1227 581 
Q 1463 219 1931 219 
Q 2303 219 2525 412 
Q 2747 606 2828 997 
L 3291 997 
z
" transform="scale(0.015625)"/>
        <path id="DejaVuSerif-72" d="M 3059 3328 
L 3059 2497 
L 2728 2497 
Q 2713 2744 2591 2866 
Q 2469 2988 2234 2988 
Q 1809 2988 1582 2694 
Q 1356 2400 1356 1850 
L 1356 331 
L 2022 331 
L 2022 0 
L 263 0 
L 263 331 
L 781 331 
L 781 2994 
L 231 2994 
L 231 3322 
L 1356 3322 
L 1356 2731 
Q 1525 3078 1790 3245 
Q 2056 3413 2438 3413 
Q 2578 3413 2733 3391 
Q 2888 3369 3059 3328 
z
" transform="scale(0.015625)"/>
       </defs>
       <use xlink:href="#DejaVuSerif-55"/>
       <use xlink:href="#DejaVuSerif-6e" x="84.277344"/>
       <use xlink:href="#DejaVuSerif-63" x="148.681641"/>
       <use xlink:href="#DejaVuSerif-65" x="204.6875"/>
       <use xlink:href="#DejaVuSerif-72" x="263.867188"/>
       <use xlink:href="#DejaVuSerif-74" x="311.669922"/>
       <use xlink:href="#DejaVuSerif-61" x="351.855469"/>
       <use xlink:href="#DejaVuSerif-69" x="411.474609"/>
       <use xlink:href="#DejaVuSerif-6e" x="443.457031"/>
      </g>
     </g>
    </g>
    <g id="text_5">
     <!-- Morphology Identification -->
     <g style="fill: #333333" transform="translate(186.283685 257.103395) scale(0.12 -0.12)">
      <defs>
       <path id="DejaVuSerif-4d" d="M 353 0 
L 353 331 
L 947 331 
L 947 4331 
L 319 4331 
L 319 4666 
L 1678 4666 
L 3316 1344 
L 4953 4666 
L 6228 4666 
L 6228 4331 
L 5606 4331 
L 5606 331 
L 6203 331 
L 6203 0 
L 4378 0 
L 4378 331 
L 4972 331 
L 4972 3938 
L 3372 684 
L 2931 684 
L 1331 3938 
L 1331 331 
L 1925 331 
L 1925 0 
L 353 0 
z
" transform="scale(0.015625)"/>
       <path id="DejaVuSerif-70" d="M 1313 1825 
L 1313 1497 
Q 1313 897 1542 583 
Q 1772 269 2209 269 
Q 2650 269 2876 622 
Q 3103 975 3103 1663 
Q 3103 2353 2876 2703 
Q 2650 3053 2209 3053 
Q 1772 3053 1542 2737 
Q 1313 2422 1313 1825 
z
M 738 2988 
L 184 2988 
L 184 3322 
L 1313 3322 
L 1313 2803 
Q 1481 3116 1742 3264 
Q 2003 3413 2388 3413 
Q 3000 3413 3387 2928 
Q 3775 2444 3775 1663 
Q 3775 881 3387 395 
Q 3000 -91 2388 -91 
Q 2003 -91 1742 57 
Q 1481 206 1313 519 
L 1313 -997 
L 1856 -997 
L 1856 -1331 
L 184 -1331 
L 184 -997 
L 738 -997 
L 738 2988 
z
" transform="scale(0.015625)"/>
       <path id="DejaVuSerif-68" d="M 263 0 
L 263 331 
L 781 331 
L 781 4531 
L 231 4531 
L 231 4863 
L 1356 4863 
L 1356 2731 
Q 1516 3069 1770 3241 
Q 2025 3413 2363 3413 
Q 2913 3413 3172 3097 
Q 3431 2781 3431 2113 
L 3431 331 
L 3944 331 
L 3944 0 
L 2356 0 
L 2356 331 
L 2853 331 
L 2853 1931 
Q 2853 2541 2704 2764 
Q 2556 2988 2175 2988 
Q 1775 2988 1565 2697 
Q 1356 2406 1356 1850 
L 1356 331 
L 1856 331 
L 1856 0 
L 263 0 
z
" transform="scale(0.015625)"/>
       <path id="DejaVuSerif-67" d="M 3359 2988 
L 3359 72 
Q 3359 -644 2965 -1033 
Q 2572 -1422 1844 -1422 
Q 1516 -1422 1216 -1362 
Q 916 -1303 641 -1184 
L 641 -488 
L 941 -488 
Q 997 -813 1206 -963 
Q 1416 -1113 1806 -1113 
Q 2313 -1113 2548 -827 
Q 2784 -541 2784 72 
L 2784 519 
Q 2616 206 2355 57 
Q 2094 -91 1709 -91 
Q 1097 -91 708 395 
Q 319 881 319 1663 
Q 319 2444 706 2928 
Q 1094 3413 1709 3413 
Q 2094 3413 2355 3264 
Q 2616 3116 2784 2803 
L 2784 3322 
L 3909 3322 
L 3909 2988 
L 3359 2988 
z
M 2784 1825 
Q 2784 2422 2554 2737 
Q 2325 3053 1888 3053 
Q 1444 3053 1217 2703 
Q 991 2353 991 1663 
Q 991 975 1217 622 
Q 1444 269 1888 269 
Q 2325 269 2554 583 
Q 2784 897 2784 1497 
L 2784 1825 
z
" transform="scale(0.015625)"/>
       <path id="DejaVuSerif-79" d="M 1381 -609 
L 1600 -56 
L 359 2988 
L -19 2988 
L -19 3322 
L 1509 3322 
L 1509 2988 
L 978 2988 
L 1913 703 
L 2847 2988 
L 2350 2988 
L 2350 3322 
L 3597 3322 
L 3597 2988 
L 3225 2988 
L 1703 -750 
Q 1547 -1138 1356 -1280 
Q 1166 -1422 819 -1422 
Q 672 -1422 517 -1397 
Q 363 -1372 206 -1325 
L 206 -691 
L 500 -691 
Q 519 -903 608 -995 
Q 697 -1088 884 -1088 
Q 1056 -1088 1161 -992 
Q 1266 -897 1381 -609 
z
" transform="scale(0.015625)"/>
       <path id="DejaVuSerif-20" transform="scale(0.015625)"/>
       <path id="DejaVuSerif-49" d="M 1581 331 
L 2175 331 
L 2175 0 
L 353 0 
L 353 331 
L 947 331 
L 947 4331 
L 353 4331 
L 353 4666 
L 2175 4666 
L 2175 4331 
L 1581 4331 
L 1581 331 
z
" transform="scale(0.015625)"/>
       <path id="DejaVuSerif-64" d="M 3359 331 
L 3909 331 
L 3909 0 
L 2784 0 
L 2784 519 
Q 2616 206 2355 57 
Q 2094 -91 1709 -91 
Q 1097 -91 708 395 
Q 319 881 319 1663 
Q 319 2444 706 2928 
Q 1094 3413 1709 3413 
Q 2094 3413 2355 3264 
Q 2616 3116 2784 2803 
L 2784 4531 
L 2241 4531 
L 2241 4863 
L 3359 4863 
L 3359 331 
z
M 2784 1497 
L 2784 1825 
Q 2784 2422 2554 2737 
Q 2325 3053 1888 3053 
Q 1444 3053 1217 2703 
Q 991 2353 991 1663 
Q 991 975 1217 622 
Q 1444 269 1888 269 
Q 2325 269 2554 583 
Q 2784 897 2784 1497 
z
" transform="scale(0.015625)"/>
       <path id="DejaVuSerif-66" d="M 2753 4078 
L 2450 4078 
Q 2447 4313 2317 4434 
Q 2188 4556 1941 4556 
Q 1619 4556 1487 4379 
Q 1356 4203 1356 3750 
L 1356 3322 
L 2284 3322 
L 2284 2988 
L 1356 2988 
L 1356 331 
L 2094 331 
L 2094 0 
L 231 0 
L 231 331 
L 781 331 
L 781 2988 
L 231 2988 
L 231 3322 
L 781 3322 
L 781 3738 
Q 781 4294 1070 4578 
Q 1359 4863 1919 4863 
Q 2128 4863 2337 4825 
Q 2547 4788 2753 4709 
L 2753 4078 
z
" transform="scale(0.015625)"/>
      </defs>
      <use xlink:href="#DejaVuSerif-4d"/>
      <use xlink:href="#DejaVuSerif-6f" x="102.392578"/>
      <use xlink:href="#DejaVuSerif-72" x="162.597656"/>
      <use xlink:href="#DejaVuSerif-70" x="210.400391"/>
      <use xlink:href="#DejaVuSerif-68" x="274.414062"/>
      <use xlink:href="#DejaVuSerif-6f" x="338.818359"/>
      <use xlink:href="#DejaVuSerif-6c" x="399.023438"/>
      <use xlink:href="#DejaVuSerif-6f" x="431.005859"/>
      <use xlink:href="#DejaVuSerif-67" x="491.210938"/>
      <use xlink:href="#DejaVuSerif-79" x="555.224609"/>
      <use xlink:href="#DejaVuSerif-20" x="611.71875"/>
      <use xlink:href="#DejaVuSerif-49" x="643.505859"/>
      <use xlink:href="#DejaVuSerif-64" x="683.007812"/>
      <use xlink:href="#DejaVuSerif-65" x="747.021484"/>
      <use xlink:href="#DejaVuSerif-6e" x="806.201172"/>
      <use xlink:href="#DejaVuSerif-74" x="870.605469"/>
      <use xlink:href="#DejaVuSerif-69" x="910.791016"/>
      <use xlink:href="#DejaVuSerif-66" x="942.773438"/>
      <use xlink:href="#DejaVuSerif-69" x="979.785156"/>
      <use xlink:href="#DejaVuSerif-63" x="1011.767578"/>
      <use xlink:href="#DejaVuSerif-61" x="1067.773438"/>
      <use xlink:href="#DejaVuSerif-74" x="1127.392578"/>
      <use xlink:href="#DejaVuSerif-69" x="1167.578125"/>
      <use xlink:href="#DejaVuSerif-6f" x="1199.560547"/>
      <use xlink:href="#DejaVuSerif-6e" x="1259.765625"/>
     </g>
    </g>
   </g>
   <g id="matplotlib.axis_2">
    <g id="ytick_1">
     <g id="line2d_5"/>
     <g id="text_6">
      <!-- Yak mtDNA -->
      <g style="fill: #333333" transform="translate(43.026094 84.017333) scale(0.11 -0.11)">
       <defs>
        <path id="DejaVuSerif-6d" d="M 3316 2675 
Q 3481 3041 3739 3227 
Q 3997 3413 4341 3413 
Q 4863 3413 5119 3089 
Q 5375 2766 5375 2113 
L 5375 331 
L 5894 331 
L 5894 0 
L 4300 0 
L 4300 331 
L 4800 331 
L 4800 2047 
Q 4800 2556 4650 2772 
Q 4500 2988 4153 2988 
Q 3769 2988 3567 2697 
Q 3366 2406 3366 1850 
L 3366 331 
L 3866 331 
L 3866 0 
L 2291 0 
L 2291 331 
L 2791 331 
L 2791 2069 
Q 2791 2566 2641 2777 
Q 2491 2988 2144 2988 
Q 1759 2988 1557 2697 
Q 1356 2406 1356 1850 
L 1356 331 
L 1856 331 
L 1856 0 
L 263 0 
L 263 331 
L 781 331 
L 781 2994 
L 231 2994 
L 231 3322 
L 1356 3322 
L 1356 2731 
Q 1516 3063 1762 3238 
Q 2009 3413 2322 3413 
Q 2709 3413 2968 3220 
Q 3228 3028 3316 2675 
z
" transform="scale(0.015625)"/>
        <path id="DejaVuSerif-44" d="M 1581 331 
L 2163 331 
Q 3072 331 3558 850 
Q 4044 1369 4044 2338 
Q 4044 3306 3559 3818 
Q 3075 4331 2163 4331 
L 1581 4331 
L 1581 331 
z
M 353 0 
L 353 331 
L 947 331 
L 947 4331 
L 353 4331 
L 353 4666 
L 2209 4666 
Q 3416 4666 4089 4050 
Q 4763 3434 4763 2338 
Q 4763 1238 4088 619 
Q 3413 0 2209 0 
L 353 0 
z
" transform="scale(0.015625)"/>
        <path id="DejaVuSerif-4e" d="M 313 0 
L 313 331 
L 941 331 
L 941 4331 
L 313 4331 
L 313 4666 
L 1509 4666 
L 4306 984 
L 4306 4331 
L 3681 4331 
L 3681 4666 
L 5319 4666 
L 5319 4331 
L 4691 4331 
L 4691 -91 
L 4313 -91 
L 1325 3841 
L 1325 331 
L 1953 331 
L 1953 0 
L 313 0 
z
" transform="scale(0.015625)"/>
        <path id="DejaVuSerif-41" d="M 1281 1691 
L 2994 1691 
L 2138 3909 
L 1281 1691 
z
M -38 0 
L -38 331 
L 372 331 
L 2034 4666 
L 2559 4666 
L 4225 331 
L 4684 331 
L 4684 0 
L 2988 0 
L 2988 331 
L 3506 331 
L 3116 1356 
L 1153 1356 
L 763 331 
L 1275 331 
L 1275 0 
L -38 0 
z
" transform="scale(0.015625)"/>
       </defs>
       <use xlink:href="#DejaVuSerif-59"/>
       <use xlink:href="#DejaVuSerif-61" x="58.265625"/>
       <use xlink:href="#DejaVuSerif-6b" x="117.884766"/>
       <use xlink:href="#DejaVuSerif-20" x="178.480469"/>
       <use xlink:href="#DejaVuSerif-6d" x="210.267578"/>
       <use xlink:href="#DejaVuSerif-74" x="305.091797"/>
       <use xlink:href="#DejaVuSerif-44" x="345.277344"/>
       <use xlink:href="#DejaVuSerif-4e" x="425.453125"/>
       <use xlink:href="#DejaVuSerif-41" x="512.953125"/>
      </g>
     </g>
    </g>
    <g id="ytick_2">
     <g id="line2d_6"/>
     <g id="text_7">
      <!-- Cattle mtDNA -->
      <g style="fill: #333333" transform="translate(28.81375 180.018093) scale(0.11 -0.11)">
       <use xlink:href="#DejaVuSerif-43"/>
       <use xlink:href="#DejaVuSerif-61" x="76.513672"/>
       <use xlink:href="#DejaVuSerif-74" x="136.132812"/>
       <use xlink:href="#DejaVuSerif-74" x="176.318359"/>
       <use xlink:href="#DejaVuSerif-6c" x="216.503906"/>
       <use xlink:href="#DejaVuSerif-65" x="248.486328"/>
       <use xlink:href="#DejaVuSerif-20" x="307.666016"/>
       <use xlink:href="#DejaVuSerif-6d" x="339.453125"/>
       <use xlink:href="#DejaVuSerif-74" x="434.277344"/>
       <use xlink:href="#DejaVuSerif-44" x="474.462891"/>
       <use xlink:href="#DejaVuSerif-4e" x="554.638672"/>
       <use xlink:href="#DejaVuSerif-41" x="642.138672"/>
      </g>
     </g>
    </g>
    <g id="text_8">
     <!-- mtDNA Clade -->
     <g style="fill: #333333" transform="translate(16.318125 169.71951) rotate(-90) scale(0.12 -0.12)">
      <use xlink:href="#DejaVuSerif-6d"/>
      <use xlink:href="#DejaVuSerif-74" x="94.824219"/>
      <use xlink:href="#DejaVuSerif-44" x="135.009766"/>
      <use xlink:href="#DejaVuSerif-4e" x="215.185547"/>
      <use xlink:href="#DejaVuSerif-41" x="302.685547"/>
      <use xlink:href="#DejaVuSerif-20" x="374.902344"/>
      <use xlink:href="#DejaVuSerif-43" x="406.689453"/>
      <use xlink:href="#DejaVuSerif-6c" x="483.203125"/>
      <use xlink:href="#DejaVuSerif-61" x="515.185547"/>
      <use xlink:href="#DejaVuSerif-64" x="574.804688"/>
      <use xlink:href="#DejaVuSerif-65" x="638.818359"/>
     </g>
    </g>
   </g>
   <g id="text_9">
    <!-- n = 6 -->
    <g style="fill: #333333" transform="translate(130.384281 73.825304) scale(0.13 -0.13)">
     <defs>
      <path id="DejaVuSerif-Bold-6e" d="M 219 0 
L 219 378 
L 691 378 
L 691 2944 
L 219 2944 
L 219 3322 
L 1797 3322 
L 1797 2853 
Q 1997 3150 2253 3281 
Q 2509 3413 2900 3413 
Q 3459 3413 3745 3083 
Q 4031 2753 4031 2113 
L 4031 378 
L 4506 378 
L 4506 0 
L 2522 0 
L 2522 378 
L 2925 378 
L 2925 2144 
Q 2925 2566 2817 2730 
Q 2709 2894 2444 2894 
Q 2109 2894 1953 2648 
Q 1797 2403 1797 1869 
L 1797 378 
L 2203 378 
L 2203 0 
L 219 0 
z
" transform="scale(0.015625)"/>
      <path id="DejaVuSerif-Bold-20" transform="scale(0.015625)"/>
      <path id="DejaVuSerif-Bold-3d" d="M 678 1650 
L 4684 1650 
L 4684 941 
L 678 941 
L 678 1650 
z
M 678 3072 
L 4684 3072 
L 4684 2363 
L 678 2363 
L 678 3072 
z
" transform="scale(0.015625)"/>
      <path id="DejaVuSerif-Bold-36" d="M 1575 2766 
Q 1778 2928 2029 3009 
Q 2281 3091 2578 3091 
Q 3294 3091 3701 2672 
Q 4109 2253 4109 1522 
Q 4109 750 3650 329 
Q 3191 -91 2344 -91 
Q 1388 -91 895 486 
Q 403 1063 403 2181 
Q 403 3453 950 4101 
Q 1497 4750 2572 4750 
Q 2853 4750 3175 4703 
Q 3497 4656 3866 4563 
L 3866 3738 
L 3488 3738 
Q 3409 4056 3192 4220 
Q 2975 4384 2631 4384 
Q 2075 4384 1826 4003 
Q 1578 3622 1575 2766 
z
M 2272 275 
Q 2594 275 2731 548 
Q 2869 822 2869 1497 
Q 2869 2172 2731 2445 
Q 2594 2719 2272 2719 
Q 1950 2719 1814 2445 
Q 1678 2172 1678 1497 
Q 1678 822 1814 548 
Q 1950 275 2272 275 
z
" transform="scale(0.015625)"/>
     </defs>
     <use xlink:href="#DejaVuSerif-Bold-6e"/>
     <use xlink:href="#DejaVuSerif-Bold-20" x="72.705078"/>
     <use xlink:href="#DejaVuSerif-Bold-3d" x="107.519531"/>
     <use xlink:href="#DejaVuSerif-Bold-20" x="191.308594"/>
     <use xlink:href="#DejaVuSerif-Bold-36" x="226.123047"/>
    </g>
   </g>
   <g id="text_10">
    <!-- n = 1 -->
    <g style="fill: #333333" transform="translate(207.804248 73.825304) scale(0.13 -0.13)">
     <defs>
      <path id="DejaVuSerif-Bold-31" d="M 878 0 
L 878 378 
L 1753 378 
L 1753 4153 
L 781 3578 
L 781 4044 
L 1953 4750 
L 2938 4750 
L 2938 378 
L 3816 378 
L 3816 0 
L 878 0 
z
" transform="scale(0.015625)"/>
     </defs>
     <use xlink:href="#DejaVuSerif-Bold-6e"/>
     <use xlink:href="#DejaVuSerif-Bold-20" x="72.705078"/>
     <use xlink:href="#DejaVuSerif-Bold-3d" x="107.519531"/>
     <use xlink:href="#DejaVuSerif-Bold-20" x="191.308594"/>
     <use xlink:href="#DejaVuSerif-Bold-31" x="226.123047"/>
    </g>
   </g>
   <g id="text_11">
    <!-- Z9863* -->
    <g style="fill: #e64b35" transform="translate(208.86253 96.721744) scale(0.09 -0.09)">
     <defs>
      <path id="DejaVuSerif-Bold-5a" d="M 238 0 
L 238 441 
L 3022 4238 
L 788 4238 
L 788 3541 
L 359 3541 
L 359 4666 
L 4409 4666 
L 4409 4225 
L 1656 428 
L 4013 428 
L 4013 1081 
L 4441 1081 
L 4441 0 
L 238 0 
z
" transform="scale(0.015625)"/>
      <path id="DejaVuSerif-Bold-39" d="M 2181 4384 
Q 1859 4384 1723 4111 
Q 1588 3838 1588 3163 
Q 1588 2488 1723 2214 
Q 1859 1941 2181 1941 
Q 2503 1941 2640 2214 
Q 2778 2488 2778 3163 
Q 2778 3838 2640 4111 
Q 2503 4384 2181 4384 
z
M 2878 1900 
Q 2672 1734 2420 1651 
Q 2169 1569 1875 1569 
Q 1163 1569 755 1986 
Q 347 2403 347 3138 
Q 347 3913 803 4331 
Q 1259 4750 2106 4750 
Q 3063 4750 3556 4172 
Q 4050 3594 4050 2478 
Q 4050 1206 3503 557 
Q 2956 -91 1881 -91 
Q 1600 -91 1278 -44 
Q 956 3 588 97 
L 588 922 
L 966 922 
Q 1044 603 1261 439 
Q 1478 275 1825 275 
Q 2375 275 2625 658 
Q 2875 1041 2878 1900 
z
" transform="scale(0.015625)"/>
      <path id="DejaVuSerif-Bold-38" d="M 2975 2484 
Q 3531 2394 3820 2075 
Q 4109 1756 4109 1241 
Q 4109 597 3623 253 
Q 3138 -91 2222 -91 
Q 1306 -91 818 253 
Q 331 597 331 1241 
Q 331 1756 622 2075 
Q 913 2394 1466 2484 
Q 975 2597 731 2861 
Q 488 3125 488 3531 
Q 488 4125 931 4437 
Q 1375 4750 2222 4750 
Q 3066 4750 3511 4437 
Q 3956 4125 3956 3531 
Q 3956 3125 3711 2861 
Q 3466 2597 2975 2484 
z
M 2747 3519 
Q 2747 4013 2628 4198 
Q 2509 4384 2222 4384 
Q 1931 4384 1814 4198 
Q 1697 4013 1697 3519 
Q 1697 3028 1814 2845 
Q 1931 2663 2222 2663 
Q 2513 2663 2630 2845 
Q 2747 3028 2747 3519 
z
M 2869 1294 
Q 2869 1866 2723 2081 
Q 2578 2297 2222 2297 
Q 1863 2297 1719 2081 
Q 1575 1866 1575 1294 
Q 1575 716 1720 495 
Q 1866 275 2222 275 
Q 2575 275 2722 495 
Q 2869 716 2869 1294 
z
" transform="scale(0.015625)"/>
      <path id="DejaVuSerif-Bold-33" d="M 550 4531 
Q 963 4641 1350 4695 
Q 1738 4750 2106 4750 
Q 2950 4750 3401 4448 
Q 3853 4147 3853 3584 
Q 3853 3163 3593 2900 
Q 3334 2638 2834 2547 
Q 3444 2450 3744 2131 
Q 4044 1813 4044 1259 
Q 4044 606 3526 257 
Q 3009 -91 2028 -91 
Q 1659 -91 1267 -28 
Q 875 34 447 159 
L 447 1184 
L 825 1184 
Q 859 741 1103 508 
Q 1347 275 1778 275 
Q 2253 275 2512 539 
Q 2772 803 2772 1288 
Q 2772 1794 2501 2069 
Q 2231 2344 1734 2344 
L 1528 2344 
L 1528 2719 
L 1691 2719 
Q 2150 2719 2381 2931 
Q 2613 3144 2613 3566 
Q 2613 3963 2395 4173 
Q 2178 4384 1772 4384 
Q 1403 4384 1187 4182 
Q 972 3981 928 3597 
L 550 3597 
L 550 4531 
z
" transform="scale(0.015625)"/>
      <path id="DejaVuSerif-Bold-2a" d="M 3206 3788 
L 2081 3263 
L 3206 2731 
L 2900 2247 
L 1875 2994 
L 1959 1778 
L 1388 1778 
L 1472 2994 
L 447 2247 
L 141 2731 
L 1269 3263 
L 141 3788 
L 447 4281 
L 1472 3525 
L 1388 4750 
L 1959 4750 
L 1875 3525 
L 2900 4281 
L 3206 3788 
z
" transform="scale(0.015625)"/>
     </defs>
     <use xlink:href="#DejaVuSerif-Bold-5a"/>
     <use xlink:href="#DejaVuSerif-Bold-39" x="72.998047"/>
     <use xlink:href="#DejaVuSerif-Bold-38" x="142.578125"/>
     <use xlink:href="#DejaVuSerif-Bold-36" x="212.158203"/>
     <use xlink:href="#DejaVuSerif-Bold-33" x="281.738281"/>
     <use xlink:href="#DejaVuSerif-Bold-2a" x="351.318359"/>
    </g>
   </g>
   <g id="text_12">
    <!-- — -->
    <g style="fill: #bbbbbb" transform="translate(297.944919 83.42538) scale(0.13 -0.13)">
     <defs>
      <path id="DejaVuSerif-2014" d="M 281 1906 
L 6119 1906 
L 6119 1491 
L 281 1491 
L 281 1906 
z
" transform="scale(0.015625)"/>
     </defs>
     <use xlink:href="#DejaVuSerif-2014"/>
    </g>
   </g>
   <g id="text_13">
    <!-- — -->
    <g style="fill: #bbbbbb" transform="translate(375.364887 83.42538) scale(0.13 -0.13)">
     <use xlink:href="#DejaVuSerif-2014"/>
    </g>
   </g>
   <g id="text_14">
    <!-- n = 6 -->
    <g style="fill: #333333" transform="translate(130.384281 169.826064) scale(0.13 -0.13)">
     <use xlink:href="#DejaVuSerif-Bold-6e"/>
     <use xlink:href="#DejaVuSerif-Bold-20" x="72.705078"/>
     <use xlink:href="#DejaVuSerif-Bold-3d" x="107.519531"/>
     <use xlink:href="#DejaVuSerif-Bold-20" x="191.308594"/>
     <use xlink:href="#DejaVuSerif-Bold-36" x="226.123047"/>
    </g>
   </g>
   <g id="text_15">
    <!-- — -->
    <g style="fill: #bbbbbb" transform="translate(220.524952 179.42614) scale(0.13 -0.13)">
     <use xlink:href="#DejaVuSerif-2014"/>
    </g>
   </g>
   <g id="text_16">
    <!-- n = 1 -->
    <g style="fill: #333333" transform="translate(285.224216 169.826064) scale(0.13 -0.13)">
     <use xlink:href="#DejaVuSerif-Bold-6e"/>
     <use xlink:href="#DejaVuSerif-Bold-20" x="72.705078"/>
     <use xlink:href="#DejaVuSerif-Bold-3d" x="107.519531"/>
     <use xlink:href="#DejaVuSerif-Bold-20" x="191.308594"/>
     <use xlink:href="#DejaVuSerif-Bold-31" x="226.123047"/>
    </g>
   </g>
   <g id="text_17">
    <!-- Z9867* -->
    <g style="fill: #e64b35" transform="translate(286.282497 192.722504) scale(0.09 -0.09)">
     <defs>
      <path id="DejaVuSerif-Bold-37" d="M 3922 3872 
L 1997 0 
L 1363 0 
L 3238 3781 
L 934 3781 
L 934 3150 
L 506 3150 
L 506 4666 
L 3922 4666 
L 3922 3872 
z
" transform="scale(0.015625)"/>
     </defs>
     <use xlink:href="#DejaVuSerif-Bold-5a"/>
     <use xlink:href="#DejaVuSerif-Bold-39" x="72.998047"/>
     <use xlink:href="#DejaVuSerif-Bold-38" x="142.578125"/>
     <use xlink:href="#DejaVuSerif-Bold-36" x="212.158203"/>
     <use xlink:href="#DejaVuSerif-Bold-37" x="281.738281"/>
     <use xlink:href="#DejaVuSerif-Bold-2a" x="351.318359"/>
    </g>
   </g>
   <g id="text_18">
    <!-- n = 4 -->
    <g style="fill: #333333" transform="translate(362.644184 169.826064) scale(0.13 -0.13)">
     <defs>
      <path id="DejaVuSerif-Bold-34" d="M 4084 0 
L 1516 0 
L 1516 378 
L 2209 378 
L 2209 1228 
L 263 1228 
L 263 1588 
L 2216 4750 
L 3391 4750 
L 3391 1631 
L 4191 1631 
L 4191 1228 
L 3391 1228 
L 3391 378 
L 4084 378 
L 4084 0 
z
M 2209 1631 
L 2209 3897 
L 819 1631 
L 2209 1631 
z
" transform="scale(0.015625)"/>
     </defs>
     <use xlink:href="#DejaVuSerif-Bold-6e"/>
     <use xlink:href="#DejaVuSerif-Bold-20" x="72.705078"/>
     <use xlink:href="#DejaVuSerif-Bold-3d" x="107.519531"/>
     <use xlink:href="#DejaVuSerif-Bold-20" x="191.308594"/>
     <use xlink:href="#DejaVuSerif-Bold-34" x="226.123047"/>
    </g>
   </g>
   <g id="text_19">
    <!-- Morphology–mtDNA Concordance Matrix -->
    <g transform="translate(118.250404 17.837812) scale(0.14 -0.14)">
     <defs>
      <path id="DejaVuSerif-2013" d="M 281 1906 
L 2919 1906 
L 2919 1491 
L 281 1491 
L 281 1906 
z
" transform="scale(0.015625)"/>
      <path id="DejaVuSerif-78" d="M 1863 2028 
L 2559 2988 
L 2113 2988 
L 2113 3322 
L 3391 3322 
L 3391 2988 
L 2950 2988 
L 2059 1759 
L 3097 331 
L 3531 331 
L 3531 0 
L 1997 0 
L 1997 331 
L 2419 331 
L 1697 1325 
L 972 331 
L 1403 331 
L 1403 0 
L 141 0 
L 141 331 
L 581 331 
L 1497 1594 
L 488 2988 
L 78 2988 
L 78 3322 
L 1563 3322 
L 1563 2988 
L 1166 2988 
L 1863 2028 
z
" transform="scale(0.015625)"/>
     </defs>
     <use xlink:href="#DejaVuSerif-4d"/>
     <use xlink:href="#DejaVuSerif-6f" x="102.392578"/>
     <use xlink:href="#DejaVuSerif-72" x="162.597656"/>
     <use xlink:href="#DejaVuSerif-70" x="210.400391"/>
     <use xlink:href="#DejaVuSerif-68" x="274.414062"/>
     <use xlink:href="#DejaVuSerif-6f" x="338.818359"/>
     <use xlink:href="#DejaVuSerif-6c" x="399.023438"/>
     <use xlink:href="#DejaVuSerif-6f" x="431.005859"/>
     <use xlink:href="#DejaVuSerif-67" x="491.210938"/>
     <use xlink:href="#DejaVuSerif-79" x="555.224609"/>
     <use xlink:href="#DejaVuSerif-2013" x="611.71875"/>
     <use xlink:href="#DejaVuSerif-6d" x="661.71875"/>
     <use xlink:href="#DejaVuSerif-74" x="756.542969"/>
     <use xlink:href="#DejaVuSerif-44" x="796.728516"/>
     <use xlink:href="#DejaVuSerif-4e" x="876.904297"/>
     <use xlink:href="#DejaVuSerif-41" x="964.404297"/>
     <use xlink:href="#DejaVuSerif-20" x="1036.621094"/>
     <use xlink:href="#DejaVuSerif-43" x="1068.408203"/>
     <use xlink:href="#DejaVuSerif-6f" x="1144.921875"/>
     <use xlink:href="#DejaVuSerif-6e" x="1205.126953"/>
     <use xlink:href="#DejaVuSerif-63" x="1269.53125"/>
     <use xlink:href="#DejaVuSerif-6f" x="1325.537109"/>
     <use xlink:href="#DejaVuSerif-72" x="1385.742188"/>
     <use xlink:href="#DejaVuSerif-64" x="1433.544922"/>
     <use xlink:href="#DejaVuSerif-61" x="1497.558594"/>
     <use xlink:href="#DejaVuSerif-6e" x="1557.177734"/>
     <use xlink:href="#DejaVuSerif-63" x="1621.582031"/>
     <use xlink:href="#DejaVuSerif-65" x="1677.587891"/>
     <use xlink:href="#DejaVuSerif-20" x="1736.767578"/>
     <use xlink:href="#DejaVuSerif-4d" x="1768.554688"/>
     <use xlink:href="#DejaVuSerif-61" x="1870.947266"/>
     <use xlink:href="#DejaVuSerif-74" x="1930.566406"/>
     <use xlink:href="#DejaVuSerif-72" x="1970.751953"/>
     <use xlink:href="#DejaVuSerif-69" x="2018.554688"/>
     <use xlink:href="#DejaVuSerif-78" x="2050.537109"/>
    </g>
   </g>
   <g id="patch_11">
    <path d="M 189.244007 126.686563 
L 264.805896 126.686563 
L 264.805896 32.989822 
L 189.244007 32.989822 
L 189.244007 126.686563 
z
" clip-path="url(#pd9d0a62f9c)" style="fill: none; stroke: #e64b35; stroke-width: 2.2; stroke-linejoin: miter"/>
   </g>
   <g id="patch_12">
    <path d="M 266.663975 222.687323 
L 342.225864 222.687323 
L 342.225864 128.990582 
L 266.663975 128.990582 
L 266.663975 222.687323 
z
" clip-path="url(#pd9d0a62f9c)" style="fill: none; stroke: #e64b35; stroke-width: 2.2; stroke-linejoin: miter"/>
   </g>
   <g id="legend_1">
    <g id="patch_13">
     <path d="M 123.517982 317.56346 
L 407.951889 317.56346 
L 407.951889 285.689788 
L 123.517982 285.689788 
z
" style="fill: #ffffff; opacity: 0.9; stroke: #cccccc; stroke-linejoin: miter"/>
    </g>
    <g id="patch_14">
     <path d="M 128.617982 297.24846 
L 143.917982 297.24846 
L 143.917982 291.29846 
L 128.617982 291.29846 
z
" style="fill: #ffe8e8; stroke: #e64b35; stroke-width: 2; stroke-linejoin: miter"/>
    </g>
    <g id="text_20">
     <!-- Discordant candidate -->
     <g transform="translate(150.717982 297.24846) scale(0.085 -0.085)">
      <defs>
       <path id="DejaVuSerif-73" d="M 359 184 
L 359 959 
L 691 959 
Q 703 588 923 403 
Q 1144 219 1575 219 
Q 1963 219 2166 364 
Q 2369 509 2369 788 
Q 2369 1006 2220 1140 
Q 2072 1275 1594 1428 
L 1178 1569 
Q 750 1706 558 1912 
Q 366 2119 366 2438 
Q 366 2894 700 3153 
Q 1034 3413 1625 3413 
Q 1888 3413 2178 3344 
Q 2469 3275 2778 3144 
L 2778 2419 
L 2447 2419 
Q 2434 2741 2221 2922 
Q 2009 3103 1644 3103 
Q 1281 3103 1095 2975 
Q 909 2847 909 2591 
Q 909 2381 1050 2254 
Q 1191 2128 1613 1997 
L 2069 1856 
Q 2541 1709 2748 1489 
Q 2956 1269 2956 922 
Q 2956 450 2595 179 
Q 2234 -91 1600 -91 
Q 1278 -91 972 -22 
Q 666 47 359 184 
z
" transform="scale(0.015625)"/>
      </defs>
      <use xlink:href="#DejaVuSerif-44"/>
      <use xlink:href="#DejaVuSerif-69" x="80.175781"/>
      <use xlink:href="#DejaVuSerif-73" x="112.158203"/>
      <use xlink:href="#DejaVuSerif-63" x="163.476562"/>
      <use xlink:href="#DejaVuSerif-6f" x="219.482422"/>
      <use xlink:href="#DejaVuSerif-72" x="279.6875"/>
      <use xlink:href="#DejaVuSerif-64" x="327.490234"/>
      <use xlink:href="#DejaVuSerif-61" x="391.503906"/>
      <use xlink:href="#DejaVuSerif-6e" x="451.123047"/>
      <use xlink:href="#DejaVuSerif-74" x="515.527344"/>
      <use xlink:href="#DejaVuSerif-20" x="555.712891"/>
      <use xlink:href="#DejaVuSerif-63" x="587.5"/>
      <use xlink:href="#DejaVuSerif-61" x="643.505859"/>
      <use xlink:href="#DejaVuSerif-6e" x="703.125"/>
      <use xlink:href="#DejaVuSerif-64" x="767.529297"/>
      <use xlink:href="#DejaVuSerif-69" x="831.542969"/>
      <use xlink:href="#DejaVuSerif-64" x="863.525391"/>
      <use xlink:href="#DejaVuSerif-61" x="927.539062"/>
      <use xlink:href="#DejaVuSerif-74" x="987.158203"/>
      <use xlink:href="#DejaVuSerif-65" x="1027.34375"/>
     </g>
    </g>
    <g id="patch_15">
     <path d="M 128.617982 310.574867 
L 143.917982 310.574867 
L 143.917982 304.624867 
L 128.617982 304.624867 
z
" style="fill: #e8eef8; stroke: #cccccc; stroke-linejoin: miter"/>
    </g>
    <g id="text_21">
     <!-- Generic bovine morphology -->
     <g transform="translate(150.717982 310.574867) scale(0.085 -0.085)">
      <defs>
       <path id="DejaVuSerif-47" d="M 4097 3272 
Q 3988 3856 3641 4136 
Q 3294 4416 2675 4416 
Q 1869 4416 1472 3897 
Q 1075 3378 1075 2328 
Q 1075 1300 1484 772 
Q 1894 244 2688 244 
Q 3041 244 3362 331 
Q 3684 419 3975 594 
L 3975 1797 
L 3097 1797 
L 3097 2131 
L 4609 2131 
L 4609 391 
Q 4194 150 3714 29 
Q 3234 -91 2688 -91 
Q 1631 -91 995 570 
Q 359 1231 359 2328 
Q 359 3434 996 4092 
Q 1634 4750 2713 4750 
Q 3113 4750 3539 4658 
Q 3966 4566 4447 4378 
L 4447 3272 
L 4097 3272 
z
" transform="scale(0.015625)"/>
       <path id="DejaVuSerif-62" d="M 738 331 
L 738 4531 
L 184 4531 
L 184 4863 
L 1313 4863 
L 1313 2803 
Q 1481 3116 1742 3264 
Q 2003 3413 2388 3413 
Q 3000 3413 3387 2928 
Q 3775 2444 3775 1663 
Q 3775 881 3387 395 
Q 3000 -91 2388 -91 
Q 2003 -91 1742 57 
Q 1481 206 1313 519 
L 1313 0 
L 184 0 
L 184 331 
L 738 331 
z
M 1313 1497 
Q 1313 897 1542 583 
Q 1772 269 2209 269 
Q 2650 269 2876 622 
Q 3103 975 3103 1663 
Q 3103 2353 2876 2703 
Q 2650 3053 2209 3053 
Q 1772 3053 1542 2737 
Q 1313 2422 1313 1825 
L 1313 1497 
z
" transform="scale(0.015625)"/>
      </defs>
      <use xlink:href="#DejaVuSerif-47"/>
      <use xlink:href="#DejaVuSerif-65" x="79.882812"/>
      <use xlink:href="#DejaVuSerif-6e" x="139.0625"/>
      <use xlink:href="#DejaVuSerif-65" x="203.466797"/>
      <use xlink:href="#DejaVuSerif-72" x="262.646484"/>
      <use xlink:href="#DejaVuSerif-69" x="310.449219"/>
      <use xlink:href="#DejaVuSerif-63" x="342.431641"/>
      <use xlink:href="#DejaVuSerif-20" x="398.4375"/>
      <use xlink:href="#DejaVuSerif-62" x="430.224609"/>
      <use xlink:href="#DejaVuSerif-6f" x="494.238281"/>
      <use xlink:href="#DejaVuSerif-76" x="554.443359"/>
      <use xlink:href="#DejaVuSerif-69" x="610.9375"/>
      <use xlink:href="#DejaVuSerif-6e" x="642.919922"/>
      <use xlink:href="#DejaVuSerif-65" x="707.324219"/>
      <use xlink:href="#DejaVuSerif-20" x="766.503906"/>
      <use xlink:href="#DejaVuSerif-6d" x="798.291016"/>
      <use xlink:href="#DejaVuSerif-6f" x="893.115234"/>
      <use xlink:href="#DejaVuSerif-72" x="953.320312"/>
      <use xlink:href="#DejaVuSerif-70" x="1001.123047"/>
      <use xlink:href="#DejaVuSerif-68" x="1065.136719"/>
      <use xlink:href="#DejaVuSerif-6f" x="1129.541016"/>
      <use xlink:href="#DejaVuSerif-6c" x="1189.746094"/>
      <use xlink:href="#DejaVuSerif-6f" x="1221.728516"/>
      <use xlink:href="#DejaVuSerif-67" x="1281.933594"/>
      <use xlink:href="#DejaVuSerif-79" x="1345.947266"/>
     </g>
    </g>
    <g id="patch_16">
     <path d="M 283.527826 297.24846 
L 298.827826 297.24846 
L 298.827826 291.29846 
L 283.527826 291.29846 
z
" style="fill: #fff8dc; stroke: #cccccc; stroke-linejoin: miter"/>
    </g>
    <g id="text_22">
     <!-- Uncertain morphology -->
     <g transform="translate(305.627826 297.24846) scale(0.085 -0.085)">
      <use xlink:href="#DejaVuSerif-55"/>
      <use xlink:href="#DejaVuSerif-6e" x="84.277344"/>
      <use xlink:href="#DejaVuSerif-63" x="148.681641"/>
      <use xlink:href="#DejaVuSerif-65" x="204.6875"/>
      <use xlink:href="#DejaVuSerif-72" x="263.867188"/>
      <use xlink:href="#DejaVuSerif-74" x="311.669922"/>
      <use xlink:href="#DejaVuSerif-61" x="351.855469"/>
      <use xlink:href="#DejaVuSerif-69" x="411.474609"/>
      <use xlink:href="#DejaVuSerif-6e" x="443.457031"/>
      <use xlink:href="#DejaVuSerif-20" x="507.861328"/>
      <use xlink:href="#DejaVuSerif-6d" x="539.648438"/>
      <use xlink:href="#DejaVuSerif-6f" x="634.472656"/>
      <use xlink:href="#DejaVuSerif-72" x="694.677734"/>
      <use xlink:href="#DejaVuSerif-70" x="742.480469"/>
      <use xlink:href="#DejaVuSerif-68" x="806.494141"/>
      <use xlink:href="#DejaVuSerif-6f" x="870.898438"/>
      <use xlink:href="#DejaVuSerif-6c" x="931.103516"/>
      <use xlink:href="#DejaVuSerif-6f" x="963.085938"/>
      <use xlink:href="#DejaVuSerif-67" x="1023.291016"/>
      <use xlink:href="#DejaVuSerif-79" x="1087.304688"/>
     </g>
    </g>
    <g id="patch_17">
     <path d="M 283.527826 310.695726 
L 298.827826 310.695726 
L 298.827826 304.745726 
L 283.527826 304.745726 
z
" style="fill: #fafafa; stroke: #cccccc; stroke-linejoin: miter"/>
    </g>
    <g id="text_23">
     <!-- No sample -->
     <g transform="translate(305.627826 310.695726) scale(0.085 -0.085)">
      <use xlink:href="#DejaVuSerif-4e"/>
      <use xlink:href="#DejaVuSerif-6f" x="87.5"/>
      <use xlink:href="#DejaVuSerif-20" x="147.705078"/>
      <use xlink:href="#DejaVuSerif-73" x="179.492188"/>
      <use xlink:href="#DejaVuSerif-61" x="230.810547"/>
      <use xlink:href="#DejaVuSerif-6d" x="290.429688"/>
      <use xlink:href="#DejaVuSerif-70" x="385.253906"/>
      <use xlink:href="#DejaVuSerif-6c" x="449.267578"/>
      <use xlink:href="#DejaVuSerif-65" x="481.25"/>
     </g>
    </g>
   </g>
  </g>
 </g>
 <defs>
  <clipPath id="pd9d0a62f9c">
   <rect x="110.895" y="31.837812" width="309.679871" height="192.00152"/>
  </clipPath>
 </defs>
</svg>
