<?xml version="1.0" encoding="utf-8" standalone="no"?>
<!DOCTYPE svg PUBLIC "-//W3C//DTD SVG 1.1//EN"
  "http://www.w3.org/Graphics/SVG/1.1/DTD/svg11.dtd">
<svg xmlns:xlink="http://www.w3.org/1999/xlink" width="864pt" height="720pt" viewBox="0 0 864 720" xmlns="http://www.w3.org/2000/svg" version="1.1">
 <metadata>
  <rdf:RDF xmlns:dc="http://purl.org/dc/elements/1.1/" xmlns:cc="http://creativecommons.org/ns#" xmlns:rdf="http://www.w3.org/1999/02/22-rdf-syntax-ns#">
   <cc:Work>
    <dc:type rdf:resource="http://purl.org/dc/dcmitype/StillImage"/>
    <dc:date>2026-06-21T17:26:17.515162</dc:date>
    <dc:format>image/svg+xml</dc:format>
    <dc:creator>
     <cc:Agent>
      <dc:title>Matplotlib v3.9.4, https://matplotlib.org/</dc:title>
     </cc:Agent>
    </dc:creator>
   </cc:Work>
  </rdf:RDF>
 </metadata>
 <defs>
  <style type="text/css">*{stroke-linejoin: round; stroke-linecap: butt}</style>
 </defs>
 <g id="figure_1">
  <g id="patch_1">
   <path d="M 0 720 
L 864 720 
L 864 0 
L 0 0 
z
" style="fill: #ffffff"/>
  </g>
  <g id="axes_1">
   <g id="line2d_1">
    <path d="M 195.208175 239.682074 
L 220.842821 230.189033 
" clip-path="url(#p1e9871fe9c)" style="fill: none; stroke: #888888; stroke-opacity: 0.65; stroke-width: 1.3; stroke-linecap: round"/>
   </g>
   <g id="line2d_2">
    <path d="M 195.208175 239.682074 
L 115.095494 274.665717 
" clip-path="url(#p1e9871fe9c)" style="fill: none; stroke: #888888; stroke-opacity: 0.65; stroke-width: 1.3; stroke-linecap: round"/>
   </g>
   <g id="line2d_3">
    <path d="M 195.208175 239.682074 
L 189.055964 124.633782 
" clip-path="url(#p1e9871fe9c)" style="fill: none; stroke: #888888; stroke-opacity: 0.65; stroke-width: 1.3; stroke-linecap: round"/>
   </g>
   <g id="line2d_4">
    <path d="M 195.208175 239.682074 
L 342.910031 339.15787 
" clip-path="url(#p1e9871fe9c)" style="fill: none; stroke: #888888; stroke-opacity: 0.65; stroke-width: 1.3; stroke-linecap: round"/>
   </g>
   <g id="line2d_5">
    <path d="M 696.342837 546.232043 
L 666.695488 547.258328 
" clip-path="url(#p1e9871fe9c)" style="fill: none; stroke: #888888; stroke-opacity: 0.65; stroke-width: 1.3; stroke-linecap: round"/>
   </g>
   <g id="line2d_6">
    <path d="M 696.342837 546.232043 
L 716.482819 564.556493 
" clip-path="url(#p1e9871fe9c)" style="fill: none; stroke: #888888; stroke-opacity: 0.65; stroke-width: 1.3; stroke-linecap: round"/>
   </g>
   <g id="line2d_7">
    <path d="M 696.342837 546.232043 
L 744.914103 490.437978 
" clip-path="url(#p1e9871fe9c)" style="fill: none; stroke: #888888; stroke-opacity: 0.65; stroke-width: 1.3; stroke-linecap: round"/>
   </g>
   <g id="line2d_8">
    <path d="M 696.342837 546.232043 
L 745.159781 623.521445 
" clip-path="url(#p1e9871fe9c)" style="fill: none; stroke: #888888; stroke-opacity: 0.65; stroke-width: 1.3; stroke-linecap: round"/>
   </g>
   <g id="line2d_9">
    <path d="M 767.953948 473.5984 
L 744.914103 490.437978 
" clip-path="url(#p1e9871fe9c)" style="fill: none; stroke: #888888; stroke-opacity: 0.65; stroke-width: 1.3; stroke-linecap: round"/>
   </g>
   <g id="line2d_10">
    <path d="M 342.910031 339.15787 
L 555.44325 524.950058 
" clip-path="url(#p1e9871fe9c)" style="fill: none; stroke: #888888; stroke-opacity: 0.65; stroke-width: 1.3; stroke-linecap: round"/>
   </g>
   <g id="line2d_11">
    <path d="M 498.909266 531.506829 
L 555.44325 524.950058 
" clip-path="url(#p1e9871fe9c)" style="fill: none; stroke: #888888; stroke-opacity: 0.65; stroke-width: 1.3; stroke-linecap: round"/>
   </g>
   <g id="line2d_12">
    <path d="M 606.227566 560.280535 
L 555.44325 524.950058 
" clip-path="url(#p1e9871fe9c)" style="fill: none; stroke: #888888; stroke-opacity: 0.65; stroke-width: 1.3; stroke-linecap: round"/>
   </g>
   <g id="line2d_13">
    <path d="M 606.227566 560.280535 
L 666.695488 547.258328 
" clip-path="url(#p1e9871fe9c)" style="fill: none; stroke: #888888; stroke-opacity: 0.65; stroke-width: 1.3; stroke-linecap: round"/>
   </g>
   <g id="line2d_14">
    <path d="M 606.227566 560.280535 
L 577.814935 641.133627 
" clip-path="url(#p1e9871fe9c)" style="fill: none; stroke: #888888; stroke-opacity: 0.65; stroke-width: 1.3; stroke-linecap: round"/>
   </g>
   <g id="line2d_15">
    <path d="M 195.208175 265.936396 
L 195.208175 284.413346 
" clip-path="url(#p1e9871fe9c)" style="fill: none; stroke: #bbbbbb; stroke-opacity: 0.7; stroke-width: 0.7; stroke-linecap: square"/>
   </g>
   <g id="line2d_16">
    <path d="M 679.10706 528.996266 
L 666.041883 515.931089 
" clip-path="url(#p1e9871fe9c)" style="fill: none; stroke: #bbbbbb; stroke-opacity: 0.7; stroke-width: 0.7; stroke-linecap: square"/>
   </g>
   <g id="line2d_17">
    <path d="M 783.457958 458.09439 
L 796.523135 445.029214 
" clip-path="url(#p1e9871fe9c)" style="fill: none; stroke: #bbbbbb; stroke-opacity: 0.7; stroke-width: 0.7; stroke-linecap: square"/>
   </g>
   <g id="line2d_18">
    <path d="M 327.406022 354.66188 
L 314.340845 367.727057 
" clip-path="url(#p1e9871fe9c)" style="fill: none; stroke: #bbbbbb; stroke-opacity: 0.7; stroke-width: 0.7; stroke-linecap: square"/>
   </g>
   <g id="line2d_19">
    <path d="M 760.663791 639.025455 
L 773.728968 652.090632 
" clip-path="url(#p1e9871fe9c)" style="fill: none; stroke: #bbbbbb; stroke-opacity: 0.7; stroke-width: 0.7; stroke-linecap: square"/>
   </g>
   <g id="line2d_20">
    <path d="M 476.983285 531.506829 
L 458.506335 531.506829 
" clip-path="url(#p1e9871fe9c)" style="fill: none; stroke: #bbbbbb; stroke-opacity: 0.7; stroke-width: 0.7; stroke-linecap: square"/>
   </g>
   <g id="line2d_21">
    <path d="M 189.055964 102.707801 
L 189.055964 84.230851 
" clip-path="url(#p1e9871fe9c)" style="fill: none; stroke: #bbbbbb; stroke-opacity: 0.7; stroke-width: 0.7; stroke-linecap: square"/>
   </g>
   <g id="line2d_22">
    <path d="M 93.169513 274.665717 
L 74.692563 274.665717 
" clip-path="url(#p1e9871fe9c)" style="fill: none; stroke: #bbbbbb; stroke-opacity: 0.7; stroke-width: 0.7; stroke-linecap: square"/>
   </g>
   <g id="line2d_23">
    <path d="M 590.723557 575.784545 
L 577.65838 588.849722 
" clip-path="url(#p1e9871fe9c)" style="fill: none; stroke: #bbbbbb; stroke-opacity: 0.7; stroke-width: 0.7; stroke-linecap: square"/>
   </g>
   <g id="line2d_24">
    <path d="M 593.318945 656.637637 
L 606.384122 669.702814 
" clip-path="url(#p1e9871fe9c)" style="fill: none; stroke: #bbbbbb; stroke-opacity: 0.7; stroke-width: 0.7; stroke-linecap: square"/>
   </g>
   <g id="line2d_25">
    <path d="M 729.410093 474.933968 
L 716.344916 461.868791 
" clip-path="url(#p1e9871fe9c)" style="fill: none; stroke: #bbbbbb; stroke-opacity: 0.7; stroke-width: 0.7; stroke-linecap: square"/>
   </g>
   <g id="line2d_26">
    <path d="M 555.44325 503.024077 
L 555.44325 484.547126 
" clip-path="url(#p1e9871fe9c)" style="fill: none; stroke: #bbbbbb; stroke-opacity: 0.7; stroke-width: 0.7; stroke-linecap: square"/>
   </g>
   <g id="line2d_27">
    <path d="M 236.346831 214.685023 
L 249.412008 201.619846 
" clip-path="url(#p1e9871fe9c)" style="fill: none; stroke: #bbbbbb; stroke-opacity: 0.7; stroke-width: 0.7; stroke-linecap: square"/>
   </g>
   <g id="line2d_28">
    <path d="M 666.695488 569.184309 
L 666.695488 587.661259 
" clip-path="url(#p1e9871fe9c)" style="fill: none; stroke: #bbbbbb; stroke-opacity: 0.7; stroke-width: 0.7; stroke-linecap: square"/>
   </g>
   <g id="line2d_29">
    <path d="M 738.4088 564.556493 
L 756.88575 564.556493 
" clip-path="url(#p1e9871fe9c)" style="fill: none; stroke: #bbbbbb; stroke-opacity: 0.7; stroke-width: 0.7; stroke-linecap: square"/>
   </g>
   <g id="text_1">
    <!-- Fig8 · Haplotype network — Wenjiangduo ancient Bovini -->
    <g style="fill: #222222" transform="translate(226.319687 18.8) scale(0.13 -0.13)">
     <defs>
      <path id="DejaVuSerif-Bold-46" d="M 300 0 
L 300 378 
L 897 378 
L 897 4288 
L 300 4288 
L 300 4666 
L 4459 4666 
L 4459 3566 
L 4031 3566 
L 4031 4238 
L 2106 4238 
L 2106 2741 
L 3291 2741 
L 3291 3334 
L 3719 3334 
L 3719 1722 
L 3291 1722 
L 3291 2316 
L 2106 2316 
L 2106 378 
L 2841 378 
L 2841 0 
L 300 0 
z
" transform="scale(0.015625)"/>
      <path id="DejaVuSerif-Bold-69" d="M 588 4263 
Q 588 4516 763 4689 
Q 938 4863 1191 4863 
Q 1438 4863 1611 4689 
Q 1784 4516 1784 4263 
Q 1784 4016 1611 3842 
Q 1438 3669 1191 3669 
Q 938 3669 763 3841 
Q 588 4013 588 4263 
z
M 1797 378 
L 2272 378 
L 2272 0 
L 219 0 
L 219 378 
L 691 378 
L 691 2944 
L 219 2944 
L 219 3322 
L 1797 3322 
L 1797 378 
z
" transform="scale(0.015625)"/>
      <path id="DejaVuSerif-Bold-67" d="M 3853 2944 
L 3853 44 
Q 3853 -656 3354 -1039 
Q 2856 -1422 1947 -1422 
Q 1616 -1422 1275 -1370 
Q 934 -1319 575 -1216 
L 575 -422 
L 928 -422 
Q 975 -750 1192 -909 
Q 1409 -1069 1813 -1069 
Q 2325 -1069 2536 -823 
Q 2747 -578 2747 44 
L 2747 422 
Q 2606 163 2367 36 
Q 2128 -91 1778 -91 
Q 1072 -91 667 378 
Q 263 847 263 1663 
Q 263 2481 667 2947 
Q 1072 3413 1778 3413 
Q 2128 3413 2367 3286 
Q 2606 3159 2747 2900 
L 2747 3322 
L 4325 3322 
L 4325 2944 
L 3853 2944 
z
M 2747 1825 
Q 2747 2406 2597 2665 
Q 2447 2925 2119 2925 
Q 1775 2925 1636 2651 
Q 1497 2378 1497 1663 
Q 1497 947 1637 672 
Q 1778 397 2119 397 
Q 2447 397 2597 656 
Q 2747 916 2747 1497 
L 2747 1825 
z
" transform="scale(0.015625)"/>
      <path id="DejaVuSerif-Bold-38" d="M 2975 2484 
Q 3531 2394 3820 2075 
Q 4109 1756 4109 1241 
Q 4109 597 3623 253 
Q 3138 -91 2222 -91 
Q 1306 -91 818 253 
Q 331 597 331 1241 
Q 331 1756 622 2075 
Q 913 2394 1466 2484 
Q 975 2597 731 2861 
Q 488 3125 488 3531 
Q 488 4125 931 4437 
Q 1375 4750 2222 4750 
Q 3066 4750 3511 4437 
Q 3956 4125 3956 3531 
Q 3956 3125 3711 2861 
Q 3466 2597 2975 2484 
z
M 2747 3519 
Q 2747 4013 2628 4198 
Q 2509 4384 2222 4384 
Q 1931 4384 1814 4198 
Q 1697 4013 1697 3519 
Q 1697 3028 1814 2845 
Q 1931 2663 2222 2663 
Q 2513 2663 2630 2845 
Q 2747 3028 2747 3519 
z
M 2869 1294 
Q 2869 1866 2723 2081 
Q 2578 2297 2222 2297 
Q 1863 2297 1719 2081 
Q 1575 1866 1575 1294 
Q 1575 716 1720 495 
Q 1866 275 2222 275 
Q 2575 275 2722 495 
Q 2869 716 2869 1294 
z
" transform="scale(0.015625)"/>
      <path id="DejaVuSerif-Bold-20" transform="scale(0.015625)"/>
      <path id="DejaVuSerif-Bold-b7" d="M 519 2222 
Q 519 2466 694 2641 
Q 869 2816 1113 2816 
Q 1359 2816 1534 2641 
Q 1709 2466 1709 2222 
Q 1709 1978 1534 1804 
Q 1359 1631 1113 1631 
Q 869 1631 694 1804 
Q 519 1978 519 2222 
z
" transform="scale(0.015625)"/>
      <path id="DejaVuSerif-Bold-48" d="M 300 0 
L 300 378 
L 897 378 
L 897 4288 
L 300 4288 
L 300 4666 
L 2700 4666 
L 2700 4288 
L 2100 4288 
L 2100 2719 
L 3956 2719 
L 3956 4288 
L 3359 4288 
L 3359 4666 
L 5759 4666 
L 5759 4288 
L 5159 4288 
L 5159 378 
L 5759 378 
L 5759 0 
L 3359 0 
L 3359 378 
L 3956 378 
L 3956 2291 
L 2100 2291 
L 2100 378 
L 2700 378 
L 2700 0 
L 300 0 
z
" transform="scale(0.015625)"/>
      <path id="DejaVuSerif-Bold-61" d="M 3525 2041 
L 3525 378 
L 4000 378 
L 4000 0 
L 2419 0 
L 2419 422 
Q 2200 159 1931 34 
Q 1663 -91 1319 -91 
Q 809 -91 536 182 
Q 263 456 263 966 
Q 263 1525 655 1803 
Q 1047 2081 1838 2081 
L 2419 2081 
L 2419 2278 
Q 2419 2681 2228 2873 
Q 2038 3066 1638 3066 
Q 1306 3066 1126 2930 
Q 947 2794 872 2484 
L 519 2484 
L 519 3200 
Q 816 3306 1134 3359 
Q 1453 3413 1806 3413 
Q 2697 3413 3111 3081 
Q 3525 2750 3525 2041 
z
M 2419 1044 
L 2419 1709 
L 2003 1709 
Q 1694 1709 1528 1540 
Q 1363 1372 1363 1056 
Q 1363 741 1483 584 
Q 1603 428 1850 428 
Q 2106 428 2262 597 
Q 2419 766 2419 1044 
z
" transform="scale(0.015625)"/>
      <path id="DejaVuSerif-Bold-70" d="M 1728 1825 
L 1728 1497 
Q 1728 916 1876 656 
Q 2025 397 2356 397 
Q 2697 397 2836 672 
Q 2975 947 2975 1663 
Q 2975 2378 2836 2651 
Q 2697 2925 2356 2925 
Q 2025 2925 1876 2665 
Q 1728 2406 1728 1825 
z
M 622 2944 
L 147 2944 
L 147 3322 
L 1728 3322 
L 1728 2900 
Q 1869 3159 2106 3286 
Q 2344 3413 2694 3413 
Q 3403 3413 3811 2945 
Q 4219 2478 4219 1663 
Q 4219 847 3811 378 
Q 3403 -91 2694 -91 
Q 2344 -91 2106 36 
Q 1869 163 1728 422 
L 1728 -953 
L 2241 -953 
L 2241 -1331 
L 147 -1331 
L 147 -953 
L 622 -953 
L 622 2944 
z
" transform="scale(0.015625)"/>
      <path id="DejaVuSerif-Bold-6c" d="M 1797 378 
L 2272 378 
L 2272 0 
L 219 0 
L 219 378 
L 691 378 
L 691 4488 
L 219 4488 
L 219 4863 
L 1797 4863 
L 1797 378 
z
" transform="scale(0.015625)"/>
      <path id="DejaVuSerif-Bold-6f" d="M 2138 263 
Q 2488 263 2630 563 
Q 2772 863 2772 1663 
Q 2772 2463 2631 2761 
Q 2491 3059 2138 3059 
Q 1784 3059 1640 2757 
Q 1497 2456 1497 1663 
Q 1497 869 1640 566 
Q 1784 263 2138 263 
z
M 2138 -91 
Q 1259 -91 761 376 
Q 263 844 263 1663 
Q 263 2484 761 2948 
Q 1259 3413 2138 3413 
Q 3019 3413 3516 2948 
Q 4013 2484 4013 1663 
Q 4013 844 3514 376 
Q 3016 -91 2138 -91 
z
" transform="scale(0.015625)"/>
      <path id="DejaVuSerif-Bold-74" d="M 634 2944 
L 153 2944 
L 153 3322 
L 634 3322 
L 634 4353 
L 1741 4353 
L 1741 3322 
L 2663 3322 
L 2663 2944 
L 1741 2944 
L 1741 909 
Q 1741 475 1809 369 
Q 1878 263 2059 263 
Q 2259 263 2356 397 
Q 2453 531 2459 813 
L 2925 813 
Q 2897 313 2651 111 
Q 2406 -91 1806 -91 
Q 1122 -91 878 123 
Q 634 338 634 909 
L 634 2944 
z
" transform="scale(0.015625)"/>
      <path id="DejaVuSerif-Bold-79" d="M 1997 -750 
Q 1847 -1116 1634 -1269 
Q 1422 -1422 1063 -1422 
Q 909 -1422 721 -1387 
Q 534 -1353 313 -1288 
L 313 -594 
L 666 -597 
Q 675 -838 779 -953 
Q 884 -1069 1094 -1069 
Q 1297 -1069 1422 -958 
Q 1547 -847 1672 -538 
L 1722 -422 
L 275 2944 
L -84 2944 
L -84 3322 
L 1831 3322 
L 1831 2944 
L 1434 2944 
L 2278 978 
L 3066 2944 
L 2625 2944 
L 2625 3322 
L 3872 3322 
L 3872 2944 
L 3469 2944 
L 1997 -750 
z
" transform="scale(0.015625)"/>
      <path id="DejaVuSerif-Bold-65" d="M 2566 1875 
Q 2566 2531 2444 2795 
Q 2322 3059 2028 3059 
Q 1744 3059 1620 2800 
Q 1497 2541 1497 1931 
L 1497 1875 
L 2566 1875 
z
M 3781 1503 
L 1497 1503 
L 1497 1478 
Q 1497 834 1690 548 
Q 1884 263 2316 263 
Q 2675 263 2897 453 
Q 3119 644 3181 1006 
L 3700 1006 
Q 3566 441 3166 175 
Q 2766 -91 2047 -91 
Q 1184 -91 723 364 
Q 263 819 263 1663 
Q 263 2488 734 2950 
Q 1206 3413 2047 3413 
Q 2872 3413 3312 2927 
Q 3753 2441 3781 1503 
z
" transform="scale(0.015625)"/>
      <path id="DejaVuSerif-Bold-6e" d="M 219 0 
L 219 378 
L 691 378 
L 691 2944 
L 219 2944 
L 219 3322 
L 1797 3322 
L 1797 2853 
Q 1997 3150 2253 3281 
Q 2509 3413 2900 3413 
Q 3459 3413 3745 3083 
Q 4031 2753 4031 2113 
L 4031 378 
L 4506 378 
L 4506 0 
L 2522 0 
L 2522 378 
L 2925 378 
L 2925 2144 
Q 2925 2566 2817 2730 
Q 2709 2894 2444 2894 
Q 2109 2894 1953 2648 
Q 1797 2403 1797 1869 
L 1797 378 
L 2203 378 
L 2203 0 
L 219 0 
z
" transform="scale(0.015625)"/>
      <path id="DejaVuSerif-Bold-77" d="M 3450 3322 
L 4206 1106 
L 4831 2944 
L 4397 2944 
L 4397 3322 
L 5638 3322 
L 5638 2944 
L 5247 2944 
L 4244 0 
L 3481 0 
L 2778 2081 
L 2069 0 
L 1313 0 
L 306 2944 
L -56 2944 
L -56 3322 
L 1825 3322 
L 1825 2944 
L 1434 2944 
L 2047 1147 
L 2791 3322 
L 3450 3322 
z
" transform="scale(0.015625)"/>
      <path id="DejaVuSerif-Bold-72" d="M 3438 3359 
L 3438 2369 
L 3084 2369 
Q 3066 2634 2941 2764 
Q 2816 2894 2578 2894 
Q 2216 2894 2006 2575 
Q 1797 2256 1797 1691 
L 1797 378 
L 2400 378 
L 2400 0 
L 219 0 
L 219 378 
L 691 378 
L 691 2944 
L 184 2944 
L 184 3322 
L 1797 3322 
L 1797 2731 
Q 1959 3078 2226 3245 
Q 2494 3413 2881 3413 
Q 2978 3413 3117 3398 
Q 3256 3384 3438 3359 
z
" transform="scale(0.015625)"/>
      <path id="DejaVuSerif-Bold-6b" d="M 2216 0 
L 219 0 
L 219 378 
L 691 378 
L 691 4488 
L 219 4488 
L 219 4863 
L 1797 4863 
L 1797 1741 
L 3138 2944 
L 2741 2944 
L 2741 3322 
L 4256 3322 
L 4256 2944 
L 3641 2944 
L 2784 2175 
L 4184 378 
L 4544 378 
L 4544 0 
L 2638 0 
L 2638 378 
L 3028 378 
L 2106 1563 
L 1797 1288 
L 1797 378 
L 2216 378 
L 2216 0 
z
" transform="scale(0.015625)"/>
      <path id="DejaVuSerif-Bold-2014" d="M 344 2075 
L 6056 2075 
L 6056 1325 
L 344 1325 
L 344 2075 
z
" transform="scale(0.015625)"/>
      <path id="DejaVuSerif-Bold-57" d="M 5453 0 
L 4647 0 
L 3591 3397 
L 2534 0 
L 1728 0 
L 397 4288 
L -56 4288 
L -56 4666 
L 2156 4666 
L 2156 4288 
L 1656 4288 
L 2547 1422 
L 3553 4666 
L 4441 4666 
L 5466 1369 
L 6375 4288 
L 5819 4288 
L 5819 4666 
L 7263 4666 
L 7263 4288 
L 6784 4288 
L 5453 0 
z
" transform="scale(0.015625)"/>
      <path id="DejaVuSerif-Bold-6a" d="M 556 4263 
Q 556 4516 729 4689 
Q 903 4863 1159 4863 
Q 1403 4863 1578 4688 
Q 1753 4513 1753 4263 
Q 1753 4016 1579 3842 
Q 1406 3669 1159 3669 
Q 906 3669 731 3841 
Q 556 4013 556 4263 
z
M 684 2944 
L 213 2944 
L 213 3322 
L 1791 3322 
L 1791 -391 
Q 1791 -900 1430 -1161 
Q 1069 -1422 366 -1422 
Q 178 -1422 -34 -1390 
Q -247 -1359 -475 -1300 
L -475 -594 
L -122 -597 
Q -116 -847 -23 -958 
Q 69 -1069 275 -1069 
Q 503 -1069 593 -922 
Q 684 -775 684 -391 
L 684 2944 
z
" transform="scale(0.015625)"/>
      <path id="DejaVuSerif-Bold-64" d="M 2747 1497 
L 2747 1825 
Q 2747 2406 2597 2665 
Q 2447 2925 2119 2925 
Q 1775 2925 1636 2651 
Q 1497 2378 1497 1663 
Q 1497 947 1637 672 
Q 1778 397 2119 397 
Q 2447 397 2597 656 
Q 2747 916 2747 1497 
z
M 3853 378 
L 4325 378 
L 4325 0 
L 2747 0 
L 2747 422 
Q 2606 163 2367 36 
Q 2128 -91 1778 -91 
Q 1072 -91 667 378 
Q 263 847 263 1663 
Q 263 2481 667 2947 
Q 1072 3413 1778 3413 
Q 2128 3413 2367 3286 
Q 2606 3159 2747 2900 
L 2747 4488 
L 2272 4488 
L 2272 4863 
L 3853 4863 
L 3853 378 
z
" transform="scale(0.015625)"/>
      <path id="DejaVuSerif-Bold-75" d="M 3963 3322 
L 3963 378 
L 4434 378 
L 4434 0 
L 2853 0 
L 2853 469 
Q 2656 172 2400 40 
Q 2144 -91 1753 -91 
Q 1194 -91 908 239 
Q 622 569 622 1209 
L 622 2944 
L 147 2944 
L 147 3322 
L 1728 3322 
L 1728 1381 
Q 1728 763 1831 595 
Q 1934 428 2209 428 
Q 2544 428 2698 675 
Q 2853 922 2853 1459 
L 2853 2944 
L 2450 2944 
L 2450 3322 
L 3963 3322 
z
" transform="scale(0.015625)"/>
      <path id="DejaVuSerif-Bold-63" d="M 3609 1038 
Q 3491 469 3123 189 
Q 2756 -91 2125 -91 
Q 1238 -91 750 368 
Q 263 828 263 1663 
Q 263 2488 744 2950 
Q 1225 3413 2081 3413 
Q 2428 3413 2781 3347 
Q 3134 3281 3500 3150 
L 3500 2228 
L 3150 2228 
Q 3100 2650 2903 2854 
Q 2706 3059 2350 3059 
Q 1888 3059 1692 2746 
Q 1497 2434 1497 1663 
Q 1497 909 1687 586 
Q 1878 263 2309 263 
Q 2644 263 2845 463 
Q 3047 663 3091 1038 
L 3609 1038 
z
" transform="scale(0.015625)"/>
      <path id="DejaVuSerif-Bold-42" d="M 300 0 
L 300 378 
L 897 378 
L 897 4288 
L 300 4288 
L 300 4666 
L 3066 4666 
Q 3919 4666 4347 4378 
Q 4775 4091 4775 3513 
Q 4775 3097 4479 2853 
Q 4184 2609 3603 2547 
Q 4306 2481 4681 2172 
Q 5056 1863 5056 1350 
Q 5056 656 4532 328 
Q 4009 0 2894 0 
L 300 0 
z
M 2100 2719 
L 2509 2719 
Q 3047 2719 3306 2914 
Q 3566 3109 3566 3513 
Q 3566 3919 3314 4103 
Q 3063 4288 2509 4288 
L 2100 4288 
L 2100 2719 
z
M 2100 378 
L 2547 378 
Q 3144 378 3431 615 
Q 3719 853 3719 1350 
Q 3719 1850 3428 2097 
Q 3138 2344 2547 2344 
L 2100 2344 
L 2100 378 
z
" transform="scale(0.015625)"/>
      <path id="DejaVuSerif-Bold-76" d="M 1428 0 
L 250 2944 
L -116 2944 
L -116 3322 
L 1791 3322 
L 1791 2944 
L 1388 2944 
L 2228 844 
L 3066 2944 
L 2631 2944 
L 2631 3322 
L 3878 3322 
L 3878 2944 
L 3494 2944 
L 2316 0 
L 1428 0 
z
" transform="scale(0.015625)"/>
     </defs>
     <use xlink:href="#DejaVuSerif-Bold-46"/>
     <use xlink:href="#DejaVuSerif-Bold-69" x="70.996094"/>
     <use xlink:href="#DejaVuSerif-Bold-67" x="108.984375"/>
     <use xlink:href="#DejaVuSerif-Bold-38" x="178.90625"/>
     <use xlink:href="#DejaVuSerif-Bold-20" x="248.486328"/>
     <use xlink:href="#DejaVuSerif-Bold-b7" x="283.300781"/>
     <use xlink:href="#DejaVuSerif-Bold-20" x="318.115234"/>
     <use xlink:href="#DejaVuSerif-Bold-48" x="352.929688"/>
     <use xlink:href="#DejaVuSerif-Bold-61" x="447.412109"/>
     <use xlink:href="#DejaVuSerif-Bold-70" x="512.207031"/>
     <use xlink:href="#DejaVuSerif-Bold-6c" x="582.128906"/>
     <use xlink:href="#DejaVuSerif-Bold-6f" x="620.117188"/>
     <use xlink:href="#DejaVuSerif-Bold-74" x="686.816406"/>
     <use xlink:href="#DejaVuSerif-Bold-79" x="733.007812"/>
     <use xlink:href="#DejaVuSerif-Bold-70" x="791.113281"/>
     <use xlink:href="#DejaVuSerif-Bold-65" x="861.035156"/>
     <use xlink:href="#DejaVuSerif-Bold-20" x="924.658203"/>
     <use xlink:href="#DejaVuSerif-Bold-6e" x="959.472656"/>
     <use xlink:href="#DejaVuSerif-Bold-65" x="1032.177734"/>
     <use xlink:href="#DejaVuSerif-Bold-74" x="1095.800781"/>
     <use xlink:href="#DejaVuSerif-Bold-77" x="1141.992188"/>
     <use xlink:href="#DejaVuSerif-Bold-6f" x="1228.076172"/>
     <use xlink:href="#DejaVuSerif-Bold-72" x="1294.775391"/>
     <use xlink:href="#DejaVuSerif-Bold-6b" x="1347.460938"/>
     <use xlink:href="#DejaVuSerif-Bold-20" x="1416.748047"/>
     <use xlink:href="#DejaVuSerif-Bold-2014" x="1451.5625"/>
     <use xlink:href="#DejaVuSerif-Bold-20" x="1551.5625"/>
     <use xlink:href="#DejaVuSerif-Bold-57" x="1586.376953"/>
     <use xlink:href="#DejaVuSerif-Bold-65" x="1690.556641"/>
     <use xlink:href="#DejaVuSerif-Bold-6e" x="1754.179688"/>
     <use xlink:href="#DejaVuSerif-Bold-6a" x="1826.884766"/>
     <use xlink:href="#DejaVuSerif-Bold-69" x="1863.066406"/>
     <use xlink:href="#DejaVuSerif-Bold-61" x="1901.054688"/>
     <use xlink:href="#DejaVuSerif-Bold-6e" x="1965.849609"/>
     <use xlink:href="#DejaVuSerif-Bold-67" x="2038.554688"/>
     <use xlink:href="#DejaVuSerif-Bold-64" x="2108.476562"/>
     <use xlink:href="#DejaVuSerif-Bold-75" x="2178.398438"/>
     <use xlink:href="#DejaVuSerif-Bold-6f" x="2251.103516"/>
     <use xlink:href="#DejaVuSerif-Bold-20" x="2317.802734"/>
     <use xlink:href="#DejaVuSerif-Bold-61" x="2352.617188"/>
     <use xlink:href="#DejaVuSerif-Bold-6e" x="2417.412109"/>
     <use xlink:href="#DejaVuSerif-Bold-63" x="2490.117188"/>
     <use xlink:href="#DejaVuSerif-Bold-69" x="2551.005859"/>
     <use xlink:href="#DejaVuSerif-Bold-65" x="2588.994141"/>
     <use xlink:href="#DejaVuSerif-Bold-6e" x="2652.617188"/>
     <use xlink:href="#DejaVuSerif-Bold-74" x="2725.322266"/>
     <use xlink:href="#DejaVuSerif-Bold-20" x="2771.513672"/>
     <use xlink:href="#DejaVuSerif-Bold-42" x="2806.328125"/>
     <use xlink:href="#DejaVuSerif-Bold-6f" x="2890.849609"/>
     <use xlink:href="#DejaVuSerif-Bold-76" x="2957.548828"/>
     <use xlink:href="#DejaVuSerif-Bold-69" x="3015.654297"/>
     <use xlink:href="#DejaVuSerif-Bold-6e" x="3053.642578"/>
     <use xlink:href="#DejaVuSerif-Bold-69" x="3126.347656"/>
    </g>
   </g>
   <g id="text_2">
    <g id="patch_2">
     <path d="M 197.144384 219.982195 
L 203.506884 219.982195 
Q 204.506884 219.982195 204.506884 218.982195 
L 204.506884 209.30407 
Q 204.506884 208.30407 203.506884 208.30407 
L 197.144384 208.30407 
Q 196.144384 208.30407 196.144384 209.30407 
L 196.144384 218.982195 
Q 196.144384 219.982195 197.144384 219.982195 
z
" style="fill: #ffffff; opacity: 0.8"/>
    </g>
    <!-- 1 -->
    <g style="fill: #333333" transform="translate(197.144384 216.902508) scale(0.1 -0.1)">
     <defs>
      <path id="DejaVuSerif-31" d="M 909 0 
L 909 331 
L 1722 331 
L 1722 4213 
L 781 3603 
L 781 4013 
L 1919 4750 
L 2350 4750 
L 2350 331 
L 3163 331 
L 3163 0 
L 909 0 
z
" transform="scale(0.015625)"/>
     </defs>
     <use xlink:href="#DejaVuSerif-31"/>
    </g>
   </g>
   <g id="text_3">
    <g id="patch_3">
     <path d="M 160.843697 283.33242 
L 167.206197 283.33242 
Q 168.206197 283.33242 168.206197 282.33242 
L 168.206197 272.654295 
Q 168.206197 271.654295 167.206197 271.654295 
L 160.843697 271.654295 
Q 159.843697 271.654295 159.843697 272.654295 
L 159.843697 282.33242 
Q 159.843697 283.33242 160.843697 283.33242 
z
" style="fill: #ffffff; opacity: 0.8"/>
    </g>
    <!-- 7 -->
    <g style="fill: #333333" transform="translate(160.843697 280.252733) scale(0.1 -0.1)">
     <defs>
      <path id="DejaVuSerif-37" d="M 3609 4347 
L 1784 0 
L 1319 0 
L 3059 4153 
L 903 4153 
L 903 3578 
L 538 3578 
L 538 4666 
L 3609 4666 
L 3609 4347 
z
" transform="scale(0.015625)"/>
     </defs>
     <use xlink:href="#DejaVuSerif-37"/>
    </g>
   </g>
   <g id="text_4">
    <g id="patch_4">
     <path d="M 163.628863 189.180965 
L 176.353863 189.180965 
Q 177.353863 189.180965 177.353863 188.180965 
L 177.353863 178.50284 
Q 177.353863 177.50284 176.353863 177.50284 
L 163.628863 177.50284 
Q 162.628863 177.50284 162.628863 178.50284 
L 162.628863 188.180965 
Q 162.628863 189.180965 163.628863 189.180965 
z
" style="fill: #ffffff; opacity: 0.8"/>
    </g>
    <!-- 11 -->
    <g style="fill: #333333" transform="translate(163.628863 186.101278) scale(0.1 -0.1)">
     <use xlink:href="#DejaVuSerif-31"/>
     <use xlink:href="#DejaVuSerif-31" x="63.623047"/>
    </g>
   </g>
   <g id="text_5">
    <g id="patch_5">
     <path d="M 275.082348 276.868656 
L 287.807348 276.868656 
Q 288.807348 276.868656 288.807348 275.868656 
L 288.807348 266.190531 
Q 288.807348 265.190531 287.807348 265.190531 
L 275.082348 265.190531 
Q 274.082348 265.190531 274.082348 266.190531 
L 274.082348 275.868656 
Q 274.082348 276.868656 275.082348 276.868656 
z
" style="fill: #ffffff; opacity: 0.8"/>
    </g>
    <!-- 47 -->
    <g style="fill: #333333" transform="translate(275.082348 273.788969) scale(0.1 -0.1)">
     <defs>
      <path id="DejaVuSerif-34" d="M 2234 1581 
L 2234 4063 
L 641 1581 
L 2234 1581 
z
M 3609 0 
L 1484 0 
L 1484 331 
L 2234 331 
L 2234 1247 
L 197 1247 
L 197 1588 
L 2241 4750 
L 2859 4750 
L 2859 1581 
L 3750 1581 
L 3750 1247 
L 2859 1247 
L 2859 331 
L 3609 331 
L 3609 0 
z
" transform="scale(0.015625)"/>
     </defs>
     <use xlink:href="#DejaVuSerif-34"/>
     <use xlink:href="#DejaVuSerif-37" x="63.623047"/>
    </g>
   </g>
   <g id="text_6">
    <g id="patch_6">
     <path d="M 679.104981 574.743316 
L 685.467481 574.743316 
Q 686.467481 574.743316 686.467481 573.743316 
L 686.467481 564.065191 
Q 686.467481 563.065191 685.467481 563.065191 
L 679.104981 563.065191 
Q 678.104981 563.065191 678.104981 564.065191 
L 678.104981 573.743316 
Q 678.104981 574.743316 679.104981 574.743316 
z
" style="fill: #ffffff; opacity: 0.8"/>
    </g>
    <!-- 1 -->
    <g style="fill: #333333" transform="translate(679.104981 571.663628) scale(0.1 -0.1)">
     <use xlink:href="#DejaVuSerif-31"/>
    </g>
   </g>
   <g id="text_7">
    <g id="patch_7">
     <path d="M 718.153162 544.833361 
L 724.515662 544.833361 
Q 725.515662 544.833361 725.515662 543.833361 
L 725.515662 534.155236 
Q 725.515662 533.155236 724.515662 533.155236 
L 718.153162 533.155236 
Q 717.153162 533.155236 717.153162 534.155236 
L 717.153162 543.833361 
Q 717.153162 544.833361 718.153162 544.833361 
z
" style="fill: #ffffff; opacity: 0.8"/>
    </g>
    <!-- 1 -->
    <g style="fill: #333333" transform="translate(718.153162 541.753673) scale(0.1 -0.1)">
     <use xlink:href="#DejaVuSerif-31"/>
    </g>
   </g>
   <g id="text_8">
    <g id="patch_8">
     <path d="M 700.723969 509.615724 
L 707.086469 509.615724 
Q 708.086469 509.615724 708.086469 508.615724 
L 708.086469 498.937599 
Q 708.086469 497.937599 707.086469 497.937599 
L 700.723969 497.937599 
Q 699.723969 497.937599 699.723969 498.937599 
L 699.723969 508.615724 
Q 699.723969 509.615724 700.723969 509.615724 
z
" style="fill: #ffffff; opacity: 0.8"/>
    </g>
    <!-- 4 -->
    <g style="fill: #333333" transform="translate(700.723969 506.536036) scale(0.1 -0.1)">
     <use xlink:href="#DejaVuSerif-34"/>
    </g>
   </g>
   <g id="text_9">
    <g id="patch_9">
     <path d="M 736.316244 578.875484 
L 742.678744 578.875484 
Q 743.678744 578.875484 743.678744 577.875484 
L 743.678744 568.197359 
Q 743.678744 567.197359 742.678744 567.197359 
L 736.316244 567.197359 
Q 735.316244 567.197359 735.316244 568.197359 
L 735.316244 577.875484 
Q 735.316244 578.875484 736.316244 578.875484 
z
" style="fill: #ffffff; opacity: 0.8"/>
    </g>
    <!-- 5 -->
    <g style="fill: #333333" transform="translate(736.316244 575.795797) scale(0.1 -0.1)">
     <defs>
      <path id="DejaVuSerif-35" d="M 3219 4666 
L 3219 4153 
L 1081 4153 
L 1081 2816 
Q 1244 2928 1461 2984 
Q 1678 3041 1947 3041 
Q 2703 3041 3140 2622 
Q 3578 2203 3578 1478 
Q 3578 738 3136 323 
Q 2694 -91 1894 -91 
Q 1572 -91 1234 -12 
Q 897 66 544 225 
L 544 1131 
L 897 1131 
Q 925 688 1179 453 
Q 1434 219 1894 219 
Q 2388 219 2653 544 
Q 2919 869 2919 1478 
Q 2919 2084 2655 2407 
Q 2391 2731 1894 2731 
Q 1613 2731 1398 2631 
Q 1184 2531 1019 2322 
L 750 2322 
L 750 4666 
L 3219 4666 
z
" transform="scale(0.015625)"/>
     </defs>
     <use xlink:href="#DejaVuSerif-35"/>
    </g>
   </g>
   <g id="text_10">
    <g id="patch_10">
     <path d="M 766.336226 505.757978 
L 772.698726 505.757978 
Q 773.698726 505.757978 773.698726 504.757978 
L 773.698726 495.079853 
Q 773.698726 494.079853 772.698726 494.079853 
L 766.336226 494.079853 
Q 765.336226 494.079853 765.336226 495.079853 
L 765.336226 504.757978 
Q 765.336226 505.757978 766.336226 505.757978 
z
" style="fill: #ffffff; opacity: 0.8"/>
    </g>
    <!-- 1 -->
    <g style="fill: #333333" transform="translate(766.336226 502.67829) scale(0.1 -0.1)">
     <use xlink:href="#DejaVuSerif-31"/>
    </g>
   </g>
   <g id="text_11">
    <g id="patch_11">
     <path d="M 454.22572 421.199854 
L 473.31322 421.199854 
Q 474.31322 421.199854 474.31322 420.199854 
L 474.31322 410.521729 
Q 474.31322 409.521729 473.31322 409.521729 
L 454.22572 409.521729 
Q 453.22572 409.521729 453.22572 410.521729 
L 453.22572 420.199854 
Q 453.22572 421.199854 454.22572 421.199854 
z
" style="fill: #ffffff; opacity: 0.8"/>
    </g>
    <!-- 531 -->
    <g style="fill: #333333" transform="translate(454.22572 418.120166) scale(0.1 -0.1)">
     <defs>
      <path id="DejaVuSerif-33" d="M 622 4469 
Q 988 4606 1323 4678 
Q 1659 4750 1953 4750 
Q 2638 4750 3022 4454 
Q 3406 4159 3406 3634 
Q 3406 3213 3140 2930 
Q 2875 2647 2388 2547 
Q 2963 2466 3280 2130 
Q 3597 1794 3597 1259 
Q 3597 606 3158 257 
Q 2719 -91 1894 -91 
Q 1528 -91 1179 -12 
Q 831 66 488 225 
L 488 1131 
L 838 1131 
Q 869 681 1141 450 
Q 1413 219 1906 219 
Q 2384 219 2661 495 
Q 2938 772 2938 1253 
Q 2938 1803 2653 2086 
Q 2369 2369 1819 2369 
L 1522 2369 
L 1522 2688 
L 1678 2688 
Q 2225 2688 2498 2914 
Q 2772 3141 2772 3597 
Q 2772 4006 2547 4223 
Q 2322 4441 1900 4441 
Q 1478 4441 1245 4241 
Q 1013 4041 972 3647 
L 622 3647 
L 622 4469 
z
" transform="scale(0.015625)"/>
     </defs>
     <use xlink:href="#DejaVuSerif-35"/>
     <use xlink:href="#DejaVuSerif-33" x="63.623047"/>
     <use xlink:href="#DejaVuSerif-31" x="127.246094"/>
    </g>
   </g>
   <g id="text_12">
    <g id="patch_12">
     <path d="M 521.440598 512.0428 
L 527.803098 512.0428 
Q 528.803098 512.0428 528.803098 511.0428 
L 528.803098 501.364675 
Q 528.803098 500.364675 527.803098 500.364675 
L 521.440598 500.364675 
Q 520.440598 500.364675 520.440598 501.364675 
L 520.440598 511.0428 
Q 520.440598 512.0428 521.440598 512.0428 
z
" style="fill: #ffffff; opacity: 0.8"/>
    </g>
    <!-- 3 -->
    <g style="fill: #333333" transform="translate(521.440598 508.963113) scale(0.1 -0.1)">
     <use xlink:href="#DejaVuSerif-33"/>
    </g>
   </g>
   <g id="text_13">
    <g id="patch_13">
     <path d="M 564.991777 566.655369 
L 571.354277 566.655369 
Q 572.354277 566.655369 572.354277 565.655369 
L 572.354277 555.977244 
Q 572.354277 554.977244 571.354277 554.977244 
L 564.991777 554.977244 
Q 563.991777 554.977244 563.991777 555.977244 
L 563.991777 565.655369 
Q 563.991777 566.655369 564.991777 566.655369 
z
" style="fill: #ffffff; opacity: 0.8"/>
    </g>
    <!-- 3 -->
    <g style="fill: #333333" transform="translate(564.991777 563.575681) scale(0.1 -0.1)">
     <use xlink:href="#DejaVuSerif-33"/>
    </g>
   </g>
   <g id="text_14">
    <g id="patch_14">
     <path d="M 628.612323 537.933096 
L 634.974823 537.933096 
Q 635.974823 537.933096 635.974823 536.933096 
L 635.974823 527.254971 
Q 635.974823 526.254971 634.974823 526.254971 
L 628.612323 526.254971 
Q 627.612323 526.254971 627.612323 527.254971 
L 627.612323 536.933096 
Q 627.612323 537.933096 628.612323 537.933096 
z
" style="fill: #ffffff; opacity: 0.8"/>
    </g>
    <!-- 3 -->
    <g style="fill: #333333" transform="translate(628.612323 534.853409) scale(0.1 -0.1)">
     <use xlink:href="#DejaVuSerif-33"/>
    </g>
   </g>
   <g id="text_15">
    <g id="patch_15">
     <path d="M 609.758333 613.897067 
L 616.120833 613.897067 
Q 617.120833 613.897067 617.120833 612.897067 
L 617.120833 603.218942 
Q 617.120833 602.218942 616.120833 602.218942 
L 609.758333 602.218942 
Q 608.758333 602.218942 608.758333 603.218942 
L 608.758333 612.897067 
Q 608.758333 613.897067 609.758333 613.897067 
z
" style="fill: #ffffff; opacity: 0.8"/>
    </g>
    <!-- 5 -->
    <g style="fill: #333333" transform="translate(609.758333 610.817379) scale(0.1 -0.1)">
     <use xlink:href="#DejaVuSerif-35"/>
    </g>
   </g>
   <g id="patch_16">
    <path d="M 195.208175 262.241006 
C 201.190874 262.241006 206.929342 259.864054 211.159749 255.633648 
C 215.390156 251.403241 217.767108 245.664772 217.767108 239.682074 
C 217.767108 233.699375 215.390156 227.960907 211.159749 223.7305 
C 206.929342 219.500093 201.190874 217.123142 195.208175 217.123142 
C 189.225477 217.123142 183.487008 219.500093 179.256602 223.7305 
C 175.026195 227.960907 172.649243 233.699375 172.649243 239.682074 
C 172.649243 245.664772 175.026195 251.403241 179.256602 255.633648 
C 183.487008 259.864054 189.225477 262.241006 195.208175 262.241006 
z
" clip-path="url(#p1e9871fe9c)" style="fill: #4a90d9; opacity: 0.9; stroke: #333333; stroke-width: 1.5; stroke-linejoin: miter"/>
   </g>
   <g id="patch_17">
    <path d="M 696.342837 566.911723 
C 701.827153 566.911723 707.087583 564.732781 710.965579 560.854785 
C 714.843576 556.976788 717.022517 551.716358 717.022517 546.232043 
C 717.022517 540.747728 714.843576 535.487297 710.965579 531.609301 
C 707.087583 527.731304 701.827153 525.552363 696.342837 525.552363 
C 690.858522 525.552363 685.598092 527.731304 681.720095 531.609301 
C 677.842099 535.487297 675.663157 540.747728 675.663157 546.232043 
C 675.663157 551.716358 677.842099 556.976788 681.720095 560.854785 
C 685.598092 564.732781 690.858522 566.911723 696.342837 566.911723 
z
" clip-path="url(#p1e9871fe9c)" style="fill: #4a90d9; opacity: 0.9; stroke: #333333; stroke-width: 1.5; stroke-linejoin: miter"/>
   </g>
   <g id="patch_18">
    <path d="M 767.953948 491.828991 
C 772.788758 491.828991 777.426196 489.908101 780.844923 486.489375 
C 784.263649 483.070648 786.184539 478.433209 786.184539 473.5984 
C 786.184539 468.763591 784.263649 464.126152 780.844923 460.707426 
C 777.426196 457.288699 772.788758 455.367809 767.953948 455.367809 
C 763.119139 455.367809 758.4817 457.288699 755.062974 460.707426 
C 751.644248 464.126152 749.723357 468.763591 749.723357 473.5984 
C 749.723357 478.433209 751.644248 483.070648 755.062974 486.489375 
C 758.4817 489.908101 763.119139 491.828991 767.953948 491.828991 
z
" clip-path="url(#p1e9871fe9c)" style="fill: #2a9d8f; opacity: 0.9; stroke: #333333; stroke-width: 1.5; stroke-linejoin: miter"/>
   </g>
   <g id="patch_19">
    <path d="M 342.910031 357.388461 
C 347.744841 357.388461 352.382279 355.467571 355.801006 352.048844 
C 359.219732 348.630118 361.140622 343.992679 361.140622 339.15787 
C 361.140622 334.323061 359.219732 329.685622 355.801006 326.266896 
C 352.382279 322.848169 347.744841 320.927279 342.910031 320.927279 
C 338.075222 320.927279 333.437783 322.848169 330.019057 326.266896 
C 326.600331 329.685622 324.67944 334.323061 324.67944 339.15787 
C 324.67944 343.992679 326.600331 348.630118 330.019057 352.048844 
C 333.437783 355.467571 338.075222 357.388461 342.910031 357.388461 
z
" clip-path="url(#p1e9871fe9c)" style="fill: #2a9d8f; opacity: 0.9; stroke: #333333; stroke-width: 1.5; stroke-linejoin: miter"/>
   </g>
   <g id="patch_20">
    <path d="M 745.159781 641.752036 
C 749.99459 641.752036 754.632029 639.831146 758.050755 636.412419 
C 761.469482 632.993693 763.390372 628.356254 763.390372 623.521445 
C 763.390372 618.686636 761.469482 614.049197 758.050755 610.630471 
C 754.632029 607.211744 749.99459 605.290854 745.159781 605.290854 
C 740.324972 605.290854 735.687533 607.211744 732.268807 610.630471 
C 728.85008 614.049197 726.92919 618.686636 726.92919 623.521445 
C 726.92919 628.356254 728.85008 632.993693 732.268807 636.412419 
C 735.687533 639.831146 740.324972 641.752036 745.159781 641.752036 
z
" clip-path="url(#p1e9871fe9c)" style="fill: #4a90d9; opacity: 0.9; stroke: #333333; stroke-width: 1.5; stroke-linejoin: miter"/>
   </g>
   <g id="patch_21">
    <path d="M 498.909266 549.73742 
C 503.744075 549.73742 508.381514 547.81653 511.800241 544.397804 
C 515.218967 540.979077 517.139857 536.341638 517.139857 531.506829 
C 517.139857 526.67202 515.218967 522.034581 511.800241 518.615855 
C 508.381514 515.197128 503.744075 513.276238 498.909266 513.276238 
C 494.074457 513.276238 489.437018 515.197128 486.018292 518.615855 
C 482.599565 522.034581 480.678675 526.67202 480.678675 531.506829 
C 480.678675 536.341638 482.599565 540.979077 486.018292 544.397804 
C 489.437018 547.81653 494.074457 549.73742 498.909266 549.73742 
z
" clip-path="url(#p1e9871fe9c)" style="fill: #4a90d9; opacity: 0.9; stroke: #333333; stroke-width: 1.5; stroke-linejoin: miter"/>
   </g>
   <g id="patch_22">
    <path d="M 189.055964 142.864373 
C 193.890773 142.864373 198.528212 140.943483 201.946938 137.524756 
C 205.365664 134.10603 207.286555 129.468591 207.286555 124.633782 
C 207.286555 119.798973 205.365664 115.161534 201.946938 111.742807 
C 198.528212 108.324081 193.890773 106.403191 189.055964 106.403191 
C 184.221154 106.403191 179.583716 108.324081 176.164989 111.742807 
C 172.746263 115.161534 170.825373 119.798973 170.825373 124.633782 
C 170.825373 129.468591 172.746263 134.10603 176.164989 137.524756 
C 179.583716 140.943483 184.221154 142.864373 189.055964 142.864373 
z
" clip-path="url(#p1e9871fe9c)" style="fill: #aaaaaa; opacity: 0.9; stroke-dasharray: 7.4,3.2; stroke-dashoffset: 0; stroke: #666666; stroke-width: 2; stroke-linejoin: miter"/>
   </g>
   <g id="patch_23">
    <path d="M 115.095494 292.896307 
C 119.930303 292.896307 124.567742 290.975417 127.986469 287.556691 
C 131.405195 284.137965 133.326085 279.500526 133.326085 274.665717 
C 133.326085 269.830907 131.405195 265.193469 127.986469 261.774742 
C 124.567742 258.356016 119.930303 256.435126 115.095494 256.435126 
C 110.260685 256.435126 105.623246 258.356016 102.20452 261.774742 
C 98.785793 265.193469 96.864903 269.830907 96.864903 274.665717 
C 96.864903 279.500526 98.785793 284.137965 102.20452 287.556691 
C 105.623246 290.975417 110.260685 292.896307 115.095494 292.896307 
z
" clip-path="url(#p1e9871fe9c)" style="fill: #4a90d9; opacity: 0.9; stroke: #333333; stroke-width: 1.5; stroke-linejoin: miter"/>
   </g>
   <g id="patch_24">
    <path d="M 606.227566 578.511126 
C 611.062376 578.511126 615.699814 576.590236 619.118541 573.17151 
C 622.537267 569.752783 624.458157 565.115344 624.458157 560.280535 
C 624.458157 555.445726 622.537267 550.808287 619.118541 547.389561 
C 615.699814 543.970834 611.062376 542.049944 606.227566 542.049944 
C 601.392757 542.049944 596.755318 543.970834 593.336592 547.389561 
C 589.917866 550.808287 587.996975 555.445726 587.996975 560.280535 
C 587.996975 565.115344 589.917866 569.752783 593.336592 573.17151 
C 596.755318 576.590236 601.392757 578.511126 606.227566 578.511126 
z
" clip-path="url(#p1e9871fe9c)" style="fill: #4a90d9; opacity: 0.9; stroke: #333333; stroke-width: 1.5; stroke-linejoin: miter"/>
   </g>
   <g id="patch_25">
    <path d="M 577.814935 659.364218 
C 582.649745 659.364218 587.287184 657.443328 590.70591 654.024602 
C 594.124636 650.605876 596.045526 645.968437 596.045526 641.133627 
C 596.045526 636.298818 594.124636 631.661379 590.70591 628.242653 
C 587.287184 624.823927 582.649745 622.903037 577.814935 622.903037 
C 572.980126 622.903037 568.342687 624.823927 564.923961 628.242653 
C 561.505235 631.661379 559.584345 636.298818 559.584345 641.133627 
C 559.584345 645.968437 561.505235 650.605876 564.923961 654.024602 
C 568.342687 657.443328 572.980126 659.364218 577.814935 659.364218 
z
" clip-path="url(#p1e9871fe9c)" style="fill: #4a90d9; opacity: 0.9; stroke: #333333; stroke-width: 1.5; stroke-linejoin: miter"/>
   </g>
   <g id="patch_26">
    <path d="M 744.914103 508.668569 
C 749.748912 508.668569 754.386351 506.747679 757.805077 503.328952 
C 761.223803 499.910226 763.144694 495.272787 763.144694 490.437978 
C 763.144694 485.603169 761.223803 480.96573 757.805077 477.547003 
C 754.386351 474.128277 749.748912 472.207387 744.914103 472.207387 
C 740.079293 472.207387 735.441855 474.128277 732.023128 477.547003 
C 728.604402 480.96573 726.683512 485.603169 726.683512 490.437978 
C 726.683512 495.272787 728.604402 499.910226 732.023128 503.328952 
C 735.441855 506.747679 740.079293 508.668569 744.914103 508.668569 
z
" clip-path="url(#p1e9871fe9c)" style="fill: #4a90d9; opacity: 0.9; stroke: #333333; stroke-width: 1.5; stroke-linejoin: miter"/>
   </g>
   <g id="patch_27">
    <path d="M 555.44325 543.180648 
C 560.278059 543.180648 564.915498 541.259758 568.334224 537.841032 
C 571.75295 534.422306 573.673841 529.784867 573.673841 524.950058 
C 573.673841 520.115248 571.75295 515.477809 568.334224 512.059083 
C 564.915498 508.640357 560.278059 506.719467 555.44325 506.719467 
C 550.60844 506.719467 545.971002 508.640357 542.552275 512.059083 
C 539.133549 515.477809 537.212659 520.115248 537.212659 524.950058 
C 537.212659 529.784867 539.133549 534.422306 542.552275 537.841032 
C 545.971002 541.259758 550.60844 543.180648 555.44325 543.180648 
z
" clip-path="url(#p1e9871fe9c)" style="fill: #4a90d9; opacity: 0.9; stroke: #333333; stroke-width: 1.5; stroke-linejoin: miter"/>
   </g>
   <g id="patch_28">
    <path d="M 220.842821 248.419623 
C 225.677631 248.419623 230.315069 246.498733 233.733796 243.080007 
C 237.152522 239.661281 239.073412 235.023842 239.073412 230.189033 
C 239.073412 225.354223 237.152522 220.716785 233.733796 217.298058 
C 230.315069 213.879332 225.677631 211.958442 220.842821 211.958442 
C 216.008012 211.958442 211.370573 213.879332 207.951847 217.298058 
C 204.53312 220.716785 202.61223 225.354223 202.61223 230.189033 
C 202.61223 235.023842 204.53312 239.661281 207.951847 243.080007 
C 211.370573 246.498733 216.008012 248.419623 220.842821 248.419623 
z
" clip-path="url(#p1e9871fe9c)" style="fill: #4a90d9; opacity: 0.9; stroke: #333333; stroke-width: 1.5; stroke-linejoin: miter"/>
   </g>
   <g id="patch_29">
    <path d="M 666.695488 565.488919 
C 671.530297 565.488919 676.167736 563.568029 679.586463 560.149303 
C 683.005189 556.730576 684.926079 552.093137 684.926079 547.258328 
C 684.926079 542.423519 683.005189 537.78608 679.586463 534.367354 
C 676.167736 530.948627 671.530297 529.027737 666.695488 529.027737 
C 661.860679 529.027737 657.22324 530.948627 653.804514 534.367354 
C 650.385787 537.78608 648.464897 542.423519 648.464897 547.258328 
C 648.464897 552.093137 650.385787 556.730576 653.804514 560.149303 
C 657.22324 563.568029 661.860679 565.488919 666.695488 565.488919 
z
" clip-path="url(#p1e9871fe9c)" style="fill: #aaaaaa; opacity: 0.9; stroke-dasharray: 7.4,3.2; stroke-dashoffset: 0; stroke: #666666; stroke-width: 2; stroke-linejoin: miter"/>
   </g>
   <g id="patch_30">
    <path d="M 716.482819 582.787084 
C 721.317628 582.787084 725.955067 580.866194 729.373794 577.447468 
C 732.79252 574.028741 734.71341 569.391302 734.71341 564.556493 
C 734.71341 559.721684 732.79252 555.084245 729.373794 551.665519 
C 725.955067 548.246792 721.317628 546.325902 716.482819 546.325902 
C 711.64801 546.325902 707.010571 548.246792 703.591845 551.665519 
C 700.173118 555.084245 698.252228 559.721684 698.252228 564.556493 
C 698.252228 569.391302 700.173118 574.028741 703.591845 577.447468 
C 707.010571 580.866194 711.64801 582.787084 716.482819 582.787084 
z
" clip-path="url(#p1e9871fe9c)" style="fill: #4a90d9; opacity: 0.9; stroke: #333333; stroke-width: 1.5; stroke-linejoin: miter"/>
   </g>
   <g id="legend_1">
    <g id="patch_31">
     <path d="M 629.913679 89.532813 
L 831.579304 89.532813 
Q 833.579304 89.532813 833.579304 87.532813 
L 833.579304 35.8 
Q 833.579304 33.8 831.579304 33.8 
L 629.913679 33.8 
Q 627.913679 33.8 627.913679 35.8 
L 627.913679 87.532813 
Q 627.913679 89.532813 629.913679 89.532813 
z
" style="fill: #ffffff; opacity: 0.95; stroke: #cccccc; stroke-linejoin: miter"/>
    </g>
    <g id="line2d_30">
     <path d="M 635.913679 45.898438 
L 645.913679 45.898438 
L 655.913679 45.898438 
" style="fill: none; stroke: #ffffff; stroke-width: 1.5; stroke-linecap: square"/>
     <defs>
      <path id="mc6ef6579b7" d="M 0 5.5 
C 1.458617 5.5 2.857689 4.920485 3.889087 3.889087 
C 4.920485 2.857689 5.5 1.458617 5.5 0 
C 5.5 -1.458617 4.920485 -2.857689 3.889087 -3.889087 
C 2.857689 -4.920485 1.458617 -5.5 0 -5.5 
C -1.458617 -5.5 -2.857689 -4.920485 -3.889087 -3.889087 
C -4.920485 -2.857689 -5.5 -1.458617 -5.5 0 
C -5.5 1.458617 -4.920485 2.857689 -3.889087 3.889087 
C -2.857689 4.920485 -1.458617 5.5 0 5.5 
z
" style="stroke: #333333; stroke-width: 1.2"/>
     </defs>
     <g>
      <use xlink:href="#mc6ef6579b7" x="645.913679" y="45.898438" style="fill: #4a90d9; stroke: #333333; stroke-width: 1.2"/>
     </g>
    </g>
    <g id="text_16">
     <!-- Ancient_WJD_Main -->
     <g transform="translate(661.913679 49.398438) scale(0.1 -0.1)">
      <defs>
       <path id="DejaVuSerif-41" d="M 1281 1691 
L 2994 1691 
L 2138 3909 
L 1281 1691 
z
M -38 0 
L -38 331 
L 372 331 
L 2034 4666 
L 2559 4666 
L 4225 331 
L 4684 331 
L 4684 0 
L 2988 0 
L 2988 331 
L 3506 331 
L 3116 1356 
L 1153 1356 
L 763 331 
L 1275 331 
L 1275 0 
L -38 0 
z
" transform="scale(0.015625)"/>
       <path id="DejaVuSerif-6e" d="M 263 0 
L 263 331 
L 781 331 
L 781 2988 
L 231 2988 
L 231 3322 
L 1356 3322 
L 1356 2731 
Q 1516 3069 1770 3241 
Q 2025 3413 2363 3413 
Q 2913 3413 3172 3097 
Q 3431 2781 3431 2113 
L 3431 331 
L 3944 331 
L 3944 0 
L 2356 0 
L 2356 331 
L 2853 331 
L 2853 1931 
Q 2853 2541 2703 2767 
Q 2553 2994 2175 2994 
Q 1775 2994 1565 2701 
Q 1356 2409 1356 1850 
L 1356 331 
L 1856 331 
L 1856 0 
L 263 0 
z
" transform="scale(0.015625)"/>
       <path id="DejaVuSerif-63" d="M 3291 997 
Q 3169 466 2822 187 
Q 2475 -91 1925 -91 
Q 1200 -91 759 389 
Q 319 869 319 1663 
Q 319 2459 759 2936 
Q 1200 3413 1925 3413 
Q 2241 3413 2553 3339 
Q 2866 3266 3181 3116 
L 3181 2266 
L 2847 2266 
Q 2781 2703 2561 2903 
Q 2341 3103 1931 3103 
Q 1466 3103 1228 2742 
Q 991 2381 991 1663 
Q 991 944 1227 581 
Q 1463 219 1931 219 
Q 2303 219 2525 412 
Q 2747 606 2828 997 
L 3291 997 
z
" transform="scale(0.015625)"/>
       <path id="DejaVuSerif-69" d="M 622 4353 
Q 622 4497 726 4603 
Q 831 4709 978 4709 
Q 1122 4709 1226 4603 
Q 1331 4497 1331 4353 
Q 1331 4206 1228 4103 
Q 1125 4000 978 4000 
Q 831 4000 726 4103 
Q 622 4206 622 4353 
z
M 1356 331 
L 1900 331 
L 1900 0 
L 231 0 
L 231 331 
L 781 331 
L 781 2988 
L 231 2988 
L 231 3322 
L 1356 3322 
L 1356 331 
z
" transform="scale(0.015625)"/>
       <path id="DejaVuSerif-65" d="M 3469 1600 
L 991 1600 
L 991 1575 
Q 991 903 1244 561 
Q 1497 219 1991 219 
Q 2369 219 2611 417 
Q 2853 616 2950 1006 
L 3413 1006 
Q 3275 459 2904 184 
Q 2534 -91 1931 -91 
Q 1203 -91 761 389 
Q 319 869 319 1663 
Q 319 2450 753 2931 
Q 1188 3413 1894 3413 
Q 2647 3413 3050 2948 
Q 3453 2484 3469 1600 
z
M 2791 1931 
Q 2772 2513 2545 2808 
Q 2319 3103 1894 3103 
Q 1497 3103 1269 2806 
Q 1041 2509 991 1931 
L 2791 1931 
z
" transform="scale(0.015625)"/>
       <path id="DejaVuSerif-74" d="M 691 2988 
L 184 2988 
L 184 3322 
L 691 3322 
L 691 4353 
L 1269 4353 
L 1269 3322 
L 2350 3322 
L 2350 2988 
L 1269 2988 
L 1269 878 
Q 1269 456 1350 337 
Q 1431 219 1650 219 
Q 1875 219 1978 351 
Q 2081 484 2088 781 
L 2522 781 
Q 2497 328 2275 118 
Q 2053 -91 1600 -91 
Q 1103 -91 897 129 
Q 691 350 691 878 
L 691 2988 
z
" transform="scale(0.015625)"/>
       <path id="DejaVuSerif-5f" d="M 3200 -1259 
L 3200 -1509 
L 0 -1509 
L 0 -1259 
L 3200 -1259 
z
" transform="scale(0.015625)"/>
       <path id="DejaVuSerif-57" d="M 4878 0 
L 4366 0 
L 3297 3794 
L 2228 0 
L 1716 0 
L 494 4331 
L 31 4331 
L 31 4666 
L 1734 4666 
L 1734 4331 
L 1153 4331 
L 2125 884 
L 3188 4666 
L 3694 4666 
L 4775 844 
L 5753 4331 
L 5216 4331 
L 5216 4666 
L 6559 4666 
L 6559 4331 
L 6100 4331 
L 4878 0 
z
" transform="scale(0.015625)"/>
       <path id="DejaVuSerif-4a" d="M -538 -1119 
L -538 -384 
L -181 -384 
Q -172 -694 -34 -845 
Q 103 -997 378 -997 
Q 750 -997 897 -762 
Q 1044 -528 1044 153 
L 1044 4331 
L 319 4331 
L 319 4666 
L 2272 4666 
L 2272 4331 
L 1678 4331 
L 1678 128 
Q 1678 -644 1368 -987 
Q 1059 -1331 372 -1331 
Q 150 -1331 -79 -1278 
Q -309 -1225 -538 -1119 
z
" transform="scale(0.015625)"/>
       <path id="DejaVuSerif-44" d="M 1581 331 
L 2163 331 
Q 3072 331 3558 850 
Q 4044 1369 4044 2338 
Q 4044 3306 3559 3818 
Q 3075 4331 2163 4331 
L 1581 4331 
L 1581 331 
z
M 353 0 
L 353 331 
L 947 331 
L 947 4331 
L 353 4331 
L 353 4666 
L 2209 4666 
Q 3416 4666 4089 4050 
Q 4763 3434 4763 2338 
Q 4763 1238 4088 619 
Q 3413 0 2209 0 
L 353 0 
z
" transform="scale(0.015625)"/>
       <path id="DejaVuSerif-4d" d="M 353 0 
L 353 331 
L 947 331 
L 947 4331 
L 319 4331 
L 319 4666 
L 1678 4666 
L 3316 1344 
L 4953 4666 
L 6228 4666 
L 6228 4331 
L 5606 4331 
L 5606 331 
L 6203 331 
L 6203 0 
L 4378 0 
L 4378 331 
L 4972 331 
L 4972 3938 
L 3372 684 
L 2931 684 
L 1331 3938 
L 1331 331 
L 1925 331 
L 1925 0 
L 353 0 
z
" transform="scale(0.015625)"/>
       <path id="DejaVuSerif-61" d="M 2547 1044 
L 2547 1747 
L 1806 1747 
Q 1378 1747 1168 1562 
Q 959 1378 959 997 
Q 959 650 1171 447 
Q 1384 244 1747 244 
Q 2106 244 2326 466 
Q 2547 688 2547 1044 
z
M 3122 2075 
L 3122 331 
L 3634 331 
L 3634 0 
L 2547 0 
L 2547 359 
Q 2356 128 2106 18 
Q 1856 -91 1522 -91 
Q 969 -91 644 203 
Q 319 497 319 997 
Q 319 1513 691 1797 
Q 1063 2081 1741 2081 
L 2547 2081 
L 2547 2309 
Q 2547 2688 2317 2895 
Q 2088 3103 1672 3103 
Q 1328 3103 1125 2947 
Q 922 2791 872 2484 
L 575 2484 
L 575 3156 
Q 875 3284 1158 3348 
Q 1441 3413 1709 3413 
Q 2400 3413 2761 3070 
Q 3122 2728 3122 2075 
z
" transform="scale(0.015625)"/>
      </defs>
      <use xlink:href="#DejaVuSerif-41"/>
      <use xlink:href="#DejaVuSerif-6e" x="72.216797"/>
      <use xlink:href="#DejaVuSerif-63" x="136.621094"/>
      <use xlink:href="#DejaVuSerif-69" x="192.626953"/>
      <use xlink:href="#DejaVuSerif-65" x="224.609375"/>
      <use xlink:href="#DejaVuSerif-6e" x="283.789062"/>
      <use xlink:href="#DejaVuSerif-74" x="348.193359"/>
      <use xlink:href="#DejaVuSerif-5f" x="388.378906"/>
      <use xlink:href="#DejaVuSerif-57" x="438.378906"/>
      <use xlink:href="#DejaVuSerif-4a" x="541.162109"/>
      <use xlink:href="#DejaVuSerif-44" x="581.25"/>
      <use xlink:href="#DejaVuSerif-5f" x="661.425781"/>
      <use xlink:href="#DejaVuSerif-4d" x="711.425781"/>
      <use xlink:href="#DejaVuSerif-61" x="813.818359"/>
      <use xlink:href="#DejaVuSerif-69" x="873.4375"/>
      <use xlink:href="#DejaVuSerif-6e" x="905.419922"/>
     </g>
    </g>
    <g id="line2d_31">
     <path d="M 635.913679 60.854688 
L 645.913679 60.854688 
L 655.913679 60.854688 
" style="fill: none; stroke: #ffffff; stroke-width: 1.5; stroke-linecap: square"/>
     <defs>
      <path id="mcd23f26f89" d="M 0 5.5 
C 1.458617 5.5 2.857689 4.920485 3.889087 3.889087 
C 4.920485 2.857689 5.5 1.458617 5.5 0 
C 5.5 -1.458617 4.920485 -2.857689 3.889087 -3.889087 
C 2.857689 -4.920485 1.458617 -5.5 0 -5.5 
C -1.458617 -5.5 -2.857689 -4.920485 -3.889087 -3.889087 
C -4.920485 -2.857689 -5.5 -1.458617 -5.5 0 
C -5.5 1.458617 -4.920485 2.857689 -3.889087 3.889087 
C -2.857689 4.920485 -1.458617 5.5 0 5.5 
z
" style="stroke: #333333; stroke-width: 1.2"/>
     </defs>
     <g>
      <use xlink:href="#mcd23f26f89" x="645.913679" y="60.854688" style="fill: #2a9d8f; stroke: #333333; stroke-width: 1.2"/>
     </g>
    </g>
    <g id="text_17">
     <!-- Ancient_WJD_Tower -->
     <g transform="translate(661.913679 64.354688) scale(0.1 -0.1)">
      <defs>
       <path id="DejaVuSerif-54" d="M 1222 0 
L 1222 331 
L 1819 331 
L 1819 4294 
L 447 4294 
L 447 3566 
L 63 3566 
L 63 4666 
L 4206 4666 
L 4206 3566 
L 3822 3566 
L 3822 4294 
L 2450 4294 
L 2450 331 
L 3047 331 
L 3047 0 
L 1222 0 
z
" transform="scale(0.015625)"/>
       <path id="DejaVuSerif-6f" d="M 1925 219 
Q 2388 219 2623 584 
Q 2859 950 2859 1663 
Q 2859 2375 2623 2739 
Q 2388 3103 1925 3103 
Q 1463 3103 1227 2739 
Q 991 2375 991 1663 
Q 991 950 1228 584 
Q 1466 219 1925 219 
z
M 1925 -91 
Q 1200 -91 759 389 
Q 319 869 319 1663 
Q 319 2456 758 2934 
Q 1197 3413 1925 3413 
Q 2653 3413 3092 2934 
Q 3531 2456 3531 1663 
Q 3531 869 3092 389 
Q 2653 -91 1925 -91 
z
" transform="scale(0.015625)"/>
       <path id="DejaVuSerif-77" d="M 3072 3322 
L 3922 728 
L 4672 2988 
L 4191 2988 
L 4191 3322 
L 5394 3322 
L 5394 2988 
L 5025 2988 
L 4038 0 
L 3559 0 
L 2741 2484 
L 1919 0 
L 1459 0 
L 475 2988 
L 103 2988 
L 103 3322 
L 1606 3322 
L 1606 2988 
L 1069 2988 
L 1813 728 
L 2669 3322 
L 3072 3322 
z
" transform="scale(0.015625)"/>
       <path id="DejaVuSerif-72" d="M 3059 3328 
L 3059 2497 
L 2728 2497 
Q 2713 2744 2591 2866 
Q 2469 2988 2234 2988 
Q 1809 2988 1582 2694 
Q 1356 2400 1356 1850 
L 1356 331 
L 2022 331 
L 2022 0 
L 263 0 
L 263 331 
L 781 331 
L 781 2994 
L 231 2994 
L 231 3322 
L 1356 3322 
L 1356 2731 
Q 1525 3078 1790 3245 
Q 2056 3413 2438 3413 
Q 2578 3413 2733 3391 
Q 2888 3369 3059 3328 
z
" transform="scale(0.015625)"/>
      </defs>
      <use xlink:href="#DejaVuSerif-41"/>
      <use xlink:href="#DejaVuSerif-6e" x="72.216797"/>
      <use xlink:href="#DejaVuSerif-63" x="136.621094"/>
      <use xlink:href="#DejaVuSerif-69" x="192.626953"/>
      <use xlink:href="#DejaVuSerif-65" x="224.609375"/>
      <use xlink:href="#DejaVuSerif-6e" x="283.789062"/>
      <use xlink:href="#DejaVuSerif-74" x="348.193359"/>
      <use xlink:href="#DejaVuSerif-5f" x="388.378906"/>
      <use xlink:href="#DejaVuSerif-57" x="438.378906"/>
      <use xlink:href="#DejaVuSerif-4a" x="541.162109"/>
      <use xlink:href="#DejaVuSerif-44" x="581.25"/>
      <use xlink:href="#DejaVuSerif-5f" x="661.425781"/>
      <use xlink:href="#DejaVuSerif-54" x="711.425781"/>
      <use xlink:href="#DejaVuSerif-6f" x="770.375"/>
      <use xlink:href="#DejaVuSerif-77" x="830.580078"/>
      <use xlink:href="#DejaVuSerif-65" x="916.175781"/>
      <use xlink:href="#DejaVuSerif-72" x="975.355469"/>
     </g>
    </g>
    <g id="line2d_32">
     <path d="M 635.913679 75.810938 
L 645.913679 75.810938 
L 655.913679 75.810938 
" style="fill: none; stroke: #ffffff; stroke-width: 1.5; stroke-linecap: square"/>
     <defs>
      <path id="m9debfe178f" d="M 0 5.5 
C 1.458617 5.5 2.857689 4.920485 3.889087 3.889087 
C 4.920485 2.857689 5.5 1.458617 5.5 0 
C 5.5 -1.458617 4.920485 -2.857689 3.889087 -3.889087 
C 2.857689 -4.920485 1.458617 -5.5 0 -5.5 
C -1.458617 -5.5 -2.857689 -4.920485 -3.889087 -3.889087 
C -4.920485 -2.857689 -5.5 -1.458617 -5.5 0 
C -5.5 1.458617 -4.920485 2.857689 -3.889087 3.889087 
C -2.857689 4.920485 -1.458617 5.5 0 5.5 
z
" style="stroke: #666666; stroke-width: 1.8"/>
     </defs>
     <g>
      <use xlink:href="#m9debfe178f" x="645.913679" y="75.810938" style="fill: #aaaaaa; stroke: #666666; stroke-width: 1.8"/>
     </g>
    </g>
    <g id="text_18">
     <!-- LOW coverage (excl. from stats) -->
     <g transform="translate(661.913679 79.310938) scale(0.1 -0.1)">
      <defs>
       <path id="DejaVuSerif-4c" d="M 353 0 
L 353 331 
L 947 331 
L 947 4331 
L 353 4331 
L 353 4666 
L 2175 4666 
L 2175 4331 
L 1581 4331 
L 1581 384 
L 3713 384 
L 3713 1166 
L 4097 1166 
L 4097 0 
L 353 0 
z
" transform="scale(0.015625)"/>
       <path id="DejaVuSerif-4f" d="M 2625 244 
Q 3391 244 3781 770 
Q 4172 1297 4172 2328 
Q 4172 3363 3781 3889 
Q 3391 4416 2625 4416 
Q 1856 4416 1465 3889 
Q 1075 3363 1075 2328 
Q 1075 1297 1465 770 
Q 1856 244 2625 244 
z
M 2625 -91 
Q 2150 -91 1751 65 
Q 1353 222 1050 525 
Q 700 875 529 1319 
Q 359 1763 359 2328 
Q 359 2894 529 3339 
Q 700 3784 1050 4134 
Q 1356 4441 1750 4595 
Q 2144 4750 2625 4750 
Q 3641 4750 4266 4084 
Q 4891 3419 4891 2328 
Q 4891 1769 4719 1320 
Q 4547 872 4197 525 
Q 3891 219 3497 64 
Q 3103 -91 2625 -91 
z
" transform="scale(0.015625)"/>
       <path id="DejaVuSerif-20" transform="scale(0.015625)"/>
       <path id="DejaVuSerif-76" d="M 1581 0 
L 359 2988 
L -19 2988 
L -19 3322 
L 1509 3322 
L 1509 2988 
L 978 2988 
L 1913 703 
L 2847 2988 
L 2350 2988 
L 2350 3322 
L 3597 3322 
L 3597 2988 
L 3225 2988 
L 2003 0 
L 1581 0 
z
" transform="scale(0.015625)"/>
       <path id="DejaVuSerif-67" d="M 3359 2988 
L 3359 72 
Q 3359 -644 2965 -1033 
Q 2572 -1422 1844 -1422 
Q 1516 -1422 1216 -1362 
Q 916 -1303 641 -1184 
L 641 -488 
L 941 -488 
Q 997 -813 1206 -963 
Q 1416 -1113 1806 -1113 
Q 2313 -1113 2548 -827 
Q 2784 -541 2784 72 
L 2784 519 
Q 2616 206 2355 57 
Q 2094 -91 1709 -91 
Q 1097 -91 708 395 
Q 319 881 319 1663 
Q 319 2444 706 2928 
Q 1094 3413 1709 3413 
Q 2094 3413 2355 3264 
Q 2616 3116 2784 2803 
L 2784 3322 
L 3909 3322 
L 3909 2988 
L 3359 2988 
z
M 2784 1825 
Q 2784 2422 2554 2737 
Q 2325 3053 1888 3053 
Q 1444 3053 1217 2703 
Q 991 2353 991 1663 
Q 991 975 1217 622 
Q 1444 269 1888 269 
Q 2325 269 2554 583 
Q 2784 897 2784 1497 
L 2784 1825 
z
" transform="scale(0.015625)"/>
       <path id="DejaVuSerif-28" d="M 2041 -997 
Q 1281 -656 893 83 
Q 506 822 506 1931 
Q 506 3044 893 3783 
Q 1281 4522 2041 4863 
L 2041 4556 
Q 1559 4225 1350 3623 
Q 1141 3022 1141 1931 
Q 1141 844 1350 242 
Q 1559 -359 2041 -691 
L 2041 -997 
z
" transform="scale(0.015625)"/>
       <path id="DejaVuSerif-78" d="M 1863 2028 
L 2559 2988 
L 2113 2988 
L 2113 3322 
L 3391 3322 
L 3391 2988 
L 2950 2988 
L 2059 1759 
L 3097 331 
L 3531 331 
L 3531 0 
L 1997 0 
L 1997 331 
L 2419 331 
L 1697 1325 
L 972 331 
L 1403 331 
L 1403 0 
L 141 0 
L 141 331 
L 581 331 
L 1497 1594 
L 488 2988 
L 78 2988 
L 78 3322 
L 1563 3322 
L 1563 2988 
L 1166 2988 
L 1863 2028 
z
" transform="scale(0.015625)"/>
       <path id="DejaVuSerif-6c" d="M 1313 331 
L 1856 331 
L 1856 0 
L 184 0 
L 184 331 
L 738 331 
L 738 4531 
L 184 4531 
L 184 4863 
L 1313 4863 
L 1313 331 
z
" transform="scale(0.015625)"/>
       <path id="DejaVuSerif-2e" d="M 603 325 
Q 603 500 722 622 
Q 841 744 1019 744 
Q 1191 744 1312 622 
Q 1434 500 1434 325 
Q 1434 153 1312 31 
Q 1191 -91 1019 -91 
Q 841 -91 722 29 
Q 603 150 603 325 
z
" transform="scale(0.015625)"/>
       <path id="DejaVuSerif-66" d="M 2753 4078 
L 2450 4078 
Q 2447 4313 2317 4434 
Q 2188 4556 1941 4556 
Q 1619 4556 1487 4379 
Q 1356 4203 1356 3750 
L 1356 3322 
L 2284 3322 
L 2284 2988 
L 1356 2988 
L 1356 331 
L 2094 331 
L 2094 0 
L 231 0 
L 231 331 
L 781 331 
L 781 2988 
L 231 2988 
L 231 3322 
L 781 3322 
L 781 3738 
Q 781 4294 1070 4578 
Q 1359 4863 1919 4863 
Q 2128 4863 2337 4825 
Q 2547 4788 2753 4709 
L 2753 4078 
z
" transform="scale(0.015625)"/>
       <path id="DejaVuSerif-6d" d="M 3316 2675 
Q 3481 3041 3739 3227 
Q 3997 3413 4341 3413 
Q 4863 3413 5119 3089 
Q 5375 2766 5375 2113 
L 5375 331 
L 5894 331 
L 5894 0 
L 4300 0 
L 4300 331 
L 4800 331 
L 4800 2047 
Q 4800 2556 4650 2772 
Q 4500 2988 4153 2988 
Q 3769 2988 3567 2697 
Q 3366 2406 3366 1850 
L 3366 331 
L 3866 331 
L 3866 0 
L 2291 0 
L 2291 331 
L 2791 331 
L 2791 2069 
Q 2791 2566 2641 2777 
Q 2491 2988 2144 2988 
Q 1759 2988 1557 2697 
Q 1356 2406 1356 1850 
L 1356 331 
L 1856 331 
L 1856 0 
L 263 0 
L 263 331 
L 781 331 
L 781 2994 
L 231 2994 
L 231 3322 
L 1356 3322 
L 1356 2731 
Q 1516 3063 1762 3238 
Q 2009 3413 2322 3413 
Q 2709 3413 2968 3220 
Q 3228 3028 3316 2675 
z
" transform="scale(0.015625)"/>
       <path id="DejaVuSerif-73" d="M 359 184 
L 359 959 
L 691 959 
Q 703 588 923 403 
Q 1144 219 1575 219 
Q 1963 219 2166 364 
Q 2369 509 2369 788 
Q 2369 1006 2220 1140 
Q 2072 1275 1594 1428 
L 1178 1569 
Q 750 1706 558 1912 
Q 366 2119 366 2438 
Q 366 2894 700 3153 
Q 1034 3413 1625 3413 
Q 1888 3413 2178 3344 
Q 2469 3275 2778 3144 
L 2778 2419 
L 2447 2419 
Q 2434 2741 2221 2922 
Q 2009 3103 1644 3103 
Q 1281 3103 1095 2975 
Q 909 2847 909 2591 
Q 909 2381 1050 2254 
Q 1191 2128 1613 1997 
L 2069 1856 
Q 2541 1709 2748 1489 
Q 2956 1269 2956 922 
Q 2956 450 2595 179 
Q 2234 -91 1600 -91 
Q 1278 -91 972 -22 
Q 666 47 359 184 
z
" transform="scale(0.015625)"/>
       <path id="DejaVuSerif-29" d="M 453 -997 
L 453 -691 
Q 934 -359 1145 242 
Q 1356 844 1356 1931 
Q 1356 3022 1145 3623 
Q 934 4225 453 4556 
L 453 4863 
Q 1216 4522 1603 3783 
Q 1991 3044 1991 1931 
Q 1991 822 1603 83 
Q 1216 -656 453 -997 
z
" transform="scale(0.015625)"/>
      </defs>
      <use xlink:href="#DejaVuSerif-4c"/>
      <use xlink:href="#DejaVuSerif-4f" x="66.40625"/>
      <use xlink:href="#DejaVuSerif-57" x="148.388672"/>
      <use xlink:href="#DejaVuSerif-20" x="251.171875"/>
      <use xlink:href="#DejaVuSerif-63" x="282.958984"/>
      <use xlink:href="#DejaVuSerif-6f" x="338.964844"/>
      <use xlink:href="#DejaVuSerif-76" x="399.169922"/>
      <use xlink:href="#DejaVuSerif-65" x="455.664062"/>
      <use xlink:href="#DejaVuSerif-72" x="514.84375"/>
      <use xlink:href="#DejaVuSerif-61" x="562.646484"/>
      <use xlink:href="#DejaVuSerif-67" x="622.265625"/>
      <use xlink:href="#DejaVuSerif-65" x="686.279297"/>
      <use xlink:href="#DejaVuSerif-20" x="745.458984"/>
      <use xlink:href="#DejaVuSerif-28" x="777.246094"/>
      <use xlink:href="#DejaVuSerif-65" x="816.259766"/>
      <use xlink:href="#DejaVuSerif-78" x="875.439453"/>
      <use xlink:href="#DejaVuSerif-63" x="931.835938"/>
      <use xlink:href="#DejaVuSerif-6c" x="987.841797"/>
      <use xlink:href="#DejaVuSerif-2e" x="1019.824219"/>
      <use xlink:href="#DejaVuSerif-20" x="1051.611328"/>
      <use xlink:href="#DejaVuSerif-66" x="1083.398438"/>
      <use xlink:href="#DejaVuSerif-72" x="1120.410156"/>
      <use xlink:href="#DejaVuSerif-6f" x="1168.212891"/>
      <use xlink:href="#DejaVuSerif-6d" x="1228.417969"/>
      <use xlink:href="#DejaVuSerif-20" x="1323.242188"/>
      <use xlink:href="#DejaVuSerif-73" x="1355.029297"/>
      <use xlink:href="#DejaVuSerif-74" x="1406.347656"/>
      <use xlink:href="#DejaVuSerif-61" x="1446.533203"/>
      <use xlink:href="#DejaVuSerif-74" x="1506.152344"/>
      <use xlink:href="#DejaVuSerif-73" x="1546.337891"/>
      <use xlink:href="#DejaVuSerif-29" x="1597.65625"/>
     </g>
    </g>
   </g>
   <g id="text_19">
    <g id="patch_32">
     <path d="M 150.128175 320.40753 
L 240.288175 320.40753 
Q 242.688175 320.40753 242.688175 318.00753 
L 242.688175 300.09103 
Q 242.688175 297.69103 240.288175 297.69103 
L 150.128175 297.69103 
Q 147.728175 297.69103 147.728175 300.09103 
L 147.728175 318.00753 
Q 147.728175 320.40753 150.128175 320.40753 
z
" style="fill: #ffffff; opacity: 0.85; stroke: #cccccc; stroke-width: 0.7; stroke-linejoin: miter"/>
    </g>
    <!-- H01 -->
    <g style="fill: #1a1a1a" transform="translate(185.86255 306.16978) scale(0.08 -0.08)">
     <defs>
      <path id="DejaVuSerif-Bold-30" d="M 2228 275 
Q 2603 275 2742 615 
Q 2881 956 2881 2328 
Q 2881 3691 2742 4037 
Q 2603 4384 2228 4384 
Q 1853 4384 1714 4043 
Q 1575 3703 1575 2328 
Q 1575 956 1714 615 
Q 1853 275 2228 275 
z
M 2228 -91 
Q 1294 -91 797 532 
Q 300 1156 300 2328 
Q 300 3500 797 4125 
Q 1294 4750 2228 4750 
Q 3159 4750 3656 4125 
Q 4153 3500 4153 2328 
Q 4153 1156 3656 532 
Q 3159 -91 2228 -91 
z
" transform="scale(0.015625)"/>
      <path id="DejaVuSerif-Bold-31" d="M 878 0 
L 878 378 
L 1753 378 
L 1753 4153 
L 781 3578 
L 781 4044 
L 1953 4750 
L 2938 4750 
L 2938 378 
L 3816 378 
L 3816 0 
L 878 0 
z
" transform="scale(0.015625)"/>
     </defs>
     <use xlink:href="#DejaVuSerif-Bold-48"/>
     <use xlink:href="#DejaVuSerif-Bold-30" x="94.482422"/>
     <use xlink:href="#DejaVuSerif-Bold-31" x="164.0625"/>
    </g>
    <!-- Z9854/Z9856/Z9858 -->
    <g style="fill: #1a1a1a" transform="translate(150.128175 316.34378) scale(0.08 -0.08)">
     <defs>
      <path id="DejaVuSerif-Bold-5a" d="M 238 0 
L 238 441 
L 3022 4238 
L 788 4238 
L 788 3541 
L 359 3541 
L 359 4666 
L 4409 4666 
L 4409 4225 
L 1656 428 
L 4013 428 
L 4013 1081 
L 4441 1081 
L 4441 0 
L 238 0 
z
" transform="scale(0.015625)"/>
      <path id="DejaVuSerif-Bold-39" d="M 2181 4384 
Q 1859 4384 1723 4111 
Q 1588 3838 1588 3163 
Q 1588 2488 1723 2214 
Q 1859 1941 2181 1941 
Q 2503 1941 2640 2214 
Q 2778 2488 2778 3163 
Q 2778 3838 2640 4111 
Q 2503 4384 2181 4384 
z
M 2878 1900 
Q 2672 1734 2420 1651 
Q 2169 1569 1875 1569 
Q 1163 1569 755 1986 
Q 347 2403 347 3138 
Q 347 3913 803 4331 
Q 1259 4750 2106 4750 
Q 3063 4750 3556 4172 
Q 4050 3594 4050 2478 
Q 4050 1206 3503 557 
Q 2956 -91 1881 -91 
Q 1600 -91 1278 -44 
Q 956 3 588 97 
L 588 922 
L 966 922 
Q 1044 603 1261 439 
Q 1478 275 1825 275 
Q 2375 275 2625 658 
Q 2875 1041 2878 1900 
z
" transform="scale(0.015625)"/>
      <path id="DejaVuSerif-Bold-35" d="M 3609 4666 
L 3609 3847 
L 1113 3847 
L 1113 2822 
Q 1319 2981 1572 3062 
Q 1825 3144 2106 3144 
Q 2969 3144 3469 2708 
Q 3969 2272 3969 1522 
Q 3969 759 3469 334 
Q 2969 -91 2069 -91 
Q 1688 -91 1311 -28 
Q 934 34 525 166 
L 525 1184 
L 900 1184 
Q 919 725 1139 500 
Q 1359 275 1791 275 
Q 2250 275 2472 583 
Q 2694 891 2694 1522 
Q 2694 2144 2476 2451 
Q 2259 2759 1819 2759 
Q 1581 2759 1395 2661 
Q 1209 2563 1050 2356 
L 738 2356 
L 738 4666 
L 3609 4666 
z
" transform="scale(0.015625)"/>
      <path id="DejaVuSerif-Bold-34" d="M 4084 0 
L 1516 0 
L 1516 378 
L 2209 378 
L 2209 1228 
L 263 1228 
L 263 1588 
L 2216 4750 
L 3391 4750 
L 3391 1631 
L 4191 1631 
L 4191 1228 
L 3391 1228 
L 3391 378 
L 4084 378 
L 4084 0 
z
M 2209 1631 
L 2209 3897 
L 819 1631 
L 2209 1631 
z
" transform="scale(0.015625)"/>
      <path id="DejaVuSerif-Bold-2f" d="M 1644 4666 
L 2338 4666 
L 691 -594 
L 0 -594 
L 1644 4666 
z
" transform="scale(0.015625)"/>
      <path id="DejaVuSerif-Bold-36" d="M 1575 2766 
Q 1778 2928 2029 3009 
Q 2281 3091 2578 3091 
Q 3294 3091 3701 2672 
Q 4109 2253 4109 1522 
Q 4109 750 3650 329 
Q 3191 -91 2344 -91 
Q 1388 -91 895 486 
Q 403 1063 403 2181 
Q 403 3453 950 4101 
Q 1497 4750 2572 4750 
Q 2853 4750 3175 4703 
Q 3497 4656 3866 4563 
L 3866 3738 
L 3488 3738 
Q 3409 4056 3192 4220 
Q 2975 4384 2631 4384 
Q 2075 4384 1826 4003 
Q 1578 3622 1575 2766 
z
M 2272 275 
Q 2594 275 2731 548 
Q 2869 822 2869 1497 
Q 2869 2172 2731 2445 
Q 2594 2719 2272 2719 
Q 1950 2719 1814 2445 
Q 1678 2172 1678 1497 
Q 1678 822 1814 548 
Q 1950 275 2272 275 
z
" transform="scale(0.015625)"/>
     </defs>
     <use xlink:href="#DejaVuSerif-Bold-5a"/>
     <use xlink:href="#DejaVuSerif-Bold-39" x="72.998047"/>
     <use xlink:href="#DejaVuSerif-Bold-38" x="142.578125"/>
     <use xlink:href="#DejaVuSerif-Bold-35" x="212.158203"/>
     <use xlink:href="#DejaVuSerif-Bold-34" x="281.738281"/>
     <use xlink:href="#DejaVuSerif-Bold-2f" x="351.318359"/>
     <use xlink:href="#DejaVuSerif-Bold-5a" x="387.841797"/>
     <use xlink:href="#DejaVuSerif-Bold-39" x="460.839844"/>
     <use xlink:href="#DejaVuSerif-Bold-38" x="530.419922"/>
     <use xlink:href="#DejaVuSerif-Bold-35" x="600"/>
     <use xlink:href="#DejaVuSerif-Bold-36" x="669.580078"/>
     <use xlink:href="#DejaVuSerif-Bold-2f" x="739.160156"/>
     <use xlink:href="#DejaVuSerif-Bold-5a" x="775.683594"/>
     <use xlink:href="#DejaVuSerif-Bold-39" x="848.681641"/>
     <use xlink:href="#DejaVuSerif-Bold-38" x="918.261719"/>
     <use xlink:href="#DejaVuSerif-Bold-35" x="987.841797"/>
     <use xlink:href="#DejaVuSerif-Bold-38" x="1057.421875"/>
    </g>
   </g>
   <g id="text_20">
    <g id="patch_33">
     <path d="M 619.055398 509.869103 
L 678.187898 509.869103 
Q 680.587898 509.869103 680.587898 507.469103 
L 680.587898 489.552603 
Q 680.587898 487.152603 678.187898 487.152603 
L 619.055398 487.152603 
Q 616.655398 487.152603 616.655398 489.552603 
L 616.655398 507.469103 
Q 616.655398 509.869103 619.055398 509.869103 
z
" style="fill: #ffffff; opacity: 0.85; stroke: #cccccc; stroke-width: 0.7; stroke-linejoin: miter"/>
    </g>
    <!-- H02 -->
    <g style="fill: #1a1a1a" transform="translate(639.276023 495.631353) scale(0.08 -0.08)">
     <defs>
      <path id="DejaVuSerif-Bold-32" d="M 844 3513 
L 469 3513 
L 469 4519 
Q 850 4634 1223 4692 
Q 1597 4750 1978 4750 
Q 2869 4750 3367 4386 
Q 3866 4022 3866 3372 
Q 3866 2909 3591 2542 
Q 3316 2175 2541 1672 
L 1241 819 
L 3450 819 
L 3450 1369 
L 3878 1369 
L 3878 0 
L 428 0 
L 428 763 
L 1119 1241 
Q 2003 1850 2297 2278 
Q 2591 2706 2591 3278 
Q 2591 3819 2367 4101 
Q 2144 4384 1716 4384 
Q 1347 4384 1125 4161 
Q 903 3938 844 3513 
z
" transform="scale(0.015625)"/>
     </defs>
     <use xlink:href="#DejaVuSerif-Bold-48"/>
     <use xlink:href="#DejaVuSerif-Bold-30" x="94.482422"/>
     <use xlink:href="#DejaVuSerif-Bold-32" x="164.0625"/>
    </g>
    <!-- Z9850/Z9867 -->
    <g style="fill: #1a1a1a" transform="translate(619.055398 505.805353) scale(0.08 -0.08)">
     <defs>
      <path id="DejaVuSerif-Bold-37" d="M 3922 3872 
L 1997 0 
L 1363 0 
L 3238 3781 
L 934 3781 
L 934 3150 
L 506 3150 
L 506 4666 
L 3922 4666 
L 3922 3872 
z
" transform="scale(0.015625)"/>
     </defs>
     <use xlink:href="#DejaVuSerif-Bold-5a"/>
     <use xlink:href="#DejaVuSerif-Bold-39" x="72.998047"/>
     <use xlink:href="#DejaVuSerif-Bold-38" x="142.578125"/>
     <use xlink:href="#DejaVuSerif-Bold-35" x="212.158203"/>
     <use xlink:href="#DejaVuSerif-Bold-30" x="281.738281"/>
     <use xlink:href="#DejaVuSerif-Bold-2f" x="351.318359"/>
     <use xlink:href="#DejaVuSerif-Bold-5a" x="387.841797"/>
     <use xlink:href="#DejaVuSerif-Bold-39" x="460.839844"/>
     <use xlink:href="#DejaVuSerif-Bold-38" x="530.419922"/>
     <use xlink:href="#DejaVuSerif-Bold-36" x="600"/>
     <use xlink:href="#DejaVuSerif-Bold-37" x="669.580078"/>
    </g>
   </g>
   <g id="text_21">
    <g id="patch_34">
     <path d="M 799.333996 438.967228 
L 828.552746 438.967228 
Q 830.952746 438.967228 830.952746 436.567228 
L 830.952746 418.650728 
Q 830.952746 416.250728 828.552746 416.250728 
L 799.333996 416.250728 
Q 796.933996 416.250728 796.933996 418.650728 
L 796.933996 436.567228 
Q 796.933996 438.967228 799.333996 438.967228 
z
" style="fill: #ffffff; opacity: 0.85; stroke: #cccccc; stroke-width: 0.7; stroke-linejoin: miter"/>
    </g>
    <!-- H03 -->
    <g style="fill: #1a1a1a" transform="translate(804.597746 424.729478) scale(0.08 -0.08)">
     <defs>
      <path id="DejaVuSerif-Bold-33" d="M 550 4531 
Q 963 4641 1350 4695 
Q 1738 4750 2106 4750 
Q 2950 4750 3401 4448 
Q 3853 4147 3853 3584 
Q 3853 3163 3593 2900 
Q 3334 2638 2834 2547 
Q 3444 2450 3744 2131 
Q 4044 1813 4044 1259 
Q 4044 606 3526 257 
Q 3009 -91 2028 -91 
Q 1659 -91 1267 -28 
Q 875 34 447 159 
L 447 1184 
L 825 1184 
Q 859 741 1103 508 
Q 1347 275 1778 275 
Q 2253 275 2512 539 
Q 2772 803 2772 1288 
Q 2772 1794 2501 2069 
Q 2231 2344 1734 2344 
L 1528 2344 
L 1528 2719 
L 1691 2719 
Q 2150 2719 2381 2931 
Q 2613 3144 2613 3566 
Q 2613 3963 2395 4173 
Q 2178 4384 1772 4384 
Q 1403 4384 1187 4182 
Q 972 3981 928 3597 
L 550 3597 
L 550 4531 
z
" transform="scale(0.015625)"/>
     </defs>
     <use xlink:href="#DejaVuSerif-Bold-48"/>
     <use xlink:href="#DejaVuSerif-Bold-30" x="94.482422"/>
     <use xlink:href="#DejaVuSerif-Bold-33" x="164.0625"/>
    </g>
    <!-- K0909 -->
    <g style="fill: #1a1a1a" transform="translate(799.333996 434.903478) scale(0.08 -0.08)">
     <defs>
      <path id="DejaVuSerif-Bold-4b" d="M 300 0 
L 300 378 
L 897 378 
L 897 4288 
L 300 4288 
L 300 4666 
L 2700 4666 
L 2700 4288 
L 2100 4288 
L 2100 2584 
L 4078 4288 
L 3578 4288 
L 3578 4666 
L 5319 4666 
L 5319 4288 
L 4697 4288 
L 3022 2847 
L 5300 378 
L 5759 378 
L 5759 0 
L 4178 0 
L 2100 2266 
L 2100 378 
L 2700 378 
L 2700 0 
L 300 0 
z
" transform="scale(0.015625)"/>
     </defs>
     <use xlink:href="#DejaVuSerif-Bold-4b"/>
     <use xlink:href="#DejaVuSerif-Bold-30" x="86.914062"/>
     <use xlink:href="#DejaVuSerif-Bold-39" x="156.494141"/>
     <use xlink:href="#DejaVuSerif-Bold-30" x="226.074219"/>
     <use xlink:href="#DejaVuSerif-Bold-39" x="295.654297"/>
    </g>
   </g>
   <g id="text_22">
    <g id="patch_35">
     <path d="M 282.311234 396.505542 
L 311.529984 396.505542 
Q 313.929984 396.505542 313.929984 394.105542 
L 313.929984 376.189042 
Q 313.929984 373.789042 311.529984 373.789042 
L 282.311234 373.789042 
Q 279.911234 373.789042 279.911234 376.189042 
L 279.911234 394.105542 
Q 279.911234 396.505542 282.311234 396.505542 
z
" style="fill: #ffffff; opacity: 0.85; stroke: #cccccc; stroke-width: 0.7; stroke-linejoin: miter"/>
    </g>
    <!-- H04 -->
    <g style="fill: #1a1a1a" transform="translate(287.574984 382.267792) scale(0.08 -0.08)">
     <use xlink:href="#DejaVuSerif-Bold-48"/>
     <use xlink:href="#DejaVuSerif-Bold-30" x="94.482422"/>
     <use xlink:href="#DejaVuSerif-Bold-34" x="164.0625"/>
    </g>
    <!-- K0914 -->
    <g style="fill: #1a1a1a" transform="translate(282.311234 392.441792) scale(0.08 -0.08)">
     <use xlink:href="#DejaVuSerif-Bold-4b"/>
     <use xlink:href="#DejaVuSerif-Bold-30" x="86.914062"/>
     <use xlink:href="#DejaVuSerif-Bold-39" x="156.494141"/>
     <use xlink:href="#DejaVuSerif-Bold-31" x="226.074219"/>
     <use xlink:href="#DejaVuSerif-Bold-34" x="295.654297"/>
    </g>
   </g>
   <g id="text_23">
    <g id="patch_36">
     <path d="M 777.096703 680.869117 
L 805.201703 680.869117 
Q 807.601703 680.869117 807.601703 678.469117 
L 807.601703 660.552617 
Q 807.601703 658.152617 805.201703 658.152617 
L 777.096703 658.152617 
Q 774.696703 658.152617 774.696703 660.552617 
L 774.696703 678.469117 
Q 774.696703 680.869117 777.096703 680.869117 
z
" style="fill: #ffffff; opacity: 0.85; stroke: #cccccc; stroke-width: 0.7; stroke-linejoin: miter"/>
    </g>
    <!-- H05 -->
    <g style="fill: #1a1a1a" transform="translate(781.803578 666.631367) scale(0.08 -0.08)">
     <use xlink:href="#DejaVuSerif-Bold-48"/>
     <use xlink:href="#DejaVuSerif-Bold-30" x="94.482422"/>
     <use xlink:href="#DejaVuSerif-Bold-35" x="164.0625"/>
    </g>
    <!-- Z9851 -->
    <g style="fill: #1a1a1a" transform="translate(777.096703 676.805367) scale(0.08 -0.08)">
     <use xlink:href="#DejaVuSerif-Bold-5a"/>
     <use xlink:href="#DejaVuSerif-Bold-39" x="72.998047"/>
     <use xlink:href="#DejaVuSerif-Bold-38" x="142.578125"/>
     <use xlink:href="#DejaVuSerif-Bold-35" x="212.158203"/>
     <use xlink:href="#DejaVuSerif-Bold-31" x="281.738281"/>
    </g>
   </g>
   <g id="text_24">
    <g id="patch_37">
     <path d="M 419.817901 542.865079 
L 447.922901 542.865079 
Q 450.322901 542.865079 450.322901 540.465079 
L 450.322901 522.548579 
Q 450.322901 520.148579 447.922901 520.148579 
L 419.817901 520.148579 
Q 417.417901 520.148579 417.417901 522.548579 
L 417.417901 540.465079 
Q 417.417901 542.865079 419.817901 542.865079 
z
" style="fill: #ffffff; opacity: 0.85; stroke: #cccccc; stroke-width: 0.7; stroke-linejoin: miter"/>
    </g>
    <!-- H06 -->
    <g style="fill: #1a1a1a" transform="translate(424.524776 528.627329) scale(0.08 -0.08)">
     <use xlink:href="#DejaVuSerif-Bold-48"/>
     <use xlink:href="#DejaVuSerif-Bold-30" x="94.482422"/>
     <use xlink:href="#DejaVuSerif-Bold-36" x="164.0625"/>
    </g>
    <!-- Z9852 -->
    <g style="fill: #1a1a1a" transform="translate(419.817901 538.801329) scale(0.08 -0.08)">
     <use xlink:href="#DejaVuSerif-Bold-5a"/>
     <use xlink:href="#DejaVuSerif-Bold-39" x="72.998047"/>
     <use xlink:href="#DejaVuSerif-Bold-38" x="142.578125"/>
     <use xlink:href="#DejaVuSerif-Bold-35" x="212.158203"/>
     <use xlink:href="#DejaVuSerif-Bold-32" x="281.738281"/>
    </g>
   </g>
   <g id="text_25">
    <g id="patch_38">
     <path d="M 175.003464 70.953167 
L 203.108464 70.953167 
Q 205.508464 70.953167 205.508464 68.553167 
L 205.508464 50.636667 
Q 205.508464 48.236667 203.108464 48.236667 
L 175.003464 48.236667 
Q 172.603464 48.236667 172.603464 50.636667 
L 172.603464 68.553167 
Q 172.603464 70.953167 175.003464 70.953167 
z
" style="fill: #ffffff; opacity: 0.85; stroke: #cccccc; stroke-width: 0.7; stroke-linejoin: miter"/>
    </g>
    <!-- H07 -->
    <g style="fill: #1a1a1a" transform="translate(179.710339 56.715417) scale(0.08 -0.08)">
     <use xlink:href="#DejaVuSerif-Bold-48"/>
     <use xlink:href="#DejaVuSerif-Bold-30" x="94.482422"/>
     <use xlink:href="#DejaVuSerif-Bold-37" x="164.0625"/>
    </g>
    <!-- Z9853 -->
    <g style="fill: #1a1a1a" transform="translate(175.003464 66.889417) scale(0.08 -0.08)">
     <use xlink:href="#DejaVuSerif-Bold-5a"/>
     <use xlink:href="#DejaVuSerif-Bold-39" x="72.998047"/>
     <use xlink:href="#DejaVuSerif-Bold-38" x="142.578125"/>
     <use xlink:href="#DejaVuSerif-Bold-35" x="212.158203"/>
     <use xlink:href="#DejaVuSerif-Bold-33" x="281.738281"/>
    </g>
   </g>
   <g id="text_26">
    <g id="patch_39">
     <path d="M 36.004129 286.023967 
L 64.109129 286.023967 
Q 66.509129 286.023967 66.509129 283.623967 
L 66.509129 265.707467 
Q 66.509129 263.307467 64.109129 263.307467 
L 36.004129 263.307467 
Q 33.604129 263.307467 33.604129 265.707467 
L 33.604129 283.623967 
Q 33.604129 286.023967 36.004129 286.023967 
z
" style="fill: #ffffff; opacity: 0.85; stroke: #cccccc; stroke-width: 0.7; stroke-linejoin: miter"/>
    </g>
    <!-- H08 -->
    <g style="fill: #1a1a1a" transform="translate(40.711004 271.786217) scale(0.08 -0.08)">
     <use xlink:href="#DejaVuSerif-Bold-48"/>
     <use xlink:href="#DejaVuSerif-Bold-30" x="94.482422"/>
     <use xlink:href="#DejaVuSerif-Bold-38" x="164.0625"/>
    </g>
    <!-- Z9855 -->
    <g style="fill: #1a1a1a" transform="translate(36.004129 281.960217) scale(0.08 -0.08)">
     <use xlink:href="#DejaVuSerif-Bold-5a"/>
     <use xlink:href="#DejaVuSerif-Bold-39" x="72.998047"/>
     <use xlink:href="#DejaVuSerif-Bold-38" x="142.578125"/>
     <use xlink:href="#DejaVuSerif-Bold-35" x="212.158203"/>
     <use xlink:href="#DejaVuSerif-Bold-35" x="281.738281"/>
    </g>
   </g>
   <g id="text_27">
    <g id="patch_40">
     <path d="M 546.185644 617.628207 
L 574.290644 617.628207 
Q 576.690644 617.628207 576.690644 615.228207 
L 576.690644 597.311707 
Q 576.690644 594.911707 574.290644 594.911707 
L 546.185644 594.911707 
Q 543.785644 594.911707 543.785644 597.311707 
L 543.785644 615.228207 
Q 543.785644 617.628207 546.185644 617.628207 
z
" style="fill: #ffffff; opacity: 0.85; stroke: #cccccc; stroke-width: 0.7; stroke-linejoin: miter"/>
    </g>
    <!-- H09 -->
    <g style="fill: #1a1a1a" transform="translate(550.892519 603.390457) scale(0.08 -0.08)">
     <use xlink:href="#DejaVuSerif-Bold-48"/>
     <use xlink:href="#DejaVuSerif-Bold-30" x="94.482422"/>
     <use xlink:href="#DejaVuSerif-Bold-39" x="164.0625"/>
    </g>
    <!-- Z9857 -->
    <g style="fill: #1a1a1a" transform="translate(546.185644 613.564457) scale(0.08 -0.08)">
     <use xlink:href="#DejaVuSerif-Bold-5a"/>
     <use xlink:href="#DejaVuSerif-Bold-39" x="72.998047"/>
     <use xlink:href="#DejaVuSerif-Bold-38" x="142.578125"/>
     <use xlink:href="#DejaVuSerif-Bold-35" x="212.158203"/>
     <use xlink:href="#DejaVuSerif-Bold-37" x="281.738281"/>
    </g>
   </g>
   <g id="text_28">
    <g id="patch_41">
     <path d="M 609.751858 698.4813 
L 637.856858 698.4813 
Q 640.256858 698.4813 640.256858 696.0813 
L 640.256858 678.1648 
Q 640.256858 675.7648 637.856858 675.7648 
L 609.751858 675.7648 
Q 607.351858 675.7648 607.351858 678.1648 
L 607.351858 696.0813 
Q 607.351858 698.4813 609.751858 698.4813 
z
" style="fill: #ffffff; opacity: 0.85; stroke: #cccccc; stroke-width: 0.7; stroke-linejoin: miter"/>
    </g>
    <!-- H10 -->
    <g style="fill: #1a1a1a" transform="translate(614.458733 684.24355) scale(0.08 -0.08)">
     <use xlink:href="#DejaVuSerif-Bold-48"/>
     <use xlink:href="#DejaVuSerif-Bold-31" x="94.482422"/>
     <use xlink:href="#DejaVuSerif-Bold-30" x="164.0625"/>
    </g>
    <!-- Z9859 -->
    <g style="fill: #1a1a1a" transform="translate(609.751858 694.41755) scale(0.08 -0.08)">
     <use xlink:href="#DejaVuSerif-Bold-5a"/>
     <use xlink:href="#DejaVuSerif-Bold-39" x="72.998047"/>
     <use xlink:href="#DejaVuSerif-Bold-38" x="142.578125"/>
     <use xlink:href="#DejaVuSerif-Bold-35" x="212.158203"/>
     <use xlink:href="#DejaVuSerif-Bold-39" x="281.738281"/>
    </g>
   </g>
   <g id="text_29">
    <g id="patch_42">
     <path d="M 684.87218 455.806806 
L 712.97718 455.806806 
Q 715.37718 455.806806 715.37718 453.406806 
L 715.37718 435.490306 
Q 715.37718 433.090306 712.97718 433.090306 
L 684.87218 433.090306 
Q 682.47218 433.090306 682.47218 435.490306 
L 682.47218 453.406806 
Q 682.47218 455.806806 684.87218 455.806806 
z
" style="fill: #ffffff; opacity: 0.85; stroke: #cccccc; stroke-width: 0.7; stroke-linejoin: miter"/>
    </g>
    <!-- H11 -->
    <g style="fill: #1a1a1a" transform="translate(689.579055 441.569056) scale(0.08 -0.08)">
     <use xlink:href="#DejaVuSerif-Bold-48"/>
     <use xlink:href="#DejaVuSerif-Bold-31" x="94.482422"/>
     <use xlink:href="#DejaVuSerif-Bold-31" x="164.0625"/>
    </g>
    <!-- Z9860 -->
    <g style="fill: #1a1a1a" transform="translate(684.87218 451.743056) scale(0.08 -0.08)">
     <use xlink:href="#DejaVuSerif-Bold-5a"/>
     <use xlink:href="#DejaVuSerif-Bold-39" x="72.998047"/>
     <use xlink:href="#DejaVuSerif-Bold-38" x="142.578125"/>
     <use xlink:href="#DejaVuSerif-Bold-36" x="212.158203"/>
     <use xlink:href="#DejaVuSerif-Bold-30" x="281.738281"/>
    </g>
   </g>
   <g id="text_30">
    <g id="patch_43">
     <path d="M 541.39075 471.269443 
L 569.49575 471.269443 
Q 571.89575 471.269443 571.89575 468.869443 
L 571.89575 450.952943 
Q 571.89575 448.552943 569.49575 448.552943 
L 541.39075 448.552943 
Q 538.99075 448.552943 538.99075 450.952943 
L 538.99075 468.869443 
Q 538.99075 471.269443 541.39075 471.269443 
z
" style="fill: #ffffff; opacity: 0.85; stroke: #cccccc; stroke-width: 0.7; stroke-linejoin: miter"/>
    </g>
    <!-- H12 -->
    <g style="fill: #1a1a1a" transform="translate(546.097625 457.031693) scale(0.08 -0.08)">
     <use xlink:href="#DejaVuSerif-Bold-48"/>
     <use xlink:href="#DejaVuSerif-Bold-31" x="94.482422"/>
     <use xlink:href="#DejaVuSerif-Bold-32" x="164.0625"/>
    </g>
    <!-- Z9861 -->
    <g style="fill: #1a1a1a" transform="translate(541.39075 467.205693) scale(0.08 -0.08)">
     <use xlink:href="#DejaVuSerif-Bold-5a"/>
     <use xlink:href="#DejaVuSerif-Bold-39" x="72.998047"/>
     <use xlink:href="#DejaVuSerif-Bold-38" x="142.578125"/>
     <use xlink:href="#DejaVuSerif-Bold-36" x="212.158203"/>
     <use xlink:href="#DejaVuSerif-Bold-31" x="281.738281"/>
    </g>
   </g>
   <g id="text_31">
    <g id="patch_44">
     <path d="M 252.779744 195.55786 
L 280.884744 195.55786 
Q 283.284744 195.55786 283.284744 193.15786 
L 283.284744 175.24136 
Q 283.284744 172.84136 280.884744 172.84136 
L 252.779744 172.84136 
Q 250.379744 172.84136 250.379744 175.24136 
L 250.379744 193.15786 
Q 250.379744 195.55786 252.779744 195.55786 
z
" style="fill: #ffffff; opacity: 0.85; stroke: #cccccc; stroke-width: 0.7; stroke-linejoin: miter"/>
    </g>
    <!-- H13 -->
    <g style="fill: #1a1a1a" transform="translate(257.486619 181.32011) scale(0.08 -0.08)">
     <use xlink:href="#DejaVuSerif-Bold-48"/>
     <use xlink:href="#DejaVuSerif-Bold-31" x="94.482422"/>
     <use xlink:href="#DejaVuSerif-Bold-33" x="164.0625"/>
    </g>
    <!-- Z9863 -->
    <g style="fill: #1a1a1a" transform="translate(252.779744 191.49411) scale(0.08 -0.08)">
     <use xlink:href="#DejaVuSerif-Bold-5a"/>
     <use xlink:href="#DejaVuSerif-Bold-39" x="72.998047"/>
     <use xlink:href="#DejaVuSerif-Bold-38" x="142.578125"/>
     <use xlink:href="#DejaVuSerif-Bold-36" x="212.158203"/>
     <use xlink:href="#DejaVuSerif-Bold-33" x="281.738281"/>
    </g>
   </g>
   <g id="text_32">
    <g id="patch_45">
     <path d="M 652.642988 623.655443 
L 680.747988 623.655443 
Q 683.147988 623.655443 683.147988 621.255443 
L 683.147988 603.338943 
Q 683.147988 600.938943 680.747988 600.938943 
L 652.642988 600.938943 
Q 650.242988 600.938943 650.242988 603.338943 
L 650.242988 621.255443 
Q 650.242988 623.655443 652.642988 623.655443 
z
" style="fill: #ffffff; opacity: 0.85; stroke: #cccccc; stroke-width: 0.7; stroke-linejoin: miter"/>
    </g>
    <!-- H14 -->
    <g style="fill: #1a1a1a" transform="translate(657.349863 609.417693) scale(0.08 -0.08)">
     <use xlink:href="#DejaVuSerif-Bold-48"/>
     <use xlink:href="#DejaVuSerif-Bold-31" x="94.482422"/>
     <use xlink:href="#DejaVuSerif-Bold-34" x="164.0625"/>
    </g>
    <!-- Z9864 -->
    <g style="fill: #1a1a1a" transform="translate(652.642988 619.591693) scale(0.08 -0.08)">
     <use xlink:href="#DejaVuSerif-Bold-5a"/>
     <use xlink:href="#DejaVuSerif-Bold-39" x="72.998047"/>
     <use xlink:href="#DejaVuSerif-Bold-38" x="142.578125"/>
     <use xlink:href="#DejaVuSerif-Bold-36" x="212.158203"/>
     <use xlink:href="#DejaVuSerif-Bold-34" x="281.738281"/>
    </g>
   </g>
   <g id="text_33">
    <g id="patch_46">
     <path d="M 767.469184 575.914743 
L 795.574184 575.914743 
Q 797.974184 575.914743 797.974184 573.514743 
L 797.974184 555.598243 
Q 797.974184 553.198243 795.574184 553.198243 
L 767.469184 553.198243 
Q 765.069184 553.198243 765.069184 555.598243 
L 765.069184 573.514743 
Q 765.069184 575.914743 767.469184 575.914743 
z
" style="fill: #ffffff; opacity: 0.85; stroke: #cccccc; stroke-width: 0.7; stroke-linejoin: miter"/>
    </g>
    <!-- H15 -->
    <g style="fill: #1a1a1a" transform="translate(772.176059 561.676993) scale(0.08 -0.08)">
     <use xlink:href="#DejaVuSerif-Bold-48"/>
     <use xlink:href="#DejaVuSerif-Bold-31" x="94.482422"/>
     <use xlink:href="#DejaVuSerif-Bold-35" x="164.0625"/>
    </g>
    <!-- Z9865 -->
    <g style="fill: #1a1a1a" transform="translate(767.469184 571.850993) scale(0.08 -0.08)">
     <use xlink:href="#DejaVuSerif-Bold-5a"/>
     <use xlink:href="#DejaVuSerif-Bold-39" x="72.998047"/>
     <use xlink:href="#DejaVuSerif-Bold-38" x="142.578125"/>
     <use xlink:href="#DejaVuSerif-Bold-36" x="212.158203"/>
     <use xlink:href="#DejaVuSerif-Bold-35" x="281.738281"/>
    </g>
   </g>
  </g>
 </g>
 <defs>
  <clipPath id="p1e9871fe9c">
   <rect x="25.420696" y="28.8" width="813.158609" height="676.8"/>
  </clipPath>
 </defs>
</svg>
